<svg xmlns="http://www.w3.org/2000/svg" xmlns:xlink="http://www.w3.org/1999/xlink" contentStyleType="text/css" data-diagram-type="SEQUENCE" height="1141px" preserveAspectRatio="none" style="width:1181px;height:1141px;background:#FFFFFF;" version="1.1" viewBox="0 0 1181 1141" width="1181px" zoomAndPan="magnify"><?plantuml 1.2026.6?><defs/><g><rect fill="#C9FFC9" height="1115.2188" style="stroke:#181818;stroke-width:0.5;" width="496.7573" x="16" y="11"/><text fill="#000000" font-family="Helvetica" font-size="10" font-weight="700" x="234.408" y="20.2822">Anbieter A</text><rect fill="#F4A460" height="1098.5781" style="stroke:#181818;stroke-width:0.5;" width="317.4082" x="16" y="27.6406"/><text fill="#000000" font-family="Helvetica" font-size="10" font-weight="700" x="135.9492" y="36.9229">ZETA Guard A</text><rect fill="#8FBC8F" height="1098.5781" style="stroke:#181818;stroke-width:0.5;" width="106.8027" x="405.9546" y="27.6406"/><text fill="#000000" font-family="Helvetica" font-size="10" font-weight="700" x="417.9546" y="36.9229">TI 2.0 Dienst A</text><rect fill="#C9FFC9" height="1115.2188" style="stroke:#181818;stroke-width:0.5;" width="576.3906" x="589.6167" y="11"/><text fill="#000000" font-family="Helvetica" font-size="10" font-weight="700" x="847.8999" y="20.2822">Anbieter B</text><rect fill="#F4A460" height="1098.5781" style="stroke:#181818;stroke-width:0.5;" width="457.7051" x="589.6167" y="27.6406"/><text fill="#000000" font-family="Helvetica" font-size="10" font-weight="700" x="779.7729" y="36.9229">ZETA Guard B</text><rect fill="#8FBC8F" height="1098.5781" style="stroke:#181818;stroke-width:0.5;" width="106.6855" x="1059.3218" y="27.6406"/><text fill="#000000" font-family="Helvetica" font-size="10" font-weight="700" x="1071.3218" y="36.9229">TI 2.0 Dienst B</text><g><title>cronjob Pod</title><rect fill="#000000" fill-opacity="0.00000" height="1000.375" width="8" x="52.9922" y="81.5625"/><line style="stroke:#181818;stroke-width:0.5;stroke-dasharray:5,5;" x1="56.4922" x2="56.4922" y1="81.5625" y2="1081.9375"/></g><g><title/><rect fill="#FFFFFF" height="537.8125" style="stroke:#181818;stroke-width:1;" width="10" x="51.4922" y="203.0781"/></g><g><title>ZETA Guard</title><rect fill="#000000" fill-opacity="0.00000" height="1000.375" width="8" x="206.6221" y="81.5625"/><line style="stroke:#181818;stroke-width:0.5;stroke-dasharray:5,5;" x1="210.1221" x2="210.1221" y1="81.5625" y2="1081.9375"/></g><g><title/><rect fill="#FFFFFF" height="25.6406" style="stroke:#181818;stroke-width:1;" width="10" x="205.1221" y="220.7188"/></g><g><title/><rect fill="#FFFFFF" height="25.6406" style="stroke:#181818;stroke-width:1;" width="10" x="205.1221" y="309.2813"/></g><g><title/><rect fill="#FFFFFF" height="25.6406" style="stroke:#181818;stroke-width:1;" width="10" x="205.1221" y="360.5625"/></g><g><title>etcd</title><rect fill="#000000" fill-opacity="0.00000" height="1000.375" width="8" x="307.9487" y="81.5625"/><line style="stroke:#181818;stroke-width:0.5;stroke-dasharray:5,5;" x1="311.4487" x2="311.4487" y1="81.5625" y2="1081.9375"/></g><g><title/><rect fill="#FFFFFF" height="878.8594" style="stroke:#181818;stroke-width:1;" width="10" x="306.4487" y="203.0781"/></g><g><title>Resource Server</title><rect fill="#000000" fill-opacity="0.00000" height="1000.375" width="8" x="455.856" y="81.5625"/><line style="stroke:#181818;stroke-width:0.5;stroke-dasharray:5,5;" x1="459.356" x2="459.356" y1="81.5625" y2="1081.9375"/></g><g><title/><rect fill="#FFFFFF" height="299.4063" style="stroke:#181818;stroke-width:1;" width="10" x="454.356" y="782.5313"/></g><g><title>gematik</title><rect fill="#000000" fill-opacity="0.00000" height="1000.375" width="8" x="552.687" y="81.5625"/><line style="stroke:#181818;stroke-width:0.5;stroke-dasharray:5,5;" x1="556.187" x2="556.187" y1="81.5625" y2="1081.9375"/></g><g><title>ZETA Guard</title><rect fill="#000000" fill-opacity="0.00000" height="1000.375" width="8" x="663.4839" y="81.5625"/><line style="stroke:#181818;stroke-width:0.5;stroke-dasharray:5,5;" x1="666.9839" x2="666.9839" y1="81.5625" y2="1081.9375"/></g><g><title/><rect fill="#FFFFFF" height="435.25" style="stroke:#181818;stroke-width:1;" width="10" x="661.9839" y="283.6406"/></g><g><title>PEP</title><rect fill="#000000" fill-opacity="0.00000" height="1000.375" width="8" x="820.5415" y="81.5625"/><line style="stroke:#181818;stroke-width:0.5;stroke-dasharray:5,5;" x1="824.0415" x2="824.0415" y1="81.5625" y2="1081.9375"/></g><g><title/><rect fill="#FFFFFF" height="198.4844" style="stroke:#181818;stroke-width:1;" width="10" x="819.0415" y="837.4531"/></g><g><title>Policy Engine</title><rect fill="#000000" fill-opacity="0.00000" height="1000.375" width="8" x="999.5356" y="81.5625"/><line style="stroke:#181818;stroke-width:0.5;stroke-dasharray:5,5;" x1="1003.0356" x2="1003.0356" y1="81.5625" y2="1081.9375"/></g><g><title/><rect fill="#FFFFFF" height="25.6406" style="stroke:#181818;stroke-width:1;" width="10" x="998.0356" y="489.7656"/></g><g><title>Resource Server</title><rect fill="#000000" fill-opacity="0.00000" height="1000.375" width="8" x="1109.1646" y="81.5625"/><line style="stroke:#181818;stroke-width:0.5;stroke-dasharray:5,5;" x1="1112.6646" x2="1112.6646" y1="81.5625" y2="1081.9375"/></g><g><title/><rect fill="#FFFFFF" height="25.6406" style="stroke:#181818;stroke-width:1;" width="10" x="1107.6646" y="929.375"/></g><rect fill="#E2E2F0" height="25.6406" rx="2.5" ry="2.5" style="stroke:#181818;stroke-width:0.5;" width="72.9844" x="20" y="54.9219"/><text fill="#000000" font-family="Helvetica" font-size="10" x="27" y="71.2041">cronjob Pod</text><rect fill="#E2E2F0" height="37.2813" rx="2.5" ry="2.5" style="stroke:#181818;stroke-width:0.5;" width="146.7344" x="136.7549" y="43.2813"/><text fill="#000000" font-family="Helvetica" font-size="10" x="180.1367" y="59.5635">ZETA Guard</text><text fill="#000000" font-family="Helvetica" font-size="10" x="143.7549" y="71.2041">Authorization Server (STS)</text><rect fill="#E2E2F0" height="25.6406" rx="2.5" ry="2.5" style="stroke:#181818;stroke-width:0.5;" width="35.9189" x="293.4893" y="54.9219"/><text fill="#000000" font-family="Helvetica" font-size="10" x="300.4893" y="71.2041">etcd</text><rect fill="#E2E2F0" height="37.2813" rx="2.5" ry="2.5" style="stroke:#181818;stroke-width:0.5;" width="96.5" x="411.106" y="43.2813"/><text fill="#000000" font-family="Helvetica" font-size="10" x="418.106" y="59.5635">Resource Server</text><text fill="#000000" font-family="Helvetica" font-size="10" x="435.7158" y="71.2041">Workload</text><rect fill="#E2E2F0" height="25.6406" rx="2.5" ry="2.5" style="stroke:#181818;stroke-width:0.5;" width="54.8594" x="528.7573" y="54.9219"/><text fill="#000000" font-family="Helvetica" font-size="10" x="535.7573" y="71.2041">gematik</text><rect fill="#E2E2F0" height="37.2813" rx="2.5" ry="2.5" style="stroke:#181818;stroke-width:0.5;" width="146.7344" x="593.6167" y="43.2813"/><text fill="#000000" font-family="Helvetica" font-size="10" x="636.9985" y="59.5635">ZETA Guard</text><text fill="#000000" font-family="Helvetica" font-size="10" x="600.6167" y="71.2041">Authorization Server (STS)</text><rect fill="#E2E2F0" height="37.2813" rx="2.5" ry="2.5" style="stroke:#181818;stroke-width:0.5;" width="71.041" x="788.521" y="43.2813"/><text fill="#000000" font-family="Helvetica" font-size="10" x="814.8521" y="59.5635">PEP</text><text fill="#000000" font-family="Helvetica" font-size="10" x="795.521" y="71.2041">HTTP Proxy</text><rect fill="#E2E2F0" height="37.2813" rx="2.5" ry="2.5" style="stroke:#181818;stroke-width:0.5;" width="80.5723" x="962.7495" y="43.2813"/><text fill="#000000" font-family="Helvetica" font-size="10" x="969.7495" y="59.5635">Policy Engine</text><text fill="#000000" font-family="Helvetica" font-size="10" x="988.7632" y="71.2041">(OPA)</text><rect fill="#E2E2F0" height="25.6406" rx="2.5" ry="2.5" style="stroke:#181818;stroke-width:0.5;" width="96.5" x="1064.4146" y="54.9219"/><text fill="#000000" font-family="Helvetica" font-size="10" x="1071.4146" y="71.2041">Resource Server</text><rect fill="#E2E2F0" height="25.6406" rx="2.5" ry="2.5" style="stroke:#181818;stroke-width:0.5;" width="72.9844" x="20" y="1081.9375"/><text fill="#000000" font-family="Helvetica" font-size="10" x="27" y="1098.2197">cronjob Pod</text><rect fill="#E2E2F0" height="37.2813" rx="2.5" ry="2.5" style="stroke:#181818;stroke-width:0.5;" width="146.7344" x="136.7549" y="1081.9375"/><text fill="#000000" font-family="Helvetica" font-size="10" x="180.1367" y="1098.2197">ZETA Guard</text><text fill="#000000" font-family="Helvetica" font-size="10" x="143.7549" y="1109.8604">Authorization Server (STS)</text><rect fill="#E2E2F0" height="25.6406" rx="2.5" ry="2.5" style="stroke:#181818;stroke-width:0.5;" width="35.9189" x="293.4893" y="1081.9375"/><text fill="#000000" font-family="Helvetica" font-size="10" x="300.4893" y="1098.2197">etcd</text><rect fill="#E2E2F0" height="37.2813" rx="2.5" ry="2.5" style="stroke:#181818;stroke-width:0.5;" width="96.5" x="411.106" y="1081.9375"/><text fill="#000000" font-family="Helvetica" font-size="10" x="418.106" y="1098.2197">Resource Server</text><text fill="#000000" font-family="Helvetica" font-size="10" x="435.7158" y="1109.8604">Workload</text><rect fill="#E2E2F0" height="25.6406" rx="2.5" ry="2.5" style="stroke:#181818;stroke-width:0.5;" width="54.8594" x="528.7573" y="1081.9375"/><text fill="#000000" font-family="Helvetica" font-size="10" x="535.7573" y="1098.2197">gematik</text><rect fill="#E2E2F0" height="37.2813" rx="2.5" ry="2.5" style="stroke:#181818;stroke-width:0.5;" width="146.7344" x="593.6167" y="1081.9375"/><text fill="#000000" font-family="Helvetica" font-size="10" x="636.9985" y="1098.2197">ZETA Guard</text><text fill="#000000" font-family="Helvetica" font-size="10" x="600.6167" y="1109.8604">Authorization Server (STS)</text><rect fill="#E2E2F0" height="37.2813" rx="2.5" ry="2.5" style="stroke:#181818;stroke-width:0.5;" width="71.041" x="788.521" y="1081.9375"/><text fill="#000000" font-family="Helvetica" font-size="10" x="814.8521" y="1098.2197">PEP</text><text fill="#000000" font-family="Helvetica" font-size="10" x="795.521" y="1109.8604">HTTP Proxy</text><rect fill="#E2E2F0" height="37.2813" rx="2.5" ry="2.5" style="stroke:#181818;stroke-width:0.5;" width="80.5723" x="962.7495" y="1081.9375"/><text fill="#000000" font-family="Helvetica" font-size="10" x="969.7495" y="1098.2197">Policy Engine</text><text fill="#000000" font-family="Helvetica" font-size="10" x="988.7632" y="1109.8604">(OPA)</text><rect fill="#E2E2F0" height="25.6406" rx="2.5" ry="2.5" style="stroke:#181818;stroke-width:0.5;" width="96.5" x="1064.4146" y="1081.9375"/><text fill="#000000" font-family="Helvetica" font-size="10" x="1071.4146" y="1098.2197">Resource Server</text><rect fill="#FFFFFF" height="37.9375" style="stroke:#000000;stroke-width:1.5;" width="442.8618" x="138.7549" y="89.5625"/><path d="M138.7549,89.5625 L202.7549,89.5625 L202.7549,94.5625 L192.7549,104.5625 L138.7549,104.5625 L138.7549,89.5625" fill="#EEEEEE" style="stroke:#000000;stroke-width:2;"/><text fill="#000000" font-family="Helvetica" font-size="12" font-weight="700" x="151.7549" y="102.7012">ref</text><text fill="#000000" font-family="Helvetica" font-size="12" font-weight="700" x="145.3049" y="119.7012">Registrierung beim Federation Master (Workload Identity Pool)</text><rect fill="#FFFFFF" height="37.9375" style="stroke:#000000;stroke-width:1.5;" width="510.5645" x="530.7573" y="132.5"/><path d="M530.7573,132.5 L594.7573,132.5 L594.7573,137.5 L584.7573,147.5 L530.7573,147.5 L530.7573,132.5" fill="#EEEEEE" style="stroke:#000000;stroke-width:2;"/><text fill="#000000" font-family="Helvetica" font-size="12" font-weight="700" x="543.7573" y="145.6387">ref</text><text fill="#000000" font-family="Helvetica" font-size="12" font-weight="700" x="534.7573" y="162.6387">Verteilung der Zugriffsberechtigten Workloads an die Policy Engine (OPA)</text><path d="M21.4922,179.4375 L85.3301,179.4375 L85.3301,183.0781 L75.3301,193.0781 L21.4922,193.0781 L21.4922,179.4375" fill="#EEEEEE" style="stroke:#000000;stroke-width:1.5;"/><rect fill="none" height="561.4531" style="stroke:#000000;stroke-width:1.5;" width="1027.5435" x="21.4922" y="179.4375"/><text fill="#000000" font-family="Helvetica" font-size="10" font-weight="700" x="36.4922" y="189.7197">par</text><text fill="#000000" font-family="Helvetica" font-size="10" font-weight="700" x="100.3301" y="190.7197">[Regelm&#228;&#223;iger Token Exchange (ID Token gegen Access Token)]</text><polygon fill="#181818" points="193.1221,216.7188,203.1221,220.7188,193.1221,224.7188,197.1221,220.7188" style="stroke:#181818;stroke-width:1;stroke-linejoin:miter;stroke-miterlimit:10;"/><line style="stroke:#181818;stroke-width:1;" x1="61.4922" x2="199.1221" y1="220.7188" y2="220.7188"/><text fill="#000000" font-family="Helvetica" font-size="10" x="68.4922" y="216.3604">(01)</text><text fill="#000000" font-family="Helvetica" font-size="10" x="93.0195" y="216.3604">Fordert ID-Token an</text><polygon fill="#181818" points="72.4922,242.3594,62.4922,246.3594,72.4922,250.3594,68.4922,246.3594" style="stroke:#181818;stroke-width:1;stroke-linejoin:miter;stroke-miterlimit:10;"/><line style="stroke:#181818;stroke-width:1;stroke-dasharray:2,2;" x1="66.4922" x2="204.1221" y1="246.3594" y2="246.3594"/><text fill="#000000" font-family="Helvetica" font-size="10" x="78.4922" y="242.001">(02)</text><text fill="#000000" font-family="Helvetica" font-size="10" x="103.0195" y="242.001">ID-Token</text><polygon fill="#181818" points="649.9839,279.6406,659.9839,283.6406,649.9839,287.6406,653.9839,283.6406" style="stroke:#181818;stroke-width:1;stroke-linejoin:miter;stroke-miterlimit:10;"/><line style="stroke:#181818;stroke-width:1;" x1="61.4922" x2="655.9839" y1="283.6406" y2="283.6406"/><text fill="#000000" font-family="Helvetica" font-size="10" x="68.4922" y="273.4619">(03)</text><text fill="#000000" font-family="Helvetica" font-size="10" x="93.0195" y="267.6416">Fordert Access-Token an</text><text fill="#000000" font-family="Helvetica" font-size="10" x="93.0195" y="279.2822">(Token Exchange mit ID-Token)</text><polygon fill="#181818" points="226.1221,305.2813,216.1221,309.2813,226.1221,313.2813,222.1221,309.2813" style="stroke:#181818;stroke-width:1;stroke-linejoin:miter;stroke-miterlimit:10;"/><line style="stroke:#181818;stroke-width:1;" x1="220.1221" x2="660.9839" y1="309.2813" y2="309.2813"/><text fill="#000000" font-family="Helvetica" font-size="10" x="232.1221" y="304.9229">(04)</text><text fill="#000000" font-family="Helvetica" font-size="10" x="256.6494" y="304.9229">GET&#160;/.well-known/openid-configuration</text><polygon fill="#181818" points="649.9839,330.9219,659.9839,334.9219,649.9839,338.9219,653.9839,334.9219" style="stroke:#181818;stroke-width:1;stroke-linejoin:miter;stroke-miterlimit:10;"/><line style="stroke:#181818;stroke-width:1;stroke-dasharray:2,2;" x1="215.1221" x2="655.9839" y1="334.9219" y2="334.9219"/><text fill="#000000" font-family="Helvetica" font-size="10" x="222.1221" y="330.5635">(05)</text><text fill="#000000" font-family="Helvetica" font-size="10" x="246.6494" y="330.5635">OpenID Provider Metadaten</text><polygon fill="#181818" points="226.1221,356.5625,216.1221,360.5625,226.1221,364.5625,222.1221,360.5625" style="stroke:#181818;stroke-width:1;stroke-linejoin:miter;stroke-miterlimit:10;"/><line style="stroke:#181818;stroke-width:1;" x1="220.1221" x2="660.9839" y1="360.5625" y2="360.5625"/><text fill="#000000" font-family="Helvetica" font-size="10" x="232.1221" y="356.2041">(06)</text><text fill="#000000" font-family="Helvetica" font-size="10" x="256.6494" y="356.2041">GET /openid/v1/jwks</text><polygon fill="#181818" points="649.9839,382.2031,659.9839,386.2031,649.9839,390.2031,653.9839,386.2031" style="stroke:#181818;stroke-width:1;stroke-linejoin:miter;stroke-miterlimit:10;"/><line style="stroke:#181818;stroke-width:1;stroke-dasharray:2,2;" x1="215.1221" x2="655.9839" y1="386.2031" y2="386.2031"/><text fill="#000000" font-family="Helvetica" font-size="10" x="222.1221" y="381.8447">(07)</text><text fill="#000000" font-family="Helvetica" font-size="10" x="246.6494" y="381.8447">JWKS</text><line style="stroke:#181818;stroke-width:1;" x1="671.9839" x2="713.9839" y1="423.4844" y2="423.4844"/><line style="stroke:#181818;stroke-width:1;" x1="713.9839" x2="713.9839" y1="423.4844" y2="436.4844"/><line style="stroke:#181818;stroke-width:1;" x1="672.9839" x2="713.9839" y1="436.4844" y2="436.4844"/><polygon fill="#181818" points="682.9839,432.4844,672.9839,436.4844,682.9839,440.4844,678.9839,436.4844" style="stroke:#181818;stroke-width:1;stroke-linejoin:miter;stroke-miterlimit:10;"/><text fill="#000000" font-family="Helvetica" font-size="10" x="678.9839" y="413.3057">(08)</text><text fill="#000000" font-family="Helvetica" font-size="10" x="703.5112" y="407.4854">Validiert ID-Token</text><text fill="#000000" font-family="Helvetica" font-size="10" x="703.5112" y="419.126">(Signatur, Ablauf, etc.)</text><path d="M40.4922,448.4844 L100.4482,448.4844 L100.4482,452.125 L90.4482,462.125 L40.4922,462.125 L40.4922,448.4844" fill="#EEEEEE" style="stroke:#000000;stroke-width:1.5;"/><rect fill="none" height="130.2031" style="stroke:#000000;stroke-width:1.5;" width="983.5435" x="40.4922" y="448.4844"/><text fill="#000000" font-family="Helvetica" font-size="10" font-weight="700" x="55.4922" y="458.7666">alt</text><text fill="#000000" font-family="Helvetica" font-size="10" font-weight="700" x="115.4482" y="459.7666">[Erfolgreiche Validierung]</text><line style="stroke:#000000;stroke-width:1;stroke-dasharray:2,2;" x1="40.4922" x2="1024.0356" y1="534.4063" y2="534.4063"/><text fill="#000000" font-family="Helvetica" font-size="10" font-weight="700" x="45.4922" y="545.6885">[Fehlgeschlagene Validierung]</text><polygon fill="#181818" points="986.0356,485.7656,996.0356,489.7656,986.0356,493.7656,990.0356,489.7656" style="stroke:#181818;stroke-width:1;stroke-linejoin:miter;stroke-miterlimit:10;"/><line style="stroke:#181818;stroke-width:1;" x1="671.9839" x2="992.0356" y1="489.7656" y2="489.7656"/><text fill="#000000" font-family="Helvetica" font-size="10" x="678.9839" y="485.4072">(09)</text><text fill="#000000" font-family="Helvetica" font-size="10" x="703.5112" y="485.4072">Entscheidungsanfrage (issuer uri, etc.)</text><polygon fill="#181818" points="682.9839,511.4063,672.9839,515.4063,682.9839,519.4063,678.9839,515.4063" style="stroke:#181818;stroke-width:1;stroke-linejoin:miter;stroke-miterlimit:10;"/><line style="stroke:#181818;stroke-width:1;stroke-dasharray:2,2;" x1="676.9839" x2="997.0356" y1="515.4063" y2="515.4063"/><text fill="#000000" font-family="Helvetica" font-size="10" x="688.9839" y="511.0479">(10)</text><text fill="#000000" font-family="Helvetica" font-size="10" x="713.5112" y="511.0479">Ergebnis</text><polygon fill="#181818" points="72.4922,566.6875,62.4922,570.6875,72.4922,574.6875,68.4922,570.6875" style="stroke:#181818;stroke-width:1;stroke-linejoin:miter;stroke-miterlimit:10;"/><line style="stroke:#181818;stroke-width:1;stroke-dasharray:2,2;" x1="66.4922" x2="660.9839" y1="570.6875" y2="570.6875"/><text fill="#000000" font-family="Helvetica" font-size="10" x="78.4922" y="566.3291">(11)</text><text fill="#000000" font-family="Helvetica" font-size="10" x="103.0195" y="566.3291">Fehler 403 Forbidden</text><path d="M40.4922,596.6875 L100.4482,596.6875 L100.4482,600.3281 L90.4482,610.3281 L40.4922,610.3281 L40.4922,596.6875" fill="#EEEEEE" style="stroke:#000000;stroke-width:1.5;"/><rect fill="none" height="130.2031" style="stroke:#000000;stroke-width:1.5;" width="642.4917" x="40.4922" y="596.6875"/><text fill="#000000" font-family="Helvetica" font-size="10" font-weight="700" x="55.4922" y="606.9697">alt</text><text fill="#000000" font-family="Helvetica" font-size="10" font-weight="700" x="115.4482" y="607.9697">[Erfolgreiche Autorisierung]</text><line style="stroke:#000000;stroke-width:1;stroke-dasharray:2,2;" x1="40.4922" x2="682.9839" y1="682.6094" y2="682.6094"/><text fill="#000000" font-family="Helvetica" font-size="10" font-weight="700" x="45.4922" y="693.8916">[Fehlgeschlagene Autorisierung]</text><polygon fill="#181818" points="72.4922,633.9688,62.4922,637.9688,72.4922,641.9688,68.4922,637.9688" style="stroke:#181818;stroke-width:1;stroke-linejoin:miter;stroke-miterlimit:10;"/><line style="stroke:#181818;stroke-width:1;stroke-dasharray:2,2;" x1="66.4922" x2="660.9839" y1="637.9688" y2="637.9688"/><text fill="#000000" font-family="Helvetica" font-size="10" x="78.4922" y="633.6104">(12)</text><text fill="#000000" font-family="Helvetica" font-size="10" x="103.0195" y="633.6104">Access-Token</text><polygon fill="#181818" points="294.4487,659.6094,304.4487,663.6094,294.4487,667.6094,298.4487,663.6094" style="stroke:#181818;stroke-width:1;stroke-linejoin:miter;stroke-miterlimit:10;"/><line style="stroke:#181818;stroke-width:1;" x1="61.4922" x2="300.4487" y1="663.6094" y2="663.6094"/><text fill="#000000" font-family="Helvetica" font-size="10" x="68.4922" y="659.251">(13)</text><text fill="#000000" font-family="Helvetica" font-size="10" x="93.0195" y="659.251">Speichert Access-Token als Secret</text><polygon fill="#181818" points="72.4922,714.8906,62.4922,718.8906,72.4922,722.8906,68.4922,718.8906" style="stroke:#181818;stroke-width:1;stroke-linejoin:miter;stroke-miterlimit:10;"/><line style="stroke:#181818;stroke-width:1;stroke-dasharray:2,2;" x1="66.4922" x2="660.9839" y1="718.8906" y2="718.8906"/><text fill="#000000" font-family="Helvetica" font-size="10" x="78.4922" y="714.5322">(14)</text><text fill="#000000" font-family="Helvetica" font-size="10" x="103.0195" y="714.5322">Fehler 403 Forbidden</text><path d="M40.4922,758.8906 L104.3301,758.8906 L104.3301,762.5313 L94.3301,772.5313 L40.4922,772.5313 L40.4922,758.8906" fill="#EEEEEE" style="stroke:#000000;stroke-width:1.5;"/><rect fill="none" height="299.0469" style="stroke:#000000;stroke-width:1.5;" width="1118.1724" x="40.4922" y="758.8906"/><text fill="#000000" font-family="Helvetica" font-size="10" font-weight="700" x="55.4922" y="769.1729">par</text><text fill="#000000" font-family="Helvetica" font-size="10" font-weight="700" x="119.3301" y="770.1729">[Ressourcenzugriff mit Access Token]</text><polygon fill="#181818" points="327.4487,807.8125,317.4487,811.8125,327.4487,815.8125,323.4487,811.8125" style="stroke:#181818;stroke-width:1;stroke-linejoin:miter;stroke-miterlimit:10;"/><line style="stroke:#181818;stroke-width:1;" x1="321.4487" x2="453.356" y1="811.8125" y2="811.8125"/><text fill="#000000" font-family="Helvetica" font-size="10" x="333.4487" y="801.6338">(15)</text><text fill="#000000" font-family="Helvetica" font-size="10" x="357.9761" y="795.8135">Liest Secret mit</text><text fill="#000000" font-family="Helvetica" font-size="10" x="357.9761" y="807.4541">Access-Token aus</text><polygon fill="#181818" points="807.0415,833.4531,817.0415,837.4531,807.0415,841.4531,811.0415,837.4531" style="stroke:#181818;stroke-width:1;stroke-linejoin:miter;stroke-miterlimit:10;"/><line style="stroke:#181818;stroke-width:1;" x1="464.356" x2="813.0415" y1="837.4531" y2="837.4531"/><text fill="#000000" font-family="Helvetica" font-size="10" x="471.356" y="833.0947">(16)</text><text fill="#000000" font-family="Helvetica" font-size="10" x="495.8833" y="833.0947">Anfrage mit Access-Token</text><line style="stroke:#181818;stroke-width:1;" x1="829.0415" x2="871.0415" y1="863.0938" y2="863.0938"/><line style="stroke:#181818;stroke-width:1;" x1="871.0415" x2="871.0415" y1="863.0938" y2="876.0938"/><line style="stroke:#181818;stroke-width:1;" x1="830.0415" x2="871.0415" y1="876.0938" y2="876.0938"/><polygon fill="#181818" points="840.0415,872.0938,830.0415,876.0938,840.0415,880.0938,836.0415,876.0938" style="stroke:#181818;stroke-width:1;stroke-linejoin:miter;stroke-miterlimit:10;"/><text fill="#000000" font-family="Helvetica" font-size="10" x="836.0415" y="858.7354">(17)</text><text fill="#000000" font-family="Helvetica" font-size="10" x="860.5688" y="858.7354">Validiert Access-Token</text><path d="M443.356,888.0938 L503.312,888.0938 L503.312,891.7344 L493.312,901.7344 L443.356,901.7344 L443.356,888.0938" fill="#EEEEEE" style="stroke:#000000;stroke-width:1.5;"/><rect fill="none" height="155.8438" style="stroke:#000000;stroke-width:1.5;" width="690.3086" x="443.356" y="888.0938"/><text fill="#000000" font-family="Helvetica" font-size="10" font-weight="700" x="458.356" y="898.376">alt</text><text fill="#000000" font-family="Helvetica" font-size="10" font-weight="700" x="518.312" y="899.376">[Erfolgreiche Validierung]</text><line style="stroke:#000000;stroke-width:1;stroke-dasharray:2,2;" x1="443.356" x2="1133.6646" y1="999.6563" y2="999.6563"/><text fill="#000000" font-family="Helvetica" font-size="10" font-weight="700" x="448.356" y="1010.9385">[Fehlgeschlagene Validierung]</text><polygon fill="#181818" points="1095.6646,925.375,1105.6646,929.375,1095.6646,933.375,1099.6646,929.375" style="stroke:#181818;stroke-width:1;stroke-linejoin:miter;stroke-miterlimit:10;"/><line style="stroke:#181818;stroke-width:1;" x1="829.0415" x2="1101.6646" y1="929.375" y2="929.375"/><text fill="#000000" font-family="Helvetica" font-size="10" x="836.0415" y="925.0166">(18)</text><text fill="#000000" font-family="Helvetica" font-size="10" x="860.5688" y="925.0166">Weiterleitung der Anfrage mit Access-Token</text><polygon fill="#181818" points="840.0415,951.0156,830.0415,955.0156,840.0415,959.0156,836.0415,955.0156" style="stroke:#181818;stroke-width:1;stroke-linejoin:miter;stroke-miterlimit:10;"/><line style="stroke:#181818;stroke-width:1;stroke-dasharray:2,2;" x1="834.0415" x2="1106.6646" y1="955.0156" y2="955.0156"/><text fill="#000000" font-family="Helvetica" font-size="10" x="846.0415" y="950.6572">(19)</text><text fill="#000000" font-family="Helvetica" font-size="10" x="870.5688" y="950.6572">Antwort</text><polygon fill="#181818" points="475.356,976.6563,465.356,980.6563,475.356,984.6563,471.356,980.6563" style="stroke:#181818;stroke-width:1;stroke-linejoin:miter;stroke-miterlimit:10;"/><line style="stroke:#181818;stroke-width:1;stroke-dasharray:2,2;" x1="469.356" x2="818.0415" y1="980.6563" y2="980.6563"/><text fill="#000000" font-family="Helvetica" font-size="10" x="481.356" y="976.2979">(20)</text><text fill="#000000" font-family="Helvetica" font-size="10" x="505.8833" y="976.2979">Antwort</text><polygon fill="#181818" points="475.356,1031.9375,465.356,1035.9375,475.356,1039.9375,471.356,1035.9375" style="stroke:#181818;stroke-width:1;stroke-linejoin:miter;stroke-miterlimit:10;"/><line style="stroke:#181818;stroke-width:1;stroke-dasharray:2,2;" x1="469.356" x2="818.0415" y1="1035.9375" y2="1035.9375"/><text fill="#000000" font-family="Helvetica" font-size="10" x="481.356" y="1031.5791">(21)</text><text fill="#000000" font-family="Helvetica" font-size="10" x="505.8833" y="1031.5791">Fehler 401 Unauthorized</text><?plantuml-src dLRBTk964Dtp5HMoyGiRpsJ58kS8WusJyLZ78kCJ7syQgH1jcchItSAFdqaMyoKpFvPgIO04sCvaOqlTjs_LhRfTGcHEKpOReO7cNhkztspOgQIvC6862Ov5fjov9XV95uJJzkxDpsA6C42rG2TZKS7q2ioL9ctd8iPaXJxJcP5eAbY5bBf9a3narW5fmigUnRyof1XlS8p6FtH5F4sDpYWvqqeRk9r8LpqGRHvOQ_ZGQFmqDoAT2N2eNy2P31kDaNw2Pa0ZYOuh4JJXvs7_RF3v-jFrnPyDW7pxhZyCu28J9ia1aQ3akMlq8p40W0EpUZaNvA0P6qqFUWIXJfeWB9JlPqeYkMtuclcUWinDj94lmabDBCGiEA6zQ1Zjvqn-EzfcG1SNaVm3RoCbFkaSc2S_l8GFnsteSG9SNvz_JvXfXEB281OAjaXlq7AROYopkATRRQPAYoBIO_bI4RMCklpVgD6bE6DHq_mmFsyMlVjUqRll5Fq7gdY7Jl3BDaVO3-zfC1o641hzz9o31-4Ed5OoVeO-fPBmdlQkmw1WveVtoz_zF-NFwPThnTBkeXiSW_PwSwyS-LftuE3W1bDfdRzr6QKmGZc3SqpG52Mw4jOtOM_POhXCkAlIFRE7jTe_EAZmCk6H5-fPlw1nA9MdP2wuor8ZnsFBymJZYPEfGu8bfmL1a4Y4MlKWBvuFmEfPO8fgzlthzxzbodn3FMM2_bCy4PGozB9NBgMC8mZY6AqjblPztTdzXuVyKBjmsolG-hMepk5X1ywruTGTNFPQ1RVm3ScteSN0sibMgxC2DdRHbjQg4XTPhiZPBXkoPd8TtSieEMfPmaL_-EsVa-D7LAer9Ru19tgE99DMh6aiqwneP2tpaiVdVCrOBXwxUY5zewvuAn4kzzvhuQ2CSB8uFNbudDhNk7-x_JsgqvIF7VWYbEIELwhBwYEPad2PEO9Wf4GsFl9zE_R2XNBGDsEjKeCodk3gFFihDtib1hl69zedPnaf4uPOGMCUxUmJQMt6AlaZioO7VsGpzxv9SKJIQqDbaQ_4HAN8Z8fvw8q4DetHoOzop5_Q7ttdHp99ykholTobZ2l90yfMgDyahtgeH6zPpxk_0z4y3x3bEsLvaCG6tMjIVoWZNxit1M-W_NWgBxWjHXYz5BCYTt_r8lFX-hSblx_rfRNSJn9veXRAF1NF_fhipEuyF0YzUOBIB-iKLXKUX0Miwk7D9hnhruAaFhHzt5latoj6yT_bu7mZ4zWWo9in27q70d8ipQrYyKPTQWtodmp-2b6jtwVm1udo2uj9e_W8-McOe8YTNF1SsVZ9m_l_0W00?></g></svg>