<svg xmlns="http://www.w3.org/2000/svg" xmlns:xlink="http://www.w3.org/1999/xlink" contentStyleType="text/css" data-diagram-type="SEQUENCE" height="367px" preserveAspectRatio="none" style="width:667px;height:367px;background:#FFFFFF;" version="1.1" viewBox="0 0 667 367" width="667px" zoomAndPan="magnify"><?plantuml 1.2026.6?><defs/><g><rect fill="#DDDDDD" height="341.6875" style="stroke:#181818;stroke-width:0.5;" width="650.3594" x="16" y="11"/><text fill="#000000" font-family="Helvetica" font-size="10" font-weight="700" x="191.541" y="20.2822">"Apple Device (macOS, iOS, iPadOS)" MOBILE_COLOR</text><g><title>Secure Enclave</title><rect fill="#000000" fill-opacity="0.00000" height="266.7656" width="8" x="87.3018" y="53.2813"/><line style="stroke:#000000;stroke-width:0.5;stroke-dasharray:5,5;" x1="90.8018" x2="90.8018" y1="53.2813" y2="320.0469"/></g><g><title/><rect fill="#FFFFFF" height="25.6406" style="stroke:#181818;stroke-width:1;" width="10" x="85.8018" y="163.8438"/></g><g><title>OS .iOS . iPadOS.</title><rect fill="#000000" fill-opacity="0.00000" height="266.7656" width="8" x="220.5068" y="53.2813"/><line style="stroke:#000000;stroke-width:0.5;stroke-dasharray:5,5;" x1="224.0068" x2="224.0068" y1="53.2813" y2="320.0469"/></g><g><title/><rect fill="#FFFFFF" height="76.9219" style="stroke:#181818;stroke-width:1;" width="10" x="219.0068" y="138.2031"/></g><g><title>ZETA Client</title><rect fill="#000000" fill-opacity="0.00000" height="266.7656" width="8" x="597.3887" y="53.2813"/><line style="stroke:#000000;stroke-width:0.5;stroke-dasharray:5,5;" x1="600.8887" x2="600.8887" y1="53.2813" y2="320.0469"/></g><g><title/><rect fill="#FFFFFF" height="126.2031" style="stroke:#181818;stroke-width:1;" width="10" x="595.8887" y="88.9219"/></g><rect fill="#E4E4F4" height="25.6406" rx="2.5" ry="2.5" style="stroke:#181818;stroke-width:0.5;" width="90.9092" x="45.3472" y="26.6406"/><text fill="#000000" font-family="Helvetica" font-size="10" x="52.3472" y="42.9229">Secure Enclave</text><rect fill="#E4E4F4" height="25.6406" rx="2.5" ry="2.5" style="stroke:#181818;stroke-width:0.5;" width="101.4268" x="173.2935" y="26.6406"/><text fill="#000000" font-family="Helvetica" font-size="10" x="180.2935" y="42.9229">OS (iOS / iPadOS)</text><rect fill="#FFE6CC" height="25.6406" rx="2.5" ry="2.5" style="stroke:#D79B00;stroke-width:0.5;" width="72.2471" x="564.7651" y="26.6406"/><text fill="#000000" font-family="Helvetica" font-size="10" x="571.7651" y="42.9229">ZETA Client</text><rect fill="#E4E4F4" height="25.6406" rx="2.5" ry="2.5" style="stroke:#181818;stroke-width:0.5;" width="90.9092" x="45.3472" y="320.0469"/><text fill="#000000" font-family="Helvetica" font-size="10" x="52.3472" y="336.3291">Secure Enclave</text><rect fill="#E4E4F4" height="25.6406" rx="2.5" ry="2.5" style="stroke:#181818;stroke-width:0.5;" width="101.4268" x="173.2935" y="320.0469"/><text fill="#000000" font-family="Helvetica" font-size="10" x="180.2935" y="336.3291">OS (iOS / iPadOS)</text><rect fill="#FFE6CC" height="25.6406" rx="2.5" ry="2.5" style="stroke:#D79B00;stroke-width:0.5;" width="72.2471" x="564.7651" y="320.0469"/><text fill="#000000" font-family="Helvetica" font-size="10" x="571.7651" y="336.3291">ZETA Client</text><path d="M69.8018,65.2813 L129.7578,65.2813 L129.7578,68.9219 L119.7578,78.9219 L69.8018,78.9219 L69.8018,65.2813" fill="#EEEEEE" style="stroke:#000000;stroke-width:1.5;"/><rect fill="none" height="230.7656" style="stroke:#000000;stroke-width:1.5;" width="552.0869" x="69.8018" y="65.2813"/><text fill="#000000" font-family="Helvetica" font-size="10" font-weight="700" x="84.8018" y="75.5635">alt</text><text fill="#000000" font-family="Helvetica" font-size="10" font-weight="700" x="144.7578" y="76.5635">[macOS, iOS, iPadOS]</text><line style="stroke:#000000;stroke-width:1;stroke-dasharray:2,2;" x1="69.8018" x2="621.8887" y1="234.125" y2="234.125"/><text fill="#000000" font-family="Helvetica" font-size="10" font-weight="700" x="74.8018" y="245.4072">[Software Attestation (Fallback)]</text><path d="M392.2666,93.9219 L392.2666,114.9219 L595.2666,114.9219 L595.2666,103.9219 L585.2666,93.9219 L392.2666,93.9219" fill="#FEFFDD" style="stroke:#181818;stroke-width:0.5;"/><path d="M585.2666,93.9219 L585.2666,103.9219 L595.2666,103.9219 L585.2666,93.9219" fill="#FEFFDD" style="stroke:#181818;stroke-width:0.5;"/><text fill="#000000" font-family="Helvetica" font-size="10" x="398.2666" y="108.2041">App nutzt native Apple-Frameworks.</text><polygon fill="#181818" points="240.0068,134.2031,230.0068,138.2031,240.0068,142.2031,236.0068,138.2031" style="stroke:#181818;stroke-width:1;stroke-linejoin:miter;stroke-miterlimit:10;"/><line style="stroke:#181818;stroke-width:1;" x1="234.0068" x2="594.8887" y1="138.2031" y2="138.2031"/><text fill="#000000" font-family="Helvetica" font-size="10" x="246.0068" y="133.8447">(01)</text><text fill="#000000" font-family="Helvetica" font-size="10" x="270.5342" y="133.8447">DCAppAttest.generateAssertion(keyId_AK, hash_puk_client_sig)</text><polygon fill="#181818" points="106.8018,159.8438,96.8018,163.8438,106.8018,167.8438,102.8018,163.8438" style="stroke:#181818;stroke-width:1;stroke-linejoin:miter;stroke-miterlimit:10;"/><line style="stroke:#181818;stroke-width:1;" x1="100.8018" x2="218.0068" y1="163.8438" y2="163.8438"/><text fill="#000000" font-family="Helvetica" font-size="10" x="112.8018" y="159.4854">(02)</text><text fill="#000000" font-family="Helvetica" font-size="10" x="137.3291" y="159.4854">Signiere Hash</text><polygon fill="#181818" points="207.0068,185.4844,217.0068,189.4844,207.0068,193.4844,211.0068,189.4844" style="stroke:#181818;stroke-width:1;stroke-linejoin:miter;stroke-miterlimit:10;"/><line style="stroke:#181818;stroke-width:1;stroke-dasharray:2,2;" x1="95.8018" x2="213.0068" y1="189.4844" y2="189.4844"/><text fill="#000000" font-family="Helvetica" font-size="10" x="102.8018" y="185.126">(03)</text><text fill="#000000" font-family="Helvetica" font-size="10" x="127.3291" y="185.126">ECDSA Signatur</text><polygon fill="#181818" points="583.8887,211.125,593.8887,215.125,583.8887,219.125,587.8887,215.125" style="stroke:#181818;stroke-width:1;stroke-linejoin:miter;stroke-miterlimit:10;"/><line style="stroke:#181818;stroke-width:1;stroke-dasharray:2,2;" x1="229.0068" x2="589.8887" y1="215.125" y2="215.125"/><text fill="#000000" font-family="Helvetica" font-size="10" x="236.0068" y="210.7666">(04)</text><text fill="#000000" font-family="Helvetica" font-size="10" x="260.5342" y="210.7666">apple_assertion_object</text><path d="M351.9053,257.7656 L351.9053,290.7656 L594.9053,290.7656 L594.9053,267.7656 L584.9053,257.7656 L351.9053,257.7656" fill="#FEFFDD" style="stroke:#181818;stroke-width:0.5;"/><path d="M584.9053,257.7656 L584.9053,267.7656 L594.9053,267.7656 L584.9053,257.7656" fill="#FEFFDD" style="stroke:#181818;stroke-width:0.5;"/><text fill="#000000" font-family="Helvetica" font-size="10" x="357.9053" y="272.0479">Keine Hardware-Bindung.</text><text fill="#000000" font-family="Helvetica" font-size="10" x="357.9053" y="283.6885">App oder Client erstellt prk_client_sig selbst.</text><?plantuml-src ZL5DJ-Cm5BpdLxpjgLLnk5UeKcY3jg8GjEQ4aABNvBLuwzgH_L8-VltQBXL5WBGNonypysR6lvHfTDyIvFbvr--qqFXgUyxvXRCiMzaN61HTfmdcj5SDmN27JINFGANb3jjAZWPmKrqkbcKzgvRLdmoWGyUgKHqQXe6afdS4PPY3Une0Uf0bBCj5WD_SLRVbxVttn4h2C8o1yuyvWPlSXDl_47WexmkOQKM64_MmXOkBDsASJZCoBOI48ITgXg_1iY08xwpnE1sCPG9DQmQxVd-PH4jWUdvZCCXgJmUFuihXZfwjs_eySK_KG4oFGSRZ2SnduL0ma-TyGuOSCXNUKyXYpN1BhuksBgxFu0dzKztrsxf9AhLNcr5IFPOIP6KP5QNQ64MXzj-1aY2XS_4nLOW9bBEvB18IkNUVTGBou3G2CTxMU3HKszLVQlWaZX1PHjeJIBlcPmnZ3s4mmc5uXLgliDcEVgxmcfI9PbqRwU9IcROtc_pHn6vjI-vO73dFfCDtTUwq1l2aLw6z-AVPFm00?></g></svg>