<svg xmlns="http://www.w3.org/2000/svg" xmlns:xlink="http://www.w3.org/1999/xlink" contentStyleType="text/css" data-diagram-type="SEQUENCE" height="2029px" preserveAspectRatio="none" style="width:1788px;height:2029px;background:#FFFFFF;" version="1.1" viewBox="0 0 1788 2029" width="1788px" zoomAndPan="magnify"><?plantuml 1.2026.6?><defs/><g><g class="title" data-source-line="12"><text fill="#000000" font-family="Helvetica" font-size="14" font-weight="700" x="632.2324" y="27.9951">Gesamtablauf: PoPP-Token Abruf mit ZETA SDK &amp; PAR (RFC 9126)</text></g><rect fill="#F8F8FF" height="1966.5313" style="stroke:#181818;stroke-width:0.5;" width="679.312" x="103.1021" y="48.2969"/><text fill="#000000" font-family="Helvetica" font-size="10" font-weight="700" x="403.6443" y="57.5791">User Device A</text><rect fill="#E6E6FA" height="1949.8906" style="stroke:#181818;stroke-width:0.5;" width="679.312" x="103.1021" y="64.9375"/><text fill="#000000" font-family="Helvetica" font-size="10" font-weight="700" x="431.7302" y="74.2197">App</text><rect fill="#F4A460" height="1933.25" style="stroke:#181818;stroke-width:0.5;" width="89" x="693.4141" y="81.5781"/><text fill="#000000" font-family="Helvetica" font-size="10" font-weight="700" x="705.4141" y="90.8604">ZETA Client</text><rect fill="#C9FFC9" height="1966.5313" style="stroke:#181818;stroke-width:0.5;" width="537.2993" x="912.9658" y="48.2969"/><text fill="#000000" font-family="Helvetica" font-size="10" font-weight="700" x="1157.2551" y="57.5791">Anbieter</text><rect fill="#F4A460" height="1949.8906" style="stroke:#181818;stroke-width:0.5;" width="320.6714" x="912.9658" y="64.9375"/><text fill="#000000" font-family="Helvetica" font-size="10" font-weight="700" x="1040.157" y="74.2197">ZETA Guard</text><rect fill="#8FBC8F" height="1949.8906" style="stroke:#181818;stroke-width:0.5;" width="131.8877" x="1318.3774" y="64.9375"/><text fill="#000000" font-family="Helvetica" font-size="10" font-weight="700" x="1346.7896" y="74.2197">TI 2.0 Dienst</text><rect fill="#F8F8FF" height="1966.5313" style="stroke:#181818;stroke-width:0.5;" width="93.4697" x="1462.2651" y="48.2969"/><text fill="#000000" font-family="Helvetica" font-size="10" font-weight="700" x="1499.3247" y="57.5791">IDP</text><rect fill="#F8F8FF" height="1966.5313" style="stroke:#181818;stroke-width:0.5;" width="102.1104" x="1660.5444" y="48.2969"/><text fill="#000000" font-family="Helvetica" font-size="10" font-weight="700" x="1672.5444" y="57.5791">User Device B</text><rect fill="#E6E6FA" height="1949.8906" style="stroke:#181818;stroke-width:0.5;" width="102.1104" x="1660.5444" y="64.9375"/><text fill="#000000" font-family="Helvetica" font-size="10" font-weight="700" x="1700.5718" y="74.2197">App</text><g><title>User</title><rect fill="#000000" fill-opacity="0.00000" height="1768.3281" width="8" x="25.5" y="168.8594"/><line style="stroke:#181818;stroke-width:0.5;stroke-dasharray:5,5;" x1="29" x2="29" y1="168.8594" y2="1937.1875"/></g><g><title>Anbieter-App</title><rect fill="#000000" fill-opacity="0.00000" height="1768.3281" width="8" x="143.4951" y="168.8594"/><line style="stroke:#181818;stroke-width:0.5;stroke-dasharray:5,5;" x1="146.9951" x2="146.9951" y1="168.8594" y2="1937.1875"/></g><g><title>PoPP-Modul</title><rect fill="#000000" fill-opacity="0.00000" height="1768.3281" width="8" x="264.7568" y="168.8594"/><line style="stroke:#181818;stroke-width:0.5;stroke-dasharray:5,5;" x1="268.2568" x2="268.2568" y1="168.8594" y2="1937.1875"/></g><g><title>Browser . WebView</title><rect fill="#000000" fill-opacity="0.00000" height="1768.3281" width="8" x="437.6104" y="168.8594"/><line style="stroke:#181818;stroke-width:0.5;stroke-dasharray:5,5;" x1="441.1104" x2="441.1104" y1="168.8594" y2="1937.1875"/></g><g><title>ZETA-SDK</title><rect fill="#000000" fill-opacity="0.00000" height="1768.3281" width="8" x="734.4141" y="168.8594"/><line style="stroke:#181818;stroke-width:0.5;stroke-dasharray:5,5;" x1="737.9141" x2="737.9141" y1="168.8594" y2="1937.1875"/></g><g><title>Authorization Server</title><rect fill="#000000" fill-opacity="0.00000" height="1768.3281" width="8" x="971.9404" y="168.8594"/><line style="stroke:#181818;stroke-width:0.5;stroke-dasharray:5,5;" x1="975.4404" x2="975.4404" y1="168.8594" y2="1937.1875"/></g><g><title>HTTP-Proxy</title><rect fill="#000000" fill-opacity="0.00000" height="1768.3281" width="8" x="1173.0898" y="168.8594"/><line style="stroke:#181818;stroke-width:0.5;stroke-dasharray:5,5;" x1="1176.5898" x2="1176.5898" y1="168.8594" y2="1937.1875"/></g><g><title>PoPP Resource Server</title><rect fill="#000000" fill-opacity="0.00000" height="1768.3281" width="8" x="1380.8213" y="168.8594"/><line style="stroke:#181818;stroke-width:0.5;stroke-dasharray:5,5;" x1="1384.3213" x2="1384.3213" y1="168.8594" y2="1937.1875"/></g><g><title>Sektoraler IDP</title><rect fill="#000000" fill-opacity="0.00000" height="1768.3281" width="8" x="1505.5" y="168.8594"/><line style="stroke:#181818;stroke-width:0.5;stroke-dasharray:5,5;" x1="1509" x2="1509" y1="168.8594" y2="1937.1875"/></g><g><title>Authenticator</title><rect fill="#000000" fill-opacity="0.00000" height="1768.3281" width="8" x="1708.0996" y="168.8594"/><line style="stroke:#181818;stroke-width:0.5;stroke-dasharray:5,5;" x1="1711.5996" x2="1711.5996" y1="168.8594" y2="1937.1875"/></g><text fill="#000000" font-family="Helvetica" font-size="10" x="14.6035" y="166.501">User</text><ellipse cx="29" cy="105.7188" fill="#E2E2F0" rx="8" ry="8" style="stroke:#181818;stroke-width:0.5;"/><path d="M29,113.7188 L29,140.7188 M16,121.7188 L42,121.7188 M29,140.7188 L16,155.7188 M29,140.7188 L42,155.7188" fill="none" style="stroke:#181818;stroke-width:0.5;"/><rect fill="#E2E2F0" height="25.6406" rx="2.5" ry="2.5" style="stroke:#181818;stroke-width:0.5;" width="79.7861" x="107.1021" y="142.2188"/><text fill="#000000" font-family="Helvetica" font-size="10" x="114.1021" y="158.501">Anbieter-App</text><rect fill="#E2E2F0" height="25.6406" rx="2.5" ry="2.5" style="stroke:#181818;stroke-width:0.5;" width="72.0273" x="232.2432" y="142.2188"/><text fill="#000000" font-family="Helvetica" font-size="10" x="239.2432" y="158.501">PoPP-Modul</text><rect fill="#E2E2F0" height="25.6406" rx="2.5" ry="2.5" style="stroke:#181818;stroke-width:0.5;" width="110.8066" x="385.707" y="142.2188"/><text fill="#000000" font-family="Helvetica" font-size="10" x="392.707" y="158.501">Browser / WebView</text><rect fill="#E2E2F0" height="25.6406" rx="2.5" ry="2.5" style="stroke:#181818;stroke-width:0.5;" width="64.332" x="705.748" y="142.2188"/><text fill="#000000" font-family="Helvetica" font-size="10" x="712.748" y="158.501">ZETA-SDK</text><rect fill="#E2E2F0" height="37.2813" rx="2.5" ry="2.5" style="stroke:#181818;stroke-width:0.5;" width="116.9492" x="916.9658" y="130.5781"/><text fill="#000000" font-family="Helvetica" font-size="10" x="923.9658" y="146.8604">Authorization Server</text><text fill="#000000" font-family="Helvetica" font-size="10" x="929.3931" y="158.501">(PoPP) Zeta Guard</text><rect fill="#E2E2F0" height="37.2813" rx="2.5" ry="2.5" style="stroke:#181818;stroke-width:0.5;" width="106.0947" x="1123.5425" y="130.5781"/><text fill="#000000" font-family="Helvetica" font-size="10" x="1147.8545" y="146.8604">HTTP-Proxy</text><text fill="#000000" font-family="Helvetica" font-size="10" x="1130.5425" y="158.501">(PoPP) Zeta Guard</text><rect fill="#E2E2F0" height="25.6406" rx="2.5" ry="2.5" style="stroke:#181818;stroke-width:0.5;" width="123.8877" x="1322.3774" y="142.2188"/><text fill="#000000" font-family="Helvetica" font-size="10" x="1329.3774" y="158.501">PoPP Resource Server</text><rect fill="#E2E2F0" height="25.6406" rx="2.5" ry="2.5" style="stroke:#181818;stroke-width:0.5;" width="85.4697" x="1466.2651" y="142.2188"/><text fill="#000000" font-family="Helvetica" font-size="10" x="1473.2651" y="158.501">Sektoraler IDP</text><rect fill="#E2E2F0" height="25.6406" rx="2.5" ry="2.5" style="stroke:#181818;stroke-width:0.5;" width="82.4033" x="1670.3979" y="142.2188"/><text fill="#000000" font-family="Helvetica" font-size="10" x="1677.3979" y="158.501">Authenticator</text><text fill="#000000" font-family="Helvetica" font-size="10" x="14.6035" y="2006.4697">User</text><ellipse cx="29" cy="1945.6875" fill="#E2E2F0" rx="8" ry="8" style="stroke:#181818;stroke-width:0.5;"/><path d="M29,1953.6875 L29,1980.6875 M16,1961.6875 L42,1961.6875 M29,1980.6875 L16,1995.6875 M29,1980.6875 L42,1995.6875" fill="none" style="stroke:#181818;stroke-width:0.5;"/><rect fill="#E2E2F0" height="25.6406" rx="2.5" ry="2.5" style="stroke:#181818;stroke-width:0.5;" width="79.7861" x="107.1021" y="1937.1875"/><text fill="#000000" font-family="Helvetica" font-size="10" x="114.1021" y="1953.4697">Anbieter-App</text><rect fill="#E2E2F0" height="25.6406" rx="2.5" ry="2.5" style="stroke:#181818;stroke-width:0.5;" width="72.0273" x="232.2432" y="1937.1875"/><text fill="#000000" font-family="Helvetica" font-size="10" x="239.2432" y="1953.4697">PoPP-Modul</text><rect fill="#E2E2F0" height="25.6406" rx="2.5" ry="2.5" style="stroke:#181818;stroke-width:0.5;" width="110.8066" x="385.707" y="1937.1875"/><text fill="#000000" font-family="Helvetica" font-size="10" x="392.707" y="1953.4697">Browser / WebView</text><rect fill="#E2E2F0" height="25.6406" rx="2.5" ry="2.5" style="stroke:#181818;stroke-width:0.5;" width="64.332" x="705.748" y="1937.1875"/><text fill="#000000" font-family="Helvetica" font-size="10" x="712.748" y="1953.4697">ZETA-SDK</text><rect fill="#E2E2F0" height="37.2813" rx="2.5" ry="2.5" style="stroke:#181818;stroke-width:0.5;" width="116.9492" x="916.9658" y="1937.1875"/><text fill="#000000" font-family="Helvetica" font-size="10" x="923.9658" y="1953.4697">Authorization Server</text><text fill="#000000" font-family="Helvetica" font-size="10" x="929.3931" y="1965.1104">(PoPP) Zeta Guard</text><rect fill="#E2E2F0" height="37.2813" rx="2.5" ry="2.5" style="stroke:#181818;stroke-width:0.5;" width="106.0947" x="1123.5425" y="1937.1875"/><text fill="#000000" font-family="Helvetica" font-size="10" x="1147.8545" y="1953.4697">HTTP-Proxy</text><text fill="#000000" font-family="Helvetica" font-size="10" x="1130.5425" y="1965.1104">(PoPP) Zeta Guard</text><rect fill="#E2E2F0" height="25.6406" rx="2.5" ry="2.5" style="stroke:#181818;stroke-width:0.5;" width="123.8877" x="1322.3774" y="1937.1875"/><text fill="#000000" font-family="Helvetica" font-size="10" x="1329.3774" y="1953.4697">PoPP Resource Server</text><rect fill="#E2E2F0" height="25.6406" rx="2.5" ry="2.5" style="stroke:#181818;stroke-width:0.5;" width="85.4697" x="1466.2651" y="1937.1875"/><text fill="#000000" font-family="Helvetica" font-size="10" x="1473.2651" y="1953.4697">Sektoraler IDP</text><rect fill="#E2E2F0" height="25.6406" rx="2.5" ry="2.5" style="stroke:#181818;stroke-width:0.5;" width="82.4033" x="1670.3979" y="1937.1875"/><text fill="#000000" font-family="Helvetica" font-size="10" x="1677.3979" y="1953.4697">Authenticator</text><path d="M514.8789,180.8594 L816.2559,180.8594 L816.2559,184.5 L806.2559,194.5 L514.8789,194.5 L514.8789,180.8594" fill="#EEEEEE" style="stroke:#000000;stroke-width:1.5;"/><rect fill="none" height="269.0469" style="stroke:#000000;stroke-width:1.5;" width="677.7109" x="514.8789" y="180.8594"/><text fill="#000000" font-family="Helvetica" font-size="10" font-weight="700" x="529.8789" y="191.1416">Phase 0: Client Registration (mit Attestation)</text><line style="stroke:#181818;stroke-width:1;" x1="737.9141" x2="779.9141" y1="222.1406" y2="222.1406"/><line style="stroke:#181818;stroke-width:1;" x1="779.9141" x2="779.9141" y1="222.1406" y2="235.1406"/><line style="stroke:#181818;stroke-width:1;" x1="738.9141" x2="779.9141" y1="235.1406" y2="235.1406"/><polygon fill="#181818" points="748.9141,231.1406,738.9141,235.1406,748.9141,239.1406,744.9141,235.1406" style="stroke:#181818;stroke-width:1;stroke-linejoin:miter;stroke-miterlimit:10;"/><text fill="#000000" font-family="Helvetica" font-size="10" x="744.9141" y="217.7822">(01)</text><text fill="#000000" font-family="Helvetica" font-size="10" x="769.4414" y="217.7822">Generiert DPoP-Schl&#252;sselpaar</text><line style="stroke:#181818;stroke-width:1;" x1="737.9141" x2="779.9141" y1="272.4219" y2="272.4219"/><line style="stroke:#181818;stroke-width:1;" x1="779.9141" x2="779.9141" y1="272.4219" y2="285.4219"/><line style="stroke:#181818;stroke-width:1;" x1="738.9141" x2="779.9141" y1="285.4219" y2="285.4219"/><polygon fill="#181818" points="748.9141,281.4219,738.9141,285.4219,748.9141,289.4219,744.9141,285.4219" style="stroke:#181818;stroke-width:1;stroke-linejoin:miter;stroke-miterlimit:10;"/><text fill="#000000" font-family="Helvetica" font-size="10" x="744.9141" y="262.2432">(02)</text><text fill="#000000" font-family="Helvetica" font-size="10" x="769.4414" y="256.4229">Fordert Attestation Statement</text><text fill="#000000" font-family="Helvetica" font-size="10" x="769.4414" y="268.0635">vom OS (Android/iOS) an</text><path d="M932.1836,248.1406 L932.1836,281.1406 L1122.1836,281.1406 L1122.1836,258.1406 L1112.1836,248.1406 L932.1836,248.1406" fill="#FEFFDD" style="stroke:#181818;stroke-width:0.5;"/><path d="M1112.1836,248.1406 L1112.1836,258.1406 L1122.1836,258.1406 L1112.1836,248.1406" fill="#FEFFDD" style="stroke:#181818;stroke-width:0.5;"/><text fill="#000000" font-family="Helvetica" font-size="10" x="938.1836" y="262.4229">SafetyNet/Play Integrity (Android)</text><text fill="#000000" font-family="Helvetica" font-size="10" x="938.1836" y="274.0635">App Attest (iOS)</text><polygon fill="#181818" points="963.4404,330.3438,973.4404,334.3438,963.4404,338.3438,967.4404,334.3438" style="stroke:#181818;stroke-width:1;stroke-linejoin:miter;stroke-miterlimit:10;"/><line style="stroke:#181818;stroke-width:1;" x1="737.9141" x2="969.4404" y1="334.3438" y2="334.3438"/><text fill="#000000" font-family="Helvetica" font-size="10" x="744.9141" y="318.3447">(03)</text><text fill="#000000" font-family="Helvetica" font-size="10" x="769.4414" y="306.7041">Registrierungsanfrage mit</text><text fill="#000000" font-family="Helvetica" font-size="10" x="769.4414" y="318.3447">Attestation Statement</text><text fill="#000000" font-family="Helvetica" font-size="10" x="769.4414" y="329.9854">und DPoP Public Key</text><line style="stroke:#181818;stroke-width:1;" x1="975.4404" x2="1017.4404" y1="359.9844" y2="359.9844"/><line style="stroke:#181818;stroke-width:1;" x1="1017.4404" x2="1017.4404" y1="359.9844" y2="372.9844"/><line style="stroke:#181818;stroke-width:1;" x1="976.4404" x2="1017.4404" y1="372.9844" y2="372.9844"/><polygon fill="#181818" points="986.4404,368.9844,976.4404,372.9844,986.4404,376.9844,982.4404,372.9844" style="stroke:#181818;stroke-width:1;stroke-linejoin:miter;stroke-miterlimit:10;"/><text fill="#000000" font-family="Helvetica" font-size="10" x="982.4404" y="355.626">(04)</text><text fill="#000000" font-family="Helvetica" font-size="10" x="1006.9678" y="355.626">Verifiziert Attestation Statement</text><polygon fill="#181818" points="748.9141,394.625,738.9141,398.625,748.9141,402.625,744.9141,398.625" style="stroke:#181818;stroke-width:1;stroke-linejoin:miter;stroke-miterlimit:10;"/><line style="stroke:#181818;stroke-width:1;stroke-dasharray:2,2;" x1="742.9141" x2="974.4404" y1="398.625" y2="398.625"/><text fill="#000000" font-family="Helvetica" font-size="10" x="754.9141" y="394.2666">(05)</text><text fill="#000000" font-family="Helvetica" font-size="10" x="779.4414" y="394.2666">Antwortet mit</text><text fill="#000000" font-family="Helvetica" font-size="10" font-weight="700" x="851.7412" y="394.2666">client_id</text><path d="M535.8789,411.625 L535.8789,444.625 L732.8789,444.625 L732.8789,421.625 L722.8789,411.625 L535.8789,411.625" fill="#FEFFDD" style="stroke:#181818;stroke-width:0.5;"/><path d="M722.8789,411.625 L722.8789,421.625 L732.8789,421.625 L722.8789,411.625" fill="#FEFFDD" style="stroke:#181818;stroke-width:0.5;"/><text fill="#000000" font-family="Helvetica" font-size="10" x="541.8789" y="425.9072">App ist nun als vertrauensw&#252;rdiger</text><text fill="#000000" font-family="Helvetica" font-size="10" x="541.8789" y="437.5479">Client beim AS registriert.</text><path d="M13,467.9063 L291.5791,467.9063 L291.5791,471.5469 L281.5791,481.5469 L13,481.5469 L13,467.9063" fill="#EEEEEE" style="stroke:#000000;stroke-width:1.5;"/><rect fill="none" height="250.0469" style="stroke:#000000;stroke-width:1.5;" width="740.9141" x="13" y="467.9063"/><text fill="#000000" font-family="Helvetica" font-size="10" font-weight="700" x="28" y="478.1885">Phase 1: Initialisierung und Vorbereitung</text><polygon fill="#181818" points="134.9951,505.1875,144.9951,509.1875,134.9951,513.1875,138.9951,509.1875" style="stroke:#181818;stroke-width:1;stroke-linejoin:miter;stroke-miterlimit:10;"/><line style="stroke:#181818;stroke-width:1;" x1="29" x2="140.9951" y1="509.1875" y2="509.1875"/><text fill="#000000" font-family="Helvetica" font-size="10" x="36" y="504.8291">(06)</text><text fill="#000000" font-family="Helvetica" font-size="10" x="60.5273" y="504.8291">Startet Aktion</text><polygon fill="#181818" points="256.2568,554.1094,266.2568,558.1094,256.2568,562.1094,260.2568,558.1094" style="stroke:#181818;stroke-width:1;stroke-linejoin:miter;stroke-miterlimit:10;"/><line style="stroke:#181818;stroke-width:1;" x1="146.9951" x2="262.2568" y1="558.1094" y2="558.1094"/><text fill="#000000" font-family="Helvetica" font-size="10" x="153.9951" y="542.1104">(07)</text><text fill="#000000" font-family="Helvetica" font-size="10" x="178.5225" y="530.4697">Initialisierung</text><text fill="#000000" font-family="Helvetica" font-size="10" x="178.5225" y="542.1104">PoPP-Token</text><text fill="#000000" font-family="Helvetica" font-size="10" x="178.5225" y="553.751">mit LEI-Details</text><polygon fill="#181818" points="725.9141,579.75,735.9141,583.75,725.9141,587.75,729.9141,583.75" style="stroke:#181818;stroke-width:1;stroke-linejoin:miter;stroke-miterlimit:10;"/><line style="stroke:#181818;stroke-width:1;" x1="268.2568" x2="731.9141" y1="583.75" y2="583.75"/><text fill="#000000" font-family="Helvetica" font-size="10" x="275.2568" y="579.3916">(08)</text><text fill="#000000" font-family="Helvetica" font-size="10" x="299.7842" y="579.3916">init(FQDN des PoPP-Service)</text><polygon fill="#181818" points="279.2568,605.3906,269.2568,609.3906,279.2568,613.3906,275.2568,609.3906" style="stroke:#181818;stroke-width:1;stroke-linejoin:miter;stroke-miterlimit:10;"/><line style="stroke:#181818;stroke-width:1;stroke-dasharray:2,2;" x1="273.2568" x2="736.9141" y1="609.3906" y2="609.3906"/><text fill="#000000" font-family="Helvetica" font-size="10" x="285.2568" y="605.0322">(09)</text><text fill="#000000" font-family="Helvetica" font-size="10" x="309.7842" y="605.0322">Initialisierung abgeschlossen</text><line style="stroke:#181818;stroke-width:1;" x1="268.2568" x2="310.2568" y1="646.6719" y2="646.6719"/><line style="stroke:#181818;stroke-width:1;" x1="310.2568" x2="310.2568" y1="646.6719" y2="659.6719"/><line style="stroke:#181818;stroke-width:1;" x1="269.2568" x2="310.2568" y1="659.6719" y2="659.6719"/><polygon fill="#181818" points="279.2568,655.6719,269.2568,659.6719,279.2568,663.6719,275.2568,659.6719" style="stroke:#181818;stroke-width:1;stroke-linejoin:miter;stroke-miterlimit:10;"/><text fill="#000000" font-family="Helvetica" font-size="10" x="275.2568" y="636.4932">(10)</text><text fill="#000000" font-family="Helvetica" font-size="10" x="299.7842" y="630.6729">Generiert HTTP-Request</text><text fill="#000000" font-family="Helvetica" font-size="10" x="299.7842" y="642.3135">(Telematik-ID, etc.)</text><line style="stroke:#181818;stroke-width:1;" x1="268.2568" x2="310.2568" y1="696.9531" y2="696.9531"/><line style="stroke:#181818;stroke-width:1;" x1="310.2568" x2="310.2568" y1="696.9531" y2="709.9531"/><line style="stroke:#181818;stroke-width:1;" x1="269.2568" x2="310.2568" y1="709.9531" y2="709.9531"/><polygon fill="#181818" points="279.2568,705.9531,269.2568,709.9531,279.2568,713.9531,275.2568,709.9531" style="stroke:#181818;stroke-width:1;stroke-linejoin:miter;stroke-miterlimit:10;"/><text fill="#000000" font-family="Helvetica" font-size="10" x="275.2568" y="686.7744">(11)</text><text fill="#000000" font-family="Helvetica" font-size="10" x="299.7842" y="680.9541">Generiert appDetails</text><text fill="#000000" font-family="Helvetica" font-size="10" x="299.7842" y="692.5947">(IDP iss uri, Auth-Methode)</text><path d="M13,735.9531 L376.5303,735.9531 L376.5303,739.5938 L366.5303,749.5938 L13,749.5938 L13,735.9531" fill="#EEEEEE" style="stroke:#000000;stroke-width:1.5;"/><rect fill="none" height="757.0625" style="stroke:#000000;stroke-width:1.5;" width="1755.915" x="13" y="735.9531"/><text fill="#000000" font-family="Helvetica" font-size="10" font-weight="700" x="28" y="746.2354">Phase 2: OIDC Authentifizierung und Token Beschaffung</text><polygon fill="#181818" points="725.9141,784.875,735.9141,788.875,725.9141,792.875,729.9141,788.875" style="stroke:#181818;stroke-width:1;stroke-linejoin:miter;stroke-miterlimit:10;"/><line style="stroke:#181818;stroke-width:1;" x1="268.2568" x2="731.9141" y1="788.875" y2="788.875"/><text fill="#000000" font-family="Helvetica" font-size="10" x="275.2568" y="778.6963">(12)</text><text fill="#000000" font-family="Helvetica" font-size="10" x="299.7842" y="772.876">execute(HTTP-Request,</text><text fill="#000000" font-family="Helvetica" font-size="10" x="299.7842" y="784.5166">callBackMethod, appDetails)</text><polygon fill="#181818" points="452.1104,810.5156,442.1104,814.5156,452.1104,818.5156,448.1104,814.5156" style="stroke:#181818;stroke-width:1;stroke-linejoin:miter;stroke-miterlimit:10;"/><line style="stroke:#181818;stroke-width:1;" x1="446.1104" x2="736.9141" y1="814.5156" y2="814.5156"/><text fill="#000000" font-family="Helvetica" font-size="10" x="458.1104" y="810.1572">(13)</text><text fill="#000000" font-family="Helvetica" font-size="10" x="482.6377" y="810.1572">&#214;ffne URL f&#252;r ZETA AS</text><polygon fill="#181818" points="963.4404,847.7969,973.4404,851.7969,963.4404,855.7969,967.4404,851.7969" style="stroke:#181818;stroke-width:1;stroke-linejoin:miter;stroke-miterlimit:10;"/><line style="stroke:#181818;stroke-width:1;" x1="441.1104" x2="969.4404" y1="851.7969" y2="851.7969"/><text fill="#000000" font-family="Helvetica" font-size="10" x="448.1104" y="841.6182">(14)</text><text fill="#000000" font-family="Helvetica" font-size="10" font-weight="700" x="472.6377" y="835.7979">[FRONT-CHANNEL]</text><text fill="#000000" font-family="Helvetica" font-size="10" x="472.6377" y="847.4385">GET /authorize?params...</text><polygon fill="#181818" points="1497,873.4375,1507,877.4375,1497,881.4375,1501,877.4375" style="stroke:#181818;stroke-width:1;stroke-linejoin:miter;stroke-miterlimit:10;"/><line style="stroke:#181818;stroke-width:1;" x1="975.4404" x2="1503" y1="877.4375" y2="877.4375"/><text fill="#000000" font-family="Helvetica" font-size="10" x="982.4404" y="873.0791">(15)</text><text fill="#000000" font-family="Helvetica" font-size="10" font-weight="700" x="1006.9678" y="873.0791">[BACK-CHANNEL]</text><text fill="#000000" font-family="Helvetica" font-size="10" x="1107.2754" y="873.0791">POST /par (Pushed Authorization Request)</text><polygon fill="#181818" points="986.4404,899.0781,976.4404,903.0781,986.4404,907.0781,982.4404,903.0781" style="stroke:#181818;stroke-width:1;stroke-linejoin:miter;stroke-miterlimit:10;"/><line style="stroke:#181818;stroke-width:1;stroke-dasharray:2,2;" x1="980.4404" x2="1508" y1="903.0781" y2="903.0781"/><text fill="#000000" font-family="Helvetica" font-size="10" x="992.4404" y="898.7197">(16)</text><text fill="#000000" font-family="Helvetica" font-size="10" font-weight="700" x="1016.9678" y="898.7197">[BACK-CHANNEL]</text><text fill="#000000" font-family="Helvetica" font-size="10" x="1117.2754" y="898.7197">Antwort mit request_uri</text><polygon fill="#181818" points="452.1104,936.3594,442.1104,940.3594,452.1104,944.3594,448.1104,940.3594" style="stroke:#181818;stroke-width:1;stroke-linejoin:miter;stroke-miterlimit:10;"/><line style="stroke:#181818;stroke-width:1;stroke-dasharray:2,2;" x1="446.1104" x2="974.4404" y1="940.3594" y2="940.3594"/><text fill="#000000" font-family="Helvetica" font-size="10" x="458.1104" y="930.1807">(17)</text><text fill="#000000" font-family="Helvetica" font-size="10" font-weight="700" x="482.6377" y="924.3604">[FRONT-CHANNEL]</text><text fill="#000000" font-family="Helvetica" font-size="10" x="590.7188" y="924.3604">Antwort:</text><text fill="#000000" font-family="Helvetica" font-size="10" x="482.6377" y="936.001">HTTP 302 Redirect zum IDP</text><path d="M980.4404,953.3594 L980.4404,974.3594 L1144.4404,974.3594 L1144.4404,963.3594 L1134.4404,953.3594 L980.4404,953.3594" fill="#FEFFDD" style="stroke:#181818;stroke-width:0.5;"/><path d="M1134.4404,953.3594 L1134.4404,963.3594 L1144.4404,963.3594 L1134.4404,953.3594" fill="#FEFFDD" style="stroke:#181818;stroke-width:0.5;"/><text fill="#000000" font-family="Helvetica" font-size="10" x="986.4404" y="967.6416">"Browser, redirect zum IDP!"</text><polygon fill="#181818" points="1497,1005.2813,1507,1009.2813,1497,1013.2813,1501,1009.2813" style="stroke:#181818;stroke-width:1;stroke-linejoin:miter;stroke-miterlimit:10;"/><line style="stroke:#181818;stroke-width:1;" x1="441.1104" x2="1503" y1="1009.2813" y2="1009.2813"/><text fill="#000000" font-family="Helvetica" font-size="10" x="448.1104" y="999.1025">(18)</text><text fill="#000000" font-family="Helvetica" font-size="10" font-weight="700" x="472.6377" y="993.2822">[FRONT-CHANNEL]</text><text fill="#000000" font-family="Helvetica" font-size="10" x="580.7188" y="993.2822">Folgt dem</text><text fill="#000000" font-family="Helvetica" font-size="10" x="472.6377" y="1004.9229">Redirect und ruft den IDP auf</text><polygon fill="#181818" points="452.1104,1042.5625,442.1104,1046.5625,452.1104,1050.5625,448.1104,1046.5625" style="stroke:#181818;stroke-width:1;stroke-linejoin:miter;stroke-miterlimit:10;"/><line style="stroke:#181818;stroke-width:1;stroke-dasharray:2,2;" x1="446.1104" x2="1508" y1="1046.5625" y2="1046.5625"/><text fill="#000000" font-family="Helvetica" font-size="10" x="458.1104" y="1036.3838">(19)</text><text fill="#000000" font-family="Helvetica" font-size="10" font-weight="700" x="482.6377" y="1030.5635">[FRONT-CHANNEL]</text><text fill="#000000" font-family="Helvetica" font-size="10" x="482.6377" y="1042.2041">Zeigt "Warten"-Seite an</text><polygon fill="#181818" points="1699.5996,1091.4844,1709.5996,1095.4844,1699.5996,1099.4844,1703.5996,1095.4844" style="stroke:#181818;stroke-width:1;stroke-linejoin:miter;stroke-miterlimit:10;"/><line style="stroke:#181818;stroke-width:1;" x1="1509" x2="1705.5996" y1="1095.4844" y2="1095.4844"/><text fill="#000000" font-family="Helvetica" font-size="10" x="1516" y="1079.4854">(20)</text><text fill="#000000" font-family="Helvetica" font-size="10" font-weight="700" x="1540.5273" y="1067.8447">[PUSH / BACK-CHANNEL]</text><text fill="#000000" font-family="Helvetica" font-size="10" x="1540.5273" y="1079.4854">Sendet Push-Benachrichtigung</text><text fill="#000000" font-family="Helvetica" font-size="10" x="1540.5273" y="1091.126">Auth erforderlich</text><polygon fill="#181818" points="1699.5996,1117.125,1709.5996,1121.125,1699.5996,1125.125,1703.5996,1121.125" style="stroke:#181818;stroke-width:1;stroke-linejoin:miter;stroke-miterlimit:10;"/><line style="stroke:#181818;stroke-width:1;" x1="29" x2="1705.5996" y1="1121.125" y2="1121.125"/><text fill="#000000" font-family="Helvetica" font-size="10" x="36" y="1116.7666">(21)</text><text fill="#000000" font-family="Helvetica" font-size="10" x="60.5273" y="1116.7666">Authentifizierung f&#252;r App auf Ger&#228;t B</text><polygon fill="#181818" points="1520,1154.4063,1510,1158.4063,1520,1162.4063,1516,1158.4063" style="stroke:#181818;stroke-width:1;stroke-linejoin:miter;stroke-miterlimit:10;"/><line style="stroke:#181818;stroke-width:1;stroke-dasharray:2,2;" x1="1514" x2="1710.5996" y1="1158.4063" y2="1158.4063"/><text fill="#000000" font-family="Helvetica" font-size="10" x="1526" y="1148.2275">(22)</text><text fill="#000000" font-family="Helvetica" font-size="10" font-weight="700" x="1550.5273" y="1142.4072">[BACK-CHANNEL]</text><text fill="#000000" font-family="Helvetica" font-size="10" x="1550.5273" y="1154.0479">Meldet Erfolg an IDP Server</text><polygon fill="#181818" points="452.1104,1180.0469,442.1104,1184.0469,452.1104,1188.0469,448.1104,1184.0469" style="stroke:#181818;stroke-width:1;stroke-linejoin:miter;stroke-miterlimit:10;"/><line style="stroke:#181818;stroke-width:1;stroke-dasharray:2,2;" x1="446.1104" x2="1508" y1="1184.0469" y2="1184.0469"/><text fill="#000000" font-family="Helvetica" font-size="10" x="458.1104" y="1179.6885">(23)</text><text fill="#000000" font-family="Helvetica" font-size="10" font-weight="700" x="482.6377" y="1179.6885">[FRONT-CHANNEL]</text><text fill="#000000" font-family="Helvetica" font-size="10" x="590.7188" y="1179.6885">Antwort: HTTP 302 Redirect</text><path d="M1514,1197.0469 L1514,1218.0469 L1747,1218.0469 L1747,1207.0469 L1737,1197.0469 L1514,1197.0469" fill="#FEFFDD" style="stroke:#181818;stroke-width:0.5;"/><path d="M1737,1197.0469 L1737,1207.0469 L1747,1207.0469 L1737,1197.0469" fill="#FEFFDD" style="stroke:#181818;stroke-width:0.5;"/><text fill="#000000" font-family="Helvetica" font-size="10" x="1520" y="1211.3291">Location: https://zeta-as/callback?code=...</text><polygon fill="#181818" points="963.4404,1248.9688,973.4404,1252.9688,963.4404,1256.9688,967.4404,1252.9688" style="stroke:#181818;stroke-width:1;stroke-linejoin:miter;stroke-miterlimit:10;"/><line style="stroke:#181818;stroke-width:1;" x1="441.1104" x2="969.4404" y1="1252.9688" y2="1252.9688"/><text fill="#000000" font-family="Helvetica" font-size="10" x="448.1104" y="1242.79">(24)</text><text fill="#000000" font-family="Helvetica" font-size="10" font-weight="700" x="472.6377" y="1236.9697">[FRONT-CHANNEL]</text><text fill="#000000" font-family="Helvetica" font-size="10" x="580.7188" y="1236.9697">Folgt dem Redirect und ruft den AS auf,</text><text fill="#000000" font-family="Helvetica" font-size="10" x="472.6377" y="1248.6104">&#252;bermittelt so den</text><text fill="#000000" font-family="Helvetica" font-size="10" font-weight="700" x="568.502" y="1248.6104">Auth-Code (f&#252;r AS)</text><polygon fill="#181818" points="1497,1286.25,1507,1290.25,1497,1294.25,1501,1290.25" style="stroke:#181818;stroke-width:1;stroke-linejoin:miter;stroke-miterlimit:10;"/><line style="stroke:#181818;stroke-width:1;" x1="975.4404" x2="1503" y1="1290.25" y2="1290.25"/><text fill="#000000" font-family="Helvetica" font-size="10" x="982.4404" y="1280.0713">(25)</text><text fill="#000000" font-family="Helvetica" font-size="10" font-weight="700" x="1006.9678" y="1274.251">[BACK-CHANNEL]</text><text fill="#000000" font-family="Helvetica" font-size="10" x="1006.9678" y="1285.8916">Ruft /token Endpoint des IDP auf</text><polygon fill="#181818" points="986.4404,1311.8906,976.4404,1315.8906,986.4404,1319.8906,982.4404,1315.8906" style="stroke:#181818;stroke-width:1;stroke-linejoin:miter;stroke-miterlimit:10;"/><line style="stroke:#181818;stroke-width:1;stroke-dasharray:2,2;" x1="980.4404" x2="1508" y1="1315.8906" y2="1315.8906"/><text fill="#000000" font-family="Helvetica" font-size="10" x="992.4404" y="1311.5322">(26)</text><text fill="#000000" font-family="Helvetica" font-size="10" font-weight="700" x="1016.9678" y="1311.5322">[BACK-CHANNEL]</text><text fill="#000000" font-family="Helvetica" font-size="10" x="1117.2754" y="1311.5322">Antwortet mit ID-Token</text><polygon fill="#181818" points="452.1104,1337.5313,442.1104,1341.5313,452.1104,1345.5313,448.1104,1341.5313" style="stroke:#181818;stroke-width:1;stroke-linejoin:miter;stroke-miterlimit:10;"/><line style="stroke:#181818;stroke-width:1;stroke-dasharray:2,2;" x1="446.1104" x2="974.4404" y1="1341.5313" y2="1341.5313"/><text fill="#000000" font-family="Helvetica" font-size="10" x="458.1104" y="1337.1729">(27)</text><text fill="#000000" font-family="Helvetica" font-size="10" font-weight="700" x="482.6377" y="1337.1729">[FRONT-CHANNEL]</text><text fill="#000000" font-family="Helvetica" font-size="10" x="590.7188" y="1337.1729">Antwort: HTTP 302 Redirect</text><path d="M980.4404,1354.5313 L980.4404,1375.5313 L1196.4404,1375.5313 L1196.4404,1364.5313 L1186.4404,1354.5313 L980.4404,1354.5313" fill="#FEFFDD" style="stroke:#181818;stroke-width:0.5;"/><path d="M1186.4404,1354.5313 L1186.4404,1364.5313 L1196.4404,1364.5313 L1186.4404,1354.5313" fill="#FEFFDD" style="stroke:#181818;stroke-width:0.5;"/><text fill="#000000" font-family="Helvetica" font-size="10" x="986.4404" y="1368.8135">Location: https://app/callback?code=...</text><polygon fill="#181818" points="725.9141,1406.4531,735.9141,1410.4531,725.9141,1414.4531,729.9141,1410.4531" style="stroke:#181818;stroke-width:1;stroke-linejoin:miter;stroke-miterlimit:10;"/><line style="stroke:#181818;stroke-width:1;" x1="441.1104" x2="731.9141" y1="1410.4531" y2="1410.4531"/><text fill="#000000" font-family="Helvetica" font-size="10" x="448.1104" y="1400.2744">(28)</text><text fill="#000000" font-family="Helvetica" font-size="10" font-weight="700" x="472.6377" y="1394.4541">[FRONT-CHANNEL]</text><text fill="#000000" font-family="Helvetica" font-size="10" x="580.7188" y="1394.4541">Folgt dem Redirect zur App,</text><text fill="#000000" font-family="Helvetica" font-size="10" x="472.6377" y="1406.0947">&#252;bermittelt so den</text><text fill="#000000" font-family="Helvetica" font-size="10" font-weight="700" x="568.502" y="1406.0947">Auth-Code (f&#252;r SDK)</text><polygon fill="#181818" points="963.4404,1443.7344,973.4404,1447.7344,963.4404,1451.7344,967.4404,1447.7344" style="stroke:#181818;stroke-width:1;stroke-linejoin:miter;stroke-miterlimit:10;"/><line style="stroke:#181818;stroke-width:1;" x1="737.9141" x2="969.4404" y1="1447.7344" y2="1447.7344"/><text fill="#000000" font-family="Helvetica" font-size="10" x="744.9141" y="1437.5557">(29)</text><text fill="#000000" font-family="Helvetica" font-size="10" font-weight="700" x="769.4414" y="1431.7354">[BACK-CHANNEL]</text><text fill="#000000" font-family="Helvetica" font-size="10" x="769.4414" y="1443.376">Ruft /token Endpoint des ZETA AS auf</text><polygon fill="#181818" points="748.9141,1481.0156,738.9141,1485.0156,748.9141,1489.0156,744.9141,1485.0156" style="stroke:#181818;stroke-width:1;stroke-linejoin:miter;stroke-miterlimit:10;"/><line style="stroke:#181818;stroke-width:1;stroke-dasharray:2,2;" x1="742.9141" x2="974.4404" y1="1485.0156" y2="1485.0156"/><text fill="#000000" font-family="Helvetica" font-size="10" x="754.9141" y="1474.8369">(30)</text><text fill="#000000" font-family="Helvetica" font-size="10" font-weight="700" x="779.4414" y="1469.0166">[BACK-CHANNEL]</text><text fill="#000000" font-family="Helvetica" font-size="10" x="779.4414" y="1480.6572">Antwortet mit finalem Access Token</text><path d="M721.9141,1511.0156 L1108.0469,1511.0156 L1108.0469,1514.6563 L1098.0469,1524.6563 L721.9141,1524.6563 L721.9141,1511.0156" fill="#EEEEEE" style="stroke:#000000;stroke-width:1.5;"/><rect fill="none" height="248.6875" style="stroke:#000000;stroke-width:1.5;" width="678.4072" x="721.9141" y="1511.0156"/><text fill="#000000" font-family="Helvetica" font-size="10" font-weight="700" x="736.9141" y="1521.2979">Phase 3: Autorisierter Zugriff auf den PoPP Resource Server</text><polygon fill="#181818" points="1164.5898,1571.5781,1174.5898,1575.5781,1164.5898,1579.5781,1168.5898,1575.5781" style="stroke:#181818;stroke-width:1;stroke-linejoin:miter;stroke-miterlimit:10;"/><line style="stroke:#181818;stroke-width:1;" x1="737.9141" x2="1170.5898" y1="1575.5781" y2="1575.5781"/><text fill="#000000" font-family="Helvetica" font-size="10" x="744.9141" y="1559.5791">(31)</text><text fill="#000000" font-family="Helvetica" font-size="10" x="769.4414" y="1547.9385">Ruft HTTP-Proxy mit</text><text fill="#000000" font-family="Helvetica" font-size="10" x="769.4414" y="1559.5791">urspr&#252;nglichem HTTP-Request</text><text fill="#000000" font-family="Helvetica" font-size="10" x="769.4414" y="1571.2197">und Access Token auf</text><polygon fill="#181818" points="986.4404,1608.8594,976.4404,1612.8594,986.4404,1616.8594,982.4404,1612.8594" style="stroke:#181818;stroke-width:1;stroke-linejoin:miter;stroke-miterlimit:10;"/><line style="stroke:#181818;stroke-width:1;" x1="980.4404" x2="1175.5898" y1="1612.8594" y2="1612.8594"/><text fill="#000000" font-family="Helvetica" font-size="10" x="992.4404" y="1602.6807">(32)</text><text fill="#000000" font-family="Helvetica" font-size="10" x="1016.9678" y="1596.8604">L&#228;dt PoPP-Metainformationen</text><text fill="#000000" font-family="Helvetica" font-size="10" x="1016.9678" y="1608.501">zum Access Token</text><line style="stroke:#181818;stroke-width:1;" x1="1176.5898" x2="1218.5898" y1="1650.1406" y2="1650.1406"/><line style="stroke:#181818;stroke-width:1;" x1="1218.5898" x2="1218.5898" y1="1650.1406" y2="1663.1406"/><line style="stroke:#181818;stroke-width:1;" x1="1177.5898" x2="1218.5898" y1="1663.1406" y2="1663.1406"/><polygon fill="#181818" points="1187.5898,1659.1406,1177.5898,1663.1406,1187.5898,1667.1406,1183.5898,1663.1406" style="stroke:#181818;stroke-width:1;stroke-linejoin:miter;stroke-miterlimit:10;"/><text fill="#000000" font-family="Helvetica" font-size="10" x="1183.5898" y="1639.9619">(33)</text><text fill="#000000" font-family="Helvetica" font-size="10" x="1208.1172" y="1634.1416">Reichert HTTP-Request</text><text fill="#000000" font-family="Helvetica" font-size="10" x="1208.1172" y="1645.7822">mit Metadaten an</text><polygon fill="#181818" points="1372.3213,1696.4219,1382.3213,1700.4219,1372.3213,1704.4219,1376.3213,1700.4219" style="stroke:#181818;stroke-width:1;stroke-linejoin:miter;stroke-miterlimit:10;"/><line style="stroke:#181818;stroke-width:1;" x1="1176.5898" x2="1378.3213" y1="1700.4219" y2="1700.4219"/><text fill="#000000" font-family="Helvetica" font-size="10" x="1183.5898" y="1690.2432">(34)</text><text fill="#000000" font-family="Helvetica" font-size="10" x="1208.1172" y="1684.4229">Sendet angereicherten Request</text><text fill="#000000" font-family="Helvetica" font-size="10" x="1208.1172" y="1696.0635">an PoPP Resource Server</text><polygon fill="#181818" points="1187.5898,1722.0625,1177.5898,1726.0625,1187.5898,1730.0625,1183.5898,1726.0625" style="stroke:#181818;stroke-width:1;stroke-linejoin:miter;stroke-miterlimit:10;"/><line style="stroke:#181818;stroke-width:1;stroke-dasharray:2,2;" x1="1181.5898" x2="1383.3213" y1="1726.0625" y2="1726.0625"/><text fill="#000000" font-family="Helvetica" font-size="10" x="1193.5898" y="1721.7041">(35)</text><text fill="#000000" font-family="Helvetica" font-size="10" x="1218.1172" y="1721.7041">Antwortet mit dem Ergebnis</text><polygon fill="#181818" points="748.9141,1747.7031,738.9141,1751.7031,748.9141,1755.7031,744.9141,1751.7031" style="stroke:#181818;stroke-width:1;stroke-linejoin:miter;stroke-miterlimit:10;"/><line style="stroke:#181818;stroke-width:1;stroke-dasharray:2,2;" x1="742.9141" x2="1175.5898" y1="1751.7031" y2="1751.7031"/><text fill="#000000" font-family="Helvetica" font-size="10" x="754.9141" y="1747.3447">(36)</text><text fill="#000000" font-family="Helvetica" font-size="10" x="779.4414" y="1747.3447">Leitet die Response weiter</text><path d="M13,1777.7031 L326.7744,1777.7031 L326.7744,1781.3438 L316.7744,1791.3438 L13,1791.3438 L13,1777.7031" fill="#EEEEEE" style="stroke:#000000;stroke-width:1.5;"/><rect fill="none" height="135.4844" style="stroke:#000000;stroke-width:1.5;" width="740.9141" x="13" y="1777.7031"/><text fill="#000000" font-family="Helvetica" font-size="10" font-weight="700" x="28" y="1787.9854">Phase 4: Ergebnisverarbeitung und Darstellung</text><polygon fill="#181818" points="279.2568,1826.625,269.2568,1830.625,279.2568,1834.625,275.2568,1830.625" style="stroke:#181818;stroke-width:1;stroke-linejoin:miter;stroke-miterlimit:10;"/><line style="stroke:#181818;stroke-width:1;" x1="273.2568" x2="736.9141" y1="1830.625" y2="1830.625"/><text fill="#000000" font-family="Helvetica" font-size="10" x="285.2568" y="1820.4463">(37)</text><text fill="#000000" font-family="Helvetica" font-size="10" x="309.7842" y="1814.626">Ruft callBackMethod</text><text fill="#000000" font-family="Helvetica" font-size="10" x="309.7842" y="1826.2666">mit der HTTP-Response auf</text><polygon fill="#181818" points="157.9951,1863.9063,147.9951,1867.9063,157.9951,1871.9063,153.9951,1867.9063" style="stroke:#181818;stroke-width:1;stroke-linejoin:miter;stroke-miterlimit:10;"/><line style="stroke:#181818;stroke-width:1;" x1="151.9951" x2="267.2568" y1="1867.9063" y2="1867.9063"/><text fill="#000000" font-family="Helvetica" font-size="10" x="163.9951" y="1857.7275">(38)</text><text fill="#000000" font-family="Helvetica" font-size="10" x="188.5225" y="1851.9072">Wertet die</text><text fill="#000000" font-family="Helvetica" font-size="10" x="188.5225" y="1863.5479">Antwort aus</text><polygon fill="#181818" points="40,1901.1875,30,1905.1875,40,1909.1875,36,1905.1875" style="stroke:#181818;stroke-width:1;stroke-linejoin:miter;stroke-miterlimit:10;"/><line style="stroke:#181818;stroke-width:1;" x1="34" x2="145.9951" y1="1905.1875" y2="1905.1875"/><text fill="#000000" font-family="Helvetica" font-size="10" x="46" y="1895.0088">(39)</text><text fill="#000000" font-family="Helvetica" font-size="10" x="70.5273" y="1889.1885">Stellt das</text><text fill="#000000" font-family="Helvetica" font-size="10" x="70.5273" y="1900.8291">Ergebnis dar</text><?plantuml-src dLVTRjlA4RxNKypn0H9PC6t7AGfKGC-1BFaFyOygAWcQgZXOaKDfQsgfBfTsxEi-GwyAzEOyXk_qOftP9IbIb0mtkGXbScPsvfjlVbPa9b7POeeQzjh7n_jxhVHUggNGOW4XHYABpNcYZ2-V4JuSR_zuAnO8bnW_e961gCWCdCnDef9qAG8CI-b-acc9kY8RevgPUI_yHvOQK8d2ohSK_vcX2d244Mh-SIg2-vbECXNsapZHy7KkJLN1trHOnt3IQlsqr6As460mUGQZCsorZ3GnmWMcOc74D1PPr8LXCXnwu-GU5VIcEejW8GryEnltm1zyWdSmx8sWFJhlmvy-dFnnlzNg1OPS-PnIMDFaE-pnBuBWGGO8lJtu-MAUfCPv2c0bUiiblRyM3wX2qWBwH_uJY78fbA7lQYhHeFQie4Y1daqfw-TD4cQnbU4_cqAdEdbaVuxWAqw_I7oqildRdfMtBjdu-h54PSWrNwZmYOMKbTYmoR8UOM5DqTFAK2XigRN-LJmTAaLCP7ryrh-ylRk-k_XhgthwHIPqs3oyZancvecMpyB8H56wzGFgYMfpxFlm3Oqeh31eVbF_SZmUUaETV7_QfMK_jghnE1_7Lt1oU0m3GeY8-lD0w7iVnOL6B33QaXuOOKgC9o8uL-q98xy6M1scgy5map8RTdsy9xw9c99gXSaYFJVCL3bu-cCS9AI935JOT9h3azuu8ZPSVm-Uvy5mBbA4usxE8mf-9bEZNQxUGSyOJ8txgurIBKGiP_kisUAQNhwkt-Ogh9ZOjovpHNg_yADBLQoGcuk10M7l-S4yNhsaASPB8NH3-ZpH8SjMlVBfYGiwUg8UaWNS-T3kgL0dCZoIT_u-29TgbHW4BMTpqmLVH6YURj4S3MFn15VAu4nByrHgxayKWPOV0sssK_MbvtUBECdrJCrIeI9gKyXTXrItUqSDq0O9msmQom0-uPCrslCBcry8YaW-ovqXbl8583rb7XDjqDX-r-a4DWc_oR3JMKSTOsGWYN8DYajoryuKY3W58ZXbYnfm-hXwqQ6SSMtckPoYNF1nkepL739_MdNoVEWIXD98eaRgy6ZmOui8m_4bqJJCK1fwOVsr9S1eB9TT3jk6rhjd55piv3rzvZ9jM9oezH2OACRZ-kpA6r2da77Qikgsl0li9Actp_yokANnw3gnnmLFrLT9zgx3G4ndc19R4oAhgbjt2cjcs_uruYcN4WtQOunnGOczzwu61u0cEDn_LLqibtaGf4nTWzAN0ata0rlStWrITmt9PvkOQbvEkb0q1CSgzliTM82yK_PUHD6sR97YtTMWlqMRa-QcR4M_2Ir-no0psAv6VZ1HWOXZtWQSomULo1m2zZ-E05R_obR_9MPeE8-JHoBYJ2eY9FbPASDY87PXzUyeKWYVHzSG4OlTuCz7II5L55cdyxVpqTtjsEjVzcvlpwx_tkbCrCNP68v4FgVmLxkOf8U7XnjkNIcrTkfHwX0U2WPZwPshPqgKFUkqr_zKEGg6TpuTHGT0UvYbSmoXFXvpj1mWd6rlxVUchRpwRUrhf_SR4QErTfXAY5gTGRLw8JTdOeh0JP9SVCuMrlo350L4rG1gy6w1h3YxEr6SPFXuV4AkXr9ZO0hR6tsNMn07Kgmt1-HpNU6dlLOZPGME3GVEatXcg7GN4rKUpFIavOzVAniTxOORAUGEut77ryAs5R38b0ev10Nmhs8mKTzGaWzxNxbFgJrg7yI3Ok1O4xyK0zWQ67xsBscfsqZZHFaypWqm7wWkbGZcMWPp8sUsgx45G1tPsKU3Orxlb8NzPh7QKk2EIIXGFz6htmsSkWmx9HlY3g9Er0t6xDKPdHnJltFuk9Le0zCTB6FvvqolNe9xcs7YrHQslTyWUHFbGi4MdDqekE_rgUbHGtH1qfpFJoWuXQ6pNkUV3RP9m8bYxRnh40lVJ86o3A1H1LlORq-_JW9RwLsO6xDCkqT7pzG3FP4USNkSKdlyDQ3G_bnqdpVqhtKjmFPI85o80zI1RO88GeEnWJIn7pkT4ayeuQJzuRMsLvj-RsfyLANipP6nq-DCXSj4AcD7RxLGtzRnydtdQk2cVMlduDZjxFlg6lM3j2DTvfqhijU9jxFnMUMSScvuh_xJQDL53RcJl1_fqsyYA7lPv2UDwJTmSnUGsyYPH_9cGZBG1IChE_Z_nRAykakcRUI_OQXEjKWgkhrHEe80QVroj6jiN1-xy2sZgqGKsPuRIWHBlTMBUIQSwMAPtomtDwwFjd_J5i3h9SsckXaAPTl5j0g7lG7JhOIZNz-NtNqaq-cI6AHcF3meXle-oesY6bK9aBEGGtsz-ZqqRac-uPLDqJXQM9xmicrxRnMPcdxX6_BnZNsOqMMJ8TrnL34yIzqHdPsFHw5cl6bP6rWkIXCbNa5dv9ASUr1FAJFoJCzmgcHQFRGWnRNRwZY9P7gPAChJ8x_JpSJ_eLkQegC5xOJsJjF8youvUpSKEgKoY8kDkiYilGxOnDRtPmSTxGG5eBcFPVxoZTnk1rzHvy6Kp2R1j7gfues2Brta0WaAkcqKhj9VBkR_0G00?></g></svg>