<svg xmlns="http://www.w3.org/2000/svg" xmlns:xlink="http://www.w3.org/1999/xlink" contentStyleType="text/css" data-diagram-type="SEQUENCE" height="1242px" preserveAspectRatio="none" style="width:1385px;height:1242px;background:#FFFFFF;" version="1.1" viewBox="0 0 1385 1242" width="1385px" zoomAndPan="magnify"><?plantuml 1.2026.6?><defs/><g><rect fill="#E6E6FA" height="1216.9063" style="stroke:#181818;stroke-width:0.5;" width="229.3164" x="136.9214" y="11"/><text fill="#000000" font-family="Helvetica" font-size="10" font-weight="700" x="212.4829" y="20.2822">Prim&#228;rsystem</text><rect fill="#EDFDEC" height="1216.9063" style="stroke:#181818;stroke-width:0.5;" width="371.0903" x="778.6768" y="11"/><text fill="#000000" font-family="Helvetica" font-size="10" font-weight="700" x="939.8616" y="20.2822">Anbieter</text><rect fill="#FFF3E5" height="1200.2656" style="stroke:#181818;stroke-width:0.5;" width="90.2891" x="778.6768" y="27.6406"/><text fill="#000000" font-family="Helvetica" font-size="10" font-weight="700" x="790.6768" y="36.9229">ZETA Guard</text><g><title>User</title><rect fill="#000000" fill-opacity="0.00000" height="1035.3438" width="8" x="20.8965" y="114.9219"/><line style="stroke:#000000;stroke-width:0.5;stroke-dasharray:5,5;" x1="24.3965" x2="24.3965" y1="114.9219" y2="1150.2656"/></g><g><title>Fach-Client</title><rect fill="#000000" fill-opacity="0.00000" height="1035.3438" width="8" x="172.5586" y="114.9219"/><line style="stroke:#000000;stroke-width:0.5;stroke-dasharray:5,5;" x1="176.0586" x2="176.0586" y1="114.9219" y2="1150.2656"/></g><g><title/><rect fill="#FFFFFF" height="968.4219" style="stroke:#181818;stroke-width:1;" width="10" x="171.0586" y="163.8438"/></g><g><title>ZETA Client</title><rect fill="#000000" fill-opacity="0.00000" height="1035.3438" width="8" x="322.6143" y="114.9219"/><line style="stroke:#000000;stroke-width:0.5;stroke-dasharray:5,5;" x1="326.1143" x2="326.1143" y1="114.9219" y2="1150.2656"/></g><g><title/><rect fill="#FFFFFF" height="917.1406" style="stroke:#181818;stroke-width:1;" width="10" x="321.1143" y="189.4844"/></g><g><title>PEP</title><rect fill="#000000" fill-opacity="0.00000" height="1035.3438" width="8" x="820.3213" y="114.9219"/><line style="stroke:#000000;stroke-width:0.5;stroke-dasharray:5,5;" x1="823.8213" x2="823.8213" y1="114.9219" y2="1150.2656"/></g><g><title/><rect fill="#FFFFFF" height="717.6563" style="stroke:#181818;stroke-width:1;" width="10" x="818.8213" y="324.6875"/></g><g><title>Resource</title><rect fill="#000000" fill-opacity="0.00000" height="1035.3438" width="8" x="1112.0029" y="114.9219"/><line style="stroke:#000000;stroke-width:0.5;stroke-dasharray:5,5;" x1="1115.5029" x2="1115.5029" y1="114.9219" y2="1150.2656"/></g><g><title/><rect fill="#FFFFFF" height="64.2813" style="stroke:#181818;stroke-width:1;" width="10" x="1110.5029" y="502.1719"/></g><g><title/><rect fill="#FFFFFF" height="153.2031" style="stroke:#181818;stroke-width:1;" width="10" x="1110.5029" y="849.5"/></g><text fill="#000000" font-family="Helvetica" font-size="10" x="10" y="112.5635">User</text><ellipse cx="24.3965" cy="51.7813" fill="#E2E2F0" rx="8" ry="8" style="stroke:#181818;stroke-width:0.5;"/><path d="M24.3965,59.7813 L24.3965,86.7813 M11.3965,67.7813 L37.3965,67.7813 M24.3965,86.7813 L11.3965,101.7813 M24.3965,86.7813 L37.3965,101.7813" fill="none" style="stroke:#181818;stroke-width:0.5;"/><rect fill="#D5E8D4" height="25.6406" rx="2.5" ry="2.5" style="stroke:#82B366;stroke-width:0.5;" width="70.2744" x="140.9214" y="88.2813"/><text fill="#000000" font-family="Helvetica" font-size="10" x="147.9214" y="104.5635">Fach-Client</text><rect fill="#FFE6CC" height="25.6406" rx="2.5" ry="2.5" style="stroke:#D79B00;stroke-width:0.5;" width="72.2471" x="289.9907" y="88.2813"/><text fill="#000000" font-family="Helvetica" font-size="10" x="296.9907" y="104.5635">ZETA Client</text><rect fill="#FFE6CC" height="37.2813" rx="2.5" ry="2.5" style="stroke:#D79B00;stroke-width:0.5;" width="71.041" x="788.3008" y="76.6406"/><text fill="#000000" font-family="Helvetica" font-size="10" x="814.6318" y="92.9229">PEP</text><text fill="#000000" font-family="Helvetica" font-size="10" x="795.3008" y="104.5635">HTTP Proxy</text><rect fill="#D5E8D4" height="37.2813" rx="2.5" ry="2.5" style="stroke:#82B366;stroke-width:0.5;" width="60.5283" x="1085.2388" y="76.6406"/><text fill="#000000" font-family="Helvetica" font-size="10" x="1092.2388" y="92.9229">Resource</text><text fill="#000000" font-family="Helvetica" font-size="10" x="1099.1064" y="104.5635">Server</text><text fill="#000000" font-family="Helvetica" font-size="10" x="10" y="1219.5479">User</text><ellipse cx="24.3965" cy="1158.7656" fill="#E2E2F0" rx="8" ry="8" style="stroke:#181818;stroke-width:0.5;"/><path d="M24.3965,1166.7656 L24.3965,1193.7656 M11.3965,1174.7656 L37.3965,1174.7656 M24.3965,1193.7656 L11.3965,1208.7656 M24.3965,1193.7656 L37.3965,1208.7656" fill="none" style="stroke:#181818;stroke-width:0.5;"/><rect fill="#D5E8D4" height="25.6406" rx="2.5" ry="2.5" style="stroke:#82B366;stroke-width:0.5;" width="70.2744" x="140.9214" y="1150.2656"/><text fill="#000000" font-family="Helvetica" font-size="10" x="147.9214" y="1166.5479">Fach-Client</text><rect fill="#FFE6CC" height="25.6406" rx="2.5" ry="2.5" style="stroke:#D79B00;stroke-width:0.5;" width="72.2471" x="289.9907" y="1150.2656"/><text fill="#000000" font-family="Helvetica" font-size="10" x="296.9907" y="1166.5479">ZETA Client</text><rect fill="#FFE6CC" height="37.2813" rx="2.5" ry="2.5" style="stroke:#D79B00;stroke-width:0.5;" width="71.041" x="788.3008" y="1150.2656"/><text fill="#000000" font-family="Helvetica" font-size="10" x="814.6318" y="1166.5479">PEP</text><text fill="#000000" font-family="Helvetica" font-size="10" x="795.3008" y="1178.1885">HTTP Proxy</text><rect fill="#D5E8D4" height="37.2813" rx="2.5" ry="2.5" style="stroke:#82B366;stroke-width:0.5;" width="60.5283" x="1085.2388" y="1150.2656"/><text fill="#000000" font-family="Helvetica" font-size="10" x="1092.2388" y="1166.5479">Resource</text><text fill="#000000" font-family="Helvetica" font-size="10" x="1099.1064" y="1178.1885">Server</text><polygon fill="#181818" points="159.0586,159.8438,169.0586,163.8438,159.0586,167.8438,163.0586,163.8438" style="stroke:#181818;stroke-width:1;stroke-linejoin:miter;stroke-miterlimit:10;"/><line style="stroke:#181818;stroke-width:1;" x1="24.3965" x2="165.0586" y1="163.8438" y2="163.8438"/><text fill="#000000" font-family="Helvetica" font-size="10" x="31.3965" y="147.8447">(01)</text><text fill="#000000" font-family="Helvetica" font-size="10" x="55.9238" y="136.2041">User wants to</text><text fill="#000000" font-family="Helvetica" font-size="10" x="55.9238" y="147.8447">access resource</text><text fill="#000000" font-family="Helvetica" font-size="10" x="55.9238" y="159.4854">on Resource Server</text><polygon fill="#181818" points="309.1143,185.4844,319.1143,189.4844,309.1143,193.4844,313.1143,189.4844" style="stroke:#181818;stroke-width:1;stroke-linejoin:miter;stroke-miterlimit:10;"/><line style="stroke:#181818;stroke-width:1;" x1="181.0586" x2="315.1143" y1="189.4844" y2="189.4844"/><text fill="#000000" font-family="Helvetica" font-size="10" x="188.0586" y="185.126">(02)</text><text fill="#000000" font-family="Helvetica" font-size="10" x="212.5859" y="185.126">GET /resource</text><path d="M295.2922,202.4844 L295.2922,235.4844 L854.2922,235.4844 L854.2922,212.4844 L844.2922,202.4844 L295.2922,202.4844" fill="#FEFFDD" style="stroke:#181818;stroke-width:0.5;"/><path d="M844.2922,202.4844 L844.2922,212.4844 L854.2922,212.4844 L844.2922,202.4844" fill="#FEFFDD" style="stroke:#181818;stroke-width:0.5;"/><text fill="#000000" font-family="Helvetica" font-size="10" font-weight="700" x="351.6787" y="216.7666">Vorbedingung:</text><text fill="#000000" font-family="Helvetica" font-size="10" x="351.6787" y="228.4072">Der ZETA Client hat ein g&#252;ltiges Access Token f&#252;r den Zugriff auf den Resource Server.</text><line style="stroke:#181818;stroke-width:1;" x1="331.1143" x2="373.1143" y1="258.4063" y2="258.4063"/><line style="stroke:#181818;stroke-width:1;" x1="373.1143" x2="373.1143" y1="258.4063" y2="271.4063"/><line style="stroke:#181818;stroke-width:1;" x1="332.1143" x2="373.1143" y1="271.4063" y2="271.4063"/><polygon fill="#181818" points="342.1143,267.4063,332.1143,271.4063,342.1143,275.4063,338.1143,271.4063" style="stroke:#181818;stroke-width:1;stroke-linejoin:miter;stroke-miterlimit:10;"/><text fill="#000000" font-family="Helvetica" font-size="10" x="338.1143" y="254.0479">(03)</text><text fill="#000000" font-family="Helvetica" font-size="10" x="362.6416" y="254.0479">Create DPoP Proof for RS</text><path d="M310.1143,283.4063 L370.0703,283.4063 L370.0703,287.0469 L360.0703,297.0469 L310.1143,297.0469 L310.1143,283.4063" fill="#EEEEEE" style="stroke:#000000;stroke-width:1.5;"/><rect fill="none" height="727.2969" style="stroke:#000000;stroke-width:1.5;" width="1055.4092" x="310.1143" y="283.4063"/><text fill="#000000" font-family="Helvetica" font-size="10" font-weight="700" x="325.1143" y="293.6885">alt</text><text fill="#000000" font-family="Helvetica" font-size="10" font-weight="700" x="385.0703" y="294.6885">[ZETA/ASL terminates at PEP]</text><line style="stroke:#000000;stroke-width:1;stroke-dasharray:2,2;" x1="310.1143" x2="1365.5234" y1="624.0938" y2="624.0938"/><text fill="#000000" font-family="Helvetica" font-size="10" font-weight="700" x="315.1143" y="635.376">[ZETA/ASL terminates at Resource Server]</text><polygon fill="#181818" points="806.8213,320.6875,816.8213,324.6875,806.8213,328.6875,810.8213,324.6875" style="stroke:#181818;stroke-width:1;stroke-linejoin:miter;stroke-miterlimit:10;"/><line style="stroke:#181818;stroke-width:1;" x1="331.1143" x2="812.8213" y1="324.6875" y2="324.6875"/><text fill="#000000" font-family="Helvetica" font-size="10" x="338.1143" y="320.3291">(04)</text><text fill="#000000" font-family="Helvetica" font-size="10" x="362.6416" y="320.3291">ZETA/ASL Verbindungsaufbau</text><polygon fill="#181818" points="342.1143,346.3281,332.1143,350.3281,342.1143,354.3281,338.1143,350.3281" style="stroke:#181818;stroke-width:1;stroke-linejoin:miter;stroke-miterlimit:10;"/><line style="stroke:#181818;stroke-width:1;stroke-dasharray:2,2;" x1="336.1143" x2="817.8213" y1="350.3281" y2="350.3281"/><text fill="#000000" font-family="Helvetica" font-size="10" x="348.1143" y="345.9697">(05)</text><text fill="#000000" font-family="Helvetica" font-size="10" x="372.6416" y="345.9697">&#160;</text><polygon fill="#181818" points="806.8213,395.25,816.8213,399.25,806.8213,403.25,810.8213,399.25" style="stroke:#181818;stroke-width:1;stroke-linejoin:miter;stroke-miterlimit:10;"/><line style="stroke:#181818;stroke-width:1;" x1="331.1143" x2="812.8213" y1="399.25" y2="399.25"/><text fill="#000000" font-family="Helvetica" font-size="10" x="338.1143" y="383.251">(06)</text><text fill="#000000" font-family="Helvetica" font-size="10" x="362.6416" y="371.6104">POST /ASL (outer request)</text><text fill="#000000" font-family="Helvetica" font-size="10" x="375.3564" y="383.251">Body (inner request): GET /resource</text><text fill="#000000" font-family="Helvetica" font-size="10" x="381.7139" y="394.8916">Authorization: DPoP &lt;Access Token for RS&gt; DPoP: &lt;DPoP Proof for RS&gt;</text><line style="stroke:#181818;stroke-width:1;" x1="828.8213" x2="870.8213" y1="424.8906" y2="424.8906"/><line style="stroke:#181818;stroke-width:1;" x1="870.8213" x2="870.8213" y1="424.8906" y2="437.8906"/><line style="stroke:#181818;stroke-width:1;" x1="829.8213" x2="870.8213" y1="437.8906" y2="437.8906"/><polygon fill="#181818" points="839.8213,433.8906,829.8213,437.8906,839.8213,441.8906,835.8213,437.8906" style="stroke:#181818;stroke-width:1;stroke-linejoin:miter;stroke-miterlimit:10;"/><text fill="#000000" font-family="Helvetica" font-size="10" x="835.8213" y="420.5322">(07)</text><text fill="#000000" font-family="Helvetica" font-size="10" x="860.3486" y="420.5322">Terminate ZETA/ASL</text><line style="stroke:#181818;stroke-width:1;" x1="828.8213" x2="870.8213" y1="463.5313" y2="463.5313"/><line style="stroke:#181818;stroke-width:1;" x1="870.8213" x2="870.8213" y1="463.5313" y2="476.5313"/><line style="stroke:#181818;stroke-width:1;" x1="829.8213" x2="870.8213" y1="476.5313" y2="476.5313"/><polygon fill="#181818" points="839.8213,472.5313,829.8213,476.5313,839.8213,480.5313,835.8213,476.5313" style="stroke:#181818;stroke-width:1;stroke-linejoin:miter;stroke-miterlimit:10;"/><text fill="#000000" font-family="Helvetica" font-size="10" x="835.8213" y="459.1729">(08)</text><text fill="#000000" font-family="Helvetica" font-size="10" x="860.3486" y="459.1729">Verify Access Token and DPoP Proof for RS</text><polygon fill="#181818" points="1098.5029,498.1719,1108.5029,502.1719,1098.5029,506.1719,1102.5029,502.1719" style="stroke:#181818;stroke-width:1;stroke-linejoin:miter;stroke-miterlimit:10;"/><line style="stroke:#181818;stroke-width:1;" x1="828.8213" x2="1104.5029" y1="502.1719" y2="502.1719"/><text fill="#000000" font-family="Helvetica" font-size="10" x="835.8213" y="497.8135">(09)</text><text fill="#000000" font-family="Helvetica" font-size="10" x="860.3486" y="497.8135">forward GET /resource</text><line style="stroke:#181818;stroke-width:1;" x1="1120.5029" x2="1162.5029" y1="527.8125" y2="527.8125"/><line style="stroke:#181818;stroke-width:1;" x1="1162.5029" x2="1162.5029" y1="527.8125" y2="540.8125"/><line style="stroke:#181818;stroke-width:1;" x1="1121.5029" x2="1162.5029" y1="540.8125" y2="540.8125"/><polygon fill="#181818" points="1131.5029,536.8125,1121.5029,540.8125,1131.5029,544.8125,1127.5029,540.8125" style="stroke:#181818;stroke-width:1;stroke-linejoin:miter;stroke-miterlimit:10;"/><text fill="#000000" font-family="Helvetica" font-size="10" x="1127.5029" y="523.4541">(10)</text><text fill="#000000" font-family="Helvetica" font-size="10" x="1152.0303" y="523.4541">Create Response</text><polygon fill="#181818" points="839.8213,562.4531,829.8213,566.4531,839.8213,570.4531,835.8213,566.4531" style="stroke:#181818;stroke-width:1;stroke-linejoin:miter;stroke-miterlimit:10;"/><line style="stroke:#181818;stroke-width:1;stroke-dasharray:2,2;" x1="833.8213" x2="1109.5029" y1="566.4531" y2="566.4531"/><text fill="#000000" font-family="Helvetica" font-size="10" x="845.8213" y="562.0947">(11)</text><text fill="#000000" font-family="Helvetica" font-size="10" x="870.3486" y="562.0947">200 OK, Response</text><line style="stroke:#181818;stroke-width:1;" x1="828.8213" x2="870.8213" y1="592.0938" y2="592.0938"/><line style="stroke:#181818;stroke-width:1;" x1="870.8213" x2="870.8213" y1="592.0938" y2="605.0938"/><line style="stroke:#181818;stroke-width:1;" x1="829.8213" x2="870.8213" y1="605.0938" y2="605.0938"/><polygon fill="#181818" points="839.8213,601.0938,829.8213,605.0938,839.8213,609.0938,835.8213,605.0938" style="stroke:#181818;stroke-width:1;stroke-linejoin:miter;stroke-miterlimit:10;"/><text fill="#000000" font-family="Helvetica" font-size="10" x="835.8213" y="587.7354">(12)</text><text fill="#000000" font-family="Helvetica" font-size="10" x="860.3486" y="587.7354">create ZETA/ASL encrypted Response</text><line style="stroke:#181818;stroke-width:1;" x1="331.1143" x2="373.1143" y1="660.375" y2="660.375"/><line style="stroke:#181818;stroke-width:1;" x1="373.1143" x2="373.1143" y1="660.375" y2="673.375"/><line style="stroke:#181818;stroke-width:1;" x1="332.1143" x2="373.1143" y1="673.375" y2="673.375"/><polygon fill="#181818" points="342.1143,669.375,332.1143,673.375,342.1143,677.375,338.1143,673.375" style="stroke:#181818;stroke-width:1;stroke-linejoin:miter;stroke-miterlimit:10;"/><text fill="#000000" font-family="Helvetica" font-size="10" x="338.1143" y="656.0166">(13)</text><text fill="#000000" font-family="Helvetica" font-size="10" x="362.6416" y="656.0166">Create DPoP Proof for ZETA/ASL</text><polygon fill="#181818" points="806.8213,695.0156,816.8213,699.0156,806.8213,703.0156,810.8213,699.0156" style="stroke:#181818;stroke-width:1;stroke-linejoin:miter;stroke-miterlimit:10;"/><line style="stroke:#181818;stroke-width:1;" x1="331.1143" x2="812.8213" y1="699.0156" y2="699.0156"/><text fill="#000000" font-family="Helvetica" font-size="10" x="338.1143" y="694.6572">(14)</text><text fill="#000000" font-family="Helvetica" font-size="10" x="362.6416" y="694.6572">ZETA/ASL Verbindungsaufbau</text><polygon fill="#181818" points="342.1143,720.6563,332.1143,724.6563,342.1143,728.6563,338.1143,724.6563" style="stroke:#181818;stroke-width:1;stroke-linejoin:miter;stroke-miterlimit:10;"/><line style="stroke:#181818;stroke-width:1;stroke-dasharray:2,2;" x1="336.1143" x2="817.8213" y1="724.6563" y2="724.6563"/><text fill="#000000" font-family="Helvetica" font-size="10" x="348.1143" y="720.2979">(15)</text><text fill="#000000" font-family="Helvetica" font-size="10" x="372.6416" y="720.2979">&#160;</text><polygon fill="#181818" points="806.8213,781.2188,816.8213,785.2188,806.8213,789.2188,810.8213,785.2188" style="stroke:#181818;stroke-width:1;stroke-linejoin:miter;stroke-miterlimit:10;"/><line style="stroke:#181818;stroke-width:1;" x1="331.1143" x2="812.8213" y1="785.2188" y2="785.2188"/><text fill="#000000" font-family="Helvetica" font-size="10" x="338.1143" y="763.3994">(16)</text><text fill="#000000" font-family="Helvetica" font-size="10" x="362.6416" y="745.9385">POST /ASL (outer request)</text><text fill="#000000" font-family="Helvetica" font-size="10" x="375.3564" y="757.5791">Authorization: DPoP &lt;Access Token for ZETA/ASL&gt; DPoP: &lt;DPoP Proof for ZETA/ASL&gt;</text><text fill="#000000" font-family="Helvetica" font-size="10" x="375.3564" y="769.2197">Body (ASL encrypted inner request): GET /resource</text><text fill="#000000" font-family="Helvetica" font-size="10" x="381.7139" y="780.8604">Authorization: DPoP &lt;Access Token for RS&gt; DPoP: &lt;DPoP Proof for RS&gt;</text><line style="stroke:#181818;stroke-width:1;" x1="828.8213" x2="870.8213" y1="810.8594" y2="810.8594"/><line style="stroke:#181818;stroke-width:1;" x1="870.8213" x2="870.8213" y1="810.8594" y2="823.8594"/><line style="stroke:#181818;stroke-width:1;" x1="829.8213" x2="870.8213" y1="823.8594" y2="823.8594"/><polygon fill="#181818" points="839.8213,819.8594,829.8213,823.8594,839.8213,827.8594,835.8213,823.8594" style="stroke:#181818;stroke-width:1;stroke-linejoin:miter;stroke-miterlimit:10;"/><text fill="#000000" font-family="Helvetica" font-size="10" x="835.8213" y="806.501">(17)</text><text fill="#000000" font-family="Helvetica" font-size="10" x="860.3486" y="806.501">verify Access Token and DPoP Proof for ZETA/ASL</text><polygon fill="#181818" points="1098.5029,845.5,1108.5029,849.5,1098.5029,853.5,1102.5029,849.5" style="stroke:#181818;stroke-width:1;stroke-linejoin:miter;stroke-miterlimit:10;"/><line style="stroke:#181818;stroke-width:1;" x1="828.8213" x2="1104.5029" y1="849.5" y2="849.5"/><text fill="#000000" font-family="Helvetica" font-size="10" x="835.8213" y="845.1416">(18)</text><text fill="#000000" font-family="Helvetica" font-size="10" x="860.3486" y="845.1416">forward POST /ASL</text><line style="stroke:#181818;stroke-width:1;" x1="1120.5029" x2="1162.5029" y1="875.1406" y2="875.1406"/><line style="stroke:#181818;stroke-width:1;" x1="1162.5029" x2="1162.5029" y1="875.1406" y2="888.1406"/><line style="stroke:#181818;stroke-width:1;" x1="1121.5029" x2="1162.5029" y1="888.1406" y2="888.1406"/><polygon fill="#181818" points="1131.5029,884.1406,1121.5029,888.1406,1131.5029,892.1406,1127.5029,888.1406" style="stroke:#181818;stroke-width:1;stroke-linejoin:miter;stroke-miterlimit:10;"/><text fill="#000000" font-family="Helvetica" font-size="10" x="1127.5029" y="870.7822">(19)</text><text fill="#000000" font-family="Helvetica" font-size="10" x="1152.0303" y="870.7822">Terminate ZETA/ASL</text><line style="stroke:#181818;stroke-width:1;" x1="1120.5029" x2="1162.5029" y1="925.4219" y2="925.4219"/><line style="stroke:#181818;stroke-width:1;" x1="1162.5029" x2="1162.5029" y1="925.4219" y2="938.4219"/><line style="stroke:#181818;stroke-width:1;" x1="1121.5029" x2="1162.5029" y1="938.4219" y2="938.4219"/><polygon fill="#181818" points="1131.5029,934.4219,1121.5029,938.4219,1131.5029,942.4219,1127.5029,938.4219" style="stroke:#181818;stroke-width:1;stroke-linejoin:miter;stroke-miterlimit:10;"/><text fill="#000000" font-family="Helvetica" font-size="10" x="1127.5029" y="915.2432">(20)</text><text fill="#000000" font-family="Helvetica" font-size="10" x="1152.0303" y="909.4229">Verify Access Token and</text><text fill="#000000" font-family="Helvetica" font-size="10" x="1152.0303" y="921.0635">DPoP Proof for RS</text><line style="stroke:#181818;stroke-width:1;" x1="1120.5029" x2="1162.5029" y1="964.0625" y2="964.0625"/><line style="stroke:#181818;stroke-width:1;" x1="1162.5029" x2="1162.5029" y1="964.0625" y2="977.0625"/><line style="stroke:#181818;stroke-width:1;" x1="1121.5029" x2="1162.5029" y1="977.0625" y2="977.0625"/><polygon fill="#181818" points="1131.5029,973.0625,1121.5029,977.0625,1131.5029,981.0625,1127.5029,977.0625" style="stroke:#181818;stroke-width:1;stroke-linejoin:miter;stroke-miterlimit:10;"/><text fill="#000000" font-family="Helvetica" font-size="10" x="1127.5029" y="959.7041">(21)</text><text fill="#000000" font-family="Helvetica" font-size="10" x="1152.0303" y="959.7041">Create ZETA/ASL encrypted Response</text><polygon fill="#181818" points="839.8213,998.7031,829.8213,1002.7031,839.8213,1006.7031,835.8213,1002.7031" style="stroke:#181818;stroke-width:1;stroke-linejoin:miter;stroke-miterlimit:10;"/><line style="stroke:#181818;stroke-width:1;stroke-dasharray:2,2;" x1="833.8213" x2="1109.5029" y1="1002.7031" y2="1002.7031"/><text fill="#000000" font-family="Helvetica" font-size="10" x="845.8213" y="998.3447">(22)</text><text fill="#000000" font-family="Helvetica" font-size="10" x="870.3486" y="998.3447">200 OK, ZETA/ASL encrypted Response</text><polygon fill="#181818" points="342.1143,1038.3438,332.1143,1042.3438,342.1143,1046.3438,338.1143,1042.3438" style="stroke:#181818;stroke-width:1;stroke-linejoin:miter;stroke-miterlimit:10;"/><line style="stroke:#181818;stroke-width:1;stroke-dasharray:2,2;" x1="336.1143" x2="817.8213" y1="1042.3438" y2="1042.3438"/><text fill="#000000" font-family="Helvetica" font-size="10" x="348.1143" y="1037.9854">(23)</text><text fill="#000000" font-family="Helvetica" font-size="10" x="372.6416" y="1037.9854">200 OK, ZETA/ASL encrypted Response</text><line style="stroke:#181818;stroke-width:1;" x1="331.1143" x2="373.1143" y1="1067.9844" y2="1067.9844"/><line style="stroke:#181818;stroke-width:1;" x1="373.1143" x2="373.1143" y1="1067.9844" y2="1080.9844"/><line style="stroke:#181818;stroke-width:1;" x1="332.1143" x2="373.1143" y1="1080.9844" y2="1080.9844"/><polygon fill="#181818" points="342.1143,1076.9844,332.1143,1080.9844,342.1143,1084.9844,338.1143,1080.9844" style="stroke:#181818;stroke-width:1;stroke-linejoin:miter;stroke-miterlimit:10;"/><text fill="#000000" font-family="Helvetica" font-size="10" x="338.1143" y="1063.626">(24)</text><text fill="#000000" font-family="Helvetica" font-size="10" x="362.6416" y="1063.626">decrypt Response</text><polygon fill="#181818" points="192.0586,1102.625,182.0586,1106.625,192.0586,1110.625,188.0586,1106.625" style="stroke:#181818;stroke-width:1;stroke-linejoin:miter;stroke-miterlimit:10;"/><line style="stroke:#181818;stroke-width:1;stroke-dasharray:2,2;" x1="186.0586" x2="320.1143" y1="1106.625" y2="1106.625"/><text fill="#000000" font-family="Helvetica" font-size="10" x="198.0586" y="1102.2666">(25)</text><text fill="#000000" font-family="Helvetica" font-size="10" x="222.5859" y="1102.2666">200 OK, Response</text><polygon fill="#181818" points="35.3965,1128.2656,25.3965,1132.2656,35.3965,1136.2656,31.3965,1132.2656" style="stroke:#181818;stroke-width:1;stroke-linejoin:miter;stroke-miterlimit:10;"/><line style="stroke:#181818;stroke-width:1;stroke-dasharray:2,2;" x1="29.3965" x2="170.0586" y1="1132.2656" y2="1132.2656"/><text fill="#000000" font-family="Helvetica" font-size="10" x="41.3965" y="1127.9072">(26)</text><text fill="#000000" font-family="Helvetica" font-size="10" x="65.9238" y="1127.9072">Response</text><?plantuml-src nLNRRjf047tVhvZob48WKHyjXEG2kQY9i6mdKYEaQB7NP5MpItVNISZtz3FobX_hU8rl4AAyL7t2C6TcpfnpW2zSH6aMCnWCJjRPAksdT2CpCp3FXX3YHaOgkD5CaOLyXewd-EhjZz8RRTYg0vv_UUrE_U1d44wlxyUpgvbF0DPK6HxnDHK6piP0DNJEQFJG7wUS2TE1uN2jv2EFcHgDTk05nBRSJKCNwfONPYZ2cOW1cP22ZYiMd1ccSYQpsyl9rAz8sBgTSPvH5NSWVxu_lt7zIOLfxxxmx5vlwit5HHXwu2dvl6di1YYtjnlzm3RwJCjCHMmk0gOUSrAjGolckPhG7-NIz7hWM7NX2GTfC78kQ1GnhK5LqwI0SZGKamcsue2jM7R8-JI4axA7424D0udGBUWOhtEWsxsLQi5YBfQPM3hTxbnC4D9G6Xwe0SO5BDzUKyENJ8DRy0dbBoOWUNjL4EF3NRPKF4c0PebzlyDmGCXsOCNJWR5Y56bDF6crbGaa62u_88Icnh8uSOChG3zNN21I0v91Er3kUjY5r-ivDVYMgGKNCPwZaSg2PWX68_lLsfrc1xnPW5BblKUOSpnViTyPq-RhNEI9-2xZ3Hnn8HgL7NaB882RcGUf-0irN0gdk6lObilUDx8b1uPxbu-sR0jcONbuTLwhZAVoPDFsWsAezlKikp2ODXpuyHD-1tP20ddTeYfhqCMr5BgisSNuWYE-dPx2xCTn4r4pYuhkoXGc8hLP6nRNS9PgTiZYtNGt7ViuEmsTcYR3lmp8vrmlzn_olgetKzVMxhzayF5p8TiBg8rQdRHAmrRAtWruNJuGSFoHUYVXUzdzA7q7u_nXP4LCMadvVEj-VcDcGVkGue_W_U-OBOoAFmYBg2f_0G00?></g></svg>