<svg xmlns="http://www.w3.org/2000/svg" xmlns:xlink="http://www.w3.org/1999/xlink" contentStyleType="text/css" data-diagram-type="SEQUENCE" height="311px" preserveAspectRatio="none" style="width:668px;height:311px;background:#FFFFFF;" version="1.1" viewBox="0 0 668 311" width="668px" zoomAndPan="magnify"><?plantuml 1.2026.6?><defs/><g><rect fill="#FEFCFF" height="285.6875" style="stroke:#181818;stroke-width:0.5;" width="102.1934" x="16" y="11"/><text fill="#000000" font-family="Helvetica" font-size="10" font-weight="700" x="48.2271" y="20.2822">Device</text><rect fill="#E6E6FA" height="269.0469" style="stroke:#181818;stroke-width:0.5;" width="102.1934" x="16" y="27.6406"/><text fill="#000000" font-family="Helvetica" font-size="10" font-weight="700" x="28" y="36.9229">Prim&#228;rsystem</text><rect fill="#EDFDEC" height="285.6875" style="stroke:#181818;stroke-width:0.5;" width="205.9902" x="445.8154" y="11"/><text fill="#000000" font-family="Helvetica" font-size="10" font-weight="700" x="486.9185" y="20.2822">Anbieter TI 2.0 Dienst</text><rect fill="#FFF3E5" height="269.0469" style="stroke:#181818;stroke-width:0.5;" width="205.9902" x="445.8154" y="27.6406"/><text fill="#000000" font-family="Helvetica" font-size="10" font-weight="700" x="515.666" y="36.9229">ZETA Guard</text><g><title>ZETA</title><rect fill="#000000" fill-opacity="0.00000" height="170.8438" width="8" x="63.5967" y="81.5625"/><line style="stroke:#000000;stroke-width:0.5;stroke-dasharray:5,5;" x1="67.0967" x2="67.0967" y1="81.5625" y2="252.4063"/></g><g><title/><rect fill="#FFFFFF" height="162.8438" style="stroke:#181818;stroke-width:1;" width="10" x="62.0967" y="89.5625"/></g><g><title>PEP</title><rect fill="#000000" fill-opacity="0.00000" height="170.8438" width="8" x="481.8359" y="81.5625"/><line style="stroke:#000000;stroke-width:0.5;stroke-dasharray:5,5;" x1="485.3359" x2="485.3359" y1="81.5625" y2="252.4063"/></g><g><title/><rect fill="#FFFFFF" height="25.6406" style="stroke:#181818;stroke-width:1;" width="10" x="480.3359" y="107.2031"/></g><g><title>PDP</title><rect fill="#000000" fill-opacity="0.00000" height="170.8438" width="8" x="585.8311" y="81.5625"/><line style="stroke:#000000;stroke-width:0.5;stroke-dasharray:5,5;" x1="589.3311" x2="589.3311" y1="81.5625" y2="252.4063"/></g><g><title/><rect fill="#FFFFFF" height="25.6406" style="stroke:#181818;stroke-width:1;" width="10" x="584.3311" y="170.125"/></g><rect fill="#FFE6CC" height="37.2813" rx="2.5" ry="2.5" style="stroke:#D79B00;stroke-width:0.5;" width="42.9502" x="45.6216" y="43.2813"/><text fill="#000000" font-family="Helvetica" font-size="10" x="54.0376" y="59.5635">ZETA</text><text fill="#000000" font-family="Helvetica" font-size="10" x="52.6216" y="71.2041">Client</text><rect fill="#FFE6CC" height="37.2813" rx="2.5" ry="2.5" style="stroke:#D79B00;stroke-width:0.5;" width="71.041" x="449.8154" y="43.2813"/><text fill="#000000" font-family="Helvetica" font-size="10" x="476.1465" y="59.5635">PEP</text><text fill="#000000" font-family="Helvetica" font-size="10" x="456.8154" y="71.2041">HTTP Proxy</text><rect fill="#FFE6CC" height="37.2813" rx="2.5" ry="2.5" style="stroke:#D79B00;stroke-width:0.5;" width="116.9492" x="530.8564" y="43.2813"/><text fill="#000000" font-family="Helvetica" font-size="10" x="579.4507" y="59.5635">PDP</text><text fill="#000000" font-family="Helvetica" font-size="10" x="537.8564" y="71.2041">Authorization Server</text><rect fill="#FFE6CC" height="37.2813" rx="2.5" ry="2.5" style="stroke:#D79B00;stroke-width:0.5;" width="42.9502" x="45.6216" y="252.4063"/><text fill="#000000" font-family="Helvetica" font-size="10" x="54.0376" y="268.6885">ZETA</text><text fill="#000000" font-family="Helvetica" font-size="10" x="52.6216" y="280.3291">Client</text><rect fill="#FFE6CC" height="37.2813" rx="2.5" ry="2.5" style="stroke:#D79B00;stroke-width:0.5;" width="71.041" x="449.8154" y="252.4063"/><text fill="#000000" font-family="Helvetica" font-size="10" x="476.1465" y="268.6885">PEP</text><text fill="#000000" font-family="Helvetica" font-size="10" x="456.8154" y="280.3291">HTTP Proxy</text><rect fill="#FFE6CC" height="37.2813" rx="2.5" ry="2.5" style="stroke:#D79B00;stroke-width:0.5;" width="116.9492" x="530.8564" y="252.4063"/><text fill="#000000" font-family="Helvetica" font-size="10" x="579.4507" y="268.6885">PDP</text><text fill="#000000" font-family="Helvetica" font-size="10" x="537.8564" y="280.3291">Authorization Server</text><polygon fill="#181818" points="468.3359,103.2031,478.3359,107.2031,468.3359,111.2031,472.3359,107.2031" style="stroke:#181818;stroke-width:1;stroke-linejoin:miter;stroke-miterlimit:10;"/><line style="stroke:#181818;stroke-width:1;" x1="72.0967" x2="474.3359" y1="107.2031" y2="107.2031"/><text fill="#000000" font-family="Helvetica" font-size="10" x="79.0967" y="102.8447">(01)</text><text fill="#000000" font-family="Helvetica" font-size="10" x="103.624" y="102.8447">GET /.well-known/oauth-protected-resource Host: RS-FQDN</text><polygon fill="#181818" points="83.0967,128.8438,73.0967,132.8438,83.0967,136.8438,79.0967,132.8438" style="stroke:#181818;stroke-width:1;stroke-linejoin:miter;stroke-miterlimit:10;"/><line style="stroke:#181818;stroke-width:1;stroke-dasharray:2,2;" x1="77.0967" x2="479.3359" y1="132.8438" y2="132.8438"/><text fill="#000000" font-family="Helvetica" font-size="10" x="89.0967" y="128.4854">(02)</text><text fill="#000000" font-family="Helvetica" font-size="10" x="113.624" y="128.4854">Client: 200 OK; JSON body with Well-Known JSON Document  (RFC9728)</text><polygon fill="#181818" points="572.3311,166.125,582.3311,170.125,572.3311,174.125,576.3311,170.125" style="stroke:#181818;stroke-width:1;stroke-linejoin:miter;stroke-miterlimit:10;"/><line style="stroke:#181818;stroke-width:1;" x1="72.0967" x2="578.3311" y1="170.125" y2="170.125"/><text fill="#000000" font-family="Helvetica" font-size="10" x="79.0967" y="159.9463">(03)</text><text fill="#000000" font-family="Helvetica" font-size="10" x="103.624" y="154.126">GET /.well-known/oauth-authorization-server</text><text fill="#000000" font-family="Helvetica" font-size="10" x="103.624" y="165.7666">Host:  AuthS Issuer from OAuth Protected Resource Metadata</text><polygon fill="#181818" points="83.0967,191.7656,73.0967,195.7656,83.0967,199.7656,79.0967,195.7656" style="stroke:#181818;stroke-width:1;stroke-linejoin:miter;stroke-miterlimit:10;"/><line style="stroke:#181818;stroke-width:1;stroke-dasharray:2,2;" x1="77.0967" x2="583.3311" y1="195.7656" y2="195.7656"/><text fill="#000000" font-family="Helvetica" font-size="10" x="89.0967" y="191.4072">(04)</text><text fill="#000000" font-family="Helvetica" font-size="10" x="113.624" y="191.4072">200 OK; JSON body with Well-Known JSON Document   (RFC8414)</text><line style="stroke:#181818;stroke-width:1;" x1="72.0967" x2="114.0967" y1="221.4063" y2="221.4063"/><line style="stroke:#181818;stroke-width:1;" x1="114.0967" x2="114.0967" y1="221.4063" y2="234.4063"/><line style="stroke:#181818;stroke-width:1;" x1="73.0967" x2="114.0967" y1="234.4063" y2="234.4063"/><polygon fill="#181818" points="83.0967,230.4063,73.0967,234.4063,83.0967,238.4063,79.0967,234.4063" style="stroke:#181818;stroke-width:1;stroke-linejoin:miter;stroke-miterlimit:10;"/><text fill="#000000" font-family="Helvetica" font-size="10" x="79.0967" y="217.0479">(05)</text><text fill="#000000" font-family="Helvetica" font-size="10" x="103.624" y="217.0479">Update Configuration</text><?plantuml-src dP7HRfim58RlUOephZP59bbKQLrQHK904zQbKA2jDbMgN71NQs0ZspH9dsTliXUhZPEMIDCkwXiVRF_dVF_F1yhAkgi8UDwuxPeQrNZBE-MfZN8Svvvlm0t94os92s5q7GVHNP1yJp87eBzB1Mt-_X5oAnLfN4YpUEL7MVuZBwBLwqkpMYmKBMcBcOAWfaHlM8BxCohyMsOFN3WzVIOAp-TQGrXb9ZZxtQBux9uIHGGKCKoz2OHQ9vMPcrp7OPGTmfdciEYmg5mmzTtYoi_20TOGQfdsG6cKth9bKQIG2hxP7Z0T2lnEFUPM4sgD-UI2FcD5EOESY2SYtjJmBqlMzcYqAm3D3SLe13DOH0MClJMfQ_IRyJKRSwpxerPmHKf5AYI8v9qe2IovL3F8SdHs6LuuMezq6ziGeTckci5qCe7a_0I-vSc5dbvjOKtL8zoO2UTcWhq9UTarXWK-PcV1ro_Juqy3EclvVu1uc0AIVGewpvvn9u-bxFGVV12yWSGScQIjAyZshbOwjGehx5ZDcoTTmZlSz7QEZpuV3UtiixbgzIW20MSFz5SdUdRd1G00?></g></svg>