<svg xmlns="http://www.w3.org/2000/svg" xmlns:xlink="http://www.w3.org/1999/xlink" contentStyleType="text/css" data-diagram-type="SEQUENCE" height="844px" preserveAspectRatio="none" style="width:1049px;height:844px;background:#FFFFFF;" version="1.1" viewBox="0 0 1049 844" width="1049px" zoomAndPan="magnify"><?plantuml 1.2026.6?><defs/><g><rect fill="#FFFFFF" height="818.8594" style="stroke:#181818;stroke-width:0.5;" width="107.4688" x="16" y="11"/><text fill="#000000" font-family="Helvetica" font-size="10" font-weight="700" x="50.0762" y="20.2822">Google</text><rect fill="#FEFCFF" height="818.8594" style="stroke:#181818;stroke-width:0.5;" width="737.8926" x="135.4688" y="11"/><text fill="#000000" font-family="Helvetica" font-size="10" font-weight="700" x="485.5454" y="20.2822">Device</text><rect fill="#E6E6FA" height="802.2188" style="stroke:#181818;stroke-width:0.5;" width="80.2471" x="793.1143" y="27.6406"/><text fill="#000000" font-family="Helvetica" font-size="10" font-weight="700" x="822.21" y="36.9229">App</text><g><title>Play Integrity API</title><rect fill="#000000" fill-opacity="0.00000" height="727.2969" width="8" x="66.2344" y="69.9219"/><line style="stroke:#000000;stroke-width:0.5;stroke-dasharray:5,5;" x1="69.7344" x2="69.7344" y1="69.9219" y2="797.2188"/></g><g><title/><rect fill="#FFFFFF" height="25.6406" style="stroke:#181818;stroke-width:1;" width="10" x="64.7344" y="753.5781"/></g><g><title>TEE . StrongBox</title><rect fill="#000000" fill-opacity="0.00000" height="727.2969" width="8" x="183.2446" y="69.9219"/><line style="stroke:#000000;stroke-width:0.5;stroke-dasharray:5,5;" x1="186.7446" x2="186.7446" y1="69.9219" y2="797.2188"/></g><g><title/><rect fill="#FFFFFF" height="25.6406" style="stroke:#181818;stroke-width:1;" width="10" x="181.7446" y="204.125"/></g><g><title/><rect fill="#FFFFFF" height="25.6406" style="stroke:#181818;stroke-width:1;" width="10" x="181.7446" y="451.5313"/></g><g><title/><rect fill="#FFFFFF" height="25.6406" style="stroke:#181818;stroke-width:1;" width="10" x="181.7446" y="593.7344"/></g><g><title>Android OS</title><rect fill="#000000" fill-opacity="0.00000" height="727.2969" width="8" x="452.0015" y="69.9219"/><line style="stroke:#000000;stroke-width:0.5;stroke-dasharray:5,5;" x1="455.5015" x2="455.5015" y1="69.9219" y2="797.2188"/></g><g><title/><rect fill="#FFFFFF" height="719.2969" style="stroke:#181818;stroke-width:1;" width="10" x="450.5015" y="77.9219"/></g><g><title>ZETA Client</title><rect fill="#000000" fill-opacity="0.00000" height="727.2969" width="8" x="829.7378" y="69.9219"/><line style="stroke:#000000;stroke-width:0.5;stroke-dasharray:5,5;" x1="833.2378" x2="833.2378" y1="69.9219" y2="797.2188"/></g><g><title/><rect fill="#FFFFFF" height="701.2969" style="stroke:#181818;stroke-width:1;" width="10" x="828.2378" y="77.9219"/></g><rect fill="#E2E2F0" height="25.6406" rx="2.5" ry="2.5" style="stroke:#181818;stroke-width:0.5;" width="99.4688" x="20" y="43.2813"/><text fill="#000000" font-family="Helvetica" font-size="10" x="27" y="59.5635">Play Integrity API</text><rect fill="#E2E2F0" height="25.6406" rx="2.5" ry="2.5" style="stroke:#181818;stroke-width:0.5;" width="94.5518" x="139.4688" y="43.2813"/><text fill="#000000" font-family="Helvetica" font-size="10" x="146.4688" y="59.5635">TEE / StrongBox</text><rect fill="#E2E2F0" height="25.6406" rx="2.5" ry="2.5" style="stroke:#181818;stroke-width:0.5;" width="70.2793" x="420.3618" y="43.2813"/><text fill="#000000" font-family="Helvetica" font-size="10" x="427.3618" y="59.5635">Android OS</text><rect fill="#FFE6CC" height="25.6406" rx="2.5" ry="2.5" style="stroke:#D79B00;stroke-width:0.5;" width="72.2471" x="797.1143" y="43.2813"/><text fill="#000000" font-family="Helvetica" font-size="10" x="804.1143" y="59.5635">ZETA Client</text><rect fill="#E2E2F0" height="25.6406" rx="2.5" ry="2.5" style="stroke:#181818;stroke-width:0.5;" width="99.4688" x="20" y="797.2188"/><text fill="#000000" font-family="Helvetica" font-size="10" x="27" y="813.501">Play Integrity API</text><rect fill="#E2E2F0" height="25.6406" rx="2.5" ry="2.5" style="stroke:#181818;stroke-width:0.5;" width="94.5518" x="139.4688" y="797.2188"/><text fill="#000000" font-family="Helvetica" font-size="10" x="146.4688" y="813.501">TEE / StrongBox</text><rect fill="#E2E2F0" height="25.6406" rx="2.5" ry="2.5" style="stroke:#181818;stroke-width:0.5;" width="70.2793" x="420.3618" y="797.2188"/><text fill="#000000" font-family="Helvetica" font-size="10" x="427.3618" y="813.501">Android OS</text><rect fill="#FFE6CC" height="25.6406" rx="2.5" ry="2.5" style="stroke:#D79B00;stroke-width:0.5;" width="72.2471" x="797.1143" y="797.2188"/><text fill="#000000" font-family="Helvetica" font-size="10" x="804.1143" y="813.501">ZETA Client</text><rect fill="#EEEEEE" height="3" style="stroke:#EEEEEE;stroke-width:1;" width="1028.396" x="10" y="96.7422"/><line style="stroke:#000000;stroke-width:1;" x1="10" x2="1038.396" y1="96.7422" y2="96.7422"/><line style="stroke:#000000;stroke-width:1;" x1="10" x2="1038.396" y1="99.7422" y2="99.7422"/><rect fill="#EEEEEE" height="19.6406" style="stroke:#000000;stroke-width:2;" width="331.2705" x="358.5627" y="87.9219"/><text fill="#000000" font-family="Helvetica" font-size="10" font-weight="700" x="364.5627" y="101.2041">Client Instance Key Pair (PrK.Client.Sig; PuK.Client.Sig)</text><path d="M619.855,122.5625 L619.855,155.5625 L827.855,155.5625 L827.855,132.5625 L817.855,122.5625 L619.855,122.5625" fill="#FEFFDD" style="stroke:#181818;stroke-width:0.5;"/><path d="M817.855,122.5625 L817.855,132.5625 L827.855,132.5625 L817.855,122.5625" fill="#FEFFDD" style="stroke:#181818;stroke-width:0.5;"/><text fill="#000000" font-family="Helvetica" font-size="10" x="625.855" y="136.8447">Generierung des prim&#228;ren Schl&#252;ssels</text><text fill="#000000" font-family="Helvetica" font-size="10" x="625.855" y="148.4854">f&#252;r Client Assertions.</text><polygon fill="#181818" points="471.5015,174.4844,461.5015,178.4844,471.5015,182.4844,467.5015,178.4844" style="stroke:#181818;stroke-width:1;stroke-linejoin:miter;stroke-miterlimit:10;"/><line style="stroke:#181818;stroke-width:1;" x1="465.5015" x2="827.2378" y1="178.4844" y2="178.4844"/><text fill="#000000" font-family="Helvetica" font-size="10" x="477.5015" y="174.126">(01)</text><text fill="#000000" font-family="Helvetica" font-size="10" x="502.0288" y="174.126">KeyStore.generateKey(Alias_Client_Sig)</text><polygon fill="#181818" points="202.7446,200.125,192.7446,204.125,202.7446,208.125,198.7446,204.125" style="stroke:#181818;stroke-width:1;stroke-linejoin:miter;stroke-miterlimit:10;"/><line style="stroke:#181818;stroke-width:1;" x1="196.7446" x2="449.5015" y1="204.125" y2="204.125"/><text fill="#000000" font-family="Helvetica" font-size="10" x="208.7446" y="199.7666">(02)</text><text fill="#000000" font-family="Helvetica" font-size="10" x="233.272" y="199.7666">Erzeuge Client Key Pair</text><polygon fill="#181818" points="438.5015,225.7656,448.5015,229.7656,438.5015,233.7656,442.5015,229.7656" style="stroke:#181818;stroke-width:1;stroke-linejoin:miter;stroke-miterlimit:10;"/><line style="stroke:#181818;stroke-width:1;stroke-dasharray:2,2;" x1="191.7446" x2="444.5015" y1="229.7656" y2="229.7656"/><text fill="#000000" font-family="Helvetica" font-size="10" x="198.7446" y="225.4072">(03)</text><text fill="#000000" font-family="Helvetica" font-size="10" x="223.272" y="225.4072">(Schl&#252;ssel verbleibt in HW)</text><polygon fill="#181818" points="816.2378,251.4063,826.2378,255.4063,816.2378,259.4063,820.2378,255.4063" style="stroke:#181818;stroke-width:1;stroke-linejoin:miter;stroke-miterlimit:10;"/><line style="stroke:#181818;stroke-width:1;stroke-dasharray:2,2;" x1="460.5015" x2="822.2378" y1="255.4063" y2="255.4063"/><text fill="#000000" font-family="Helvetica" font-size="10" x="467.5015" y="251.0479">(04)</text><text fill="#000000" font-family="Helvetica" font-size="10" x="492.0288" y="251.0479">Client Key Referenz (Alias)</text><line style="stroke:#181818;stroke-width:1;" x1="838.2378" x2="880.2378" y1="292.6875" y2="292.6875"/><line style="stroke:#181818;stroke-width:1;" x1="880.2378" x2="880.2378" y1="292.6875" y2="305.6875"/><line style="stroke:#181818;stroke-width:1;" x1="839.2378" x2="880.2378" y1="305.6875" y2="305.6875"/><polygon fill="#181818" points="849.2378,301.6875,839.2378,305.6875,849.2378,309.6875,845.2378,305.6875" style="stroke:#181818;stroke-width:1;stroke-linejoin:miter;stroke-miterlimit:10;"/><text fill="#000000" font-family="Helvetica" font-size="10" x="845.2378" y="282.5088">(05)</text><text fill="#000000" font-family="Helvetica" font-size="10" x="869.7651" y="276.6885">Berechne hash_puk_client_sig =</text><text fill="#000000" font-family="Helvetica" font-size="10" x="869.7651" y="288.3291">SHA-256(PuK.Client.Sig)</text><rect fill="#EEEEEE" height="3" style="stroke:#EEEEEE;stroke-width:1;" width="1028.396" x="10" y="332.5078"/><line style="stroke:#000000;stroke-width:1;" x1="10" x2="1038.396" y1="332.5078" y2="332.5078"/><line style="stroke:#000000;stroke-width:1;" x1="10" x2="1038.396" y1="335.5078" y2="335.5078"/><rect fill="#EEEEEE" height="19.6406" style="stroke:#000000;stroke-width:2;" width="248.8047" x="399.7957" y="323.6875"/><text fill="#000000" font-family="Helvetica" font-size="10" font-weight="700" x="405.7957" y="336.9697">Hardware-Attestierung (Attestation Key)</text><path d="M554.4497,358.3281 L554.4497,391.3281 L827.4497,391.3281 L827.4497,368.3281 L817.4497,358.3281 L554.4497,358.3281" fill="#FEFFDD" style="stroke:#181818;stroke-width:0.5;"/><path d="M817.4497,358.3281 L817.4497,368.3281 L827.4497,368.3281 L817.4497,358.3281" fill="#FEFFDD" style="stroke:#181818;stroke-width:0.5;"/><text fill="#000000" font-family="Helvetica" font-size="10" x="560.4497" y="372.6104">Generierung des dedizierten Attestation Keys (AK)</text><text fill="#000000" font-family="Helvetica" font-size="10" x="560.4497" y="384.251">und Bindung an den Client Key.</text><polygon fill="#181818" points="471.5015,421.8906,461.5015,425.8906,471.5015,429.8906,467.5015,425.8906" style="stroke:#181818;stroke-width:1;stroke-linejoin:miter;stroke-miterlimit:10;"/><line style="stroke:#181818;stroke-width:1;" x1="465.5015" x2="827.2378" y1="425.8906" y2="425.8906"/><text fill="#000000" font-family="Helvetica" font-size="10" x="477.5015" y="415.7119">(06)</text><text fill="#000000" font-family="Helvetica" font-size="10" x="502.0288" y="409.8916">KeyStore.generateKey(Alias_AK,</text><text fill="#000000" font-family="Helvetica" font-size="10" x="502.0288" y="421.5322">AttestationChallenge = hash_puk_client_sig)</text><polygon fill="#181818" points="202.7446,447.5313,192.7446,451.5313,202.7446,455.5313,198.7446,451.5313" style="stroke:#181818;stroke-width:1;stroke-linejoin:miter;stroke-miterlimit:10;"/><line style="stroke:#181818;stroke-width:1;" x1="196.7446" x2="449.5015" y1="451.5313" y2="451.5313"/><text fill="#000000" font-family="Helvetica" font-size="10" x="208.7446" y="447.1729">(07)</text><text fill="#000000" font-family="Helvetica" font-size="10" x="233.272" y="447.1729">Erzeuge Attestation Key Pair (AK) &amp; Chain</text><polygon fill="#181818" points="438.5015,473.1719,448.5015,477.1719,438.5015,481.1719,442.5015,477.1719" style="stroke:#181818;stroke-width:1;stroke-linejoin:miter;stroke-miterlimit:10;"/><line style="stroke:#181818;stroke-width:1;stroke-dasharray:2,2;" x1="191.7446" x2="444.5015" y1="477.1719" y2="477.1719"/><text fill="#000000" font-family="Helvetica" font-size="10" x="198.7446" y="472.8135">(08)</text><text fill="#000000" font-family="Helvetica" font-size="10" x="223.272" y="472.8135">Zertifikatskette (inkl. PuK.AK.Sig)</text><polygon fill="#181818" points="816.2378,498.8125,826.2378,502.8125,816.2378,506.8125,820.2378,502.8125" style="stroke:#181818;stroke-width:1;stroke-linejoin:miter;stroke-miterlimit:10;"/><line style="stroke:#181818;stroke-width:1;stroke-dasharray:2,2;" x1="460.5015" x2="822.2378" y1="502.8125" y2="502.8125"/><text fill="#000000" font-family="Helvetica" font-size="10" x="467.5015" y="498.4541">(09)</text><text fill="#000000" font-family="Helvetica" font-size="10" x="492.0288" y="498.4541">android_key_attestation_certificate_chain</text><rect fill="#EEEEEE" height="3" style="stroke:#EEEEEE;stroke-width:1;" width="1028.396" x="10" y="529.6328"/><line style="stroke:#000000;stroke-width:1;" x1="10" x2="1038.396" y1="529.6328" y2="529.6328"/><line style="stroke:#000000;stroke-width:1;" x1="10" x2="1038.396" y1="532.6328" y2="532.6328"/><rect fill="#EEEEEE" height="19.6406" style="stroke:#000000;stroke-width:2;" width="284.0635" x="382.1663" y="520.8125"/><text fill="#000000" font-family="Helvetica" font-size="10" font-weight="700" x="388.1663" y="534.0947">Expliziter Besitznachweis (Proof of Possession)</text><polygon fill="#181818" points="471.5015,564.0938,461.5015,568.0938,471.5015,572.0938,467.5015,568.0938" style="stroke:#181818;stroke-width:1;stroke-linejoin:miter;stroke-miterlimit:10;"/><line style="stroke:#181818;stroke-width:1;" x1="465.5015" x2="827.2378" y1="568.0938" y2="568.0938"/><text fill="#000000" font-family="Helvetica" font-size="10" x="477.5015" y="563.7354">(10)</text><text fill="#000000" font-family="Helvetica" font-size="10" x="502.0288" y="563.7354">Signature.sign(KeyStore.getKey(Alias_AK), hash_puk_client_sig)</text><polygon fill="#181818" points="202.7446,589.7344,192.7446,593.7344,202.7446,597.7344,198.7446,593.7344" style="stroke:#181818;stroke-width:1;stroke-linejoin:miter;stroke-miterlimit:10;"/><line style="stroke:#181818;stroke-width:1;" x1="196.7446" x2="449.5015" y1="593.7344" y2="593.7344"/><text fill="#000000" font-family="Helvetica" font-size="10" x="208.7446" y="589.376">(11)</text><text fill="#000000" font-family="Helvetica" font-size="10" x="233.272" y="589.376">Signiere Hash mit PrK.AK.Sig</text><polygon fill="#181818" points="438.5015,615.375,448.5015,619.375,438.5015,623.375,442.5015,619.375" style="stroke:#181818;stroke-width:1;stroke-linejoin:miter;stroke-miterlimit:10;"/><line style="stroke:#181818;stroke-width:1;stroke-dasharray:2,2;" x1="191.7446" x2="444.5015" y1="619.375" y2="619.375"/><text fill="#000000" font-family="Helvetica" font-size="10" x="198.7446" y="615.0166">(12)</text><text fill="#000000" font-family="Helvetica" font-size="10" x="223.272" y="615.0166">ECDSA Signatur</text><polygon fill="#181818" points="816.2378,641.0156,826.2378,645.0156,816.2378,649.0156,820.2378,645.0156" style="stroke:#181818;stroke-width:1;stroke-linejoin:miter;stroke-miterlimit:10;"/><line style="stroke:#181818;stroke-width:1;stroke-dasharray:2,2;" x1="460.5015" x2="822.2378" y1="645.0156" y2="645.0156"/><text fill="#000000" font-family="Helvetica" font-size="10" x="467.5015" y="640.6572">(13)</text><text fill="#000000" font-family="Helvetica" font-size="10" x="492.0288" y="640.6572">signed_hash_puk_client_sig</text><rect fill="#EEEEEE" height="3" style="stroke:#EEEEEE;stroke-width:1;" width="1028.396" x="10" y="671.8359"/><line style="stroke:#000000;stroke-width:1;" x1="10" x2="1038.396" y1="671.8359" y2="671.8359"/><line style="stroke:#000000;stroke-width:1;" x1="10" x2="1038.396" y1="674.8359" y2="674.8359"/><rect fill="#EEEEEE" height="19.6406" style="stroke:#000000;stroke-width:2;" width="244.4395" x="401.9783" y="663.0156"/><text fill="#000000" font-family="Helvetica" font-size="10" font-weight="700" x="407.9783" y="676.2979">Play Integrity API (Optional, empfohlen)</text><path d="M597.6089,697.6563 L597.6089,718.6563 L827.6089,718.6563 L827.6089,707.6563 L817.6089,697.6563 L597.6089,697.6563" fill="#FEFFDD" style="stroke:#181818;stroke-width:0.5;"/><path d="M817.6089,697.6563 L817.6089,707.6563 L827.6089,707.6563 L817.6089,697.6563" fill="#FEFFDD" style="stroke:#181818;stroke-width:0.5;"/><text fill="#000000" font-family="Helvetica" font-size="10" x="603.6089" y="711.9385">Einholung des Ger&#228;te- und App-Zustands.</text><polygon fill="#181818" points="85.7344,749.5781,75.7344,753.5781,85.7344,757.5781,81.7344,753.5781" style="stroke:#181818;stroke-width:1;stroke-linejoin:miter;stroke-miterlimit:10;"/><line style="stroke:#181818;stroke-width:1;" x1="79.7344" x2="827.2378" y1="753.5781" y2="753.5781"/><text fill="#000000" font-family="Helvetica" font-size="10" x="91.7344" y="743.3994">(14)</text><text fill="#000000" font-family="Helvetica" font-size="10" x="116.2617" y="737.5791">requestIntegrityToken(</text><text fill="#000000" font-family="Helvetica" font-size="10" x="116.2617" y="749.2197">nonce = hash_puk_client_sig)</text><polygon fill="#181818" points="816.2378,775.2188,826.2378,779.2188,816.2378,783.2188,820.2378,779.2188" style="stroke:#181818;stroke-width:1;stroke-linejoin:miter;stroke-miterlimit:10;"/><line style="stroke:#181818;stroke-width:1;stroke-dasharray:2,2;" x1="74.7344" x2="822.2378" y1="779.2188" y2="779.2188"/><text fill="#000000" font-family="Helvetica" font-size="10" x="81.7344" y="774.8604">(15)</text><text fill="#000000" font-family="Helvetica" font-size="10" x="106.2617" y="774.8604">play_integrity_token (Base64)</text><?plantuml-src dLNRRjiu47tFLyowG24ZaGeiTlkGRG8eZfeORc4Z2dQnWG61aSOMOMMe9QasyVVqC_gM7zkXRb4TDqKh68P8SSwSEMT8_YOfBQeC8GZUbDLTuHVYGLKsiFVsu03ukLNtCBfGQbtW25wzhv_w0q0fj9MfB0LP62qu4APaSQsbVO1mCHs1CE2c-RsEGCeSt03t73_9b77Fex-daoYPp3_Ch_Q1NqSHl87OQaNhCtLV8_UZVG4XPLh93EPnlROTpkDsRPqyBCiHBAwc7yFeAlutleu-VaDW1_4ckWvXKaWaMqCsh_3ktHQjE3rjWxeIdvNRB3yyh0SzdNPS_vsST9XJCbPGYZ331rW8gS5Rw5dGV0rYkVuB5jLmFERW6eEKHIXmPK6jMhHZk412BL5Nj8OC3PHQtZr-qKWGftdn-DKOBCoILezVTSSWv3ckNP491kp1FtsYVkpOnLPf3DOkWR384rvOI66IPdtYg3qLs8SwdDwzmyDZYFGMgpLsQRgowwX-8VZ3zBv_3DuJV_Y4-hP0UMj14bp-ipyj0tIY359TuGfPZIqqvCSx5NSHPxmepGaX5oPFocgJf4sLHgxXP4dnPUZ__kTRRyUQWyxSIw6ppqAZ7rgBnhQ6UCr8EB4Tcv-pCiDCRdbisSmT8CFGi_6IAkx2CqcP2n744JIe_TVS3MT7Ingac-IYA93Om9DzulnK2-nKqRO_LmAlWVD8-b5JtBZ6NScDi6Q330QUf4qHr3icd0LzI-vl2z7C9XjyICGJbIHjK5FM8Kbx6fsrqNrPi0yMDNU9aNPB8iq_epHkuohsZtyBnNrg38Fr5k_LdGcIi1KBpzAHDx313XqO7trVwk-hxC2vNP2RqUHm9osuWwMHvKV2HfFpEEpflQ2XuurPieVUDw8zlp30cvTERL4S0TwLAvLpLxsy8I99kIgwxN21-l6BHHzSq_FnxjzKxYJDdfrYxQta9D7uNyKszqIkrGR9Mn8fTmA_qD0jng1qfrB9iudim1BhqC0x4mRV_Z4UNWM-V_0_?></g></svg>