<svg xmlns="http://www.w3.org/2000/svg" xmlns:xlink="http://www.w3.org/1999/xlink" contentStyleType="text/css" data-diagram-type="SEQUENCE" height="609px" preserveAspectRatio="none" style="width:1039px;height:609px;background:#FFFFFF;" version="1.1" viewBox="0 0 1039 609" width="1039px" zoomAndPan="magnify"><?plantuml 1.2026.6?><defs/><g><rect fill="#FEFCFF" height="583.375" style="stroke:#181818;stroke-width:0.5;" width="675.6772" x="16" y="11"/><text fill="#000000" font-family="Helvetica" font-size="10" font-weight="700" x="334.969" y="20.2822">Device</text><rect fill="#E6E6FA" height="566.7344" style="stroke:#181818;stroke-width:0.5;" width="102.1934" x="589.4839" y="27.6406"/><text fill="#000000" font-family="Helvetica" font-size="10" font-weight="700" x="601.4839" y="36.9229">Prim&#228;rsystem</text><rect fill="#EDFDEC" height="583.375" style="stroke:#181818;stroke-width:0.5;" width="147.7842" x="885.8994" y="11"/><text fill="#000000" font-family="Helvetica" font-size="10" font-weight="700" x="897.8994" y="20.2822">Anbieter TI 2.0 Dienst</text><rect fill="#FFF3E5" height="566.7344" style="stroke:#181818;stroke-width:0.5;" width="147.7842" x="885.8994" y="27.6406"/><text fill="#000000" font-family="Helvetica" font-size="10" font-weight="700" x="926.647" y="36.9229">ZETA Guard</text><g><title>Secure Enclave</title><rect fill="#000000" fill-opacity="0.00000" height="468.5313" width="8" x="61.9546" y="81.5625"/><line style="stroke:#000000;stroke-width:0.5;stroke-dasharray:5,5;" x1="65.4546" x2="65.4546" y1="81.5625" y2="550.0938"/></g><g><title/><rect fill="#FFFFFF" height="460.5313" style="stroke:#181818;stroke-width:1;" width="10" x="60.4546" y="89.5625"/></g><g><title>OS .macOS.</title><rect fill="#000000" fill-opacity="0.00000" height="468.5313" width="8" x="361.522" y="81.5625"/><line style="stroke:#000000;stroke-width:0.5;stroke-dasharray:5,5;" x1="365.022" x2="365.022" y1="81.5625" y2="550.0938"/></g><g><title/><rect fill="#FFFFFF" height="460.5313" style="stroke:#181818;stroke-width:1;" width="10" x="360.022" y="89.5625"/></g><g><title>ZETA Client</title><rect fill="#000000" fill-opacity="0.00000" height="468.5313" width="8" x="637.0806" y="81.5625"/><line style="stroke:#000000;stroke-width:0.5;stroke-dasharray:5,5;" x1="640.5806" x2="640.5806" y1="81.5625" y2="550.0938"/></g><g><title/><rect fill="#FFFFFF" height="460.5313" style="stroke:#181818;stroke-width:1;" width="10" x="635.5806" y="89.5625"/></g><g><title>PDP</title><rect fill="#000000" fill-opacity="0.00000" height="468.5313" width="8" x="956.2915" y="81.5625"/><line style="stroke:#000000;stroke-width:0.5;stroke-dasharray:5,5;" x1="959.7915" x2="959.7915" y1="81.5625" y2="550.0938"/></g><g><title/><rect fill="#FFFFFF" height="25.6406" style="stroke:#181818;stroke-width:1;" width="10" x="954.7915" y="107.2031"/></g><rect fill="#E4E4F4" height="25.6406" rx="2.5" ry="2.5" style="stroke:#181818;stroke-width:0.5;" width="90.9092" x="20" y="54.9219"/><text fill="#000000" font-family="Helvetica" font-size="10" x="27" y="71.2041">Secure Enclave</text><rect fill="#E4E4F4" height="25.6406" rx="2.5" ry="2.5" style="stroke:#181818;stroke-width:0.5;" width="74.7861" x="327.6289" y="54.9219"/><text fill="#000000" font-family="Helvetica" font-size="10" x="334.6289" y="71.2041">OS (macOS)</text><rect fill="#FFE6CC" height="25.6406" rx="2.5" ry="2.5" style="stroke:#D79B00;stroke-width:0.5;" width="72.2471" x="604.457" y="54.9219"/><text fill="#000000" font-family="Helvetica" font-size="10" x="611.457" y="71.2041">ZETA Client</text><rect fill="#FFE6CC" height="37.2813" rx="2.5" ry="2.5" style="stroke:#D79B00;stroke-width:0.5;" width="116.9492" x="901.3169" y="43.2813"/><text fill="#000000" font-family="Helvetica" font-size="10" x="949.9111" y="59.5635">PDP</text><text fill="#000000" font-family="Helvetica" font-size="10" x="908.3169" y="71.2041">Authorization Server</text><rect fill="#E4E4F4" height="25.6406" rx="2.5" ry="2.5" style="stroke:#181818;stroke-width:0.5;" width="90.9092" x="20" y="550.0938"/><text fill="#000000" font-family="Helvetica" font-size="10" x="27" y="566.376">Secure Enclave</text><rect fill="#E4E4F4" height="25.6406" rx="2.5" ry="2.5" style="stroke:#181818;stroke-width:0.5;" width="74.7861" x="327.6289" y="550.0938"/><text fill="#000000" font-family="Helvetica" font-size="10" x="334.6289" y="566.376">OS (macOS)</text><rect fill="#FFE6CC" height="25.6406" rx="2.5" ry="2.5" style="stroke:#D79B00;stroke-width:0.5;" width="72.2471" x="604.457" y="550.0938"/><text fill="#000000" font-family="Helvetica" font-size="10" x="611.457" y="566.376">ZETA Client</text><rect fill="#FFE6CC" height="37.2813" rx="2.5" ry="2.5" style="stroke:#D79B00;stroke-width:0.5;" width="116.9492" x="901.3169" y="550.0938"/><text fill="#000000" font-family="Helvetica" font-size="10" x="949.9111" y="566.376">PDP</text><text fill="#000000" font-family="Helvetica" font-size="10" x="908.3169" y="578.0166">Authorization Server</text><polygon fill="#181818" points="942.7915,103.2031,952.7915,107.2031,942.7915,111.2031,946.7915,107.2031" style="stroke:#181818;stroke-width:1;stroke-linejoin:miter;stroke-miterlimit:10;"/><line style="stroke:#181818;stroke-width:1;" x1="645.5806" x2="948.7915" y1="107.2031" y2="107.2031"/><text fill="#000000" font-family="Helvetica" font-size="10" x="652.5806" y="102.8447">(01)</text><text fill="#000000" font-family="Helvetica" font-size="10" x="677.1079" y="102.8447">GET /nonce</text><polygon fill="#181818" points="656.5806,128.8438,646.5806,132.8438,656.5806,136.8438,652.5806,132.8438" style="stroke:#181818;stroke-width:1;stroke-linejoin:miter;stroke-miterlimit:10;"/><line style="stroke:#181818;stroke-width:1;stroke-dasharray:2,2;" x1="650.5806" x2="953.7915" y1="132.8438" y2="132.8438"/><text fill="#000000" font-family="Helvetica" font-size="10" x="662.5806" y="128.4854">(02)</text><text fill="#000000" font-family="Helvetica" font-size="10" x="687.1079" y="128.4854">Nonce</text><path d="M49.4546,144.8438 L109.4106,144.8438 L109.4106,148.4844 L99.4106,158.4844 L49.4546,158.4844 L49.4546,144.8438" fill="#EEEEEE" style="stroke:#000000;stroke-width:1.5;"/><rect fill="none" height="381.25" style="stroke:#000000;stroke-width:1.5;" width="926.3369" x="49.4546" y="144.8438"/><text fill="#000000" font-family="Helvetica" font-size="10" font-weight="700" x="64.4546" y="155.126">alt</text><text fill="#000000" font-family="Helvetica" font-size="10" font-weight="700" x="124.4106" y="156.126">[Apple AppAttest Attestation]</text><line style="stroke:#000000;stroke-width:1;stroke-dasharray:2,2;" x1="49.4546" x2="975.7915" y1="457.1719" y2="457.1719"/><text fill="#000000" font-family="Helvetica" font-size="10" font-weight="700" x="54.4546" y="468.4541">[Software Attestation (Fallback)]</text><polygon fill="#181818" points="381.022,193.7656,371.022,197.7656,381.022,201.7656,377.022,197.7656" style="stroke:#181818;stroke-width:1;stroke-linejoin:miter;stroke-miterlimit:10;"/><line style="stroke:#181818;stroke-width:1;" x1="375.022" x2="634.5806" y1="197.7656" y2="197.7656"/><text fill="#000000" font-family="Helvetica" font-size="10" x="387.022" y="187.5869">(03)</text><text fill="#000000" font-family="Helvetica" font-size="10" x="411.5493" y="181.7666">Ermittle Posture</text><text fill="#000000" font-family="Helvetica" font-size="10" x="411.5493" y="193.4072">(SIP, Gatekeeper, OS-Version, Secure Boot)</text><polygon fill="#181818" points="623.5806,219.4063,633.5806,223.4063,623.5806,227.4063,627.5806,223.4063" style="stroke:#181818;stroke-width:1;stroke-linejoin:miter;stroke-miterlimit:10;"/><line style="stroke:#181818;stroke-width:1;stroke-dasharray:2,2;" x1="370.022" x2="629.5806" y1="223.4063" y2="223.4063"/><text fill="#000000" font-family="Helvetica" font-size="10" x="377.022" y="219.0479">(04)</text><text fill="#000000" font-family="Helvetica" font-size="10" x="401.5493" y="219.0479">Posture-Daten (Klartext)</text><line style="stroke:#181818;stroke-width:1;" x1="645.5806" x2="687.5806" y1="249.0469" y2="249.0469"/><line style="stroke:#181818;stroke-width:1;" x1="687.5806" x2="687.5806" y1="249.0469" y2="262.0469"/><line style="stroke:#181818;stroke-width:1;" x1="646.5806" x2="687.5806" y1="262.0469" y2="262.0469"/><polygon fill="#181818" points="656.5806,258.0469,646.5806,262.0469,656.5806,266.0469,652.5806,262.0469" style="stroke:#181818;stroke-width:1;stroke-linejoin:miter;stroke-miterlimit:10;"/><text fill="#000000" font-family="Helvetica" font-size="10" x="652.5806" y="244.6885">(05)</text><text fill="#000000" font-family="Helvetica" font-size="10" x="677.1079" y="244.6885">clientDataHash = Hash(Nonce + Posture-Daten)</text><polygon fill="#181818" points="381.022,295.3281,371.022,299.3281,381.022,303.3281,377.022,299.3281" style="stroke:#181818;stroke-width:1;stroke-linejoin:miter;stroke-miterlimit:10;"/><line style="stroke:#181818;stroke-width:1;" x1="375.022" x2="634.5806" y1="299.3281" y2="299.3281"/><text fill="#000000" font-family="Helvetica" font-size="10" x="387.022" y="289.1494">(06)</text><text fill="#000000" font-family="Helvetica" font-size="10" x="411.5493" y="283.3291">DCAppAttest.generateAssertion(</text><text fill="#000000" font-family="Helvetica" font-size="10" x="411.5493" y="294.9697">keyId: Handle_PrK.AK.Sig,  clientDataHash)</text><polygon fill="#181818" points="81.4546,320.9688,71.4546,324.9688,81.4546,328.9688,77.4546,324.9688" style="stroke:#181818;stroke-width:1;stroke-linejoin:miter;stroke-miterlimit:10;"/><line style="stroke:#181818;stroke-width:1;" x1="75.4546" x2="359.022" y1="324.9688" y2="324.9688"/><text fill="#000000" font-family="Helvetica" font-size="10" x="87.4546" y="320.6104">(07)</text><text fill="#000000" font-family="Helvetica" font-size="10" x="111.9819" y="320.6104">Erstelle Hardware-Signatur &#252;ber clientDataHash</text><polygon fill="#181818" points="348.022,346.6094,358.022,350.6094,348.022,354.6094,352.022,350.6094" style="stroke:#181818;stroke-width:1;stroke-linejoin:miter;stroke-miterlimit:10;"/><line style="stroke:#181818;stroke-width:1;stroke-dasharray:2,2;" x1="70.4546" x2="354.022" y1="350.6094" y2="350.6094"/><text fill="#000000" font-family="Helvetica" font-size="10" x="77.4546" y="346.251">(08)</text><text fill="#000000" font-family="Helvetica" font-size="10" x="101.9819" y="346.251">Signatur + Authenticator Data (Counter)</text><polygon fill="#181818" points="623.5806,383.8906,633.5806,387.8906,623.5806,391.8906,627.5806,387.8906" style="stroke:#181818;stroke-width:1;stroke-linejoin:miter;stroke-miterlimit:10;"/><line style="stroke:#181818;stroke-width:1;stroke-dasharray:2,2;" x1="370.022" x2="629.5806" y1="387.8906" y2="387.8906"/><text fill="#000000" font-family="Helvetica" font-size="10" x="377.022" y="377.7119">(09)</text><text fill="#000000" font-family="Helvetica" font-size="10" x="401.5493" y="371.8916">dc_assertion</text><text fill="#000000" font-family="Helvetica" font-size="10" x="401.5493" y="383.5322">(CBOR: Signatur + authenticatorData)</text><line style="stroke:#181818;stroke-width:1;" x1="645.5806" x2="687.5806" y1="425.1719" y2="425.1719"/><line style="stroke:#181818;stroke-width:1;" x1="687.5806" x2="687.5806" y1="425.1719" y2="438.1719"/><line style="stroke:#181818;stroke-width:1;" x1="646.5806" x2="687.5806" y1="438.1719" y2="438.1719"/><polygon fill="#181818" points="656.5806,434.1719,646.5806,438.1719,656.5806,442.1719,652.5806,438.1719" style="stroke:#181818;stroke-width:1;stroke-linejoin:miter;stroke-miterlimit:10;"/><text fill="#000000" font-family="Helvetica" font-size="10" x="652.5806" y="414.9932">(10)</text><text fill="#000000" font-family="Helvetica" font-size="10" x="677.1079" y="409.1729">Generiere client-statement</text><text fill="#000000" font-family="Helvetica" font-size="10" x="677.1079" y="420.8135">(Evidence = dc_assertion + Posture-Daten im Klartext)</text><line style="stroke:#181818;stroke-width:1;" x1="645.5806" x2="687.5806" y1="505.0938" y2="505.0938"/><line style="stroke:#181818;stroke-width:1;" x1="687.5806" x2="687.5806" y1="505.0938" y2="518.0938"/><line style="stroke:#181818;stroke-width:1;" x1="646.5806" x2="687.5806" y1="518.0938" y2="518.0938"/><polygon fill="#181818" points="656.5806,514.0938,646.5806,518.0938,656.5806,522.0938,652.5806,518.0938" style="stroke:#181818;stroke-width:1;stroke-linejoin:miter;stroke-miterlimit:10;"/><text fill="#000000" font-family="Helvetica" font-size="10" x="652.5806" y="494.915">(11)</text><text fill="#000000" font-family="Helvetica" font-size="10" x="677.1079" y="489.0947">Generiere client-statement</text><text fill="#000000" font-family="Helvetica" font-size="10" x="677.1079" y="500.7354">(OS und PS Daten ungesichert)</text><?plantuml-src dLJBRjim4BphApQwL8OjfUZHI0qe5ki8UKWmtG0j0XYqj7M8I9H0KMwIx-bdz9OVwzAo4ZjDUkY5r6DsTdPto2EfigBD4OBWk6xBmY_4GzMQmDmRnt4-W96cG4XMHaW5eJ7O665afO1jP8ugGySvghLObm8CLezWT4kVLjKzk15kP8OkHEmwdhBbDBb8vWv0BRIHcQo5Ck1op5gDm4Y4s11MDC0PNB2Ou9TfSiMk5cy69jn2NTgyKcG97xZl16sLf5gMJxzqyz0OB5r8v_5boERy6r-mosVaOO9f8P4sc-GxMuIxTnTEJXxHYCc40b3bbjxfzwxgKAqa6jImYE5Jy14YYckCJPfSnn6R7ohRSizQeNCNxFDozZMSH-ze2bjpszMTHkcDig-Lbe_TF3Zg3Uf_2tIwAeP39-6qS4RBhb1_igCV3c4CCxQ0OrNPyNPVVVhV8tq2N6t_EQ8WLNLD3g6rSyU-IKZ32tt2ny1qAOqrL5erXWP_epmUfoEO2ODtY3Ng4U7yQzGDXOzWPu_JgZ838alsXOnx4Z-YQ0NUUK6zmlijyYLj3ywsEq75cMXkuJFOpTlM0SD3gi5VkgFfStt16XLgWeLDWzfMwTseEto8yp5Hghp0PQhFW_0yu78zWbTv-oecP7FR3Z9aGUqu8mFy59IVOfGW9V3qUqKUEWocM3eS_axJCtIudHpXP2PCfS72mPjMhI8Rlj6sF5kANZiDO7gQp0_On3wR9NkxeJFR1uaqdawbRuUE9JqHQNyxK9_tqxtkDCWINiQ6HOF0gn_6jkBWil6-YA9OYUpkFwHGzIqTW9H3bx9LQsnaTakA1lPeE7y0?></g></svg>