<svg xmlns="http://www.w3.org/2000/svg" xmlns:xlink="http://www.w3.org/1999/xlink" contentStyleType="text/css" data-diagram-type="SEQUENCE" height="1179px" preserveAspectRatio="none" style="width:1481px;height:1179px;background:#FFFFFF;" version="1.1" viewBox="0 0 1481 1179" width="1481px" zoomAndPan="magnify"><?plantuml 1.2026.6?><defs/><g><rect fill="#EDFDEC" height="1153.8594" style="stroke:#181818;stroke-width:0.5;" width="512.9741" x="26.5078" y="11"/><text fill="#000000" font-family="Helvetica" font-size="10" font-weight="700" x="215.4924" y="20.2822">TI 2.0 Dienst Anbieter A</text><rect fill="#FFF3E5" height="1137.2188" style="stroke:#181818;stroke-width:0.5;" width="328.8193" x="26.5078" y="27.6406"/><text fill="#000000" font-family="Helvetica" font-size="10" font-weight="700" x="152.1626" y="36.9229">ZETA Guard A</text><rect fill="#EDFDEC" height="1153.8594" style="stroke:#181818;stroke-width:0.5;" width="641.8818" x="822.4727" y="11"/><text fill="#000000" font-family="Helvetica" font-size="10" font-weight="700" x="1075.9697" y="20.2822">TI 2.0 Dienst Anbieter B</text><rect fill="#FFF3E5" height="1137.2188" style="stroke:#181818;stroke-width:0.5;" width="516.0713" x="822.4727" y="27.6406"/><text fill="#000000" font-family="Helvetica" font-size="10" font-weight="700" x="1041.812" y="36.9229">ZETA Guard B</text><g><title>cronjob Pod</title><rect fill="#000000" fill-opacity="0.00000" height="1039.0156" width="8" x="63.5" y="81.5625"/><line style="stroke:#000000;stroke-width:0.5;stroke-dasharray:5,5;" x1="67" x2="67" y1="81.5625" y2="1120.5781"/></g><g><title/><rect fill="#FFFFFF" height="576.4531" style="stroke:#181818;stroke-width:1;" width="10" x="62" y="203.0781"/></g><g><title>PDP</title><rect fill="#000000" fill-opacity="0.00000" height="1039.0156" width="8" x="243.4336" y="81.5625"/><line style="stroke:#000000;stroke-width:0.5;stroke-dasharray:5,5;" x1="246.9336" x2="246.9336" y1="81.5625" y2="1120.5781"/></g><g><title/><rect fill="#FFFFFF" height="25.6406" style="stroke:#181818;stroke-width:1;" width="10" x="241.9336" y="220.7188"/></g><g><title/><rect fill="#FFFFFF" height="25.6406" style="stroke:#181818;stroke-width:1;" width="10" x="241.9336" y="309.2813"/></g><g><title/><rect fill="#FFFFFF" height="25.6406" style="stroke:#181818;stroke-width:1;" width="10" x="241.9336" y="360.5625"/></g><g><title>etcd</title><rect fill="#000000" fill-opacity="0.00000" height="1039.0156" width="8" x="329.8677" y="81.5625"/><line style="stroke:#000000;stroke-width:0.5;stroke-dasharray:5,5;" x1="333.3677" x2="333.3677" y1="81.5625" y2="1120.5781"/></g><g><title/><rect fill="#FFFFFF" height="917.5" style="stroke:#181818;stroke-width:1;" width="10" x="328.3677" y="203.0781"/></g><g><title>Resource Server</title><rect fill="#000000" fill-opacity="0.00000" height="1039.0156" width="8" x="483.7319" y="81.5625"/><line style="stroke:#000000;stroke-width:0.5;stroke-dasharray:5,5;" x1="487.2319" x2="487.2319" y1="81.5625" y2="1120.5781"/></g><g><title/><rect fill="#FFFFFF" height="299.4063" style="stroke:#181818;stroke-width:1;" width="10" x="482.2319" y="821.1719"/></g><g><title>gematik</title><rect fill="#000000" fill-opacity="0.00000" height="1039.0156" width="8" x="785.543" y="81.5625"/><line style="stroke:#000000;stroke-width:0.5;stroke-dasharray:5,5;" x1="789.043" x2="789.043" y1="81.5625" y2="1120.5781"/></g><g><title>PDP</title><rect fill="#000000" fill-opacity="0.00000" height="1039.0156" width="8" x="881.4473" y="81.5625"/><line style="stroke:#000000;stroke-width:0.5;stroke-dasharray:5,5;" x1="884.9473" x2="884.9473" y1="81.5625" y2="1120.5781"/></g><g><title/><rect fill="#FFFFFF" height="404.6094" style="stroke:#181818;stroke-width:1;" width="10" x="879.9473" y="283.6406"/></g><g><title>PEP</title><rect fill="#000000" fill-opacity="0.00000" height="1039.0156" width="8" x="1133.6904" y="81.5625"/><line style="stroke:#000000;stroke-width:0.5;stroke-dasharray:5,5;" x1="1137.1904" x2="1137.1904" y1="81.5625" y2="1120.5781"/></g><g><title/><rect fill="#FFFFFF" height="198.4844" style="stroke:#181818;stroke-width:1;" width="10" x="1132.1904" y="876.0938"/></g><g><title>PDP</title><rect fill="#000000" fill-opacity="0.00000" height="1039.0156" width="8" x="1290.7578" y="81.5625"/><line style="stroke:#000000;stroke-width:0.5;stroke-dasharray:5,5;" x1="1294.2578" x2="1294.2578" y1="81.5625" y2="1120.5781"/></g><g><title/><rect fill="#FFFFFF" height="25.6406" style="stroke:#181818;stroke-width:1;" width="10" x="1289.2578" y="516.7656"/></g><g><title>Resource Server</title><rect fill="#000000" fill-opacity="0.00000" height="1039.0156" width="8" x="1408.6045" y="81.5625"/><line style="stroke:#000000;stroke-width:0.5;stroke-dasharray:5,5;" x1="1412.1045" x2="1412.1045" y1="81.5625" y2="1120.5781"/></g><g><title/><rect fill="#FFFFFF" height="25.6406" style="stroke:#181818;stroke-width:1;" width="10" x="1407.1045" y="968.0156"/></g><rect fill="#FFE6CC" height="25.6406" rx="2.5" ry="2.5" style="stroke:#D79B00;stroke-width:0.5;" width="72.9844" x="30.5078" y="54.9219"/><text fill="#000000" font-family="Helvetica" font-size="10" x="37.5078" y="71.2041">cronjob Pod</text><rect fill="#FFE6CC" height="37.2813" rx="2.5" ry="2.5" style="stroke:#D79B00;stroke-width:0.5;" width="116.9492" x="188.459" y="43.2813"/><text fill="#000000" font-family="Helvetica" font-size="10" x="237.0532" y="59.5635">PDP</text><text fill="#000000" font-family="Helvetica" font-size="10" x="195.459" y="71.2041">Authorization Server</text><rect fill="#FFE6CC" height="25.6406" rx="2.5" ry="2.5" style="stroke:#D79B00;stroke-width:0.5;" width="35.9189" x="315.4082" y="54.9219"/><text fill="#000000" font-family="Helvetica" font-size="10" x="322.4082" y="71.2041">etcd</text><rect fill="#D5E8D4" height="25.6406" rx="2.5" ry="2.5" style="stroke:#82B366;stroke-width:0.5;" width="96.5" x="438.9819" y="54.9219"/><text fill="#000000" font-family="Helvetica" font-size="10" x="445.9819" y="71.2041">Resource Server</text><rect fill="#E2E2F0" height="25.6406" rx="2.5" ry="2.5" style="stroke:#181818;stroke-width:0.5;" width="54.8594" x="761.6133" y="54.9219"/><text fill="#000000" font-family="Helvetica" font-size="10" x="768.6133" y="71.2041">gematik</text><rect fill="#FFE6CC" height="37.2813" rx="2.5" ry="2.5" style="stroke:#D79B00;stroke-width:0.5;" width="116.9492" x="826.4727" y="43.2813"/><text fill="#000000" font-family="Helvetica" font-size="10" x="875.0669" y="59.5635">PDP</text><text fill="#000000" font-family="Helvetica" font-size="10" x="833.4727" y="71.2041">Authorization Server</text><rect fill="#FFE6CC" height="37.2813" rx="2.5" ry="2.5" style="stroke:#D79B00;stroke-width:0.5;" width="71.041" x="1101.6699" y="43.2813"/><text fill="#000000" font-family="Helvetica" font-size="10" x="1128.001" y="59.5635">PEP</text><text fill="#000000" font-family="Helvetica" font-size="10" x="1108.6699" y="71.2041">HTTP Proxy</text><rect fill="#FFE6CC" height="37.2813" rx="2.5" ry="2.5" style="stroke:#D79B00;stroke-width:0.5;" width="80.5723" x="1253.9717" y="43.2813"/><text fill="#000000" font-family="Helvetica" font-size="10" x="1284.3774" y="59.5635">PDP</text><text fill="#000000" font-family="Helvetica" font-size="10" x="1260.9717" y="71.2041">Policy Engine</text><rect fill="#D5E8D4" height="25.6406" rx="2.5" ry="2.5" style="stroke:#82B366;stroke-width:0.5;" width="96.5" x="1363.8545" y="54.9219"/><text fill="#000000" font-family="Helvetica" font-size="10" x="1370.8545" y="71.2041">Resource Server</text><rect fill="#FFE6CC" height="25.6406" rx="2.5" ry="2.5" style="stroke:#D79B00;stroke-width:0.5;" width="72.9844" x="30.5078" y="1120.5781"/><text fill="#000000" font-family="Helvetica" font-size="10" x="37.5078" y="1136.8604">cronjob Pod</text><rect fill="#FFE6CC" height="37.2813" rx="2.5" ry="2.5" style="stroke:#D79B00;stroke-width:0.5;" width="116.9492" x="188.459" y="1120.5781"/><text fill="#000000" font-family="Helvetica" font-size="10" x="237.0532" y="1136.8604">PDP</text><text fill="#000000" font-family="Helvetica" font-size="10" x="195.459" y="1148.501">Authorization Server</text><rect fill="#FFE6CC" height="25.6406" rx="2.5" ry="2.5" style="stroke:#D79B00;stroke-width:0.5;" width="35.9189" x="315.4082" y="1120.5781"/><text fill="#000000" font-family="Helvetica" font-size="10" x="322.4082" y="1136.8604">etcd</text><rect fill="#D5E8D4" height="25.6406" rx="2.5" ry="2.5" style="stroke:#82B366;stroke-width:0.5;" width="96.5" x="438.9819" y="1120.5781"/><text fill="#000000" font-family="Helvetica" font-size="10" x="445.9819" y="1136.8604">Resource Server</text><rect fill="#E2E2F0" height="25.6406" rx="2.5" ry="2.5" style="stroke:#181818;stroke-width:0.5;" width="54.8594" x="761.6133" y="1120.5781"/><text fill="#000000" font-family="Helvetica" font-size="10" x="768.6133" y="1136.8604">gematik</text><rect fill="#FFE6CC" height="37.2813" rx="2.5" ry="2.5" style="stroke:#D79B00;stroke-width:0.5;" width="116.9492" x="826.4727" y="1120.5781"/><text fill="#000000" font-family="Helvetica" font-size="10" x="875.0669" y="1136.8604">PDP</text><text fill="#000000" font-family="Helvetica" font-size="10" x="833.4727" y="1148.501">Authorization Server</text><rect fill="#FFE6CC" height="37.2813" rx="2.5" ry="2.5" style="stroke:#D79B00;stroke-width:0.5;" width="71.041" x="1101.6699" y="1120.5781"/><text fill="#000000" font-family="Helvetica" font-size="10" x="1128.001" y="1136.8604">PEP</text><text fill="#000000" font-family="Helvetica" font-size="10" x="1108.6699" y="1148.501">HTTP Proxy</text><rect fill="#FFE6CC" height="37.2813" rx="2.5" ry="2.5" style="stroke:#D79B00;stroke-width:0.5;" width="80.5723" x="1253.9717" y="1120.5781"/><text fill="#000000" font-family="Helvetica" font-size="10" x="1284.3774" y="1136.8604">PDP</text><text fill="#000000" font-family="Helvetica" font-size="10" x="1260.9717" y="1148.501">Policy Engine</text><rect fill="#D5E8D4" height="25.6406" rx="2.5" ry="2.5" style="stroke:#82B366;stroke-width:0.5;" width="96.5" x="1363.8545" y="1120.5781"/><text fill="#000000" font-family="Helvetica" font-size="10" x="1370.8545" y="1136.8604">Resource Server</text><rect fill="#FFFFFF" height="37.9375" style="stroke:#000000;stroke-width:1.5;" width="624.0137" x="190.459" y="89.5625"/><path d="M190.459,89.5625 L254.459,89.5625 L254.459,94.5625 L244.459,104.5625 L190.459,104.5625 L190.459,89.5625" fill="#EEEEEE" style="stroke:#000000;stroke-width:2;"/><text fill="#000000" font-family="Helvetica" font-size="12" font-weight="700" x="203.459" y="102.7012">ref</text><text fill="#000000" font-family="Helvetica" font-size="12" font-weight="700" x="194.459" y="119.7012">Registrierung der Issuer URI oder des Signing Keys des Anbieters (Workload Identity Pool)</text><rect fill="#FFFFFF" height="37.9375" style="stroke:#000000;stroke-width:1.5;" width="568.9307" x="763.6133" y="132.5"/><path d="M763.6133,132.5 L827.6133,132.5 L827.6133,137.5 L817.6133,147.5 L763.6133,147.5 L763.6133,132.5" fill="#EEEEEE" style="stroke:#000000;stroke-width:2;"/><text fill="#000000" font-family="Helvetica" font-size="12" font-weight="700" x="776.6133" y="145.6387">ref</text><text fill="#000000" font-family="Helvetica" font-size="12" font-weight="700" x="818.5112" y="162.6387">Verteilung der Zugriffsberechtigten Workloads an die Policy Engine</text><path d="M13,179.4375 L76.8379,179.4375 L76.8379,183.0781 L66.8379,193.0781 L13,193.0781 L13,179.4375" fill="#EEEEEE" style="stroke:#000000;stroke-width:1.5;"/><rect fill="none" height="600.0938" style="stroke:#000000;stroke-width:1.5;" width="1327.2578" x="13" y="179.4375"/><text fill="#000000" font-family="Helvetica" font-size="10" font-weight="700" x="28" y="189.7197">par</text><text fill="#000000" font-family="Helvetica" font-size="10" font-weight="700" x="91.8379" y="190.7197">[Regelm&#228;&#223;iger Token Exchange (Subject Token gegen Access Token)]</text><polygon fill="#181818" points="229.9336,216.7188,239.9336,220.7188,229.9336,224.7188,233.9336,220.7188" style="stroke:#181818;stroke-width:1;stroke-linejoin:miter;stroke-miterlimit:10;"/><line style="stroke:#181818;stroke-width:1;" x1="72" x2="235.9336" y1="220.7188" y2="220.7188"/><text fill="#000000" font-family="Helvetica" font-size="10" x="79" y="216.3604">(01)</text><text fill="#000000" font-family="Helvetica" font-size="10" x="103.5273" y="216.3604">Fordert Subject Token an</text><polygon fill="#181818" points="83,242.3594,73,246.3594,83,250.3594,79,246.3594" style="stroke:#181818;stroke-width:1;stroke-linejoin:miter;stroke-miterlimit:10;"/><line style="stroke:#181818;stroke-width:1;stroke-dasharray:2,2;" x1="77" x2="240.9336" y1="246.3594" y2="246.3594"/><text fill="#000000" font-family="Helvetica" font-size="10" x="89" y="242.001">(02)</text><text fill="#000000" font-family="Helvetica" font-size="10" x="113.5273" y="242.001">Subject Token</text><polygon fill="#181818" points="867.9473,279.6406,877.9473,283.6406,867.9473,287.6406,871.9473,283.6406" style="stroke:#181818;stroke-width:1;stroke-linejoin:miter;stroke-miterlimit:10;"/><line style="stroke:#181818;stroke-width:1;" x1="72" x2="873.9473" y1="283.6406" y2="283.6406"/><text fill="#000000" font-family="Helvetica" font-size="10" x="79" y="273.4619">(03)</text><text fill="#000000" font-family="Helvetica" font-size="10" x="103.5273" y="267.6416">Fordert Access-Token an</text><text fill="#000000" font-family="Helvetica" font-size="10" x="103.5273" y="279.2822">(Token Exchange mit Subject Token)</text><polygon fill="#181818" points="262.9336,305.2813,252.9336,309.2813,262.9336,313.2813,258.9336,309.2813" style="stroke:#181818;stroke-width:1;stroke-linejoin:miter;stroke-miterlimit:10;"/><line style="stroke:#181818;stroke-width:1;" x1="256.9336" x2="878.9473" y1="309.2813" y2="309.2813"/><text fill="#000000" font-family="Helvetica" font-size="10" x="268.9336" y="304.9229">(04)</text><text fill="#000000" font-family="Helvetica" font-size="10" x="293.4609" y="304.9229">GET /.well-known/openid-configuration</text><polygon fill="#181818" points="867.9473,330.9219,877.9473,334.9219,867.9473,338.9219,871.9473,334.9219" style="stroke:#181818;stroke-width:1;stroke-linejoin:miter;stroke-miterlimit:10;"/><line style="stroke:#181818;stroke-width:1;stroke-dasharray:2,2;" x1="251.9336" x2="873.9473" y1="334.9219" y2="334.9219"/><text fill="#000000" font-family="Helvetica" font-size="10" x="258.9336" y="330.5635">(05)</text><text fill="#000000" font-family="Helvetica" font-size="10" x="283.4609" y="330.5635">OpenID Provider Metadaten</text><polygon fill="#181818" points="262.9336,356.5625,252.9336,360.5625,262.9336,364.5625,258.9336,360.5625" style="stroke:#181818;stroke-width:1;stroke-linejoin:miter;stroke-miterlimit:10;"/><line style="stroke:#181818;stroke-width:1;" x1="256.9336" x2="878.9473" y1="360.5625" y2="360.5625"/><text fill="#000000" font-family="Helvetica" font-size="10" x="268.9336" y="356.2041">(06)</text><text fill="#000000" font-family="Helvetica" font-size="10" x="293.4609" y="356.2041">GET /openid/v1/jwks</text><polygon fill="#181818" points="867.9473,382.2031,877.9473,386.2031,867.9473,390.2031,871.9473,386.2031" style="stroke:#181818;stroke-width:1;stroke-linejoin:miter;stroke-miterlimit:10;"/><line style="stroke:#181818;stroke-width:1;stroke-dasharray:2,2;" x1="251.9336" x2="873.9473" y1="386.2031" y2="386.2031"/><text fill="#000000" font-family="Helvetica" font-size="10" x="258.9336" y="381.8447">(07)</text><text fill="#000000" font-family="Helvetica" font-size="10" x="283.4609" y="381.8447">JWKS</text><line style="stroke:#181818;stroke-width:1;" x1="889.9473" x2="931.9473" y1="411.8438" y2="411.8438"/><line style="stroke:#181818;stroke-width:1;" x1="931.9473" x2="931.9473" y1="411.8438" y2="424.8438"/><line style="stroke:#181818;stroke-width:1;" x1="890.9473" x2="931.9473" y1="424.8438" y2="424.8438"/><polygon fill="#181818" points="900.9473,420.8438,890.9473,424.8438,900.9473,428.8438,896.9473,424.8438" style="stroke:#181818;stroke-width:1;stroke-linejoin:miter;stroke-miterlimit:10;"/><text fill="#000000" font-family="Helvetica" font-size="10" x="896.9473" y="407.4854">(08)</text><text fill="#000000" font-family="Helvetica" font-size="10" x="921.4746" y="407.4854">Validiert Subject Token (Signaturpr&#252;fung)</text><path d="M32,436.8438 L91.9561,436.8438 L91.9561,440.4844 L81.9561,450.4844 L32,450.4844 L32,436.8438" fill="#EEEEEE" style="stroke:#000000;stroke-width:1.5;"/><rect fill="none" height="328.6875" style="stroke:#000000;stroke-width:1.5;" width="1283.2578" x="32" y="436.8438"/><text fill="#000000" font-family="Helvetica" font-size="10" font-weight="700" x="47" y="447.126">alt</text><text fill="#000000" font-family="Helvetica" font-size="10" font-weight="700" x="106.9561" y="448.126">[Validation successful]</text><line style="stroke:#000000;stroke-width:1;stroke-dasharray:2,2;" x1="32" x2="1315.2578" y1="721.25" y2="721.25"/><text fill="#000000" font-family="Helvetica" font-size="10" font-weight="700" x="37" y="732.5322">[Validation fehlerhaft]</text><line style="stroke:#181818;stroke-width:1;" x1="889.9473" x2="931.9473" y1="478.125" y2="478.125"/><line style="stroke:#181818;stroke-width:1;" x1="931.9473" x2="931.9473" y1="478.125" y2="491.125"/><line style="stroke:#181818;stroke-width:1;" x1="890.9473" x2="931.9473" y1="491.125" y2="491.125"/><polygon fill="#181818" points="900.9473,487.125,890.9473,491.125,900.9473,495.125,896.9473,491.125" style="stroke:#181818;stroke-width:1;stroke-linejoin:miter;stroke-miterlimit:10;"/><text fill="#000000" font-family="Helvetica" font-size="10" x="896.9473" y="473.7666">(09)</text><text fill="#000000" font-family="Helvetica" font-size="10" x="921.4746" y="473.7666">Policy Engine Input erstellen</text><polygon fill="#181818" points="1277.2578,512.7656,1287.2578,516.7656,1277.2578,520.7656,1281.2578,516.7656" style="stroke:#181818;stroke-width:1;stroke-linejoin:miter;stroke-miterlimit:10;"/><line style="stroke:#181818;stroke-width:1;" x1="889.9473" x2="1283.2578" y1="516.7656" y2="516.7656"/><text fill="#000000" font-family="Helvetica" font-size="10" x="896.9473" y="512.4072">(10)</text><text fill="#000000" font-family="Helvetica" font-size="10" x="921.4746" y="512.4072">POST /v1/data/authz {Policy Engine Input}</text><polygon fill="#181818" points="900.9473,538.4063,890.9473,542.4063,900.9473,546.4063,896.9473,542.4063" style="stroke:#181818;stroke-width:1;stroke-linejoin:miter;stroke-miterlimit:10;"/><line style="stroke:#181818;stroke-width:1;stroke-dasharray:2,2;" x1="894.9473" x2="1288.2578" y1="542.4063" y2="542.4063"/><text fill="#000000" font-family="Helvetica" font-size="10" x="906.9473" y="538.0479">(11)</text><text fill="#000000" font-family="Helvetica" font-size="10" x="931.4746" y="538.0479">Policy Decision</text><path d="M51,554.4063 L110.9561,554.4063 L110.9561,558.0469 L100.9561,568.0469 L51,568.0469 L51,554.4063" fill="#EEEEEE" style="stroke:#000000;stroke-width:1.5;"/><rect fill="none" height="141.8438" style="stroke:#000000;stroke-width:1.5;" width="849.9473" x="51" y="554.4063"/><text fill="#000000" font-family="Helvetica" font-size="10" font-weight="700" x="66" y="564.6885">alt</text><text fill="#000000" font-family="Helvetica" font-size="10" font-weight="700" x="125.9561" y="565.6885">[Policy Decision allow]</text><line style="stroke:#000000;stroke-width:1;stroke-dasharray:2,2;" x1="51" x2="900.9473" y1="651.9688" y2="651.9688"/><text fill="#000000" font-family="Helvetica" font-size="10" font-weight="700" x="56" y="663.251">[Policy Decision deny]</text><polygon fill="#181818" points="83,603.3281,73,607.3281,83,611.3281,79,607.3281" style="stroke:#181818;stroke-width:1;stroke-linejoin:miter;stroke-miterlimit:10;"/><line style="stroke:#181818;stroke-width:1;stroke-dasharray:2,2;" x1="77" x2="878.9473" y1="607.3281" y2="607.3281"/><text fill="#000000" font-family="Helvetica" font-size="10" x="89" y="597.1494">(12)</text><text fill="#000000" font-family="Helvetica" font-size="10" x="113.5273" y="591.3291">200 OK</text><text fill="#000000" font-family="Helvetica" font-size="10" x="113.5273" y="602.9697">{Access Token}</text><polygon fill="#181818" points="316.3677,628.9688,326.3677,632.9688,316.3677,636.9688,320.3677,632.9688" style="stroke:#181818;stroke-width:1;stroke-linejoin:miter;stroke-miterlimit:10;"/><line style="stroke:#181818;stroke-width:1;" x1="72" x2="322.3677" y1="632.9688" y2="632.9688"/><text fill="#000000" font-family="Helvetica" font-size="10" x="79" y="628.6104">(13)</text><text fill="#000000" font-family="Helvetica" font-size="10" x="103.5273" y="628.6104">Speichert Access-Token als Secret</text><polygon fill="#181818" points="83,684.25,73,688.25,83,692.25,79,688.25" style="stroke:#181818;stroke-width:1;stroke-linejoin:miter;stroke-miterlimit:10;"/><line style="stroke:#181818;stroke-width:1;stroke-dasharray:2,2;" x1="77" x2="878.9473" y1="688.25" y2="688.25"/><text fill="#000000" font-family="Helvetica" font-size="10" x="89" y="683.8916">(14)</text><text fill="#000000" font-family="Helvetica" font-size="10" x="113.5273" y="683.8916">403 Forbidden</text><polygon fill="#181818" points="83,753.5313,73,757.5313,83,761.5313,79,757.5313" style="stroke:#181818;stroke-width:1;stroke-linejoin:miter;stroke-miterlimit:10;"/><line style="stroke:#181818;stroke-width:1;stroke-dasharray:2,2;" x1="77" x2="883.9473" y1="757.5313" y2="757.5313"/><text fill="#000000" font-family="Helvetica" font-size="10" x="89" y="753.1729">(15)</text><text fill="#000000" font-family="Helvetica" font-size="10" x="113.5273" y="753.1729">403 Forbidden</text><path d="M51,797.5313 L114.8379,797.5313 L114.8379,801.1719 L104.8379,811.1719 L51,811.1719 L51,797.5313" fill="#EEEEEE" style="stroke:#000000;stroke-width:1.5;"/><rect fill="none" height="299.0469" style="stroke:#000000;stroke-width:1.5;" width="1407.1045" x="51" y="797.5313"/><text fill="#000000" font-family="Helvetica" font-size="10" font-weight="700" x="66" y="807.8135">par</text><text fill="#000000" font-family="Helvetica" font-size="10" font-weight="700" x="129.8379" y="808.8135">[Ressourcenzugriff mit Access Token]</text><polygon fill="#181818" points="349.3677,846.4531,339.3677,850.4531,349.3677,854.4531,345.3677,850.4531" style="stroke:#181818;stroke-width:1;stroke-linejoin:miter;stroke-miterlimit:10;"/><line style="stroke:#181818;stroke-width:1;" x1="343.3677" x2="481.2319" y1="850.4531" y2="850.4531"/><text fill="#000000" font-family="Helvetica" font-size="10" x="355.3677" y="840.2744">(16)</text><text fill="#000000" font-family="Helvetica" font-size="10" x="379.895" y="834.4541">Liest Access-Token</text><text fill="#000000" font-family="Helvetica" font-size="10" x="379.895" y="846.0947">Secret aus</text><polygon fill="#181818" points="1120.1904,872.0938,1130.1904,876.0938,1120.1904,880.0938,1124.1904,876.0938" style="stroke:#181818;stroke-width:1;stroke-linejoin:miter;stroke-miterlimit:10;"/><line style="stroke:#181818;stroke-width:1;" x1="492.2319" x2="1126.1904" y1="876.0938" y2="876.0938"/><text fill="#000000" font-family="Helvetica" font-size="10" x="499.2319" y="871.7354">(17)</text><text fill="#000000" font-family="Helvetica" font-size="10" x="523.7593" y="871.7354">Anfrage mit Access-Token</text><line style="stroke:#181818;stroke-width:1;" x1="1142.1904" x2="1184.1904" y1="901.7344" y2="901.7344"/><line style="stroke:#181818;stroke-width:1;" x1="1184.1904" x2="1184.1904" y1="901.7344" y2="914.7344"/><line style="stroke:#181818;stroke-width:1;" x1="1143.1904" x2="1184.1904" y1="914.7344" y2="914.7344"/><polygon fill="#181818" points="1153.1904,910.7344,1143.1904,914.7344,1153.1904,918.7344,1149.1904,914.7344" style="stroke:#181818;stroke-width:1;stroke-linejoin:miter;stroke-miterlimit:10;"/><text fill="#000000" font-family="Helvetica" font-size="10" x="1149.1904" y="897.376">(18)</text><text fill="#000000" font-family="Helvetica" font-size="10" x="1173.7178" y="897.376">Validiert Access-Token</text><path d="M471.2319,926.7344 L531.188,926.7344 L531.188,930.375 L521.188,940.375 L471.2319,940.375 L471.2319,926.7344" fill="#EEEEEE" style="stroke:#000000;stroke-width:1.5;"/><rect fill="none" height="155.8438" style="stroke:#000000;stroke-width:1.5;" width="961.8726" x="471.2319" y="926.7344"/><text fill="#000000" font-family="Helvetica" font-size="10" font-weight="700" x="486.2319" y="937.0166">alt</text><text fill="#000000" font-family="Helvetica" font-size="10" font-weight="700" x="546.188" y="938.0166">[Erfolgreiche Validierung]</text><line style="stroke:#000000;stroke-width:1;stroke-dasharray:2,2;" x1="471.2319" x2="1433.1045" y1="1038.2969" y2="1038.2969"/><text fill="#000000" font-family="Helvetica" font-size="10" font-weight="700" x="476.2319" y="1049.5791">[Fehlgeschlagene Validierung]</text><polygon fill="#181818" points="1395.1045,964.0156,1405.1045,968.0156,1395.1045,972.0156,1399.1045,968.0156" style="stroke:#181818;stroke-width:1;stroke-linejoin:miter;stroke-miterlimit:10;"/><line style="stroke:#181818;stroke-width:1;" x1="1142.1904" x2="1401.1045" y1="968.0156" y2="968.0156"/><text fill="#000000" font-family="Helvetica" font-size="10" x="1149.1904" y="963.6572">(19)</text><text fill="#000000" font-family="Helvetica" font-size="10" x="1173.7178" y="963.6572">Weiterleitung der Anfrage mit Access-Token</text><polygon fill="#181818" points="1153.1904,989.6563,1143.1904,993.6563,1153.1904,997.6563,1149.1904,993.6563" style="stroke:#181818;stroke-width:1;stroke-linejoin:miter;stroke-miterlimit:10;"/><line style="stroke:#181818;stroke-width:1;stroke-dasharray:2,2;" x1="1147.1904" x2="1406.1045" y1="993.6563" y2="993.6563"/><text fill="#000000" font-family="Helvetica" font-size="10" x="1159.1904" y="989.2979">(20)</text><text fill="#000000" font-family="Helvetica" font-size="10" x="1183.7178" y="989.2979">Antwort</text><polygon fill="#181818" points="503.2319,1015.2969,493.2319,1019.2969,503.2319,1023.2969,499.2319,1019.2969" style="stroke:#181818;stroke-width:1;stroke-linejoin:miter;stroke-miterlimit:10;"/><line style="stroke:#181818;stroke-width:1;stroke-dasharray:2,2;" x1="497.2319" x2="1131.1904" y1="1019.2969" y2="1019.2969"/><text fill="#000000" font-family="Helvetica" font-size="10" x="509.2319" y="1014.9385">(21)</text><text fill="#000000" font-family="Helvetica" font-size="10" x="533.7593" y="1014.9385">Antwort</text><polygon fill="#181818" points="503.2319,1070.5781,493.2319,1074.5781,503.2319,1078.5781,499.2319,1074.5781" style="stroke:#181818;stroke-width:1;stroke-linejoin:miter;stroke-miterlimit:10;"/><line style="stroke:#181818;stroke-width:1;stroke-dasharray:2,2;" x1="497.2319" x2="1131.1904" y1="1074.5781" y2="1074.5781"/><text fill="#000000" font-family="Helvetica" font-size="10" x="509.2319" y="1070.2197">(22)</text><text fill="#000000" font-family="Helvetica" font-size="10" x="533.7593" y="1070.2197">Fehler 401 Unauthorized</text><?plantuml-src dLNDRjiu4BxxAMPpoazbfzsUZ2A0MZk9DrrOi9q4208Kj3II6JEaGL9ndABFqii-njxoOXrIiYl9YTlTYqsHyytFDz-GVt0PYpn1QBSxY_nU18AjL6xRzj6sMgsfUeIzoG3UjO-Xnr4Q2w6SShIe8To3Q3Iy6lJweo-VXf-7enQ0jx_fJq8uovbEd8tx-d9s6Ovw6ok01TEMntp1f8MzM2jvfwOGgMGFc87o-vEWW1O-V7X2oqvEjd5HBxgLOMvdIlCdPhcIC4RzWDfxSGVZ7MYqSH7EBQfsA1DNnpPYX4RbEiPgbANISw5OiabseTK3Jr2JgxMZLirBXlUKwzoZQRsRuu-_mV77t-5uDrStLFjuiekjg4_uyyaaWaYhnvL7dKU_Qawa18zNq9SPb-WnmoZytrolzugjLxZMc89onxx_Rnp5NJWy7676ZTKSTIup80mCZCdfxt8q0EM-4pGmvfdaT7w1A-Ctreqmi7zTTXe62NMQsnNfLOc3myDAJ0hsnfNe8bwXjiZ5EjnDdccUfcQA6kEPvPb52MkV1fY4X2FK27EkYHIgEqDn__pFytUUaQU9cXEq_nZFcCmGziVvz0vZM-vdP2mXZ6CqfjWwS3oJne-EQ56RhUqT24uAuewEkd2gD6LkeHw0IG8LmnMGTGqU1DswTUkb0ANQgY6AV8DrX5kvtwZodZVoS5MjPLjD6ixw4-YqboX4C9TgAJjgWP8dGQnaohDSU_7NIYZTkEI7P3leEOrxOS7VT9GmQjNEQ4M4piFRpjroRbxp_TVrnRZkfbnsuOe9JktVudhV2PBPN2_qyxyfIUd04Sg4BH3579lSavVcme_HI_vhieA1NEGMIDIMIFAbrL2aNrTQD1nJQLGJXM4THXKzmTSN77tpU3VNZNfBsnx6t1IK5watzcbFgAK_hQJHL5ONtXqVm_3YLdwjQljRYTlIc1CyQN61F9vj2qpGg6EiqNeu2eDRMT6GhtwLbAlo_V6VJiLJdYGbbUugeZfRfUDAfrAS2TGpbjhMV_Rxqsl3r5rzvJLXYljHFXLtZH-QAbi4hhzN_W9eF64RyZvpD7NYRcN16h3Sl0WyZvnoGfbgLivi5KuGUZAyMLNo3HElaRvEbSYqxzx6bFJlUIkSr5y35_SQELtLWdxNb-wEJA3vd0G-CKTzA2sLPZUnwA1UQit4D_cKEfkXYMU2midjb5znvAATUb5Glz_2fMJb2ur9gr2Ic_S4MMpv0rr3zTwxply0?></g></svg>