<svg xmlns="http://www.w3.org/2000/svg" xmlns:xlink="http://www.w3.org/1999/xlink" contentStyleType="text/css" data-diagram-type="SEQUENCE" height="732px" preserveAspectRatio="none" style="width:1225px;height:732px;background:#FFFFFF;" version="1.1" viewBox="0 0 1225 732" width="1225px" zoomAndPan="magnify"><?plantuml 1.2026.6?><defs/><g><rect fill="#FEFCFF" height="706.5781" style="stroke:#181818;stroke-width:0.5;" width="633.0845" x="244.6284" y="11"/><text fill="#000000" font-family="Helvetica" font-size="10" font-weight="700" x="542.301" y="20.2822">Device</text><rect fill="#E6E6FA" height="689.9375" style="stroke:#181818;stroke-width:0.5;" width="102.1934" x="775.5195" y="27.6406"/><text fill="#000000" font-family="Helvetica" font-size="10" font-weight="700" x="787.5195" y="36.9229">Prim&#228;rsystem</text><rect fill="#EDFDEC" height="706.5781" style="stroke:#181818;stroke-width:0.5;" width="147.7842" x="1071.9351" y="11"/><text fill="#000000" font-family="Helvetica" font-size="10" font-weight="700" x="1083.9351" y="20.2822">Anbieter TI 2.0 Dienst</text><rect fill="#FFF3E5" height="689.9375" style="stroke:#181818;stroke-width:0.5;" width="147.7842" x="1071.9351" y="27.6406"/><text fill="#000000" font-family="Helvetica" font-size="10" font-weight="700" x="1112.6826" y="36.9229">ZETA Guard</text><g><title>SM.C.-B</title><rect fill="#000000" fill-opacity="0.00000" height="591.7344" width="8" x="33.6147" y="81.5625"/><line style="stroke:#000000;stroke-width:0.5;stroke-dasharray:5,5;" x1="37.1147" x2="37.1147" y1="81.5625" y2="673.2969"/></g><g><title/><rect fill="#FFFFFF" height="25.6406" style="stroke:#181818;stroke-width:1;" width="10" x="32.1147" y="300.6875"/></g><g><title>Konnektor or</title><rect fill="#000000" fill-opacity="0.00000" height="591.7344" width="8" x="195.7017" y="81.5625"/><line style="stroke:#000000;stroke-width:0.5;stroke-dasharray:5,5;" x1="199.2017" x2="199.2017" y1="81.5625" y2="673.2969"/></g><g><title/><rect fill="#FFFFFF" height="76.9219" style="stroke:#181818;stroke-width:1;" width="10" x="194.2017" y="275.0469"/></g><g><title>Secure Enclave</title><rect fill="#000000" fill-opacity="0.00000" height="591.7344" width="8" x="290.583" y="81.5625"/><line style="stroke:#000000;stroke-width:0.5;stroke-dasharray:5,5;" x1="294.083" x2="294.083" y1="81.5625" y2="673.2969"/></g><g><title/><rect fill="#FFFFFF" height="583.7344" style="stroke:#181818;stroke-width:1;" width="10" x="289.083" y="89.5625"/></g><g><title>OS .macOS.</title><rect fill="#000000" fill-opacity="0.00000" height="591.7344" width="8" x="547.5576" y="81.5625"/><line style="stroke:#000000;stroke-width:0.5;stroke-dasharray:5,5;" x1="551.0576" x2="551.0576" y1="81.5625" y2="673.2969"/></g><g><title/><rect fill="#FFFFFF" height="583.7344" style="stroke:#181818;stroke-width:1;" width="10" x="546.0576" y="89.5625"/></g><g><title>ZETA Client</title><rect fill="#000000" fill-opacity="0.00000" height="591.7344" width="8" x="823.1162" y="81.5625"/><line style="stroke:#000000;stroke-width:0.5;stroke-dasharray:5,5;" x1="826.6162" x2="826.6162" y1="81.5625" y2="673.2969"/></g><g><title/><rect fill="#FFFFFF" height="583.7344" style="stroke:#181818;stroke-width:1;" width="10" x="821.6162" y="89.5625"/></g><g><title>PDP</title><rect fill="#000000" fill-opacity="0.00000" height="591.7344" width="8" x="1142.3271" y="81.5625"/><line style="stroke:#000000;stroke-width:0.5;stroke-dasharray:5,5;" x1="1145.8271" x2="1145.8271" y1="81.5625" y2="673.2969"/></g><g><title/><rect fill="#FFFFFF" height="25.6406" style="stroke:#181818;stroke-width:1;" width="10" x="1140.8271" y="107.2031"/></g><rect fill="#E4E4F4" height="25.6406" rx="2.5" ry="2.5" style="stroke:#181818;stroke-width:0.5;" width="54.2295" x="10" y="54.9219"/><text fill="#000000" font-family="Helvetica" font-size="10" x="17" y="71.2041">SM(C)-B</text><rect fill="#E4E4F4" height="37.2813" rx="2.5" ry="2.5" style="stroke:#181818;stroke-width:0.5;" width="78.8535" x="159.7749" y="43.2813"/><text fill="#000000" font-family="Helvetica" font-size="10" x="166.7749" y="59.5635">Konnektor or</text><text fill="#000000" font-family="Helvetica" font-size="10" x="170.7813" y="71.2041">TI-Gateway</text><rect fill="#E4E4F4" height="25.6406" rx="2.5" ry="2.5" style="stroke:#181818;stroke-width:0.5;" width="90.9092" x="248.6284" y="54.9219"/><text fill="#000000" font-family="Helvetica" font-size="10" x="255.6284" y="71.2041">Secure Enclave</text><rect fill="#E4E4F4" height="25.6406" rx="2.5" ry="2.5" style="stroke:#181818;stroke-width:0.5;" width="74.7861" x="513.6646" y="54.9219"/><text fill="#000000" font-family="Helvetica" font-size="10" x="520.6646" y="71.2041">OS (macOS)</text><rect fill="#FFE6CC" height="25.6406" rx="2.5" ry="2.5" style="stroke:#D79B00;stroke-width:0.5;" width="72.2471" x="790.4927" y="54.9219"/><text fill="#000000" font-family="Helvetica" font-size="10" x="797.4927" y="71.2041">ZETA Client</text><rect fill="#FFE6CC" height="37.2813" rx="2.5" ry="2.5" style="stroke:#D79B00;stroke-width:0.5;" width="116.9492" x="1087.3525" y="43.2813"/><text fill="#000000" font-family="Helvetica" font-size="10" x="1135.9468" y="59.5635">PDP</text><text fill="#000000" font-family="Helvetica" font-size="10" x="1094.3525" y="71.2041">Authorization Server</text><rect fill="#E4E4F4" height="25.6406" rx="2.5" ry="2.5" style="stroke:#181818;stroke-width:0.5;" width="54.2295" x="10" y="673.2969"/><text fill="#000000" font-family="Helvetica" font-size="10" x="17" y="689.5791">SM(C)-B</text><rect fill="#E4E4F4" height="37.2813" rx="2.5" ry="2.5" style="stroke:#181818;stroke-width:0.5;" width="78.8535" x="159.7749" y="673.2969"/><text fill="#000000" font-family="Helvetica" font-size="10" x="166.7749" y="689.5791">Konnektor or</text><text fill="#000000" font-family="Helvetica" font-size="10" x="170.7813" y="701.2197">TI-Gateway</text><rect fill="#E4E4F4" height="25.6406" rx="2.5" ry="2.5" style="stroke:#181818;stroke-width:0.5;" width="90.9092" x="248.6284" y="673.2969"/><text fill="#000000" font-family="Helvetica" font-size="10" x="255.6284" y="689.5791">Secure Enclave</text><rect fill="#E4E4F4" height="25.6406" rx="2.5" ry="2.5" style="stroke:#181818;stroke-width:0.5;" width="74.7861" x="513.6646" y="673.2969"/><text fill="#000000" font-family="Helvetica" font-size="10" x="520.6646" y="689.5791">OS (macOS)</text><rect fill="#FFE6CC" height="25.6406" rx="2.5" ry="2.5" style="stroke:#D79B00;stroke-width:0.5;" width="72.2471" x="790.4927" y="673.2969"/><text fill="#000000" font-family="Helvetica" font-size="10" x="797.4927" y="689.5791">ZETA Client</text><rect fill="#FFE6CC" height="37.2813" rx="2.5" ry="2.5" style="stroke:#D79B00;stroke-width:0.5;" width="116.9492" x="1087.3525" y="673.2969"/><text fill="#000000" font-family="Helvetica" font-size="10" x="1135.9468" y="689.5791">PDP</text><text fill="#000000" font-family="Helvetica" font-size="10" x="1094.3525" y="701.2197">Authorization Server</text><polygon fill="#181818" points="1128.8271,103.2031,1138.8271,107.2031,1128.8271,111.2031,1132.8271,107.2031" style="stroke:#181818;stroke-width:1;stroke-linejoin:miter;stroke-miterlimit:10;"/><line style="stroke:#181818;stroke-width:1;" x1="831.6162" x2="1134.8271" y1="107.2031" y2="107.2031"/><text fill="#000000" font-family="Helvetica" font-size="10" x="838.6162" y="102.8447">(01)</text><text fill="#000000" font-family="Helvetica" font-size="10" x="863.1436" y="102.8447">GET /nonce</text><polygon fill="#181818" points="842.6162,128.8438,832.6162,132.8438,842.6162,136.8438,838.6162,132.8438" style="stroke:#181818;stroke-width:1;stroke-linejoin:miter;stroke-miterlimit:10;"/><line style="stroke:#181818;stroke-width:1;stroke-dasharray:2,2;" x1="836.6162" x2="1139.8271" y1="132.8438" y2="132.8438"/><text fill="#000000" font-family="Helvetica" font-size="10" x="848.6162" y="128.4854">(02)</text><text fill="#000000" font-family="Helvetica" font-size="10" x="873.1436" y="128.4854">Nonce</text><line style="stroke:#181818;stroke-width:1;" x1="831.6162" x2="873.6162" y1="170.125" y2="170.125"/><line style="stroke:#181818;stroke-width:1;" x1="873.6162" x2="873.6162" y1="170.125" y2="183.125"/><line style="stroke:#181818;stroke-width:1;" x1="832.6162" x2="873.6162" y1="183.125" y2="183.125"/><polygon fill="#181818" points="842.6162,179.125,832.6162,183.125,842.6162,187.125,838.6162,183.125" style="stroke:#181818;stroke-width:1;stroke-linejoin:miter;stroke-miterlimit:10;"/><text fill="#000000" font-family="Helvetica" font-size="10" x="838.6162" y="159.9463">(03)</text><text fill="#000000" font-family="Helvetica" font-size="10" x="863.1436" y="154.126">Create DPoP Key Pair</text><text fill="#000000" font-family="Helvetica" font-size="10" x="863.1436" y="165.7666">(PrK.DPoP.Sig, PuK.DPoP.Sig)</text><line style="stroke:#181818;stroke-width:1;" x1="831.6162" x2="873.6162" y1="208.7656" y2="208.7656"/><line style="stroke:#181818;stroke-width:1;" x1="873.6162" x2="873.6162" y1="208.7656" y2="221.7656"/><line style="stroke:#181818;stroke-width:1;" x1="832.6162" x2="873.6162" y1="221.7656" y2="221.7656"/><polygon fill="#181818" points="842.6162,217.7656,832.6162,221.7656,842.6162,225.7656,838.6162,221.7656" style="stroke:#181818;stroke-width:1;stroke-linejoin:miter;stroke-miterlimit:10;"/><text fill="#000000" font-family="Helvetica" font-size="10" x="838.6162" y="204.4072">(04)</text><text fill="#000000" font-family="Helvetica" font-size="10" x="863.1436" y="204.4072">Erstelle Subject Token (mit Nonce)</text><path d="M16.1147,233.7656 L246.5591,233.7656 L246.5591,237.4063 L236.5591,247.4063 L16.1147,247.4063 L16.1147,233.7656" fill="#EEEEEE" style="stroke:#000000;stroke-width:1.5;"/><rect fill="none" height="126.2031" style="stroke:#000000;stroke-width:1.5;" width="826.5015" x="16.1147" y="233.7656"/><text fill="#000000" font-family="Helvetica" font-size="10" font-weight="700" x="31.1147" y="244.0479">Sign Subject Token with SM(C)-B</text><polygon fill="#181818" points="215.2017,271.0469,205.2017,275.0469,215.2017,279.0469,211.2017,275.0469" style="stroke:#181818;stroke-width:1;stroke-linejoin:miter;stroke-miterlimit:10;"/><line style="stroke:#181818;stroke-width:1;" x1="209.2017" x2="820.6162" y1="275.0469" y2="275.0469"/><text fill="#000000" font-family="Helvetica" font-size="10" x="221.2017" y="270.6885">(05)</text><text fill="#000000" font-family="Helvetica" font-size="10" x="245.729" y="270.6885">Sign Subject Token</text><polygon fill="#181818" points="53.1147,296.6875,43.1147,300.6875,53.1147,304.6875,49.1147,300.6875" style="stroke:#181818;stroke-width:1;stroke-linejoin:miter;stroke-miterlimit:10;"/><line style="stroke:#181818;stroke-width:1;" x1="47.1147" x2="193.2017" y1="300.6875" y2="300.6875"/><text fill="#000000" font-family="Helvetica" font-size="10" x="59.1147" y="296.3291">(06)</text><text fill="#000000" font-family="Helvetica" font-size="10" x="83.6421" y="296.3291">Sign Subject Token</text><polygon fill="#181818" points="182.2017,322.3281,192.2017,326.3281,182.2017,330.3281,186.2017,326.3281" style="stroke:#181818;stroke-width:1;stroke-linejoin:miter;stroke-miterlimit:10;"/><line style="stroke:#181818;stroke-width:1;stroke-dasharray:2,2;" x1="42.1147" x2="188.2017" y1="326.3281" y2="326.3281"/><text fill="#000000" font-family="Helvetica" font-size="10" x="49.1147" y="321.9697">(07)</text><text fill="#000000" font-family="Helvetica" font-size="10" x="73.6421" y="321.9697">Signed Subject Token</text><polygon fill="#181818" points="809.6162,347.9688,819.6162,351.9688,809.6162,355.9688,813.6162,351.9688" style="stroke:#181818;stroke-width:1;stroke-linejoin:miter;stroke-miterlimit:10;"/><line style="stroke:#181818;stroke-width:1;stroke-dasharray:2,2;" x1="204.2017" x2="815.6162" y1="351.9688" y2="351.9688"/><text fill="#000000" font-family="Helvetica" font-size="10" x="211.2017" y="347.6104">(08)</text><text fill="#000000" font-family="Helvetica" font-size="10" x="235.729" y="347.6104">Signed Subject Token</text><polygon fill="#181818" points="567.0576,399.25,557.0576,403.25,567.0576,407.25,563.0576,403.25" style="stroke:#181818;stroke-width:1;stroke-linejoin:miter;stroke-miterlimit:10;"/><line style="stroke:#181818;stroke-width:1;" x1="561.0576" x2="820.6162" y1="403.25" y2="403.25"/><text fill="#000000" font-family="Helvetica" font-size="10" x="573.0576" y="393.0713">(09)</text><text fill="#000000" font-family="Helvetica" font-size="10" x="597.585" y="387.251">Ermittle Posture</text><text fill="#000000" font-family="Helvetica" font-size="10" x="597.585" y="398.8916">(SIP, Gatekeeper, OS-Version, Secure Boot)</text><polygon fill="#181818" points="809.6162,424.8906,819.6162,428.8906,809.6162,432.8906,813.6162,428.8906" style="stroke:#181818;stroke-width:1;stroke-linejoin:miter;stroke-miterlimit:10;"/><line style="stroke:#181818;stroke-width:1;stroke-dasharray:2,2;" x1="556.0576" x2="815.6162" y1="428.8906" y2="428.8906"/><text fill="#000000" font-family="Helvetica" font-size="10" x="563.0576" y="424.5322">(10)</text><text fill="#000000" font-family="Helvetica" font-size="10" x="587.585" y="424.5322">Posture-Daten (Klartext)</text><line style="stroke:#181818;stroke-width:1;" x1="831.6162" x2="873.6162" y1="454.5313" y2="454.5313"/><line style="stroke:#181818;stroke-width:1;" x1="873.6162" x2="873.6162" y1="454.5313" y2="467.5313"/><line style="stroke:#181818;stroke-width:1;" x1="832.6162" x2="873.6162" y1="467.5313" y2="467.5313"/><polygon fill="#181818" points="842.6162,463.5313,832.6162,467.5313,842.6162,471.5313,838.6162,467.5313" style="stroke:#181818;stroke-width:1;stroke-linejoin:miter;stroke-miterlimit:10;"/><text fill="#000000" font-family="Helvetica" font-size="10" x="838.6162" y="450.1729">(11)</text><text fill="#000000" font-family="Helvetica" font-size="10" x="863.1436" y="450.1729">clientDataHash = Hash(Nonce + Posture-Daten)</text><polygon fill="#181818" points="567.0576,500.8125,557.0576,504.8125,567.0576,508.8125,563.0576,504.8125" style="stroke:#181818;stroke-width:1;stroke-linejoin:miter;stroke-miterlimit:10;"/><line style="stroke:#181818;stroke-width:1;" x1="561.0576" x2="820.6162" y1="504.8125" y2="504.8125"/><text fill="#000000" font-family="Helvetica" font-size="10" x="573.0576" y="494.6338">(12)</text><text fill="#000000" font-family="Helvetica" font-size="10" x="597.585" y="488.8135">DCAppAttest.generateAssertion(</text><text fill="#000000" font-family="Helvetica" font-size="10" x="597.585" y="500.4541">keyId: Handle_PrK.AK.Sig,  clientDataHash)</text><polygon fill="#181818" points="310.083,538.0938,300.083,542.0938,310.083,546.0938,306.083,542.0938" style="stroke:#181818;stroke-width:1;stroke-linejoin:miter;stroke-miterlimit:10;"/><line style="stroke:#181818;stroke-width:1;" x1="304.083" x2="545.0576" y1="542.0938" y2="542.0938"/><text fill="#000000" font-family="Helvetica" font-size="10" x="316.083" y="531.915">(13)</text><text fill="#000000" font-family="Helvetica" font-size="10" x="340.6104" y="526.0947">Erstelle Hardware-Signatur</text><text fill="#000000" font-family="Helvetica" font-size="10" x="340.6104" y="537.7354">&#252;ber clientDataHash</text><polygon fill="#181818" points="534.0576,563.7344,544.0576,567.7344,534.0576,571.7344,538.0576,567.7344" style="stroke:#181818;stroke-width:1;stroke-linejoin:miter;stroke-miterlimit:10;"/><line style="stroke:#181818;stroke-width:1;stroke-dasharray:2,2;" x1="299.083" x2="540.0576" y1="567.7344" y2="567.7344"/><text fill="#000000" font-family="Helvetica" font-size="10" x="306.083" y="563.376">(14)</text><text fill="#000000" font-family="Helvetica" font-size="10" x="330.6104" y="563.376">Signatur + Authenticator Data (Counter)</text><polygon fill="#181818" points="809.6162,601.0156,819.6162,605.0156,809.6162,609.0156,813.6162,605.0156" style="stroke:#181818;stroke-width:1;stroke-linejoin:miter;stroke-miterlimit:10;"/><line style="stroke:#181818;stroke-width:1;stroke-dasharray:2,2;" x1="556.0576" x2="815.6162" y1="605.0156" y2="605.0156"/><text fill="#000000" font-family="Helvetica" font-size="10" x="563.0576" y="594.8369">(15)</text><text fill="#000000" font-family="Helvetica" font-size="10" x="587.585" y="589.0166">dc_assertion</text><text fill="#000000" font-family="Helvetica" font-size="10" x="587.585" y="600.6572">(CBOR: Signatur + authenticatorData)</text><line style="stroke:#181818;stroke-width:1;" x1="831.6162" x2="873.6162" y1="642.2969" y2="642.2969"/><line style="stroke:#181818;stroke-width:1;" x1="873.6162" x2="873.6162" y1="642.2969" y2="655.2969"/><line style="stroke:#181818;stroke-width:1;" x1="832.6162" x2="873.6162" y1="655.2969" y2="655.2969"/><polygon fill="#181818" points="842.6162,651.2969,832.6162,655.2969,842.6162,659.2969,838.6162,655.2969" style="stroke:#181818;stroke-width:1;stroke-linejoin:miter;stroke-miterlimit:10;"/><text fill="#000000" font-family="Helvetica" font-size="10" x="838.6162" y="632.1182">(16)</text><text fill="#000000" font-family="Helvetica" font-size="10" x="863.1436" y="626.2979">Generiere client-statement</text><text fill="#000000" font-family="Helvetica" font-size="10" x="863.1436" y="637.9385">(Evidence = dc_assertion + Posture-Daten im Klartext)</text><?plantuml-src VLJ1Rk8m4BtdAwQvB0X2Ltj4tKeXYMX4QIB2LjeL4ZB9Y7e9Dd8SMlez-nbxwu_jE865KDfBRCTltepVFFkAYpGlCuHUxtfJhdCdPpjPwfv-qPPbVG7DTOuGBJJZ0bojiT1CSoaWsF8CHOgMTRLHRBbce56-WbOb_TemfNdADqneICO3O0NOoRZbjPs13VT1EFUYSHmz10zJcjr7aqR0I0g1AorL5NPSIJKJqz0PCetFR7UPPo5VmFPnorEqmGyUGo_Oxm2Svh0JJ4k54D3fsPQmb2e9Bb8s0wEageg6rfgbKTAsFmYgAeaLNx_zKSMkqBYs8Pw4OpUO93-JQJ3-Zsmcy7AED9WaluAfkr_RS7FpYfhTtb80YipGMuUnFhKh5XmrAfY6yAtt5NoAAxH96Zs6VZ1fLbPn3qkcCXlCV3xyuKxy3sfoI_rKdplsuvamIwduQss41DKMrUS5MlKfEXqhIkYJ1FJP7zIvtTDtEj27OJ25Qo6Dh-g_3kqVa0u17ggza-3zh0-UGd86-B6COOGxY1admxHYDUgPVxs4BxiGbyTL-nrB7m95dSh9yKcv-8sfXgbSeQ1USrsdRblMKibo0qGWpb3FN3_1tkQLXaV-euixdVw5s0f-1564kJQL91-0pRxJOAxqCMZCFYS_a_HY2BNkLEKeCTgG2kOrY6MXwVAGk4aOTy5So1NY1bMNSCuZge9yqONz5Hj8gTlKzvEy_GE5urCioJlAoMtueY-r9Ar60h8xLZp1Tp13gse6T9f4xREAVS_TREf7gxT4WOf0Rb6WCiPjpSGATs7M9qAHvJWtJd57jK_EijRrKrE24ulSqULvPfJR2CYeYfbu-xkW2zYC9RTNHpS57P1KkB4teNZAJ4yC65gUB0NTu7TgPUcS7SecrRr1D6bmiLCkGtL9nw4HW2DrfAxFCIyvhcb6b8VNdEGzJNOkCF0r77lr3m00?></g></svg>