<svg xmlns="http://www.w3.org/2000/svg" xmlns:xlink="http://www.w3.org/1999/xlink" contentStyleType="text/css" data-diagram-type="SEQUENCE" height="547px" preserveAspectRatio="none" style="width:785px;height:547px;background:#FFFFFF;" version="1.1" viewBox="0 0 785 547" width="785px" zoomAndPan="magnify"><?plantuml 1.2026.6?><defs/><g><rect fill="#FEFCFF" height="521.4531" style="stroke:#181818;stroke-width:0.5;" width="552.1519" x="16" y="11"/><text fill="#000000" font-family="Helvetica" font-size="10" font-weight="700" x="273.2063" y="20.2822">Device</text><rect fill="#E6E6FA" height="504.8125" style="stroke:#181818;stroke-width:0.5;" width="102.1934" x="465.9585" y="27.6406"/><text fill="#000000" font-family="Helvetica" font-size="10" font-weight="700" x="477.9585" y="36.9229">Prim&#228;rsystem</text><rect fill="#EDFDEC" height="521.4531" style="stroke:#181818;stroke-width:0.5;" width="147.7842" x="631.749" y="11"/><text fill="#000000" font-family="Helvetica" font-size="10" font-weight="700" x="643.749" y="20.2822">Anbieter TI 2.0 Dienst</text><rect fill="#FFF3E5" height="504.8125" style="stroke:#181818;stroke-width:0.5;" width="147.7842" x="631.749" y="27.6406"/><text fill="#000000" font-family="Helvetica" font-size="10" font-weight="700" x="672.4966" y="36.9229">ZETA Guard</text><g><title>TPM</title><rect fill="#000000" fill-opacity="0.00000" height="406.6094" width="8" x="33.8833" y="81.5625"/><line style="stroke:#000000;stroke-width:0.5;stroke-dasharray:5,5;" x1="37.3833" x2="37.3833" y1="81.5625" y2="488.1719"/></g><g><title/><rect fill="#FFFFFF" height="25.6406" style="stroke:#181818;stroke-width:1;" width="10" x="32.3833" y="223.4063"/></g><g><title/><rect fill="#FFFFFF" height="25.6406" style="stroke:#181818;stroke-width:1;" width="10" x="32.3833" y="274.6875"/></g><g><title>ZAS</title><rect fill="#000000" fill-opacity="0.00000" height="406.6094" width="8" x="264.6421" y="81.5625"/><line style="stroke:#000000;stroke-width:0.5;stroke-dasharray:5,5;" x1="268.1421" x2="268.1421" y1="81.5625" y2="488.1719"/></g><g><title/><rect fill="#FFFFFF" height="398.6094" style="stroke:#181818;stroke-width:1;" width="10" x="263.1421" y="89.5625"/></g><g><title>ZETA Client</title><rect fill="#000000" fill-opacity="0.00000" height="406.6094" width="8" x="513.5552" y="81.5625"/><line style="stroke:#000000;stroke-width:0.5;stroke-dasharray:5,5;" x1="517.0552" x2="517.0552" y1="81.5625" y2="488.1719"/></g><g><title/><rect fill="#FFFFFF" height="398.6094" style="stroke:#181818;stroke-width:1;" width="10" x="512.0552" y="89.5625"/></g><g><title>PDP</title><rect fill="#000000" fill-opacity="0.00000" height="406.6094" width="8" x="702.1411" y="81.5625"/><line style="stroke:#000000;stroke-width:0.5;stroke-dasharray:5,5;" x1="705.6411" x2="705.6411" y1="81.5625" y2="488.1719"/></g><g><title/><rect fill="#FFFFFF" height="25.6406" style="stroke:#181818;stroke-width:1;" width="10" x="700.6411" y="107.2031"/></g><rect fill="#E4E4F4" height="25.6406" rx="2.5" ry="2.5" style="stroke:#181818;stroke-width:0.5;" width="34.7666" x="20" y="54.9219"/><text fill="#000000" font-family="Helvetica" font-size="10" x="27" y="71.2041">TPM</text><rect fill="#FFE6CC" height="25.6406" rx="2.5" ry="2.5" style="stroke:#D79B00;stroke-width:0.5;" width="34.0391" x="251.1226" y="54.9219"/><text fill="#000000" font-family="Helvetica" font-size="10" x="258.1226" y="71.2041">ZAS</text><rect fill="#FFE6CC" height="25.6406" rx="2.5" ry="2.5" style="stroke:#D79B00;stroke-width:0.5;" width="72.2471" x="480.9316" y="54.9219"/><text fill="#000000" font-family="Helvetica" font-size="10" x="487.9316" y="71.2041">ZETA Client</text><rect fill="#FFE6CC" height="37.2813" rx="2.5" ry="2.5" style="stroke:#D79B00;stroke-width:0.5;" width="116.9492" x="647.1665" y="43.2813"/><text fill="#000000" font-family="Helvetica" font-size="10" x="695.7607" y="59.5635">PDP</text><text fill="#000000" font-family="Helvetica" font-size="10" x="654.1665" y="71.2041">Authorization Server</text><rect fill="#E4E4F4" height="25.6406" rx="2.5" ry="2.5" style="stroke:#181818;stroke-width:0.5;" width="34.7666" x="20" y="488.1719"/><text fill="#000000" font-family="Helvetica" font-size="10" x="27" y="504.4541">TPM</text><rect fill="#FFE6CC" height="25.6406" rx="2.5" ry="2.5" style="stroke:#D79B00;stroke-width:0.5;" width="34.0391" x="251.1226" y="488.1719"/><text fill="#000000" font-family="Helvetica" font-size="10" x="258.1226" y="504.4541">ZAS</text><rect fill="#FFE6CC" height="25.6406" rx="2.5" ry="2.5" style="stroke:#D79B00;stroke-width:0.5;" width="72.2471" x="480.9316" y="488.1719"/><text fill="#000000" font-family="Helvetica" font-size="10" x="487.9316" y="504.4541">ZETA Client</text><rect fill="#FFE6CC" height="37.2813" rx="2.5" ry="2.5" style="stroke:#D79B00;stroke-width:0.5;" width="116.9492" x="647.1665" y="488.1719"/><text fill="#000000" font-family="Helvetica" font-size="10" x="695.7607" y="504.4541">PDP</text><text fill="#000000" font-family="Helvetica" font-size="10" x="654.1665" y="516.0947">Authorization Server</text><polygon fill="#181818" points="688.6411,103.2031,698.6411,107.2031,688.6411,111.2031,692.6411,107.2031" style="stroke:#181818;stroke-width:1;stroke-linejoin:miter;stroke-miterlimit:10;"/><line style="stroke:#181818;stroke-width:1;" x1="522.0552" x2="694.6411" y1="107.2031" y2="107.2031"/><text fill="#000000" font-family="Helvetica" font-size="10" x="529.0552" y="102.8447">(01)</text><text fill="#000000" font-family="Helvetica" font-size="10" x="553.5825" y="102.8447">GET /nonce</text><polygon fill="#181818" points="533.0552,128.8438,523.0552,132.8438,533.0552,136.8438,529.0552,132.8438" style="stroke:#181818;stroke-width:1;stroke-linejoin:miter;stroke-miterlimit:10;"/><line style="stroke:#181818;stroke-width:1;stroke-dasharray:2,2;" x1="527.0552" x2="699.6411" y1="132.8438" y2="132.8438"/><text fill="#000000" font-family="Helvetica" font-size="10" x="539.0552" y="128.4854">(02)</text><text fill="#000000" font-family="Helvetica" font-size="10" x="563.5825" y="128.4854">Nonce</text><path d="M16.3833,144.8438 L76.3394,144.8438 L76.3394,148.4844 L66.3394,158.4844 L16.3833,158.4844 L16.3833,144.8438" fill="#EEEEEE" style="stroke:#000000;stroke-width:1.5;"/><rect fill="none" height="319.3281" style="stroke:#000000;stroke-width:1.5;" width="705.2578" x="16.3833" y="144.8438"/><text fill="#000000" font-family="Helvetica" font-size="10" font-weight="700" x="31.3833" y="155.126">alt</text><text fill="#000000" font-family="Helvetica" font-size="10" font-weight="700" x="91.3394" y="156.126">[TPM Attestation]</text><line style="stroke:#000000;stroke-width:1;stroke-dasharray:2,2;" x1="16.3833" x2="721.6411" y1="395.25" y2="395.25"/><text fill="#000000" font-family="Helvetica" font-size="10" font-weight="700" x="21.3833" y="406.5322">[Software Attestation (Fallback)]</text><polygon fill="#181818" points="284.1421,182.125,274.1421,186.125,284.1421,190.125,280.1421,186.125" style="stroke:#181818;stroke-width:1;stroke-linejoin:miter;stroke-miterlimit:10;"/><line style="stroke:#181818;stroke-width:1;" x1="278.1421" x2="511.0552" y1="186.125" y2="186.125"/><text fill="#000000" font-family="Helvetica" font-size="10" x="290.1421" y="181.7666">(03)</text><text fill="#000000" font-family="Helvetica" font-size="10" x="314.6694" y="181.7666">GetEvidence(Nonce)</text><polygon fill="#181818" points="53.3833,219.4063,43.3833,223.4063,53.3833,227.4063,49.3833,223.4063" style="stroke:#181818;stroke-width:1;stroke-linejoin:miter;stroke-miterlimit:10;"/><line style="stroke:#181818;stroke-width:1;" x1="47.3833" x2="262.1421" y1="223.4063" y2="223.4063"/><text fill="#000000" font-family="Helvetica" font-size="10" x="59.3833" y="213.2275">(04)</text><text fill="#000000" font-family="Helvetica" font-size="10" x="83.9106" y="207.4072">TPM2_Quote(PCR=[7,23],</text><text fill="#000000" font-family="Helvetica" font-size="10" x="83.9106" y="219.0479">Nonce, Handle_PrK.AK.Sig)</text><polygon fill="#181818" points="251.1421,245.0469,261.1421,249.0469,251.1421,253.0469,255.1421,249.0469" style="stroke:#181818;stroke-width:1;stroke-linejoin:miter;stroke-miterlimit:10;"/><line style="stroke:#181818;stroke-width:1;stroke-dasharray:2,2;" x1="42.3833" x2="257.1421" y1="249.0469" y2="249.0469"/><text fill="#000000" font-family="Helvetica" font-size="10" x="49.3833" y="244.6885">(05)</text><text fill="#000000" font-family="Helvetica" font-size="10" x="73.9106" y="244.6885">tpm_quote (signiert mit PrK.AK.Sig)</text><polygon fill="#181818" points="53.3833,270.6875,43.3833,274.6875,53.3833,278.6875,49.3833,274.6875" style="stroke:#181818;stroke-width:1;stroke-linejoin:miter;stroke-miterlimit:10;"/><line style="stroke:#181818;stroke-width:1;" x1="47.3833" x2="262.1421" y1="274.6875" y2="274.6875"/><text fill="#000000" font-family="Helvetica" font-size="10" x="59.3833" y="270.3291">(06)</text><text fill="#000000" font-family="Helvetica" font-size="10" x="83.9106" y="270.3291">TPM2_GetEventLog()</text><polygon fill="#181818" points="251.1421,296.3281,261.1421,300.3281,251.1421,304.3281,255.1421,300.3281" style="stroke:#181818;stroke-width:1;stroke-linejoin:miter;stroke-miterlimit:10;"/><line style="stroke:#181818;stroke-width:1;stroke-dasharray:2,2;" x1="42.3833" x2="257.1421" y1="300.3281" y2="300.3281"/><text fill="#000000" font-family="Helvetica" font-size="10" x="49.3833" y="295.9697">(07)</text><text fill="#000000" font-family="Helvetica" font-size="10" x="73.9106" y="295.9697">tpm_event_log</text><polygon fill="#181818" points="500.0552,321.9688,510.0552,325.9688,500.0552,329.9688,504.0552,325.9688" style="stroke:#181818;stroke-width:1;stroke-linejoin:miter;stroke-miterlimit:10;"/><line style="stroke:#181818;stroke-width:1;stroke-dasharray:2,2;" x1="273.1421" x2="506.0552" y1="325.9688" y2="325.9688"/><text fill="#000000" font-family="Helvetica" font-size="10" x="280.1421" y="321.6104">(08)</text><text fill="#000000" font-family="Helvetica" font-size="10" x="304.6694" y="321.6104">Evidence {tpm_quote, tpm_event_log}</text><line style="stroke:#181818;stroke-width:1;" x1="522.0552" x2="564.0552" y1="363.25" y2="363.25"/><line style="stroke:#181818;stroke-width:1;" x1="564.0552" x2="564.0552" y1="363.25" y2="376.25"/><line style="stroke:#181818;stroke-width:1;" x1="523.0552" x2="564.0552" y1="376.25" y2="376.25"/><polygon fill="#181818" points="533.0552,372.25,523.0552,376.25,533.0552,380.25,529.0552,376.25" style="stroke:#181818;stroke-width:1;stroke-linejoin:miter;stroke-miterlimit:10;"/><text fill="#000000" font-family="Helvetica" font-size="10" x="529.0552" y="353.0713">(09)</text><text fill="#000000" font-family="Helvetica" font-size="10" x="553.5825" y="347.251">Generiere client-statement</text><text fill="#000000" font-family="Helvetica" font-size="10" x="553.5825" y="358.8916">(OS und PS Daten, Evidence)</text><line style="stroke:#181818;stroke-width:1;" x1="522.0552" x2="564.0552" y1="443.1719" y2="443.1719"/><line style="stroke:#181818;stroke-width:1;" x1="564.0552" x2="564.0552" y1="443.1719" y2="456.1719"/><line style="stroke:#181818;stroke-width:1;" x1="523.0552" x2="564.0552" y1="456.1719" y2="456.1719"/><polygon fill="#181818" points="533.0552,452.1719,523.0552,456.1719,533.0552,460.1719,529.0552,456.1719" style="stroke:#181818;stroke-width:1;stroke-linejoin:miter;stroke-miterlimit:10;"/><text fill="#000000" font-family="Helvetica" font-size="10" x="529.0552" y="432.9932">(10)</text><text fill="#000000" font-family="Helvetica" font-size="10" x="553.5825" y="427.1729">Generiere client-statement</text><text fill="#000000" font-family="Helvetica" font-size="10" x="553.5825" y="438.8135">(OS und PS Daten)</text><?plantuml-src fLFDRjD04BxlKqnzmL5Y5uL3fQf4ic8JeZQniKqb8CZQE4DOOQ_3UXpQ8Dw6D-75sBMJj95QBbmykpFVVD_yhC-4p8jcXU2wvvkcB9o2trSDkNH7ZB4NG88AX719N4ZmYB0cJgAI46p52cMEZ9rj55-N70Yh7P1gj6jPtO7burRaQ84Vt4x7GJOERyAO0Mou8f6B3PS4LXhDBE0rQ0itmLI3Pb4u3-Rfa_2FNcB0bhOMN5tjaFXef36jNAH4-UUtgkzhmjA2A9xEl21EFYHfC3kodVAD2u7Qj9H1wktl9zGeLuQU7MpNcYUN0WaLf5COkY_1rtar6T7mTke7yL6lHRVSauQhbGNcd4tUUx7_J4rUGr-xBYC_MaXphPJOTKDFK6rH_Rj0rdNHxpCz9ltTD-cCzjJzFbp294ZXN5PcVvtNqV43qj60UHjZlA1sDuyshpKVACr6D1lIuJdORM9FWqn88tHsgwZjC7lNL8HsD8vVVxeO35zz7YnaYn_0MovN1MQHkdQzQpSHQqDXb9szIbiLRShik-40knPhAL0Hb8BWDEqfvRP4NVHDjRQVfKQ3o8fgVI1v6ChbyS73psCLWzEiNoUZwKvcE1ALhXGXRpsEcIEM-hIGTfX0enSN9U1hfnmSLNeCYneXgRxG3wvp7_zwzXjU54kUV-lzjs3Fl1ls5m00?></g></svg>