<svg xmlns="http://www.w3.org/2000/svg" xmlns:xlink="http://www.w3.org/1999/xlink" contentStyleType="text/css" data-diagram-type="SEQUENCE" height="659px" preserveAspectRatio="none" style="width:949px;height:659px;background:#FFFFFF;" version="1.1" viewBox="0 0 949 659" width="949px" zoomAndPan="magnify"><?plantuml 1.2026.6?><defs/><g><rect fill="#E6E6FA" height="633.7344" style="stroke:#181818;stroke-width:0.5;" width="229.3164" x="136.9214" y="11"/><text fill="#000000" font-family="Helvetica" font-size="10" font-weight="700" x="212.4829" y="20.2822">Prim&#228;rsystem</text><rect fill="#EDFDEC" height="633.7344" style="stroke:#181818;stroke-width:0.5;" width="302.7358" x="541.4307" y="11"/><text fill="#000000" font-family="Helvetica" font-size="10" font-weight="700" x="668.4382" y="20.2822">Anbieter</text><rect fill="#FFF3E5" height="617.0938" style="stroke:#181818;stroke-width:0.5;" width="90.2891" x="541.4307" y="27.6406"/><text fill="#000000" font-family="Helvetica" font-size="10" font-weight="700" x="553.4307" y="36.9229">ZETA Guard</text><g><title>User</title><rect fill="#000000" fill-opacity="0.00000" height="452.1719" width="8" x="20.8965" y="114.9219"/><line style="stroke:#000000;stroke-width:0.5;stroke-dasharray:5,5;" x1="24.3965" x2="24.3965" y1="114.9219" y2="567.0938"/></g><g><title>Fach-Client</title><rect fill="#000000" fill-opacity="0.00000" height="452.1719" width="8" x="172.5586" y="114.9219"/><line style="stroke:#000000;stroke-width:0.5;stroke-dasharray:5,5;" x1="176.0586" x2="176.0586" y1="114.9219" y2="567.0938"/></g><g><title/><rect fill="#FFFFFF" height="385.25" style="stroke:#181818;stroke-width:1;" width="10" x="171.0586" y="163.8438"/></g><g><title>ZETA Client</title><rect fill="#000000" fill-opacity="0.00000" height="452.1719" width="8" x="322.6143" y="114.9219"/><line style="stroke:#000000;stroke-width:0.5;stroke-dasharray:5,5;" x1="326.1143" x2="326.1143" y1="114.9219" y2="567.0938"/></g><g><title/><rect fill="#FFFFFF" height="333.9688" style="stroke:#181818;stroke-width:1;" width="10" x="321.1143" y="189.4844"/></g><g><title>PEP</title><rect fill="#000000" fill-opacity="0.00000" height="452.1719" width="8" x="583.0752" y="114.9219"/><line style="stroke:#000000;stroke-width:0.5;stroke-dasharray:5,5;" x1="586.5752" x2="586.5752" y1="114.9219" y2="567.0938"/></g><g><title/><rect fill="#FFFFFF" height="177.4844" style="stroke:#181818;stroke-width:1;" width="10" x="581.5752" y="320.3281"/></g><g><title>Resource</title><rect fill="#000000" fill-opacity="0.00000" height="452.1719" width="8" x="806.4023" y="114.9219"/><line style="stroke:#000000;stroke-width:0.5;stroke-dasharray:5,5;" x1="809.9023" x2="809.9023" y1="114.9219" y2="567.0938"/></g><g><title/><rect fill="#FFFFFF" height="64.2813" style="stroke:#181818;stroke-width:1;" width="10" x="804.9023" y="407.8906"/></g><text fill="#000000" font-family="Helvetica" font-size="10" x="10" y="112.5635">User</text><ellipse cx="24.3965" cy="51.7813" fill="#E2E2F0" rx="8" ry="8" style="stroke:#181818;stroke-width:0.5;"/><path d="M24.3965,59.7813 L24.3965,86.7813 M11.3965,67.7813 L37.3965,67.7813 M24.3965,86.7813 L11.3965,101.7813 M24.3965,86.7813 L37.3965,101.7813" fill="none" style="stroke:#181818;stroke-width:0.5;"/><rect fill="#D5E8D4" height="25.6406" rx="2.5" ry="2.5" style="stroke:#82B366;stroke-width:0.5;" width="70.2744" x="140.9214" y="88.2813"/><text fill="#000000" font-family="Helvetica" font-size="10" x="147.9214" y="104.5635">Fach-Client</text><rect fill="#FFE6CC" height="25.6406" rx="2.5" ry="2.5" style="stroke:#D79B00;stroke-width:0.5;" width="72.2471" x="289.9907" y="88.2813"/><text fill="#000000" font-family="Helvetica" font-size="10" x="296.9907" y="104.5635">ZETA Client</text><rect fill="#FFE6CC" height="37.2813" rx="2.5" ry="2.5" style="stroke:#D79B00;stroke-width:0.5;" width="71.041" x="551.0547" y="76.6406"/><text fill="#000000" font-family="Helvetica" font-size="10" x="577.3857" y="92.9229">PEP</text><text fill="#000000" font-family="Helvetica" font-size="10" x="558.0547" y="104.5635">HTTP Proxy</text><rect fill="#D5E8D4" height="37.2813" rx="2.5" ry="2.5" style="stroke:#82B366;stroke-width:0.5;" width="60.5283" x="779.6382" y="76.6406"/><text fill="#000000" font-family="Helvetica" font-size="10" x="786.6382" y="92.9229">Resource</text><text fill="#000000" font-family="Helvetica" font-size="10" x="793.5059" y="104.5635">Server</text><text fill="#000000" font-family="Helvetica" font-size="10" x="10" y="636.376">User</text><ellipse cx="24.3965" cy="575.5938" fill="#E2E2F0" rx="8" ry="8" style="stroke:#181818;stroke-width:0.5;"/><path d="M24.3965,583.5938 L24.3965,610.5938 M11.3965,591.5938 L37.3965,591.5938 M24.3965,610.5938 L11.3965,625.5938 M24.3965,610.5938 L37.3965,625.5938" fill="none" style="stroke:#181818;stroke-width:0.5;"/><rect fill="#D5E8D4" height="25.6406" rx="2.5" ry="2.5" style="stroke:#82B366;stroke-width:0.5;" width="70.2744" x="140.9214" y="567.0938"/><text fill="#000000" font-family="Helvetica" font-size="10" x="147.9214" y="583.376">Fach-Client</text><rect fill="#FFE6CC" height="25.6406" rx="2.5" ry="2.5" style="stroke:#D79B00;stroke-width:0.5;" width="72.2471" x="289.9907" y="567.0938"/><text fill="#000000" font-family="Helvetica" font-size="10" x="296.9907" y="583.376">ZETA Client</text><rect fill="#FFE6CC" height="37.2813" rx="2.5" ry="2.5" style="stroke:#D79B00;stroke-width:0.5;" width="71.041" x="551.0547" y="567.0938"/><text fill="#000000" font-family="Helvetica" font-size="10" x="577.3857" y="583.376">PEP</text><text fill="#000000" font-family="Helvetica" font-size="10" x="558.0547" y="595.0166">HTTP Proxy</text><rect fill="#D5E8D4" height="37.2813" rx="2.5" ry="2.5" style="stroke:#82B366;stroke-width:0.5;" width="60.5283" x="779.6382" y="567.0938"/><text fill="#000000" font-family="Helvetica" font-size="10" x="786.6382" y="583.376">Resource</text><text fill="#000000" font-family="Helvetica" font-size="10" x="793.5059" y="595.0166">Server</text><polygon fill="#181818" points="159.0586,159.8438,169.0586,163.8438,159.0586,167.8438,163.0586,163.8438" style="stroke:#181818;stroke-width:1;stroke-linejoin:miter;stroke-miterlimit:10;"/><line style="stroke:#181818;stroke-width:1;" x1="24.3965" x2="165.0586" y1="163.8438" y2="163.8438"/><text fill="#000000" font-family="Helvetica" font-size="10" x="31.3965" y="147.8447">(01)</text><text fill="#000000" font-family="Helvetica" font-size="10" x="55.9238" y="136.2041">User wants to</text><text fill="#000000" font-family="Helvetica" font-size="10" x="55.9238" y="147.8447">access resource</text><text fill="#000000" font-family="Helvetica" font-size="10" x="55.9238" y="159.4854">on Resource Server</text><polygon fill="#181818" points="309.1143,185.4844,319.1143,189.4844,309.1143,193.4844,313.1143,189.4844" style="stroke:#181818;stroke-width:1;stroke-linejoin:miter;stroke-miterlimit:10;"/><line style="stroke:#181818;stroke-width:1;" x1="181.0586" x2="315.1143" y1="189.4844" y2="189.4844"/><text fill="#000000" font-family="Helvetica" font-size="10" x="188.0586" y="185.126">(02)</text><text fill="#000000" font-family="Helvetica" font-size="10" x="212.5859" y="185.126">GET /resource</text><path d="M227.0557,202.4844 L227.0557,235.4844 L685.0557,235.4844 L685.0557,212.4844 L675.0557,202.4844 L227.0557,202.4844" fill="#FEFFDD" style="stroke:#181818;stroke-width:0.5;"/><path d="M675.0557,202.4844 L675.0557,212.4844 L685.0557,212.4844 L675.0557,202.4844" fill="#FEFFDD" style="stroke:#181818;stroke-width:0.5;"/><text fill="#000000" font-family="Helvetica" font-size="10" font-weight="700" x="233.0557" y="216.7666">Vorbedingung:</text><text fill="#000000" font-family="Helvetica" font-size="10" x="233.0557" y="228.4072">Der ZETA Client hat ein g&#252;ltiges Access Token f&#252;r den Zugriff auf den Resource Server.</text><line style="stroke:#181818;stroke-width:1;" x1="331.1143" x2="373.1143" y1="258.4063" y2="258.4063"/><line style="stroke:#181818;stroke-width:1;" x1="373.1143" x2="373.1143" y1="258.4063" y2="271.4063"/><line style="stroke:#181818;stroke-width:1;" x1="332.1143" x2="373.1143" y1="271.4063" y2="271.4063"/><polygon fill="#181818" points="342.1143,267.4063,332.1143,271.4063,342.1143,275.4063,338.1143,271.4063" style="stroke:#181818;stroke-width:1;stroke-linejoin:miter;stroke-miterlimit:10;"/><text fill="#000000" font-family="Helvetica" font-size="10" x="338.1143" y="254.0479">(03)</text><text fill="#000000" font-family="Helvetica" font-size="10" x="362.6416" y="254.0479">Create DPoP Proof for RS</text><polygon fill="#181818" points="569.5752,316.3281,579.5752,320.3281,569.5752,324.3281,573.5752,320.3281" style="stroke:#181818;stroke-width:1;stroke-linejoin:miter;stroke-miterlimit:10;"/><line style="stroke:#181818;stroke-width:1;" x1="331.1143" x2="575.5752" y1="320.3281" y2="320.3281"/><text fill="#000000" font-family="Helvetica" font-size="10" x="338.1143" y="304.3291">(04)</text><text fill="#000000" font-family="Helvetica" font-size="10" x="362.6416" y="292.6885">GET /resource</text><text fill="#000000" font-family="Helvetica" font-size="10" x="375.3564" y="304.3291">Authorization: DPoP ... (Accesss token)</text><text fill="#000000" font-family="Helvetica" font-size="10" x="375.3564" y="315.9697">DPoP: ... (DPoP token)</text><line style="stroke:#181818;stroke-width:1;" x1="591.5752" x2="633.5752" y1="345.9688" y2="345.9688"/><line style="stroke:#181818;stroke-width:1;" x1="633.5752" x2="633.5752" y1="345.9688" y2="358.9688"/><line style="stroke:#181818;stroke-width:1;" x1="592.5752" x2="633.5752" y1="358.9688" y2="358.9688"/><polygon fill="#181818" points="602.5752,354.9688,592.5752,358.9688,602.5752,362.9688,598.5752,358.9688" style="stroke:#181818;stroke-width:1;stroke-linejoin:miter;stroke-miterlimit:10;"/><text fill="#000000" font-family="Helvetica" font-size="10" x="598.5752" y="341.6104">(05)</text><text fill="#000000" font-family="Helvetica" font-size="10" x="623.1025" y="341.6104">verify Access Token and DPoP Proof</text><polygon fill="#181818" points="792.9023,403.8906,802.9023,407.8906,792.9023,411.8906,796.9023,407.8906" style="stroke:#181818;stroke-width:1;stroke-linejoin:miter;stroke-miterlimit:10;"/><line style="stroke:#181818;stroke-width:1;" x1="591.5752" x2="798.9023" y1="407.8906" y2="407.8906"/><text fill="#000000" font-family="Helvetica" font-size="10" x="598.5752" y="391.8916">(06)</text><text fill="#000000" font-family="Helvetica" font-size="10" x="623.1025" y="380.251">forward GET /resource</text><text fill="#000000" font-family="Helvetica" font-size="10" x="623.1025" y="391.8916">with header and</text><text fill="#000000" font-family="Helvetica" font-size="10" x="623.1025" y="403.5322">PEP header as JSON</text><line style="stroke:#181818;stroke-width:1;" x1="814.9023" x2="856.9023" y1="433.5313" y2="433.5313"/><line style="stroke:#181818;stroke-width:1;" x1="856.9023" x2="856.9023" y1="433.5313" y2="446.5313"/><line style="stroke:#181818;stroke-width:1;" x1="815.9023" x2="856.9023" y1="446.5313" y2="446.5313"/><polygon fill="#181818" points="825.9023,442.5313,815.9023,446.5313,825.9023,450.5313,821.9023,446.5313" style="stroke:#181818;stroke-width:1;stroke-linejoin:miter;stroke-miterlimit:10;"/><text fill="#000000" font-family="Helvetica" font-size="10" x="821.9023" y="429.1729">(07)</text><text fill="#000000" font-family="Helvetica" font-size="10" x="846.4297" y="429.1729">Create Response</text><polygon fill="#181818" points="602.5752,468.1719,592.5752,472.1719,602.5752,476.1719,598.5752,472.1719" style="stroke:#181818;stroke-width:1;stroke-linejoin:miter;stroke-miterlimit:10;"/><line style="stroke:#181818;stroke-width:1;stroke-dasharray:2,2;" x1="596.5752" x2="803.9023" y1="472.1719" y2="472.1719"/><text fill="#000000" font-family="Helvetica" font-size="10" x="608.5752" y="467.8135">(08)</text><text fill="#000000" font-family="Helvetica" font-size="10" x="633.1025" y="467.8135">200 OK, Response</text><polygon fill="#181818" points="342.1143,493.8125,332.1143,497.8125,342.1143,501.8125,338.1143,497.8125" style="stroke:#181818;stroke-width:1;stroke-linejoin:miter;stroke-miterlimit:10;"/><line style="stroke:#181818;stroke-width:1;stroke-dasharray:2,2;" x1="336.1143" x2="580.5752" y1="497.8125" y2="497.8125"/><text fill="#000000" font-family="Helvetica" font-size="10" x="348.1143" y="493.4541">(09)</text><text fill="#000000" font-family="Helvetica" font-size="10" x="372.6416" y="493.4541">200 OK, Response</text><polygon fill="#181818" points="192.0586,519.4531,182.0586,523.4531,192.0586,527.4531,188.0586,523.4531" style="stroke:#181818;stroke-width:1;stroke-linejoin:miter;stroke-miterlimit:10;"/><line style="stroke:#181818;stroke-width:1;stroke-dasharray:2,2;" x1="186.0586" x2="320.1143" y1="523.4531" y2="523.4531"/><text fill="#000000" font-family="Helvetica" font-size="10" x="198.0586" y="519.0947">(10)</text><text fill="#000000" font-family="Helvetica" font-size="10" x="222.5859" y="519.0947">200 OK, Response</text><polygon fill="#181818" points="35.3965,545.0938,25.3965,549.0938,35.3965,553.0938,31.3965,549.0938" style="stroke:#181818;stroke-width:1;stroke-linejoin:miter;stroke-miterlimit:10;"/><line style="stroke:#181818;stroke-width:1;stroke-dasharray:2,2;" x1="29.3965" x2="170.0586" y1="549.0938" y2="549.0938"/><text fill="#000000" font-family="Helvetica" font-size="10" x="41.3965" y="544.7354">(11)</text><text fill="#000000" font-family="Helvetica" font-size="10" x="65.9238" y="544.7354">Response</text><?plantuml-src RLBRRk8m47ttLypoj0ibhVOngf0YIA7TxH8bQQMj8bKcSO9Li97j5EZtx6VqZH_RYGtXeZx5qJbpvioP-SP5lgWB1fvtlQgNY_w2RcLjFBCnX0IvaGgUD5Da9ZVGYHHVxluflTM6BJiGnVUFGHWdVvCqV7mTJdzFOmAmeihmdA-eC70t1AgXSqVpUN-uu4oO3jpUhfHyvmLJWy45tL5ioKkO1d0i-M268fs90j09SNO2CUFCCDKucJxVZyAuDM5ngp6kgIewqBnVnqz1F6evvxqdaUqRXL4c9caQGQJaPdlI6-3G_RmmJcnXpBIiLSuoaJ3rtfWw6xHrtgG9_K4JJQy7laqNrYYamSXCq3ndMeDgrQI0WpGuPOAbAB0FougCmnIk3pM426aOIAJkILSudG_TxhDKCrPmKTMYyhlTJ8oGSf8qpAa1nWLKky-5uHNJ43W_gNnZ0ihTfu827ozrfNXP0grB-t_Xq2DaBzZwz66e64LReqZQR6K99HvNd9no9r6lTp5D9ffD1RMPIyK_gE5I-4x4yppuxlmrsQ717uxSeBw3BT5X13TiM_Y05dcvFP-DueAEtlPatAtD5vskyOmkdQsvcSESKLnnKvy9l9xsNyD3Clr3KC8AjG5WLYifDBE8DOGVxF7pvWQclwwEk0NQFN_DQRDp5_KroG83TscMqIB_0G00?></g></svg>