<svg xmlns="http://www.w3.org/2000/svg" xmlns:xlink="http://www.w3.org/1999/xlink" contentStyleType="text/css" data-diagram-type="SEQUENCE" height="1101px" preserveAspectRatio="none" style="width:1337px;height:1101px;background:#FFFFFF;" version="1.1" viewBox="0 0 1337 1101" width="1337px" zoomAndPan="magnify"><?plantuml 1.2026.6?><defs/><g><rect fill="#FEFCFF" height="1075.4688" style="stroke:#181818;stroke-width:0.5;" width="437.2642" x="31.6167" y="11"/><text fill="#000000" font-family="Helvetica" font-size="10" font-weight="700" x="231.3792" y="20.2822">Device</text><rect fill="#E6E6FA" height="1058.8281" style="stroke:#181818;stroke-width:0.5;" width="102.1934" x="366.6875" y="27.6406"/><text fill="#000000" font-family="Helvetica" font-size="10" font-weight="700" x="378.6875" y="36.9229">Prim&#228;rsystem</text><rect fill="#EDFDEC" height="1075.4688" style="stroke:#181818;stroke-width:0.5;" width="147.7842" x="833.6792" y="11"/><text fill="#000000" font-family="Helvetica" font-size="10" font-weight="700" x="845.6792" y="20.2822">Anbieter TI 2.0 Dienst</text><rect fill="#FFF3E5" height="1058.8281" style="stroke:#181818;stroke-width:0.5;" width="147.7842" x="833.6792" y="27.6406"/><text fill="#000000" font-family="Helvetica" font-size="10" font-weight="700" x="874.4268" y="36.9229">ZETA Guard</text><g><title>TPM</title><rect fill="#000000" fill-opacity="0.00000" height="960.625" width="8" x="49.5" y="81.5625"/><line style="stroke:#000000;stroke-width:0.5;stroke-dasharray:5,5;" x1="53" x2="53" y1="81.5625" y2="1042.1875"/></g><g><title/><rect fill="#FFFFFF" height="25.6406" style="stroke:#181818;stroke-width:1;" width="10" x="48" y="363.25"/></g><g><title>ZAS</title><rect fill="#000000" fill-opacity="0.00000" height="960.625" width="8" x="233.0029" y="81.5625"/><line style="stroke:#000000;stroke-width:0.5;stroke-dasharray:5,5;" x1="236.5029" x2="236.5029" y1="81.5625" y2="1042.1875"/></g><g><title/><rect fill="#FFFFFF" height="88.5625" style="stroke:#181818;stroke-width:1;" width="10" x="231.5029" y="325.9688"/></g><g><title>ZETA Client</title><rect fill="#000000" fill-opacity="0.00000" height="960.625" width="8" x="414.2842" y="81.5625"/><line style="stroke:#000000;stroke-width:0.5;stroke-dasharray:5,5;" x1="417.7842" x2="417.7842" y1="81.5625" y2="1042.1875"/></g><g><title/><rect fill="#FFFFFF" height="897.3438" style="stroke:#181818;stroke-width:1;" width="10" x="412.7842" y="144.8438"/></g><g><title>PDP</title><rect fill="#000000" fill-opacity="0.00000" height="960.625" width="8" x="904.0713" y="81.5625"/><line style="stroke:#000000;stroke-width:0.5;stroke-dasharray:5,5;" x1="907.5713" x2="907.5713" y1="81.5625" y2="1042.1875"/></g><g><title/><rect fill="#FFFFFF" height="838.4219" style="stroke:#181818;stroke-width:1;" width="10" x="902.5713" y="185.7656"/></g><rect fill="#E4E4F4" height="25.6406" rx="2.5" ry="2.5" style="stroke:#181818;stroke-width:0.5;" width="34.7666" x="35.6167" y="54.9219"/><text fill="#000000" font-family="Helvetica" font-size="10" x="42.6167" y="71.2041">TPM</text><rect fill="#FFE6CC" height="25.6406" rx="2.5" ry="2.5" style="stroke:#D79B00;stroke-width:0.5;" width="34.0391" x="219.4834" y="54.9219"/><text fill="#000000" font-family="Helvetica" font-size="10" x="226.4834" y="71.2041">ZAS</text><rect fill="#FFE6CC" height="25.6406" rx="2.5" ry="2.5" style="stroke:#D79B00;stroke-width:0.5;" width="72.2471" x="381.6606" y="54.9219"/><text fill="#000000" font-family="Helvetica" font-size="10" x="388.6606" y="71.2041">ZETA Client</text><rect fill="#FFE6CC" height="37.2813" rx="2.5" ry="2.5" style="stroke:#D79B00;stroke-width:0.5;" width="116.9492" x="849.0967" y="43.2813"/><text fill="#000000" font-family="Helvetica" font-size="10" x="897.6909" y="59.5635">PDP</text><text fill="#000000" font-family="Helvetica" font-size="10" x="856.0967" y="71.2041">Authorization Server</text><rect fill="#E4E4F4" height="25.6406" rx="2.5" ry="2.5" style="stroke:#181818;stroke-width:0.5;" width="34.7666" x="35.6167" y="1042.1875"/><text fill="#000000" font-family="Helvetica" font-size="10" x="42.6167" y="1058.4697">TPM</text><rect fill="#FFE6CC" height="25.6406" rx="2.5" ry="2.5" style="stroke:#D79B00;stroke-width:0.5;" width="34.0391" x="219.4834" y="1042.1875"/><text fill="#000000" font-family="Helvetica" font-size="10" x="226.4834" y="1058.4697">ZAS</text><rect fill="#FFE6CC" height="25.6406" rx="2.5" ry="2.5" style="stroke:#D79B00;stroke-width:0.5;" width="72.2471" x="381.6606" y="1042.1875"/><text fill="#000000" font-family="Helvetica" font-size="10" x="388.6606" y="1058.4697">ZETA Client</text><rect fill="#FFE6CC" height="37.2813" rx="2.5" ry="2.5" style="stroke:#D79B00;stroke-width:0.5;" width="116.9492" x="849.0967" y="1042.1875"/><text fill="#000000" font-family="Helvetica" font-size="10" x="897.6909" y="1058.4697">PDP</text><text fill="#000000" font-family="Helvetica" font-size="10" x="856.0967" y="1070.1104">Authorization Server</text><path d="M13,93.5625 L72.9561,93.5625 L72.9561,97.2031 L62.9561,107.2031 L13,107.2031 L13,93.5625" fill="#EEEEEE" style="stroke:#000000;stroke-width:1.5;"/><rect fill="none" height="860.3438" style="stroke:#000000;stroke-width:1.5;" width="1304.8604" x="13" y="93.5625"/><text fill="#000000" font-family="Helvetica" font-size="10" font-weight="700" x="28" y="103.8447">alt</text><text fill="#000000" font-family="Helvetica" font-size="10" font-weight="700" x="87.9561" y="104.8447">[Kein ZETA Guard Attestation Token]</text><line style="stroke:#000000;stroke-width:1;stroke-dasharray:2,2;" x1="13" x2="1317.8604" y1="797.4219" y2="797.4219"/><text fill="#000000" font-family="Helvetica" font-size="10" font-weight="700" x="18" y="808.7041">[ZETA Attestation Token vorhanden]</text><path d="M32,121.2031 L91.9561,121.2031 L91.9561,124.8438 L81.9561,134.8438 L32,134.8438 L32,121.2031" fill="#EEEEEE" style="stroke:#000000;stroke-width:1.5;"/><rect fill="none" height="651.2188" style="stroke:#000000;stroke-width:1.5;" width="1260.8604" x="32" y="121.2031"/><text fill="#000000" font-family="Helvetica" font-size="10" font-weight="700" x="47" y="131.4854">alt</text><text fill="#000000" font-family="Helvetica" font-size="10" font-weight="700" x="106.9561" y="132.4854">[Hardware Attestation: Windows / Linux (TPM)]</text><line style="stroke:#000000;stroke-width:1;stroke-dasharray:2,2;" x1="32" x2="1292.8604" y1="497.8125" y2="497.8125"/><text fill="#000000" font-family="Helvetica" font-size="10" font-weight="700" x="37" y="509.0947">[Hardware Attestation: macOS (Apple App Attest)]</text><line style="stroke:#000000;stroke-width:1;stroke-dasharray:2,2;" x1="32" x2="1292.8604" y1="658.2969" y2="658.2969"/><text fill="#000000" font-family="Helvetica" font-size="10" font-weight="700" x="37" y="669.5791">[Software Attestation (Legacy OIDC DCR)]</text><polygon fill="#181818" points="890.5713,181.7656,900.5713,185.7656,890.5713,189.7656,894.5713,185.7656" style="stroke:#181818;stroke-width:1;stroke-linejoin:miter;stroke-miterlimit:10;"/><line style="stroke:#181818;stroke-width:1;" x1="422.7842" x2="896.5713" y1="185.7656" y2="185.7656"/><text fill="#000000" font-family="Helvetica" font-size="10" x="429.7842" y="169.7666">(01)</text><text fill="#000000" font-family="Helvetica" font-size="10" x="454.3115" y="158.126">POST /register</text><text fill="#000000" font-family="Helvetica" font-size="10" x="454.3115" y="169.7666">{attestation_type="tpm", PuK.EK.Enc, C.EK.Enc,</text><text fill="#000000" font-family="Helvetica" font-size="10" x="454.3115" y="181.4072">PuK.AK.Sig, PuK.Client.Sig, signed_Hash_PuK.Client.Sig}</text><line style="stroke:#181818;stroke-width:1;" x1="912.5713" x2="954.5713" y1="211.4063" y2="211.4063"/><line style="stroke:#181818;stroke-width:1;" x1="954.5713" x2="954.5713" y1="211.4063" y2="224.4063"/><line style="stroke:#181818;stroke-width:1;" x1="913.5713" x2="954.5713" y1="224.4063" y2="224.4063"/><polygon fill="#181818" points="923.5713,220.4063,913.5713,224.4063,923.5713,228.4063,919.5713,224.4063" style="stroke:#181818;stroke-width:1;stroke-linejoin:miter;stroke-miterlimit:10;"/><text fill="#000000" font-family="Helvetica" font-size="10" x="919.5713" y="207.0479">(02)</text><text fill="#000000" font-family="Helvetica" font-size="10" x="944.0986" y="207.0479">Validiere C.EK.Enc-Chain &amp; signed_Hash_PuK.Client.Sig</text><line style="stroke:#181818;stroke-width:1;" x1="912.5713" x2="954.5713" y1="261.6875" y2="261.6875"/><line style="stroke:#181818;stroke-width:1;" x1="954.5713" x2="954.5713" y1="261.6875" y2="274.6875"/><line style="stroke:#181818;stroke-width:1;" x1="913.5713" x2="954.5713" y1="274.6875" y2="274.6875"/><polygon fill="#181818" points="923.5713,270.6875,913.5713,274.6875,923.5713,278.6875,919.5713,274.6875" style="stroke:#181818;stroke-width:1;stroke-linejoin:miter;stroke-miterlimit:10;"/><text fill="#000000" font-family="Helvetica" font-size="10" x="919.5713" y="251.5088">(03)</text><text fill="#000000" font-family="Helvetica" font-size="10" x="944.0986" y="245.6885">CredentialBlob = MakeCredential(...);</text><text fill="#000000" font-family="Helvetica" font-size="10" x="944.0986" y="257.3291">(TPM 2.0 Commands, Section 12.5)</text><polygon fill="#181818" points="433.7842,296.3281,423.7842,300.3281,433.7842,304.3281,429.7842,300.3281" style="stroke:#181818;stroke-width:1;stroke-linejoin:miter;stroke-miterlimit:10;"/><line style="stroke:#181818;stroke-width:1;stroke-dasharray:2,2;" x1="427.7842" x2="901.5713" y1="300.3281" y2="300.3281"/><text fill="#000000" font-family="Helvetica" font-size="10" x="439.7842" y="295.9697">(04)</text><text fill="#000000" font-family="Helvetica" font-size="10" x="464.3115" y="295.9697">202 Accepted {CredentialBlob}</text><polygon fill="#181818" points="252.5029,321.9688,242.5029,325.9688,252.5029,329.9688,248.5029,325.9688" style="stroke:#181818;stroke-width:1;stroke-linejoin:miter;stroke-miterlimit:10;"/><line style="stroke:#181818;stroke-width:1;" x1="246.5029" x2="411.7842" y1="325.9688" y2="325.9688"/><text fill="#000000" font-family="Helvetica" font-size="10" x="258.5029" y="321.6104">(05)</text><text fill="#000000" font-family="Helvetica" font-size="10" x="283.0303" y="321.6104">Activate(CredentialBlob)</text><polygon fill="#181818" points="69,359.25,59,363.25,69,367.25,65,363.25" style="stroke:#181818;stroke-width:1;stroke-linejoin:miter;stroke-miterlimit:10;"/><line style="stroke:#181818;stroke-width:1;" x1="63" x2="230.5029" y1="363.25" y2="363.25"/><text fill="#000000" font-family="Helvetica" font-size="10" x="75" y="353.0713">(06)</text><text fill="#000000" font-family="Helvetica" font-size="10" x="99.5273" y="347.251">TPM2_ActivateCredential</text><text fill="#000000" font-family="Helvetica" font-size="10" x="99.5273" y="358.8916">(CredentialBlob)</text><polygon fill="#181818" points="219.5029,384.8906,229.5029,388.8906,219.5029,392.8906,223.5029,388.8906" style="stroke:#181818;stroke-width:1;stroke-linejoin:miter;stroke-miterlimit:10;"/><line style="stroke:#181818;stroke-width:1;stroke-dasharray:2,2;" x1="58" x2="225.5029" y1="388.8906" y2="388.8906"/><text fill="#000000" font-family="Helvetica" font-size="10" x="65" y="384.5322">(07)</text><text fill="#000000" font-family="Helvetica" font-size="10" x="89.5273" y="384.5322">Secret</text><polygon fill="#181818" points="400.7842,410.5313,410.7842,414.5313,400.7842,418.5313,404.7842,414.5313" style="stroke:#181818;stroke-width:1;stroke-linejoin:miter;stroke-miterlimit:10;"/><line style="stroke:#181818;stroke-width:1;stroke-dasharray:2,2;" x1="241.5029" x2="406.7842" y1="414.5313" y2="414.5313"/><text fill="#000000" font-family="Helvetica" font-size="10" x="248.5029" y="410.1729">(08)</text><text fill="#000000" font-family="Helvetica" font-size="10" x="273.0303" y="410.1729">Secret</text><polygon fill="#181818" points="890.5713,436.1719,900.5713,440.1719,890.5713,444.1719,894.5713,440.1719" style="stroke:#181818;stroke-width:1;stroke-linejoin:miter;stroke-miterlimit:10;"/><line style="stroke:#181818;stroke-width:1;" x1="422.7842" x2="896.5713" y1="440.1719" y2="440.1719"/><text fill="#000000" font-family="Helvetica" font-size="10" x="429.7842" y="435.8135">(09)</text><text fill="#000000" font-family="Helvetica" font-size="10" x="454.3115" y="435.8135">POST /register/verify {Secret}</text><line style="stroke:#181818;stroke-width:1;" x1="912.5713" x2="954.5713" y1="465.8125" y2="465.8125"/><line style="stroke:#181818;stroke-width:1;" x1="954.5713" x2="954.5713" y1="465.8125" y2="478.8125"/><line style="stroke:#181818;stroke-width:1;" x1="913.5713" x2="954.5713" y1="478.8125" y2="478.8125"/><polygon fill="#181818" points="923.5713,474.8125,913.5713,478.8125,923.5713,482.8125,919.5713,478.8125" style="stroke:#181818;stroke-width:1;stroke-linejoin:miter;stroke-miterlimit:10;"/><text fill="#000000" font-family="Helvetica" font-size="10" x="919.5713" y="461.4541">(10)</text><text fill="#000000" font-family="Helvetica" font-size="10" x="944.0986" y="461.4541">Secret korrekt? &#8594; PuK.Client.Sig hardware-gebunden &#10003;</text><polygon fill="#181818" points="890.5713,553.375,900.5713,557.375,890.5713,561.375,894.5713,557.375" style="stroke:#181818;stroke-width:1;stroke-linejoin:miter;stroke-miterlimit:10;"/><line style="stroke:#181818;stroke-width:1;" x1="422.7842" x2="896.5713" y1="557.375" y2="557.375"/><text fill="#000000" font-family="Helvetica" font-size="10" x="429.7842" y="541.376">(11)</text><text fill="#000000" font-family="Helvetica" font-size="10" x="454.3115" y="529.7354">POST /register</text><text fill="#000000" font-family="Helvetica" font-size="10" x="454.3115" y="541.376">{attestation_type="apple", PuK.AK.Sig, Apple_Attestation_Object,</text><text fill="#000000" font-family="Helvetica" font-size="10" x="454.3115" y="553.0166">PuK.Client.Sig, signed_Hash_PuK.Client.Sig}</text><line style="stroke:#181818;stroke-width:1;" x1="912.5713" x2="954.5713" y1="583.0156" y2="583.0156"/><line style="stroke:#181818;stroke-width:1;" x1="954.5713" x2="954.5713" y1="583.0156" y2="596.0156"/><line style="stroke:#181818;stroke-width:1;" x1="913.5713" x2="954.5713" y1="596.0156" y2="596.0156"/><polygon fill="#181818" points="923.5713,592.0156,913.5713,596.0156,923.5713,600.0156,919.5713,596.0156" style="stroke:#181818;stroke-width:1;stroke-linejoin:miter;stroke-miterlimit:10;"/><text fill="#000000" font-family="Helvetica" font-size="10" x="919.5713" y="578.6572">(12)</text><text fill="#000000" font-family="Helvetica" font-size="10" x="944.0986" y="578.6572">Validiere Apple_Attestation_Object &amp; signed_Hash_PuK.Client.Sig</text><path d="M917.5713,609.0156 L917.5713,642.0156 L1214.5713,642.0156 L1214.5713,619.0156 L1204.5713,609.0156 L917.5713,609.0156" fill="#FEFFDD" style="stroke:#181818;stroke-width:0.5;"/><path d="M1204.5713,609.0156 L1204.5713,619.0156 L1214.5713,619.0156 L1204.5713,609.0156" fill="#FEFFDD" style="stroke:#181818;stroke-width:0.5;"/><text fill="#000000" font-family="Helvetica" font-size="10" x="923.5713" y="623.2979">AuthS verifiziert Apple App Attest Root CA und pr&#252;ft,</text><text fill="#000000" font-family="Helvetica" font-size="10" x="923.5713" y="634.9385">dass PuK.AK.Sig mit x5c[0] des Objekts &#252;bereinstimmt.</text><polygon fill="#181818" points="890.5713,760.4219,900.5713,764.4219,890.5713,768.4219,894.5713,764.4219" style="stroke:#181818;stroke-width:1;stroke-linejoin:miter;stroke-miterlimit:10;"/><line style="stroke:#181818;stroke-width:1;" x1="422.7842" x2="896.5713" y1="764.4219" y2="764.4219"/><text fill="#000000" font-family="Helvetica" font-size="10" x="429.7842" y="725.1416">(13)</text><text fill="#000000" font-family="Helvetica" font-size="10" x="454.3115" y="690.2197">POST /register</text><text fill="#000000" font-family="Helvetica" font-size="10" x="454.3115" y="701.8604">{</text><text fill="#000000" font-family="Helvetica" font-size="10" x="460.6689" y="713.501">"client_name": "myClient",</text><text fill="#000000" font-family="Helvetica" font-size="10" x="460.6689" y="725.1416">"grant_types": ["urn:ietf:params:oauth:grant-type:token-exchange", "refresh_token"],</text><text fill="#000000" font-family="Helvetica" font-size="10" x="460.6689" y="736.7822">"jwks": { "keys": [ PuK.Client.Sig ] },</text><text fill="#000000" font-family="Helvetica" font-size="10" x="460.6689" y="748.4229">"token_endpoint_auth_method": "private_key_jwt"</text><text fill="#000000" font-family="Helvetica" font-size="10" x="454.3115" y="760.0635">}</text><polygon fill="#181818" points="890.5713,864.625,900.5713,868.625,890.5713,872.625,894.5713,868.625" style="stroke:#181818;stroke-width:1;stroke-linejoin:miter;stroke-miterlimit:10;"/><line style="stroke:#181818;stroke-width:1;" x1="422.7842" x2="896.5713" y1="868.625" y2="868.625"/><text fill="#000000" font-family="Helvetica" font-size="10" x="429.7842" y="846.8057">(14)</text><text fill="#000000" font-family="Helvetica" font-size="10" x="454.3115" y="829.3447">POST /register</text><text fill="#000000" font-family="Helvetica" font-size="10" x="454.3115" y="840.9854">{attestation_type="zeta_attestation_token",</text><text fill="#000000" font-family="Helvetica" font-size="10" x="454.3115" y="852.626">zeta_guard_attestation_token, PuK.Client.Sig,</text><text fill="#000000" font-family="Helvetica" font-size="10" x="454.3115" y="864.2666">signed_Hash_PuK.Client.Sig}</text><line style="stroke:#181818;stroke-width:1;" x1="912.5713" x2="954.5713" y1="894.2656" y2="894.2656"/><line style="stroke:#181818;stroke-width:1;" x1="954.5713" x2="954.5713" y1="894.2656" y2="907.2656"/><line style="stroke:#181818;stroke-width:1;" x1="913.5713" x2="954.5713" y1="907.2656" y2="907.2656"/><polygon fill="#181818" points="923.5713,903.2656,913.5713,907.2656,923.5713,911.2656,919.5713,907.2656" style="stroke:#181818;stroke-width:1;stroke-linejoin:miter;stroke-miterlimit:10;"/><text fill="#000000" font-family="Helvetica" font-size="10" x="919.5713" y="889.9072">(15)</text><text fill="#000000" font-family="Helvetica" font-size="10" x="944.0986" y="889.9072">Pr&#252;fe Token-Signatur &amp; Vertrauensstellung</text><line style="stroke:#181818;stroke-width:1;" x1="912.5713" x2="954.5713" y1="932.9063" y2="932.9063"/><line style="stroke:#181818;stroke-width:1;" x1="954.5713" x2="954.5713" y1="932.9063" y2="945.9063"/><line style="stroke:#181818;stroke-width:1;" x1="913.5713" x2="954.5713" y1="945.9063" y2="945.9063"/><polygon fill="#181818" points="923.5713,941.9063,913.5713,945.9063,923.5713,949.9063,919.5713,945.9063" style="stroke:#181818;stroke-width:1;stroke-linejoin:miter;stroke-miterlimit:10;"/><text fill="#000000" font-family="Helvetica" font-size="10" x="919.5713" y="928.5479">(16)</text><text fill="#000000" font-family="Helvetica" font-size="10" x="944.0986" y="928.5479">Extrahiere PuK.AK.Sig aus Token, pr&#252;fe signed_Hash_PuK.Client.Sig</text><line style="stroke:#181818;stroke-width:1;" x1="912.5713" x2="954.5713" y1="985.5469" y2="985.5469"/><line style="stroke:#181818;stroke-width:1;" x1="954.5713" x2="954.5713" y1="985.5469" y2="998.5469"/><line style="stroke:#181818;stroke-width:1;" x1="913.5713" x2="954.5713" y1="998.5469" y2="998.5469"/><polygon fill="#181818" points="923.5713,994.5469,913.5713,998.5469,923.5713,1002.5469,919.5713,998.5469" style="stroke:#181818;stroke-width:1;stroke-linejoin:miter;stroke-miterlimit:10;"/><text fill="#000000" font-family="Helvetica" font-size="10" x="919.5713" y="981.1885">(17)</text><text fill="#000000" font-family="Helvetica" font-size="10" x="944.0986" y="981.1885">Store Client Placeholder (state: pending_user_binding)</text><polygon fill="#181818" points="433.7842,1020.1875,423.7842,1024.1875,433.7842,1028.1875,429.7842,1024.1875" style="stroke:#181818;stroke-width:1;stroke-linejoin:miter;stroke-miterlimit:10;"/><line style="stroke:#181818;stroke-width:1;stroke-dasharray:2,2;" x1="427.7842" x2="901.5713" y1="1024.1875" y2="1024.1875"/><text fill="#000000" font-family="Helvetica" font-size="10" x="439.7842" y="1019.8291">(18)</text><text fill="#000000" font-family="Helvetica" font-size="10" x="464.3115" y="1019.8291">201 Created {client_id}</text><?plantuml-src hLRDRjj64BxhAQOy519iqOw0N9Z41Ii9YM0x4YJ5HHiPn8eSKMkHIsAvj2KRllO1sckFUOpS_2PvaixkIjQFBJSjAWXOaJFppT-tC_g1Yp0f8mJNFShBDAadR96LobLpLQbKnjaSd1PUyn0TQBKlEirsqEoUTViLW9n9nKEUCw706VRE7M05q0bdxGufdVUw7ziVXy-g_-OFjB93fmDltzwYOYSdf6FSzIHF7xx8Ob4eJ1tezJldVhi_-7KmR9y_ectZDHEET1Z8zj1VFcz1euWqV6LrsjHyCUQeKCAm0mtt65faLoZjj7lHQRNxZ_wCji5-Np8PEQ1_1-y_-VtMdfZyKarjbhrMRoJqOoRvBLCy4p10UOtovG1Pek0KkO2rM_2Lma9PZ64sGs7SQiqF9BvX4ZTLFFY5YoYxAU08phWevr2b_jICZVxOCXqSxBo0-ecD_k30WrvtC8GZYJ6dTiYHk6Dh_40jSdpdg3nr3g5Ndhfj-ehm49ghNoEXN_kdxe37LiMwiCy5ZmL6mGTMJ8DjsVrZIBQCguWyk609ZpXIeYidzUQKKPL-V05kBrfJOaGwd2K_9zaOti4vc-7wPTLrtTgRaT1bC_nePcdAH5GSKWT3quLN3VTrRHUV75Zd7ZIE6-278UOA8xZRzdTVUQRoT2TqtNs2lsOAgzicQrVw3f4wHQRLwMW4Avkr2OM-prwdLBV-wdLFvoDHRQC_fh6Xi8yhkqmv8dxpoGBkhDt-Xbevp38fSQP-Wc-__x5359WkkLsFSLmAoWQ-_VMdZGIJ0lTmFsLXTm1LFyyJakJvKbhxtWoUvJhJQ4kshsXjF0GRleFk-8heiMJ__yVuVOw-Z_iYKmYInrC5sMG5RfsPNl5RSg9WjrxGppAQi3vGvI6N3rydEh685SL64I3b2kQlmy_7bn1X0JgkcIhWuUkO0kSqKtcQAdUZPuDiedPx1jKpZ5cuW6wdrOHMi_zlUZKI04ver0B1KdGySDB5SXCS6caiQJ2RHXOa_UoKKdWq_YSUpMsM5bx62DipMdMjvIazOkiu3wTCnBhjZiI9HAgnaJYN5lVgPgO1xy2PuS90xpBu4kwjgh4BQCRd6QTOjCCWHLeDaOutb-R-1WGJNDqePoGiBKY_KZ5bCxlWoHQ0wqnIYD5o7_mNOkiz56ozDXbIr4OIw_NpLFvafe_4Fr5ybzuzJIcqUTH9Ip1LIcBq1P5HifBsCSMS9AM8dpLlpqbhQgx71XrPMLZ4GqjPVEc2cEe-6Kigqpl6LhANi12dMHBHFuMgBW1wa9CP5t5G5YY3CJSFjShk0j2Jit7yIYyQPZR0ag4ykg_y3G00?></g></svg>