<svg xmlns="http://www.w3.org/2000/svg" xmlns:xlink="http://www.w3.org/1999/xlink" contentStyleType="text/css" data-diagram-type="SEQUENCE" height="497px" preserveAspectRatio="none" style="width:924px;height:497px;background:#FFFFFF;" version="1.1" viewBox="0 0 924 497" width="924px" zoomAndPan="magnify"><?plantuml 1.2026.6?><defs/><g><rect fill="#FEFCFF" height="471.1719" style="stroke:#181818;stroke-width:0.5;" width="702.4385" x="72.168" y="11"/><text fill="#000000" font-family="Helvetica" font-size="10" font-weight="700" x="404.5176" y="20.2822">Device</text><rect fill="#E6E6FA" height="454.5313" style="stroke:#181818;stroke-width:0.5;" width="80.2471" x="694.3594" y="27.6406"/><text fill="#000000" font-family="Helvetica" font-size="10" font-weight="700" x="723.4551" y="36.9229">App</text><g><title>Apple</title><rect fill="#000000" fill-opacity="0.00000" height="356.3281" width="8" x="34.584" y="81.5625"/><line style="stroke:#000000;stroke-width:0.5;stroke-dasharray:5,5;" x1="38.084" x2="38.084" y1="81.5625" y2="437.8906"/></g><g><title/><rect fill="#FFFFFF" height="25.6406" style="stroke:#181818;stroke-width:1;" width="10" x="33.084" y="368.6094"/></g><g><title>Secure Enclave</title><rect fill="#000000" fill-opacity="0.00000" height="356.3281" width="8" x="118.1226" y="81.5625"/><line style="stroke:#000000;stroke-width:0.5;stroke-dasharray:5,5;" x1="121.6226" x2="121.6226" y1="81.5625" y2="437.8906"/></g><g><title/><rect fill="#FFFFFF" height="25.6406" style="stroke:#181818;stroke-width:1;" width="10" x="116.6226" y="164.4844"/></g><g><title/><rect fill="#FFFFFF" height="25.6406" style="stroke:#181818;stroke-width:1;" width="10" x="116.6226" y="317.3281"/></g><g><title>OS .macOS. iOS. iPadOS.</title><rect fill="#000000" fill-opacity="0.00000" height="356.3281" width="8" x="398.2026" y="81.5625"/><line style="stroke:#000000;stroke-width:0.5;stroke-dasharray:5,5;" x1="401.7026" x2="401.7026" y1="81.5625" y2="437.8906"/></g><g><title/><rect fill="#FFFFFF" height="348.3281" style="stroke:#181818;stroke-width:1;" width="10" x="396.7026" y="89.5625"/></g><g><title>ZETA Client</title><rect fill="#000000" fill-opacity="0.00000" height="356.3281" width="8" x="730.9829" y="81.5625"/><line style="stroke:#000000;stroke-width:0.5;stroke-dasharray:5,5;" x1="734.4829" x2="734.4829" y1="81.5625" y2="437.8906"/></g><g><title/><rect fill="#FFFFFF" height="348.3281" style="stroke:#181818;stroke-width:1;" width="10" x="729.4829" y="89.5625"/></g><rect fill="#E2E2F0" height="37.2813" rx="2.5" ry="2.5" style="stroke:#181818;stroke-width:0.5;" width="56.168" x="10" y="43.2813"/><text fill="#000000" font-family="Helvetica" font-size="10" x="23.8506" y="59.5635">Apple</text><text fill="#000000" font-family="Helvetica" font-size="10" x="17" y="71.2041">Services</text><rect fill="#E4E4F4" height="25.6406" rx="2.5" ry="2.5" style="stroke:#181818;stroke-width:0.5;" width="90.9092" x="76.168" y="54.9219"/><text fill="#000000" font-family="Helvetica" font-size="10" x="83.168" y="71.2041">Secure Enclave</text><rect fill="#E4E4F4" height="25.6406" rx="2.5" ry="2.5" style="stroke:#181818;stroke-width:0.5;" width="140.001" x="331.7021" y="54.9219"/><text fill="#000000" font-family="Helvetica" font-size="10" x="338.7021" y="71.2041">OS (macOS, iOS, iPadOS)</text><rect fill="#FFE6CC" height="25.6406" rx="2.5" ry="2.5" style="stroke:#D79B00;stroke-width:0.5;" width="72.2471" x="698.3594" y="54.9219"/><text fill="#000000" font-family="Helvetica" font-size="10" x="705.3594" y="71.2041">ZETA Client</text><rect fill="#E2E2F0" height="37.2813" rx="2.5" ry="2.5" style="stroke:#181818;stroke-width:0.5;" width="56.168" x="10" y="437.8906"/><text fill="#000000" font-family="Helvetica" font-size="10" x="23.8506" y="454.1729">Apple</text><text fill="#000000" font-family="Helvetica" font-size="10" x="17" y="465.8135">Services</text><rect fill="#E4E4F4" height="25.6406" rx="2.5" ry="2.5" style="stroke:#181818;stroke-width:0.5;" width="90.9092" x="76.168" y="437.8906"/><text fill="#000000" font-family="Helvetica" font-size="10" x="83.168" y="454.1729">Secure Enclave</text><rect fill="#E4E4F4" height="25.6406" rx="2.5" ry="2.5" style="stroke:#181818;stroke-width:0.5;" width="140.001" x="331.7021" y="437.8906"/><text fill="#000000" font-family="Helvetica" font-size="10" x="338.7021" y="454.1729">OS (macOS, iOS, iPadOS)</text><rect fill="#FFE6CC" height="25.6406" rx="2.5" ry="2.5" style="stroke:#D79B00;stroke-width:0.5;" width="72.2471" x="698.3594" y="437.8906"/><text fill="#000000" font-family="Helvetica" font-size="10" x="705.3594" y="454.1729">ZETA Client</text><path d="M525.8608,94.5625 L525.8608,115.5625 L728.8608,115.5625 L728.8608,104.5625 L718.8608,94.5625 L525.8608,94.5625" fill="#FEFFDD" style="stroke:#181818;stroke-width:0.5;"/><path d="M718.8608,94.5625 L718.8608,104.5625 L728.8608,104.5625 L718.8608,94.5625" fill="#FEFFDD" style="stroke:#181818;stroke-width:0.5;"/><text fill="#000000" font-family="Helvetica" font-size="10" x="531.8608" y="108.8447">App nutzt native Apple-Frameworks.</text><polygon fill="#181818" points="417.7026,134.8438,407.7026,138.8438,417.7026,142.8438,413.7026,138.8438" style="stroke:#181818;stroke-width:1;stroke-linejoin:miter;stroke-miterlimit:10;"/><line style="stroke:#181818;stroke-width:1;" x1="411.7026" x2="728.4829" y1="138.8438" y2="138.8438"/><text fill="#000000" font-family="Helvetica" font-size="10" x="423.7026" y="134.4854">(01)</text><text fill="#000000" font-family="Helvetica" font-size="10" x="448.23" y="134.4854">DCAppAttestService.shared.generateKey()</text><polygon fill="#181818" points="137.6226,160.4844,127.6226,164.4844,137.6226,168.4844,133.6226,164.4844" style="stroke:#181818;stroke-width:1;stroke-linejoin:miter;stroke-miterlimit:10;"/><line style="stroke:#181818;stroke-width:1;" x1="131.6226" x2="395.7026" y1="164.4844" y2="164.4844"/><text fill="#000000" font-family="Helvetica" font-size="10" x="143.6226" y="160.126">(02)</text><text fill="#000000" font-family="Helvetica" font-size="10" x="168.1499" y="160.126">Generiere Schl&#252;ssel (AK)</text><polygon fill="#181818" points="384.7026,186.125,394.7026,190.125,384.7026,194.125,388.7026,190.125" style="stroke:#181818;stroke-width:1;stroke-linejoin:miter;stroke-miterlimit:10;"/><line style="stroke:#181818;stroke-width:1;stroke-dasharray:2,2;" x1="126.6226" x2="390.7026" y1="190.125" y2="190.125"/><text fill="#000000" font-family="Helvetica" font-size="10" x="133.6226" y="185.7666">(03)</text><text fill="#000000" font-family="Helvetica" font-size="10" x="158.1499" y="185.7666">keyId (Referenz f&#252;r PrK.AK.Sig)</text><polygon fill="#181818" points="717.4829,211.7656,727.4829,215.7656,717.4829,219.7656,721.4829,215.7656" style="stroke:#181818;stroke-width:1;stroke-linejoin:miter;stroke-miterlimit:10;"/><line style="stroke:#181818;stroke-width:1;stroke-dasharray:2,2;" x1="406.7026" x2="723.4829" y1="215.7656" y2="215.7656"/><text fill="#000000" font-family="Helvetica" font-size="10" x="413.7026" y="211.4072">(04)</text><text fill="#000000" font-family="Helvetica" font-size="10" x="438.23" y="211.4072">keyId (Referenz f&#252;r PrK.AK.Sig)</text><line style="stroke:#181818;stroke-width:1;" x1="739.4829" x2="781.4829" y1="253.0469" y2="253.0469"/><line style="stroke:#181818;stroke-width:1;" x1="781.4829" x2="781.4829" y1="253.0469" y2="266.0469"/><line style="stroke:#181818;stroke-width:1;" x1="740.4829" x2="781.4829" y1="266.0469" y2="266.0469"/><polygon fill="#181818" points="750.4829,262.0469,740.4829,266.0469,750.4829,270.0469,746.4829,266.0469" style="stroke:#181818;stroke-width:1;stroke-linejoin:miter;stroke-miterlimit:10;"/><text fill="#000000" font-family="Helvetica" font-size="10" x="746.4829" y="242.8682">(05)</text><text fill="#000000" font-family="Helvetica" font-size="10" x="771.0103" y="237.0479">Create hash_puk_client_sig</text><text fill="#000000" font-family="Helvetica" font-size="10" x="771.0103" y="248.6885">(SHA256(PuK.Client.Sig))</text><polygon fill="#181818" points="417.7026,287.6875,407.7026,291.6875,417.7026,295.6875,413.7026,291.6875" style="stroke:#181818;stroke-width:1;stroke-linejoin:miter;stroke-miterlimit:10;"/><line style="stroke:#181818;stroke-width:1;" x1="411.7026" x2="728.4829" y1="291.6875" y2="291.6875"/><text fill="#000000" font-family="Helvetica" font-size="10" x="423.7026" y="287.3291">(06)</text><text fill="#000000" font-family="Helvetica" font-size="10" x="448.23" y="287.3291">DCAppAttest.attestKey(keyId_AK, hash_puk_client_sig)</text><polygon fill="#181818" points="137.6226,313.3281,127.6226,317.3281,137.6226,321.3281,133.6226,317.3281" style="stroke:#181818;stroke-width:1;stroke-linejoin:miter;stroke-miterlimit:10;"/><line style="stroke:#181818;stroke-width:1;" x1="131.6226" x2="395.7026" y1="317.3281" y2="317.3281"/><text fill="#000000" font-family="Helvetica" font-size="10" x="143.6226" y="312.9697">(07)</text><text fill="#000000" font-family="Helvetica" font-size="10" x="168.1499" y="312.9697">Attestiere AK und binde hash_puk_client_sig</text><polygon fill="#181818" points="384.7026,338.9688,394.7026,342.9688,384.7026,346.9688,388.7026,342.9688" style="stroke:#181818;stroke-width:1;stroke-linejoin:miter;stroke-miterlimit:10;"/><line style="stroke:#181818;stroke-width:1;stroke-dasharray:2,2;" x1="126.6226" x2="390.7026" y1="342.9688" y2="342.9688"/><text fill="#000000" font-family="Helvetica" font-size="10" x="133.6226" y="338.6104">(08)</text><text fill="#000000" font-family="Helvetica" font-size="10" x="158.1499" y="338.6104">Hardware-Signatur</text><polygon fill="#181818" points="54.084,364.6094,44.084,368.6094,54.084,372.6094,50.084,368.6094" style="stroke:#181818;stroke-width:1;stroke-linejoin:miter;stroke-miterlimit:10;"/><line style="stroke:#181818;stroke-width:1;" x1="48.084" x2="395.7026" y1="368.6094" y2="368.6094"/><text fill="#000000" font-family="Helvetica" font-size="10" x="60.084" y="364.251">(09)</text><text fill="#000000" font-family="Helvetica" font-size="10" x="84.6113" y="364.251">Verifiziere &amp; erstelle CBOR</text><polygon fill="#181818" points="384.7026,390.25,394.7026,394.25,384.7026,398.25,388.7026,394.25" style="stroke:#181818;stroke-width:1;stroke-linejoin:miter;stroke-miterlimit:10;"/><line style="stroke:#181818;stroke-width:1;stroke-dasharray:2,2;" x1="43.084" x2="390.7026" y1="394.25" y2="394.25"/><text fill="#000000" font-family="Helvetica" font-size="10" x="50.084" y="389.8916">(10)</text><text fill="#000000" font-family="Helvetica" font-size="10" x="74.6113" y="389.8916">apple_attestation_object</text><polygon fill="#181818" points="717.4829,415.8906,727.4829,419.8906,717.4829,423.8906,721.4829,419.8906" style="stroke:#181818;stroke-width:1;stroke-linejoin:miter;stroke-miterlimit:10;"/><line style="stroke:#181818;stroke-width:1;stroke-dasharray:2,2;" x1="406.7026" x2="723.4829" y1="419.8906" y2="419.8906"/><text fill="#000000" font-family="Helvetica" font-size="10" x="413.7026" y="415.5322">(11)</text><text fill="#000000" font-family="Helvetica" font-size="10" x="438.23" y="415.5322">apple_attestation_object</text><?plantuml-src XLBHRfim57tdA-vug8XIc3HfUuYgI9ImDQ8fA8ugRQg4NBWaNXo3Z4cRV5lV-cCp9gnPnTGNV6MVUywvv_A9YOmtEOBdVQwQ7NSvFPIDyjIpiYohebAnZ5LKAB3zgkBu80ZAFSkmje7MOEwin_8Px1csrpRCmljv4AP1V1ilBO1_A0XcZKG8jIRTes4W8To6SmrV9F5TUBSQRem9E3kQnUGIcFaaD8_9wCs31WpJ66yQOaEod2_yS4b-abMu-Fl-JkXNkF8Xu0o5CkHT2LTNHrHqEjKDAFAMrEfFguECnzR9YAv4gH0u5WhAuaGnQNs2QDHHWQ2AxR4pxdwNT8TFfTpMNiy5xhIVQWApG9U-KbYhK_HUlQ4ISs-D0YLL6E716VNgRIy9n-C9_6YV6UgyIRRXhozrZHmSFnfPEdFtJS9r9x35mpm7Puc5neiZ5Ayl4X8PUNxa4RO-OzTz_K0VDfsDq_S44hLZsD1warRDDitCVLgpzODmo8t_vUit9saYhyCRcj47gNZK76qAnb7gHvT30WCHTGGc8p-2fjqe4_cWlO7GRgZCd_GcNErIhxIHvmAcR3NkzH8ATZGY5u2oLiWvGd2jVpy3UazBspBjXj8_IYdIyl4tPcfm1_y5_m40?></g></svg>