<svg xmlns="http://www.w3.org/2000/svg" xmlns:xlink="http://www.w3.org/1999/xlink" contentStyleType="text/css" data-diagram-type="SEQUENCE" height="563px" preserveAspectRatio="none" style="width:886px;height:563px;background:#FFFFFF;" version="1.1" viewBox="0 0 886 563" width="886px" zoomAndPan="magnify"><?plantuml 1.2026.6?><defs/><g><rect fill="#FEFCFF" height="537.0938" style="stroke:#181818;stroke-width:0.5;" width="102.1934" x="16" y="11"/><text fill="#000000" font-family="Helvetica" font-size="10" font-weight="700" x="48.2271" y="20.2822">Device</text><rect fill="#E6E6FA" height="520.4531" style="stroke:#181818;stroke-width:0.5;" width="102.1934" x="16" y="27.6406"/><text fill="#000000" font-family="Helvetica" font-size="10" font-weight="700" x="28" y="36.9229">Prim&#228;rsystem</text><rect fill="#EDFDEC" height="537.0938" style="stroke:#181818;stroke-width:0.5;" width="147.7842" x="395.3696" y="11"/><text fill="#000000" font-family="Helvetica" font-size="10" font-weight="700" x="407.3696" y="20.2822">Anbieter TI 2.0 Dienst</text><rect fill="#FFF3E5" height="520.4531" style="stroke:#181818;stroke-width:0.5;" width="147.7842" x="395.3696" y="27.6406"/><text fill="#000000" font-family="Helvetica" font-size="10" font-weight="700" x="436.1172" y="36.9229">ZETA Guard</text><g><title>ZETA Client</title><rect fill="#000000" fill-opacity="0.00000" height="422.25" width="8" x="63.5967" y="81.5625"/><line style="stroke:#000000;stroke-width:0.5;stroke-dasharray:5,5;" x1="67.0967" x2="67.0967" y1="81.5625" y2="503.8125"/></g><g><title/><rect fill="#FFFFFF" height="414.25" style="stroke:#181818;stroke-width:1;" width="10" x="62.0967" y="89.5625"/></g><g><title>PDP</title><rect fill="#000000" fill-opacity="0.00000" height="422.25" width="8" x="465.7617" y="81.5625"/><line style="stroke:#000000;stroke-width:0.5;stroke-dasharray:5,5;" x1="469.2617" x2="469.2617" y1="81.5625" y2="503.8125"/></g><g><title/><rect fill="#FFFFFF" height="339.3281" style="stroke:#181818;stroke-width:1;" width="10" x="464.2617" y="146.4844"/></g><rect fill="#FFE6CC" height="25.6406" rx="2.5" ry="2.5" style="stroke:#D79B00;stroke-width:0.5;" width="72.2471" x="30.9731" y="54.9219"/><text fill="#000000" font-family="Helvetica" font-size="10" x="37.9731" y="71.2041">ZETA Client</text><rect fill="#FFE6CC" height="37.2813" rx="2.5" ry="2.5" style="stroke:#D79B00;stroke-width:0.5;" width="116.9492" x="410.7871" y="43.2813"/><text fill="#000000" font-family="Helvetica" font-size="10" x="459.3813" y="59.5635">PDP</text><text fill="#000000" font-family="Helvetica" font-size="10" x="417.7871" y="71.2041">Authorization Server</text><rect fill="#FFE6CC" height="25.6406" rx="2.5" ry="2.5" style="stroke:#D79B00;stroke-width:0.5;" width="72.2471" x="30.9731" y="503.8125"/><text fill="#000000" font-family="Helvetica" font-size="10" x="37.9731" y="520.0947">ZETA Client</text><rect fill="#FFE6CC" height="37.2813" rx="2.5" ry="2.5" style="stroke:#D79B00;stroke-width:0.5;" width="116.9492" x="410.7871" y="503.8125"/><text fill="#000000" font-family="Helvetica" font-size="10" x="459.3813" y="520.0947">PDP</text><text fill="#000000" font-family="Helvetica" font-size="10" x="417.7871" y="531.7354">Authorization Server</text><path d="M51.0967,93.5625 L111.0527,93.5625 L111.0527,97.2031 L101.0527,107.2031 L51.0967,107.2031 L51.0967,93.5625" fill="#EEEEEE" style="stroke:#000000;stroke-width:1.5;"/><rect fill="none" height="321.9688" style="stroke:#000000;stroke-width:1.5;" width="815.5781" x="51.0967" y="93.5625"/><text fill="#000000" font-family="Helvetica" font-size="10" font-weight="700" x="66.0967" y="103.8447">alt</text><text fill="#000000" font-family="Helvetica" font-size="10" font-weight="700" x="126.0527" y="104.8447">[Kein ZETA Guard Attestation Token]</text><line style="stroke:#000000;stroke-width:1;stroke-dasharray:2,2;" x1="51.0967" x2="866.6748" y1="259.0469" y2="259.0469"/><text fill="#000000" font-family="Helvetica" font-size="10" font-weight="700" x="56.0967" y="270.3291">[ZETA Attestation Token vorhanden]</text><polygon fill="#181818" points="452.2617,142.4844,462.2617,146.4844,452.2617,150.4844,456.2617,146.4844" style="stroke:#181818;stroke-width:1;stroke-linejoin:miter;stroke-miterlimit:10;"/><line style="stroke:#181818;stroke-width:1;" x1="72.0967" x2="458.2617" y1="146.4844" y2="146.4844"/><text fill="#000000" font-family="Helvetica" font-size="10" x="79.0967" y="136.3057">(01)</text><text fill="#000000" font-family="Helvetica" font-size="10" x="103.624" y="130.4854">POST /register</text><text fill="#000000" font-family="Helvetica" font-size="10" x="103.624" y="142.126">{attestation_type="apple", Apple_Attestation_Object, PuK.Client.Sig}</text><line style="stroke:#181818;stroke-width:1;" x1="474.2617" x2="516.2617" y1="172.125" y2="172.125"/><line style="stroke:#181818;stroke-width:1;" x1="516.2617" x2="516.2617" y1="172.125" y2="185.125"/><line style="stroke:#181818;stroke-width:1;" x1="475.2617" x2="516.2617" y1="185.125" y2="185.125"/><polygon fill="#181818" points="485.2617,181.125,475.2617,185.125,485.2617,189.125,481.2617,185.125" style="stroke:#181818;stroke-width:1;stroke-linejoin:miter;stroke-miterlimit:10;"/><text fill="#000000" font-family="Helvetica" font-size="10" x="481.2617" y="167.7666">(02)</text><text fill="#000000" font-family="Helvetica" font-size="10" x="505.7891" y="167.7666">Validiere Apple_Attestation_Object</text><path d="M479.2617,198.125 L479.2617,242.125 L714.2617,242.125 L714.2617,208.125 L704.2617,198.125 L479.2617,198.125" fill="#FEFFDD" style="stroke:#181818;stroke-width:0.5;"/><path d="M704.2617,198.125 L704.2617,208.125 L714.2617,208.125 L704.2617,198.125" fill="#FEFFDD" style="stroke:#181818;stroke-width:0.5;"/><text fill="#000000" font-family="Helvetica" font-size="10" x="485.2617" y="212.4072">AuthS verifiziert Apple App Attest Root CA.</text><text fill="#000000" font-family="Helvetica" font-size="10" x="485.2617" y="224.0479">Extrahiert Hash(PuK.Client.Sig) aus Objekt</text><text fill="#000000" font-family="Helvetica" font-size="10" x="485.2617" y="235.6885">und vergleicht ihn mit dem Payload.</text><polygon fill="#181818" points="452.2617,326.25,462.2617,330.25,452.2617,334.25,456.2617,330.25" style="stroke:#181818;stroke-width:1;stroke-linejoin:miter;stroke-miterlimit:10;"/><line style="stroke:#181818;stroke-width:1;" x1="72.0967" x2="458.2617" y1="330.25" y2="330.25"/><text fill="#000000" font-family="Helvetica" font-size="10" x="79.0967" y="308.4307">(03)</text><text fill="#000000" font-family="Helvetica" font-size="10" x="103.624" y="290.9697">POST /register</text><text fill="#000000" font-family="Helvetica" font-size="10" x="103.624" y="302.6104">{attestation_type="zeta_attestation_token",</text><text fill="#000000" font-family="Helvetica" font-size="10" x="103.624" y="314.251">zeta_guard_attestation_token, PuK.Client.Sig,</text><text fill="#000000" font-family="Helvetica" font-size="10" x="103.624" y="325.8916">signed_Hash_PuK.Client.Sig}</text><line style="stroke:#181818;stroke-width:1;" x1="474.2617" x2="516.2617" y1="355.8906" y2="355.8906"/><line style="stroke:#181818;stroke-width:1;" x1="516.2617" x2="516.2617" y1="355.8906" y2="368.8906"/><line style="stroke:#181818;stroke-width:1;" x1="475.2617" x2="516.2617" y1="368.8906" y2="368.8906"/><polygon fill="#181818" points="485.2617,364.8906,475.2617,368.8906,485.2617,372.8906,481.2617,368.8906" style="stroke:#181818;stroke-width:1;stroke-linejoin:miter;stroke-miterlimit:10;"/><text fill="#000000" font-family="Helvetica" font-size="10" x="481.2617" y="351.5322">(04)</text><text fill="#000000" font-family="Helvetica" font-size="10" x="505.7891" y="351.5322">Pr&#252;fe Token-Signatur &amp; Vertrauensstellung</text><line style="stroke:#181818;stroke-width:1;" x1="474.2617" x2="516.2617" y1="394.5313" y2="394.5313"/><line style="stroke:#181818;stroke-width:1;" x1="516.2617" x2="516.2617" y1="394.5313" y2="407.5313"/><line style="stroke:#181818;stroke-width:1;" x1="475.2617" x2="516.2617" y1="407.5313" y2="407.5313"/><polygon fill="#181818" points="485.2617,403.5313,475.2617,407.5313,485.2617,411.5313,481.2617,407.5313" style="stroke:#181818;stroke-width:1;stroke-linejoin:miter;stroke-miterlimit:10;"/><text fill="#000000" font-family="Helvetica" font-size="10" x="481.2617" y="390.1729">(05)</text><text fill="#000000" font-family="Helvetica" font-size="10" x="505.7891" y="390.1729">Extrahiere PuK.AK.Sig aus Token, pr&#252;fe signed_Hash_PuK.Client.Sig</text><line style="stroke:#181818;stroke-width:1;" x1="474.2617" x2="516.2617" y1="447.1719" y2="447.1719"/><line style="stroke:#181818;stroke-width:1;" x1="516.2617" x2="516.2617" y1="447.1719" y2="460.1719"/><line style="stroke:#181818;stroke-width:1;" x1="475.2617" x2="516.2617" y1="460.1719" y2="460.1719"/><polygon fill="#181818" points="485.2617,456.1719,475.2617,460.1719,485.2617,464.1719,481.2617,460.1719" style="stroke:#181818;stroke-width:1;stroke-linejoin:miter;stroke-miterlimit:10;"/><text fill="#000000" font-family="Helvetica" font-size="10" x="481.2617" y="442.8135">(06)</text><text fill="#000000" font-family="Helvetica" font-size="10" x="505.7891" y="442.8135">Store Client Placeholder (state: pending_user_binding)</text><polygon fill="#181818" points="83.0967,481.8125,73.0967,485.8125,83.0967,489.8125,79.0967,485.8125" style="stroke:#181818;stroke-width:1;stroke-linejoin:miter;stroke-miterlimit:10;"/><line style="stroke:#181818;stroke-width:1;stroke-dasharray:2,2;" x1="77.0967" x2="463.2617" y1="485.8125" y2="485.8125"/><text fill="#000000" font-family="Helvetica" font-size="10" x="89.0967" y="481.4541">(07)</text><text fill="#000000" font-family="Helvetica" font-size="10" x="113.624" y="481.4541">201 Created {client_id, status="pending_user_binding"}</text><?plantuml-src ZPFVJjim5CRlynHdkPX0RGFZiWAag8rOnL2ZfgkqgLBa9eV4mxKZvnXH46-pnzWTBpOxRc7ycxY9up_VxtpdS_A9oqAO4Y6A3Xgp5WF1DifGH3SK1C5AtK0uncjUO0ZZP34P9Vbe-cqw2m2wlLJpzSDltMvQmdK8wMno4IUpx4SsJouUJm8qJ1ClUCCamKXmj0Dh8VoPpEFjF8JZuriaTdfg1IXBXmzse_SHonL7GWtp2Hn5Xp2skfPSqUbYCavcpvrrx3F3T1c2Uy_FliUpyJkUOaDrrbbAn-bIkgdI_9OHLn8orDUe_s_GDz7h1KmGd2ENy5GVOY9ioSFcwWfbLt-Rm-3KL-_rXf1EipaSQAouZLClvHrxKkQqQV0aP4qZCEn3xCRy7t8-NVt2WlgGclF8iwECL_TTBT_VhjGG5apmagF6TpcTJ2f2qBog2TJbJkjPDX5-oMyjWpp3FRUTmamfUyznj9J93MbMTwU-ihRUUsvk7vXfmHMyegKqDaoBhGJombRajOGr9oXn3IdR2CNAA0XGjEYpVPKgN2jTCrc-dU-7qdKNd3zRTk2mlvJTJkMky_N-oypjyPPN4ilSzPn_v49I_V3d4dqV0tjACZ8QFiF29gUPiH-wzIo4aTMRyiUOiRCIdxjANRXpRx3n_FTjkKyv25voCr8MkKqo5Qp0MedI_e9xBW0SGcDbN5QvQL7dAzvDzdSOo_7ImM08HuTVOAJHgaguAxhbd9TzS23JdeHlaSBxu2y0?></g></svg>