<svg xmlns="http://www.w3.org/2000/svg" xmlns:xlink="http://www.w3.org/1999/xlink" contentStyleType="text/css" data-diagram-type="SEQUENCE" height="695px" preserveAspectRatio="none" style="width:683px;height:695px;background:#FFFFFF;" version="1.1" viewBox="0 0 683 695" width="683px" zoomAndPan="magnify"><?plantuml 1.2026.6?><defs/><g><rect fill="#FEFCFF" height="669.0156" style="stroke:#181818;stroke-width:0.5;" width="102.1934" x="16" y="11"/><text fill="#000000" font-family="Helvetica" font-size="10" font-weight="700" x="48.2271" y="20.2822">Device</text><rect fill="#E6E6FA" height="652.375" style="stroke:#181818;stroke-width:0.5;" width="102.1934" x="16" y="27.6406"/><text fill="#000000" font-family="Helvetica" font-size="10" font-weight="700" x="28" y="36.9229">Prim&#228;rsystem</text><rect fill="#EDFDEC" height="669.0156" style="stroke:#181818;stroke-width:0.5;" width="374.2578" x="292.71" y="11"/><text fill="#000000" font-family="Helvetica" font-size="10" font-weight="700" x="417.9468" y="20.2822">Anbieter TI 2.0 Dienst</text><rect fill="#FFF3E5" height="652.375" style="stroke:#181818;stroke-width:0.5;" width="374.2578" x="292.71" y="27.6406"/><text fill="#000000" font-family="Helvetica" font-size="10" font-weight="700" x="446.6943" y="36.9229">ZETA Guard</text><g><title>ZETA Client</title><rect fill="#000000" fill-opacity="0.00000" height="554.1719" width="8" x="63.5967" y="81.5625"/><line style="stroke:#000000;stroke-width:0.5;stroke-dasharray:5,5;" x1="67.0967" x2="67.0967" y1="81.5625" y2="635.7344"/></g><g><title/><rect fill="#FFFFFF" height="546.1719" style="stroke:#181818;stroke-width:1;" width="10" x="62.0967" y="89.5625"/></g><g><title>PDP</title><rect fill="#000000" fill-opacity="0.00000" height="554.1719" width="8" x="351.6846" y="81.5625"/><line style="stroke:#000000;stroke-width:0.5;stroke-dasharray:5,5;" x1="355.1846" x2="355.1846" y1="81.5625" y2="635.7344"/></g><g><title/><rect fill="#FFFFFF" height="326.6875" style="stroke:#181818;stroke-width:1;" width="10" x="350.1846" y="207.7656"/></g><g><title>PDP</title><rect fill="#000000" fill-opacity="0.00000" height="554.1719" width="8" x="619.1816" y="81.5625"/><line style="stroke:#000000;stroke-width:0.5;stroke-dasharray:5,5;" x1="622.6816" x2="622.6816" y1="81.5625" y2="635.7344"/></g><g><title/><rect fill="#FFFFFF" height="25.6406" style="stroke:#181818;stroke-width:1;" width="10" x="617.6816" y="388.6094"/></g><rect fill="#FFE6CC" height="25.6406" rx="2.5" ry="2.5" style="stroke:#D79B00;stroke-width:0.5;" width="72.2471" x="30.9731" y="54.9219"/><text fill="#000000" font-family="Helvetica" font-size="10" x="37.9731" y="71.2041">ZETA Client</text><rect fill="#FFE6CC" height="37.2813" rx="2.5" ry="2.5" style="stroke:#D79B00;stroke-width:0.5;" width="116.9492" x="296.71" y="43.2813"/><text fill="#000000" font-family="Helvetica" font-size="10" x="345.3042" y="59.5635">PDP</text><text fill="#000000" font-family="Helvetica" font-size="10" x="303.71" y="71.2041">Authorization Server</text><rect fill="#FFE6CC" height="37.2813" rx="2.5" ry="2.5" style="stroke:#D79B00;stroke-width:0.5;" width="80.5723" x="582.3955" y="43.2813"/><text fill="#000000" font-family="Helvetica" font-size="10" x="612.8013" y="59.5635">PDP</text><text fill="#000000" font-family="Helvetica" font-size="10" x="589.3955" y="71.2041">Policy Engine</text><rect fill="#FFE6CC" height="25.6406" rx="2.5" ry="2.5" style="stroke:#D79B00;stroke-width:0.5;" width="72.2471" x="30.9731" y="635.7344"/><text fill="#000000" font-family="Helvetica" font-size="10" x="37.9731" y="652.0166">ZETA Client</text><rect fill="#FFE6CC" height="37.2813" rx="2.5" ry="2.5" style="stroke:#D79B00;stroke-width:0.5;" width="116.9492" x="296.71" y="635.7344"/><text fill="#000000" font-family="Helvetica" font-size="10" x="345.3042" y="652.0166">PDP</text><text fill="#000000" font-family="Helvetica" font-size="10" x="303.71" y="663.6572">Authorization Server</text><rect fill="#FFE6CC" height="37.2813" rx="2.5" ry="2.5" style="stroke:#D79B00;stroke-width:0.5;" width="80.5723" x="582.3955" y="635.7344"/><text fill="#000000" font-family="Helvetica" font-size="10" x="612.8013" y="652.0166">PDP</text><text fill="#000000" font-family="Helvetica" font-size="10" x="589.3955" y="663.6572">Policy Engine</text><line style="stroke:#181818;stroke-width:1;" x1="72.0967" x2="114.0967" y1="107.2031" y2="107.2031"/><line style="stroke:#181818;stroke-width:1;" x1="114.0967" x2="114.0967" y1="107.2031" y2="120.2031"/><line style="stroke:#181818;stroke-width:1;" x1="73.0967" x2="114.0967" y1="120.2031" y2="120.2031"/><polygon fill="#181818" points="83.0967,116.2031,73.0967,120.2031,83.0967,124.2031,79.0967,120.2031" style="stroke:#181818;stroke-width:1;stroke-linejoin:miter;stroke-miterlimit:10;"/><text fill="#000000" font-family="Helvetica" font-size="10" x="79.0967" y="102.8447">(01)</text><text fill="#000000" font-family="Helvetica" font-size="10" x="103.624" y="102.8447">Create DPoP Proof (without Nonce)</text><line style="stroke:#181818;stroke-width:1;" x1="72.0967" x2="114.0967" y1="145.8438" y2="145.8438"/><line style="stroke:#181818;stroke-width:1;" x1="114.0967" x2="114.0967" y1="145.8438" y2="158.8438"/><line style="stroke:#181818;stroke-width:1;" x1="73.0967" x2="114.0967" y1="158.8438" y2="158.8438"/><polygon fill="#181818" points="83.0967,154.8438,73.0967,158.8438,83.0967,162.8438,79.0967,158.8438" style="stroke:#181818;stroke-width:1;stroke-linejoin:miter;stroke-miterlimit:10;"/><text fill="#000000" font-family="Helvetica" font-size="10" x="79.0967" y="141.4854">(02)</text><text fill="#000000" font-family="Helvetica" font-size="10" x="103.624" y="141.4854">Create Client Assertion JWT (without Attestation)</text><polygon fill="#181818" points="338.1846,203.7656,348.1846,207.7656,338.1846,211.7656,342.1846,207.7656" style="stroke:#181818;stroke-width:1;stroke-linejoin:miter;stroke-miterlimit:10;"/><line style="stroke:#181818;stroke-width:1;" x1="72.0967" x2="344.1846" y1="207.7656" y2="207.7656"/><text fill="#000000" font-family="Helvetica" font-size="10" x="79.0967" y="191.7666">(03)</text><text fill="#000000" font-family="Helvetica" font-size="10" x="103.624" y="180.126">POST /token dpop: dpop_proof</text><text fill="#000000" font-family="Helvetica" font-size="10" x="103.624" y="191.7666">{client_assertion (JWT, PrK.Client.Sig signiert),</text><text fill="#000000" font-family="Helvetica" font-size="10" x="103.624" y="203.4072">refresh_token}</text><line style="stroke:#181818;stroke-width:1;" x1="360.1846" x2="402.1846" y1="245.0469" y2="245.0469"/><line style="stroke:#181818;stroke-width:1;" x1="402.1846" x2="402.1846" y1="245.0469" y2="258.0469"/><line style="stroke:#181818;stroke-width:1;" x1="361.1846" x2="402.1846" y1="258.0469" y2="258.0469"/><polygon fill="#181818" points="371.1846,254.0469,361.1846,258.0469,371.1846,262.0469,367.1846,258.0469" style="stroke:#181818;stroke-width:1;stroke-linejoin:miter;stroke-miterlimit:10;"/><text fill="#000000" font-family="Helvetica" font-size="10" x="367.1846" y="234.8682">(04)</text><text fill="#000000" font-family="Helvetica" font-size="10" x="391.7119" y="229.0479">Validate Request (Client Assertion,</text><text fill="#000000" font-family="Helvetica" font-size="10" x="391.7119" y="240.6885">DPoP Proof, Refresh Token)</text><line style="stroke:#181818;stroke-width:1;" x1="360.1846" x2="402.1846" y1="283.6875" y2="283.6875"/><line style="stroke:#181818;stroke-width:1;" x1="402.1846" x2="402.1846" y1="283.6875" y2="296.6875"/><line style="stroke:#181818;stroke-width:1;" x1="361.1846" x2="402.1846" y1="296.6875" y2="296.6875"/><polygon fill="#181818" points="371.1846,292.6875,361.1846,296.6875,371.1846,300.6875,367.1846,296.6875" style="stroke:#181818;stroke-width:1;stroke-linejoin:miter;stroke-miterlimit:10;"/><text fill="#000000" font-family="Helvetica" font-size="10" x="367.1846" y="279.3291">(05)</text><text fill="#000000" font-family="Helvetica" font-size="10" x="391.7119" y="279.3291">Invalidate Refresh token</text><path d="M32.0967,308.6875 L92.0527,308.6875 L92.0527,312.3281 L82.0527,322.3281 L32.0967,322.3281 L32.0967,308.6875" fill="#EEEEEE" style="stroke:#000000;stroke-width:1.5;"/><rect fill="none" height="303.0469" style="stroke:#000000;stroke-width:1.5;" width="611.585" x="32.0967" y="308.6875"/><text fill="#000000" font-family="Helvetica" font-size="10" font-weight="700" x="47.0967" y="318.9697">alt</text><text fill="#000000" font-family="Helvetica" font-size="10" font-weight="700" x="107.0527" y="319.9697">[Validation successful]</text><line style="stroke:#000000;stroke-width:1;stroke-dasharray:2,2;" x1="32.0967" x2="643.6816" y1="567.4531" y2="567.4531"/><text fill="#000000" font-family="Helvetica" font-size="10" font-weight="700" x="37.0967" y="578.7354">[Validation fehlerhaft]</text><line style="stroke:#181818;stroke-width:1;" x1="360.1846" x2="402.1846" y1="349.9688" y2="349.9688"/><line style="stroke:#181818;stroke-width:1;" x1="402.1846" x2="402.1846" y1="349.9688" y2="362.9688"/><line style="stroke:#181818;stroke-width:1;" x1="361.1846" x2="402.1846" y1="362.9688" y2="362.9688"/><polygon fill="#181818" points="371.1846,358.9688,361.1846,362.9688,371.1846,366.9688,367.1846,362.9688" style="stroke:#181818;stroke-width:1;stroke-linejoin:miter;stroke-miterlimit:10;"/><text fill="#000000" font-family="Helvetica" font-size="10" x="367.1846" y="345.6104">(06)</text><text fill="#000000" font-family="Helvetica" font-size="10" x="391.7119" y="345.6104">Policy Engine Input erstellen</text><polygon fill="#181818" points="605.6816,384.6094,615.6816,388.6094,605.6816,392.6094,609.6816,388.6094" style="stroke:#181818;stroke-width:1;stroke-linejoin:miter;stroke-miterlimit:10;"/><line style="stroke:#181818;stroke-width:1;" x1="360.1846" x2="611.6816" y1="388.6094" y2="388.6094"/><text fill="#000000" font-family="Helvetica" font-size="10" x="367.1846" y="384.251">(07)</text><text fill="#000000" font-family="Helvetica" font-size="10" x="391.7119" y="384.251">POST /v1/data/authz {Policy Engine Input}</text><polygon fill="#181818" points="371.1846,410.25,361.1846,414.25,371.1846,418.25,367.1846,414.25" style="stroke:#181818;stroke-width:1;stroke-linejoin:miter;stroke-miterlimit:10;"/><line style="stroke:#181818;stroke-width:1;stroke-dasharray:2,2;" x1="365.1846" x2="616.6816" y1="414.25" y2="414.25"/><text fill="#000000" font-family="Helvetica" font-size="10" x="377.1846" y="409.8916">(08)</text><text fill="#000000" font-family="Helvetica" font-size="10" x="401.7119" y="409.8916">Policy Decision</text><path d="M51.0967,426.25 L111.0527,426.25 L111.0527,429.8906 L101.0527,439.8906 L51.0967,439.8906 L51.0967,426.25" fill="#EEEEEE" style="stroke:#000000;stroke-width:1.5;"/><rect fill="none" height="116.2031" style="stroke:#000000;stroke-width:1.5;" width="320.0879" x="51.0967" y="426.25"/><text fill="#000000" font-family="Helvetica" font-size="10" font-weight="700" x="66.0967" y="436.5322">alt</text><text fill="#000000" font-family="Helvetica" font-size="10" font-weight="700" x="126.0527" y="437.5322">[Policy Decision allow]</text><line style="stroke:#000000;stroke-width:1;stroke-dasharray:2,2;" x1="51.0967" x2="371.1846" y1="498.1719" y2="498.1719"/><text fill="#000000" font-family="Helvetica" font-size="10" font-weight="700" x="56.0967" y="509.4541">[Policy Decision deny]</text><polygon fill="#181818" points="83.0967,475.1719,73.0967,479.1719,83.0967,483.1719,79.0967,479.1719" style="stroke:#181818;stroke-width:1;stroke-linejoin:miter;stroke-miterlimit:10;"/><line style="stroke:#181818;stroke-width:1;stroke-dasharray:2,2;" x1="77.0967" x2="349.1846" y1="479.1719" y2="479.1719"/><text fill="#000000" font-family="Helvetica" font-size="10" x="89.0967" y="468.9932">(09)</text><text fill="#000000" font-family="Helvetica" font-size="10" x="113.624" y="463.1729">200 OK</text><text fill="#000000" font-family="Helvetica" font-size="10" x="113.624" y="474.8135">{Access Token, Refresh Token}</text><polygon fill="#181818" points="83.0967,530.4531,73.0967,534.4531,83.0967,538.4531,79.0967,534.4531" style="stroke:#181818;stroke-width:1;stroke-linejoin:miter;stroke-miterlimit:10;"/><line style="stroke:#181818;stroke-width:1;stroke-dasharray:2,2;" x1="77.0967" x2="349.1846" y1="534.4531" y2="534.4531"/><text fill="#000000" font-family="Helvetica" font-size="10" x="89.0967" y="530.0947">(10)</text><text fill="#000000" font-family="Helvetica" font-size="10" x="113.624" y="530.0947">403 Forbidden</text><polygon fill="#181818" points="83.0967,599.7344,73.0967,603.7344,83.0967,607.7344,79.0967,603.7344" style="stroke:#181818;stroke-width:1;stroke-linejoin:miter;stroke-miterlimit:10;"/><line style="stroke:#181818;stroke-width:1;stroke-dasharray:2,2;" x1="77.0967" x2="354.1846" y1="603.7344" y2="603.7344"/><text fill="#000000" font-family="Helvetica" font-size="10" x="89.0967" y="599.376">(11)</text><text fill="#000000" font-family="Helvetica" font-size="10" x="113.624" y="599.376">403 Forbidden</text><?plantuml-src VPBVRjem5CRl_HIdkLaHvS-wNQ6gKaIoYdKjKM2TDbL2Rd80QyRER8S2LTzcRx8Nc-qGAAphJHB7v_pETxvpJfZ8U9aZjDkTebpm5gThMPgsMHb2o3imp724iVo90k9LDgTYXl38p1nId2hKy-gEa9D2qTc2Wa6v0QDA9EH1hY28SCao322AxmRzUD8VVXcc1C3V9Oej_lnMUgqDBW98qi5D6AUZxwDnVBEB12YeCYnZ1HK6-foXVL4DmOzu76xF0LnSRD3GoqkRW29tU5A_AnsXU61eKC5u0EVjBaGsJnjNT7WtYEBqK9bdNvLKvG6uxydLrp2D_gCfBCryv2KbKN8lt54gjg66IG4ZL4jK1m8FiuT9kCzD96VP6c8nOmBVxghglDcilw1rMRlJWxv2QX2YH2QGA2cdSEg6PYSBjr9as7WZQNiEjKRbM_ZyRRnF3ur1RNnlBo7UWsQp1ybmD8QEyGkJ5xBe-UUaS2BknLFcCoPq1p-rz3EhyRfTmTeZDWFDPeBPWCRPlL3LdaqyyfbKPjSLhUexobdkTAVugxJIuFIu0GlP6t5skBYD8s0F1cAv9rQHlZIXtDJ5d71TPXbgFIsvdSunv62E5bbOvr3PDUVSabx4s-dlNLk-xrWuxL1xku6dLo3FDjSjJAikrMhjYaMOCMsLsH0dzUYl_SVbez--RV7Tw7jmtkt2yDgE9_GzLTOSEULA8zVu3pX7iNwLwxHzx7w0Jr8zi3ptZRlrjUg89xrmSufpZcfEfuQy9l0GKqF-0W00?></g></svg>