<svg xmlns="http://www.w3.org/2000/svg" xmlns:xlink="http://www.w3.org/1999/xlink" contentStyleType="text/css" data-diagram-type="SEQUENCE" height="483px" preserveAspectRatio="none" style="width:635px;height:483px;background:#FFFFFF;" version="1.1" viewBox="0 0 635 483" width="635px" zoomAndPan="magnify"><?plantuml 1.2026.6?><defs/><g><rect fill="#FEFCFF" height="457.6094" style="stroke:#181818;stroke-width:0.5;" width="548.2163" x="16" y="11"/><text fill="#000000" font-family="Helvetica" font-size="10" font-weight="700" x="271.2385" y="20.2822">Device</text><rect fill="#E6E6FA" height="440.9688" style="stroke:#181818;stroke-width:0.5;" width="102.1934" x="462.0229" y="27.6406"/><text fill="#000000" font-family="Helvetica" font-size="10" font-weight="700" x="474.0229" y="36.9229">Prim&#228;rsystem</text><g><title>TPM</title><rect fill="#000000" fill-opacity="0.00000" height="366.0469" width="8" x="33.8833" y="69.9219"/><line style="stroke:#000000;stroke-width:0.5;stroke-dasharray:5,5;" x1="37.3833" x2="37.3833" y1="69.9219" y2="435.9688"/></g><g><title/><rect fill="#FFFFFF" height="358.0469" style="stroke:#181818;stroke-width:1;" width="10" x="32.3833" y="77.9219"/></g><g><title>ZAS</title><rect fill="#000000" fill-opacity="0.00000" height="366.0469" width="8" x="265.0962" y="69.9219"/><line style="stroke:#000000;stroke-width:0.5;stroke-dasharray:5,5;" x1="268.5962" x2="268.5962" y1="69.9219" y2="435.9688"/></g><g><title/><rect fill="#FFFFFF" height="330.4063" style="stroke:#181818;stroke-width:1;" width="10" x="263.5962" y="105.5625"/></g><g><title>ZETA Client</title><rect fill="#000000" fill-opacity="0.00000" height="366.0469" width="8" x="509.6196" y="69.9219"/><line style="stroke:#000000;stroke-width:0.5;stroke-dasharray:5,5;" x1="513.1196" x2="513.1196" y1="69.9219" y2="435.9688"/></g><g><title/><rect fill="#FFFFFF" height="163.2031" style="stroke:#181818;stroke-width:1;" width="10" x="508.1196" y="272.7656"/></g><rect fill="#E4E4F4" height="25.6406" rx="2.5" ry="2.5" style="stroke:#181818;stroke-width:0.5;" width="34.7666" x="20" y="43.2813"/><text fill="#000000" font-family="Helvetica" font-size="10" x="27" y="59.5635">TPM</text><rect fill="#FFE6CC" height="25.6406" rx="2.5" ry="2.5" style="stroke:#D79B00;stroke-width:0.5;" width="34.0391" x="251.5767" y="43.2813"/><text fill="#000000" font-family="Helvetica" font-size="10" x="258.5767" y="59.5635">ZAS</text><rect fill="#FFE6CC" height="25.6406" rx="2.5" ry="2.5" style="stroke:#D79B00;stroke-width:0.5;" width="72.2471" x="476.9961" y="43.2813"/><text fill="#000000" font-family="Helvetica" font-size="10" x="483.9961" y="59.5635">ZETA Client</text><rect fill="#E4E4F4" height="25.6406" rx="2.5" ry="2.5" style="stroke:#181818;stroke-width:0.5;" width="34.7666" x="20" y="435.9688"/><text fill="#000000" font-family="Helvetica" font-size="10" x="27" y="452.251">TPM</text><rect fill="#FFE6CC" height="25.6406" rx="2.5" ry="2.5" style="stroke:#D79B00;stroke-width:0.5;" width="34.0391" x="251.5767" y="435.9688"/><text fill="#000000" font-family="Helvetica" font-size="10" x="258.5767" y="452.251">ZAS</text><rect fill="#FFE6CC" height="25.6406" rx="2.5" ry="2.5" style="stroke:#D79B00;stroke-width:0.5;" width="72.2471" x="476.9961" y="435.9688"/><text fill="#000000" font-family="Helvetica" font-size="10" x="483.9961" y="452.251">ZETA Client</text><path d="M21.3833,81.9219 L81.3394,81.9219 L81.3394,85.5625 L71.3394,95.5625 L21.3833,95.5625 L21.3833,81.9219" fill="#EEEEEE" style="stroke:#000000;stroke-width:1.5;"/><rect fill="none" height="176.8438" style="stroke:#000000;stroke-width:1.5;" width="507.7363" x="21.3833" y="81.9219"/><text fill="#000000" font-family="Helvetica" font-size="10" font-weight="700" x="36.3833" y="92.2041">alt</text><text fill="#000000" font-family="Helvetica" font-size="10" font-weight="700" x="96.3394" y="93.2041">[Windows / Linux (TPM)]</text><line style="stroke:#181818;stroke-width:1;" x1="273.5962" x2="315.5962" y1="134.8438" y2="134.8438"/><line style="stroke:#181818;stroke-width:1;" x1="315.5962" x2="315.5962" y1="134.8438" y2="147.8438"/><line style="stroke:#181818;stroke-width:1;" x1="274.5962" x2="315.5962" y1="147.8438" y2="147.8438"/><polygon fill="#181818" points="284.5962,143.8438,274.5962,147.8438,284.5962,151.8438,280.5962,147.8438" style="stroke:#181818;stroke-width:1;stroke-linejoin:miter;stroke-miterlimit:10;"/><text fill="#000000" font-family="Helvetica" font-size="10" x="280.5962" y="124.665">(01)</text><text fill="#000000" font-family="Helvetica" font-size="10" x="305.1235" y="118.8447">Startet als Hintergrunddienst</text><text fill="#000000" font-family="Helvetica" font-size="10" x="308.3022" y="130.4854">(Root/Admin)</text><line style="stroke:#181818;stroke-width:1;" x1="273.5962" x2="315.5962" y1="173.4844" y2="173.4844"/><line style="stroke:#181818;stroke-width:1;" x1="315.5962" x2="315.5962" y1="173.4844" y2="186.4844"/><line style="stroke:#181818;stroke-width:1;" x1="274.5962" x2="315.5962" y1="186.4844" y2="186.4844"/><polygon fill="#181818" points="284.5962,182.4844,274.5962,186.4844,284.5962,190.4844,280.5962,186.4844" style="stroke:#181818;stroke-width:1;stroke-linejoin:miter;stroke-miterlimit:10;"/><text fill="#000000" font-family="Helvetica" font-size="10" x="280.5962" y="169.126">(02)</text><text fill="#000000" font-family="Helvetica" font-size="10" x="305.1235" y="169.126">Messung des PS</text><polygon fill="#181818" points="53.3833,208.125,43.3833,212.125,53.3833,216.125,49.3833,212.125" style="stroke:#181818;stroke-width:1;stroke-linejoin:miter;stroke-miterlimit:10;"/><line style="stroke:#181818;stroke-width:1;" x1="47.3833" x2="262.5962" y1="212.125" y2="212.125"/><text fill="#000000" font-family="Helvetica" font-size="10" x="59.3833" y="207.7666">(03)</text><text fill="#000000" font-family="Helvetica" font-size="10" x="83.9106" y="207.7666">TPM2_PCR_Extend(23, Messwerte)</text><line style="stroke:#181818;stroke-width:1;" x1="273.5962" x2="315.5962" y1="237.7656" y2="237.7656"/><line style="stroke:#181818;stroke-width:1;" x1="315.5962" x2="315.5962" y1="237.7656" y2="250.7656"/><line style="stroke:#181818;stroke-width:1;" x1="274.5962" x2="315.5962" y1="250.7656" y2="250.7656"/><polygon fill="#181818" points="284.5962,246.7656,274.5962,250.7656,284.5962,254.7656,280.5962,250.7656" style="stroke:#181818;stroke-width:1;stroke-linejoin:miter;stroke-miterlimit:10;"/><text fill="#000000" font-family="Helvetica" font-size="10" x="280.5962" y="233.4072">(04)</text><text fill="#000000" font-family="Helvetica" font-size="10" x="305.1235" y="233.4072">Monitoring des PS Prozesses fortlaufend</text><line style="stroke:#181818;stroke-width:1;" x1="518.1196" x2="560.1196" y1="302.0469" y2="302.0469"/><line style="stroke:#181818;stroke-width:1;" x1="560.1196" x2="560.1196" y1="302.0469" y2="315.0469"/><line style="stroke:#181818;stroke-width:1;" x1="519.1196" x2="560.1196" y1="315.0469" y2="315.0469"/><polygon fill="#181818" points="529.1196,311.0469,519.1196,315.0469,529.1196,319.0469,525.1196,315.0469" style="stroke:#181818;stroke-width:1;stroke-linejoin:miter;stroke-miterlimit:10;"/><text fill="#000000" font-family="Helvetica" font-size="10" x="525.1196" y="291.8682">(05)</text><text fill="#000000" font-family="Helvetica" font-size="10" x="549.647" y="286.0479">Start</text><text fill="#000000" font-family="Helvetica" font-size="10" x="552.8257" y="297.6885">(User Space)</text><line style="stroke:#181818;stroke-width:1;" x1="273.5962" x2="315.5962" y1="340.6875" y2="340.6875"/><line style="stroke:#181818;stroke-width:1;" x1="315.5962" x2="315.5962" y1="340.6875" y2="353.6875"/><line style="stroke:#181818;stroke-width:1;" x1="274.5962" x2="315.5962" y1="353.6875" y2="353.6875"/><polygon fill="#181818" points="284.5962,349.6875,274.5962,353.6875,284.5962,357.6875,280.5962,353.6875" style="stroke:#181818;stroke-width:1;stroke-linejoin:miter;stroke-miterlimit:10;"/><text fill="#000000" font-family="Helvetica" font-size="10" x="280.5962" y="336.3291">(06)</text><text fill="#000000" font-family="Helvetica" font-size="10" x="305.1235" y="336.3291">PS Start erkannt</text><line style="stroke:#181818;stroke-width:1;" x1="273.5962" x2="315.5962" y1="379.3281" y2="379.3281"/><line style="stroke:#181818;stroke-width:1;" x1="315.5962" x2="315.5962" y1="379.3281" y2="392.3281"/><line style="stroke:#181818;stroke-width:1;" x1="274.5962" x2="315.5962" y1="392.3281" y2="392.3281"/><polygon fill="#181818" points="284.5962,388.3281,274.5962,392.3281,284.5962,396.3281,280.5962,392.3281" style="stroke:#181818;stroke-width:1;stroke-linejoin:miter;stroke-miterlimit:10;"/><text fill="#000000" font-family="Helvetica" font-size="10" x="280.5962" y="374.9697">(07)</text><text fill="#000000" font-family="Helvetica" font-size="10" x="305.1235" y="374.9697">Messung des PS</text><polygon fill="#181818" points="53.3833,413.9688,43.3833,417.9688,53.3833,421.9688,49.3833,417.9688" style="stroke:#181818;stroke-width:1;stroke-linejoin:miter;stroke-miterlimit:10;"/><line style="stroke:#181818;stroke-width:1;" x1="47.3833" x2="262.5962" y1="417.9688" y2="417.9688"/><text fill="#000000" font-family="Helvetica" font-size="10" x="59.3833" y="413.6104">(08)</text><text fill="#000000" font-family="Helvetica" font-size="10" x="83.9106" y="413.6104">TPM2_PCR_Extend(23, Messwerte)</text><?plantuml-src bP3HQi8m58RlynHdlLAS2kvEH2YrCC5gQRkDZO5aRPImDYd9wQm-pzvaBxPJTMvkOx2R_Wtvp_UVFnTIfNcL2UZr-cLLvDsSRtM5FQoHCVQaQt0cuaMcme69Vplr_AMtc2qY1b1oWpAL9LS8JX863d0Bf33pfsGAmiNSdoU_sX_Sk34xf0wCHZk1V3mcppukDB9uUpLsQr4K3eJHD73zABwF4pyuqSvvNYu5oHxf9-xnV8OMAclmx4CPRThfC9uZt4cLwOs5FioagcfeqLMRHcWxSkmLkkD6XX0ZnGgAoYrSIuN2h4sbiepoB3ugQ4LQOz_D2gdQtqO3OMsbrf092s7yUKbfm-OpM8PUjFHhf1LRWwlB_S16KDmFabOIjP4d68H6xyXDXvKscFDgHP2cAsE7jw0YnqSYoE7lM0QQhM-iC12NFAMihqc4FfY4UUPA8VkZq3_gl0C0?></g></svg>