<svg xmlns="http://www.w3.org/2000/svg" xmlns:xlink="http://www.w3.org/1999/xlink" contentStyleType="text/css" data-diagram-type="SEQUENCE" height="774px" preserveAspectRatio="none" style="width:1162px;height:774px;background:#FFFFFF;" version="1.1" viewBox="0 0 1162 774" width="1162px" zoomAndPan="magnify"><?plantuml 1.2026.6?><defs/><g><rect fill="#FEFCFF" height="748.2188" style="stroke:#181818;stroke-width:0.5;" width="437.2642" x="16" y="11"/><text fill="#000000" font-family="Helvetica" font-size="10" font-weight="700" x="215.7625" y="20.2822">Device</text><rect fill="#E6E6FA" height="731.5781" style="stroke:#181818;stroke-width:0.5;" width="102.1934" x="351.0708" y="27.6406"/><text fill="#000000" font-family="Helvetica" font-size="10" font-weight="700" x="363.0708" y="36.9229">Prim&#228;rsystem</text><rect fill="#EDFDEC" height="748.2188" style="stroke:#181818;stroke-width:0.5;" width="147.7842" x="670.7578" y="11"/><text fill="#000000" font-family="Helvetica" font-size="10" font-weight="700" x="682.7578" y="20.2822">Anbieter TI 2.0 Dienst</text><rect fill="#FFF3E5" height="731.5781" style="stroke:#181818;stroke-width:0.5;" width="147.7842" x="670.7578" y="27.6406"/><text fill="#000000" font-family="Helvetica" font-size="10" font-weight="700" x="711.5054" y="36.9229">ZETA Guard</text><g><title>TPM</title><rect fill="#000000" fill-opacity="0.00000" height="633.375" width="8" x="33.8833" y="81.5625"/><line style="stroke:#000000;stroke-width:0.5;stroke-dasharray:5,5;" x1="37.3833" x2="37.3833" y1="81.5625" y2="714.9375"/></g><g><title/><rect fill="#FFFFFF" height="25.6406" style="stroke:#181818;stroke-width:1;" width="10" x="32.3833" y="335.6094"/></g><g><title>ZAS</title><rect fill="#000000" fill-opacity="0.00000" height="633.375" width="8" x="217.3862" y="81.5625"/><line style="stroke:#000000;stroke-width:0.5;stroke-dasharray:5,5;" x1="220.8862" x2="220.8862" y1="81.5625" y2="714.9375"/></g><g><title/><rect fill="#FFFFFF" height="88.5625" style="stroke:#181818;stroke-width:1;" width="10" x="215.8862" y="298.3281"/></g><g><title>ZETA Client</title><rect fill="#000000" fill-opacity="0.00000" height="633.375" width="8" x="398.6675" y="81.5625"/><line style="stroke:#000000;stroke-width:0.5;stroke-dasharray:5,5;" x1="402.1675" x2="402.1675" y1="81.5625" y2="714.9375"/></g><g><title/><rect fill="#FFFFFF" height="597.7344" style="stroke:#181818;stroke-width:1;" width="10" x="397.1675" y="117.2031"/></g><g><title>PDP</title><rect fill="#000000" fill-opacity="0.00000" height="633.375" width="8" x="741.1499" y="81.5625"/><line style="stroke:#000000;stroke-width:0.5;stroke-dasharray:5,5;" x1="744.6499" x2="744.6499" y1="81.5625" y2="714.9375"/></g><g><title/><rect fill="#FFFFFF" height="538.8125" style="stroke:#181818;stroke-width:1;" width="10" x="739.6499" y="158.125"/></g><rect fill="#E4E4F4" height="25.6406" rx="2.5" ry="2.5" style="stroke:#181818;stroke-width:0.5;" width="34.7666" x="20" y="54.9219"/><text fill="#000000" font-family="Helvetica" font-size="10" x="27" y="71.2041">TPM</text><rect fill="#FFE6CC" height="25.6406" rx="2.5" ry="2.5" style="stroke:#D79B00;stroke-width:0.5;" width="34.0391" x="203.8667" y="54.9219"/><text fill="#000000" font-family="Helvetica" font-size="10" x="210.8667" y="71.2041">ZAS</text><rect fill="#FFE6CC" height="25.6406" rx="2.5" ry="2.5" style="stroke:#D79B00;stroke-width:0.5;" width="72.2471" x="366.0439" y="54.9219"/><text fill="#000000" font-family="Helvetica" font-size="10" x="373.0439" y="71.2041">ZETA Client</text><rect fill="#FFE6CC" height="37.2813" rx="2.5" ry="2.5" style="stroke:#D79B00;stroke-width:0.5;" width="116.9492" x="686.1753" y="43.2813"/><text fill="#000000" font-family="Helvetica" font-size="10" x="734.7695" y="59.5635">PDP</text><text fill="#000000" font-family="Helvetica" font-size="10" x="693.1753" y="71.2041">Authorization Server</text><rect fill="#E4E4F4" height="25.6406" rx="2.5" ry="2.5" style="stroke:#181818;stroke-width:0.5;" width="34.7666" x="20" y="714.9375"/><text fill="#000000" font-family="Helvetica" font-size="10" x="27" y="731.2197">TPM</text><rect fill="#FFE6CC" height="25.6406" rx="2.5" ry="2.5" style="stroke:#D79B00;stroke-width:0.5;" width="34.0391" x="203.8667" y="714.9375"/><text fill="#000000" font-family="Helvetica" font-size="10" x="210.8667" y="731.2197">ZAS</text><rect fill="#FFE6CC" height="25.6406" rx="2.5" ry="2.5" style="stroke:#D79B00;stroke-width:0.5;" width="72.2471" x="366.0439" y="714.9375"/><text fill="#000000" font-family="Helvetica" font-size="10" x="373.0439" y="731.2197">ZETA Client</text><rect fill="#FFE6CC" height="37.2813" rx="2.5" ry="2.5" style="stroke:#D79B00;stroke-width:0.5;" width="116.9492" x="686.1753" y="714.9375"/><text fill="#000000" font-family="Helvetica" font-size="10" x="734.7695" y="731.2197">PDP</text><text fill="#000000" font-family="Helvetica" font-size="10" x="693.1753" y="742.8604">Authorization Server</text><path d="M16.3833,93.5625 L76.3394,93.5625 L76.3394,97.2031 L66.3394,107.2031 L16.3833,107.2031 L16.3833,93.5625" fill="#EEEEEE" style="stroke:#000000;stroke-width:1.5;"/><rect fill="none" height="533.0938" style="stroke:#000000;stroke-width:1.5;" width="1125.6797" x="16.3833" y="93.5625"/><text fill="#000000" font-family="Helvetica" font-size="10" font-weight="700" x="31.3833" y="103.8447">alt</text><text fill="#000000" font-family="Helvetica" font-size="10" font-weight="700" x="91.3394" y="104.8447">[Kein ZETA Guard Attestation Token vorhanden]</text><line style="stroke:#000000;stroke-width:1;stroke-dasharray:2,2;" x1="16.3833" x2="1142.063" y1="470.1719" y2="470.1719"/><text fill="#000000" font-family="Helvetica" font-size="10" font-weight="700" x="21.3833" y="481.4541">[ZETA Attestation Token vorhanden]</text><polygon fill="#181818" points="727.6499,154.125,737.6499,158.125,727.6499,162.125,731.6499,158.125" style="stroke:#181818;stroke-width:1;stroke-linejoin:miter;stroke-miterlimit:10;"/><line style="stroke:#181818;stroke-width:1;" x1="407.1675" x2="733.6499" y1="158.125" y2="158.125"/><text fill="#000000" font-family="Helvetica" font-size="10" x="414.1675" y="142.126">(01)</text><text fill="#000000" font-family="Helvetica" font-size="10" x="438.6948" y="130.4854">POST /register</text><text fill="#000000" font-family="Helvetica" font-size="10" x="438.6948" y="142.126">{attestation_type="tpm", PuK.EK.Enc, C.EK.Enc,</text><text fill="#000000" font-family="Helvetica" font-size="10" x="438.6948" y="153.7666">PuK.AK.Sig, PuK.Client.Sig, signed_Hash_PuK.Client.Sig}</text><line style="stroke:#181818;stroke-width:1;" x1="749.6499" x2="791.6499" y1="183.7656" y2="183.7656"/><line style="stroke:#181818;stroke-width:1;" x1="791.6499" x2="791.6499" y1="183.7656" y2="196.7656"/><line style="stroke:#181818;stroke-width:1;" x1="750.6499" x2="791.6499" y1="196.7656" y2="196.7656"/><polygon fill="#181818" points="760.6499,192.7656,750.6499,196.7656,760.6499,200.7656,756.6499,196.7656" style="stroke:#181818;stroke-width:1;stroke-linejoin:miter;stroke-miterlimit:10;"/><text fill="#000000" font-family="Helvetica" font-size="10" x="756.6499" y="179.4072">(02)</text><text fill="#000000" font-family="Helvetica" font-size="10" x="781.1772" y="179.4072">Validiere C.EK.Enc-Chain &amp; signed_Hash_PuK.Client.Sig</text><line style="stroke:#181818;stroke-width:1;" x1="749.6499" x2="791.6499" y1="234.0469" y2="234.0469"/><line style="stroke:#181818;stroke-width:1;" x1="791.6499" x2="791.6499" y1="234.0469" y2="247.0469"/><line style="stroke:#181818;stroke-width:1;" x1="750.6499" x2="791.6499" y1="247.0469" y2="247.0469"/><polygon fill="#181818" points="760.6499,243.0469,750.6499,247.0469,760.6499,251.0469,756.6499,247.0469" style="stroke:#181818;stroke-width:1;stroke-linejoin:miter;stroke-miterlimit:10;"/><text fill="#000000" font-family="Helvetica" font-size="10" x="756.6499" y="223.8682">(03)</text><text fill="#000000" font-family="Helvetica" font-size="10" x="781.1772" y="218.0479">CredentialBlob = MakeCredential(...);</text><text fill="#000000" font-family="Helvetica" font-size="10" x="781.1772" y="229.6885">(TPM 2.0 Commands, Section 12.5)</text><polygon fill="#181818" points="418.1675,268.6875,408.1675,272.6875,418.1675,276.6875,414.1675,272.6875" style="stroke:#181818;stroke-width:1;stroke-linejoin:miter;stroke-miterlimit:10;"/><line style="stroke:#181818;stroke-width:1;stroke-dasharray:2,2;" x1="412.1675" x2="738.6499" y1="272.6875" y2="272.6875"/><text fill="#000000" font-family="Helvetica" font-size="10" x="424.1675" y="268.3291">(04)</text><text fill="#000000" font-family="Helvetica" font-size="10" x="448.6948" y="268.3291">202 Accepted {CredentialBlob}</text><polygon fill="#181818" points="236.8862,294.3281,226.8862,298.3281,236.8862,302.3281,232.8862,298.3281" style="stroke:#181818;stroke-width:1;stroke-linejoin:miter;stroke-miterlimit:10;"/><line style="stroke:#181818;stroke-width:1;" x1="230.8862" x2="396.1675" y1="298.3281" y2="298.3281"/><text fill="#000000" font-family="Helvetica" font-size="10" x="242.8862" y="293.9697">(05)</text><text fill="#000000" font-family="Helvetica" font-size="10" x="267.4136" y="293.9697">Activate(CredentialBlob)</text><polygon fill="#181818" points="53.3833,331.6094,43.3833,335.6094,53.3833,339.6094,49.3833,335.6094" style="stroke:#181818;stroke-width:1;stroke-linejoin:miter;stroke-miterlimit:10;"/><line style="stroke:#181818;stroke-width:1;" x1="47.3833" x2="214.8862" y1="335.6094" y2="335.6094"/><text fill="#000000" font-family="Helvetica" font-size="10" x="59.3833" y="325.4307">(06)</text><text fill="#000000" font-family="Helvetica" font-size="10" x="83.9106" y="319.6104">TPM2_ActivateCredential</text><text fill="#000000" font-family="Helvetica" font-size="10" x="83.9106" y="331.251">(CredentialBlob)</text><polygon fill="#181818" points="203.8862,357.25,213.8862,361.25,203.8862,365.25,207.8862,361.25" style="stroke:#181818;stroke-width:1;stroke-linejoin:miter;stroke-miterlimit:10;"/><line style="stroke:#181818;stroke-width:1;stroke-dasharray:2,2;" x1="42.3833" x2="209.8862" y1="361.25" y2="361.25"/><text fill="#000000" font-family="Helvetica" font-size="10" x="49.3833" y="356.8916">(07)</text><text fill="#000000" font-family="Helvetica" font-size="10" x="73.9106" y="356.8916">Secret</text><polygon fill="#181818" points="385.1675,382.8906,395.1675,386.8906,385.1675,390.8906,389.1675,386.8906" style="stroke:#181818;stroke-width:1;stroke-linejoin:miter;stroke-miterlimit:10;"/><line style="stroke:#181818;stroke-width:1;stroke-dasharray:2,2;" x1="225.8862" x2="391.1675" y1="386.8906" y2="386.8906"/><text fill="#000000" font-family="Helvetica" font-size="10" x="232.8862" y="382.5322">(08)</text><text fill="#000000" font-family="Helvetica" font-size="10" x="257.4136" y="382.5322">Secret</text><polygon fill="#181818" points="727.6499,408.5313,737.6499,412.5313,727.6499,416.5313,731.6499,412.5313" style="stroke:#181818;stroke-width:1;stroke-linejoin:miter;stroke-miterlimit:10;"/><line style="stroke:#181818;stroke-width:1;" x1="407.1675" x2="733.6499" y1="412.5313" y2="412.5313"/><text fill="#000000" font-family="Helvetica" font-size="10" x="414.1675" y="408.1729">(09)</text><text fill="#000000" font-family="Helvetica" font-size="10" x="438.6948" y="408.1729">POST /register/verify {Secret}</text><line style="stroke:#181818;stroke-width:1;" x1="749.6499" x2="791.6499" y1="438.1719" y2="438.1719"/><line style="stroke:#181818;stroke-width:1;" x1="791.6499" x2="791.6499" y1="438.1719" y2="451.1719"/><line style="stroke:#181818;stroke-width:1;" x1="750.6499" x2="791.6499" y1="451.1719" y2="451.1719"/><polygon fill="#181818" points="760.6499,447.1719,750.6499,451.1719,760.6499,455.1719,756.6499,451.1719" style="stroke:#181818;stroke-width:1;stroke-linejoin:miter;stroke-miterlimit:10;"/><text fill="#000000" font-family="Helvetica" font-size="10" x="756.6499" y="433.8135">(10)</text><text fill="#000000" font-family="Helvetica" font-size="10" x="781.1772" y="433.8135">Secret korrekt? &#8594; PuK.Client.Sig hardware-gebunden &#10003;</text><polygon fill="#181818" points="727.6499,537.375,737.6499,541.375,727.6499,545.375,731.6499,541.375" style="stroke:#181818;stroke-width:1;stroke-linejoin:miter;stroke-miterlimit:10;"/><line style="stroke:#181818;stroke-width:1;" x1="407.1675" x2="733.6499" y1="541.375" y2="541.375"/><text fill="#000000" font-family="Helvetica" font-size="10" x="414.1675" y="519.5557">(11)</text><text fill="#000000" font-family="Helvetica" font-size="10" x="438.6948" y="502.0947">POST /register</text><text fill="#000000" font-family="Helvetica" font-size="10" x="438.6948" y="513.7354">{attestation_type="zeta_attestation_token",</text><text fill="#000000" font-family="Helvetica" font-size="10" x="438.6948" y="525.376">zeta_guard_attestation_token, PuK.Client.Sig,</text><text fill="#000000" font-family="Helvetica" font-size="10" x="438.6948" y="537.0166">signed_Hash_PuK.Client.Sig}</text><line style="stroke:#181818;stroke-width:1;" x1="749.6499" x2="791.6499" y1="567.0156" y2="567.0156"/><line style="stroke:#181818;stroke-width:1;" x1="791.6499" x2="791.6499" y1="567.0156" y2="580.0156"/><line style="stroke:#181818;stroke-width:1;" x1="750.6499" x2="791.6499" y1="580.0156" y2="580.0156"/><polygon fill="#181818" points="760.6499,576.0156,750.6499,580.0156,760.6499,584.0156,756.6499,580.0156" style="stroke:#181818;stroke-width:1;stroke-linejoin:miter;stroke-miterlimit:10;"/><text fill="#000000" font-family="Helvetica" font-size="10" x="756.6499" y="562.6572">(12)</text><text fill="#000000" font-family="Helvetica" font-size="10" x="781.1772" y="562.6572">Pr&#252;fe Token-Signatur &amp; Vertrauensstellung</text><line style="stroke:#181818;stroke-width:1;" x1="749.6499" x2="791.6499" y1="605.6563" y2="605.6563"/><line style="stroke:#181818;stroke-width:1;" x1="791.6499" x2="791.6499" y1="605.6563" y2="618.6563"/><line style="stroke:#181818;stroke-width:1;" x1="750.6499" x2="791.6499" y1="618.6563" y2="618.6563"/><polygon fill="#181818" points="760.6499,614.6563,750.6499,618.6563,760.6499,622.6563,756.6499,618.6563" style="stroke:#181818;stroke-width:1;stroke-linejoin:miter;stroke-miterlimit:10;"/><text fill="#000000" font-family="Helvetica" font-size="10" x="756.6499" y="601.2979">(13)</text><text fill="#000000" font-family="Helvetica" font-size="10" x="781.1772" y="601.2979">Extrahiere PuK.AK.Sig aus Token, pr&#252;fe signed_Hash_PuK.Client.Sig</text><line style="stroke:#181818;stroke-width:1;" x1="749.6499" x2="791.6499" y1="658.2969" y2="658.2969"/><line style="stroke:#181818;stroke-width:1;" x1="791.6499" x2="791.6499" y1="658.2969" y2="671.2969"/><line style="stroke:#181818;stroke-width:1;" x1="750.6499" x2="791.6499" y1="671.2969" y2="671.2969"/><polygon fill="#181818" points="760.6499,667.2969,750.6499,671.2969,760.6499,675.2969,756.6499,671.2969" style="stroke:#181818;stroke-width:1;stroke-linejoin:miter;stroke-miterlimit:10;"/><text fill="#000000" font-family="Helvetica" font-size="10" x="756.6499" y="653.9385">(14)</text><text fill="#000000" font-family="Helvetica" font-size="10" x="781.1772" y="653.9385">Store Client Placeholder (state: pending_user_binding)</text><polygon fill="#181818" points="418.1675,692.9375,408.1675,696.9375,418.1675,700.9375,414.1675,696.9375" style="stroke:#181818;stroke-width:1;stroke-linejoin:miter;stroke-miterlimit:10;"/><line style="stroke:#181818;stroke-width:1;stroke-dasharray:2,2;" x1="412.1675" x2="738.6499" y1="696.9375" y2="696.9375"/><text fill="#000000" font-family="Helvetica" font-size="10" x="424.1675" y="692.5791">(15)</text><text fill="#000000" font-family="Helvetica" font-size="10" x="448.6948" y="692.5791">201 Created {client_id, status="pending_user_binding"}</text><?plantuml-src bLJ1Rjf04BtxAwO-L4HW9qNgXIQfNB1Ib10ie4YjaAp5di0AiqRhDGs9Skq7jDSU-nczvK_o9Ptr5WZ4YLh9qdfttxvvC_jcNt4H9NcCuBg7YtoUE0bRfRborRMoB6kSNeFTmYMFq8QMFsmt_R3PlUZsB805auf7VC640diGT6nW6T085twRG9sWU-bV3ahXNxo-1jiqsd1yV8EAdPuIfWWNI3w__oMpLQPmRaFGQtSylzV_t1_udGtRBbypuKX3GUaFlB_p7MeKiQQtrgD9pHDZZWeb3DfGTu-WHUSofODsX-sMtzl4Az05zrdEP6o3_W_FFdczrZEQl5nDJPP1AnW9FKqbls6AfmBwA9SeNnR84WNdo0LimuAd56RAS0pI6GfOfdBAH8oY460IhrOVJS0vDLggrGO4tVu03YLEE1LNZiGjsnA6QhN04rijvdODWlpSzUaJKGsQwx-HqClUkTld4mCn8SmyunE1SVYHPTDmT--ka6CAibRJW25BUCnHuYQ0qvmoolVr2rIbJ4s9L035MV8XISTm0Xqsm-rYnNNTWtSZKT7crBVSJETpgbbMetk8Ybg-gRjl3nvp4xa9se3wKHsyACA5mXXkTsFTMNkL9aVhEdj4ksGAAxjm4qAxdw2aHaDfg8Th_1PESilEwXGS4yTn6bg_HBLbtSX-j5dcXNqd798R-TKARisPyWipUp1BfSIPUWyFtxxlcG2cPDAlJA8pmN6kNGaFFtzO5YOP6Xl_cu6VrLdgMDr2uSwo9hR9hiNEH7VEq_qd1Xw9_tLm8Ez_Nw79mo6KO2gNPDyXIYLPJay9QKwIN9JRrhycrBJeW6rV0SipmrY3XU5_eHleiR2i9_UaKjrKff91mYASfabCZrn55m0RiA1ZN4p2F4CPZdanER3sdQyjL3zwexkB5TQFYkMGnzJhH9Hd9tOPatrd_G40?></g></svg>