<svg xmlns="http://www.w3.org/2000/svg" xmlns:xlink="http://www.w3.org/1999/xlink" contentStyleType="text/css" data-diagram-type="SEQUENCE" height="508px" preserveAspectRatio="none" style="width:767px;height:508px;background:#FFFFFF;" version="1.1" viewBox="0 0 767 508" width="767px" zoomAndPan="magnify"><?plantuml 1.2026.6?><defs/><g><rect fill="#FEFCFF" height="482.8906" style="stroke:#181818;stroke-width:0.5;" width="102.1934" x="310.1919" y="11"/><text fill="#000000" font-family="Helvetica" font-size="10" font-weight="700" x="342.4189" y="20.2822">Device</text><rect fill="#E6E6FA" height="466.25" style="stroke:#181818;stroke-width:0.5;" width="102.1934" x="310.1919" y="27.6406"/><text fill="#000000" font-family="Helvetica" font-size="10" font-weight="700" x="322.1919" y="36.9229">Prim&#228;rsystem</text><rect fill="#EDFDEC" height="482.8906" style="stroke:#181818;stroke-width:0.5;" width="147.7842" x="614.5322" y="11"/><text fill="#000000" font-family="Helvetica" font-size="10" font-weight="700" x="626.5322" y="20.2822">Anbieter TI 2.0 Dienst</text><rect fill="#FFF3E5" height="466.25" style="stroke:#181818;stroke-width:0.5;" width="147.7842" x="614.5322" y="27.6406"/><text fill="#000000" font-family="Helvetica" font-size="10" font-weight="700" x="655.2798" y="36.9229">ZETA Guard</text><g><title>SM.C.-B</title><rect fill="#000000" fill-opacity="0.00000" height="368.0469" width="8" x="33.6147" y="81.5625"/><line style="stroke:#000000;stroke-width:0.5;stroke-dasharray:5,5;" x1="37.1147" x2="37.1147" y1="81.5625" y2="449.6094"/></g><g><title/><rect fill="#FFFFFF" height="25.6406" style="stroke:#181818;stroke-width:1;" width="10" x="32.1147" y="289.0469"/></g><g><title>Konnektor or</title><rect fill="#000000" fill-opacity="0.00000" height="368.0469" width="8" x="195.7017" y="81.5625"/><line style="stroke:#000000;stroke-width:0.5;stroke-dasharray:5,5;" x1="199.2017" x2="199.2017" y1="81.5625" y2="449.6094"/></g><g><title/><rect fill="#FFFFFF" height="76.9219" style="stroke:#181818;stroke-width:1;" width="10" x="194.2017" y="263.4063"/></g><g><title>ZETA Client</title><rect fill="#000000" fill-opacity="0.00000" height="368.0469" width="8" x="357.7886" y="81.5625"/><line style="stroke:#000000;stroke-width:0.5;stroke-dasharray:5,5;" x1="361.2886" x2="361.2886" y1="81.5625" y2="449.6094"/></g><g><title/><rect fill="#FFFFFF" height="360.0469" style="stroke:#181818;stroke-width:1;" width="10" x="356.2886" y="89.5625"/></g><g><title>PDP</title><rect fill="#000000" fill-opacity="0.00000" height="368.0469" width="8" x="684.9243" y="81.5625"/><line style="stroke:#000000;stroke-width:0.5;stroke-dasharray:5,5;" x1="688.4243" x2="688.4243" y1="81.5625" y2="449.6094"/></g><g><title/><rect fill="#FFFFFF" height="25.6406" style="stroke:#181818;stroke-width:1;" width="10" x="683.4243" y="107.2031"/></g><rect fill="#E4E4F4" height="25.6406" rx="2.5" ry="2.5" style="stroke:#181818;stroke-width:0.5;" width="54.2295" x="10" y="54.9219"/><text fill="#000000" font-family="Helvetica" font-size="10" x="17" y="71.2041">SM(C)-B</text><rect fill="#E4E4F4" height="37.2813" rx="2.5" ry="2.5" style="stroke:#181818;stroke-width:0.5;" width="78.8535" x="159.7749" y="43.2813"/><text fill="#000000" font-family="Helvetica" font-size="10" x="166.7749" y="59.5635">Konnektor or</text><text fill="#000000" font-family="Helvetica" font-size="10" x="170.7813" y="71.2041">TI-Gateway</text><rect fill="#FFE6CC" height="25.6406" rx="2.5" ry="2.5" style="stroke:#D79B00;stroke-width:0.5;" width="72.2471" x="325.165" y="54.9219"/><text fill="#000000" font-family="Helvetica" font-size="10" x="332.165" y="71.2041">ZETA Client</text><rect fill="#FFE6CC" height="37.2813" rx="2.5" ry="2.5" style="stroke:#D79B00;stroke-width:0.5;" width="116.9492" x="629.9497" y="43.2813"/><text fill="#000000" font-family="Helvetica" font-size="10" x="678.5439" y="59.5635">PDP</text><text fill="#000000" font-family="Helvetica" font-size="10" x="636.9497" y="71.2041">Authorization Server</text><rect fill="#E4E4F4" height="25.6406" rx="2.5" ry="2.5" style="stroke:#181818;stroke-width:0.5;" width="54.2295" x="10" y="449.6094"/><text fill="#000000" font-family="Helvetica" font-size="10" x="17" y="465.8916">SM(C)-B</text><rect fill="#E4E4F4" height="37.2813" rx="2.5" ry="2.5" style="stroke:#181818;stroke-width:0.5;" width="78.8535" x="159.7749" y="449.6094"/><text fill="#000000" font-family="Helvetica" font-size="10" x="166.7749" y="465.8916">Konnektor or</text><text fill="#000000" font-family="Helvetica" font-size="10" x="170.7813" y="477.5322">TI-Gateway</text><rect fill="#FFE6CC" height="25.6406" rx="2.5" ry="2.5" style="stroke:#D79B00;stroke-width:0.5;" width="72.2471" x="325.165" y="449.6094"/><text fill="#000000" font-family="Helvetica" font-size="10" x="332.165" y="465.8916">ZETA Client</text><rect fill="#FFE6CC" height="37.2813" rx="2.5" ry="2.5" style="stroke:#D79B00;stroke-width:0.5;" width="116.9492" x="629.9497" y="449.6094"/><text fill="#000000" font-family="Helvetica" font-size="10" x="678.5439" y="465.8916">PDP</text><text fill="#000000" font-family="Helvetica" font-size="10" x="636.9497" y="477.5322">Authorization Server</text><polygon fill="#181818" points="671.4243,103.2031,681.4243,107.2031,671.4243,111.2031,675.4243,107.2031" style="stroke:#181818;stroke-width:1;stroke-linejoin:miter;stroke-miterlimit:10;"/><line style="stroke:#181818;stroke-width:1;" x1="366.2886" x2="677.4243" y1="107.2031" y2="107.2031"/><text fill="#000000" font-family="Helvetica" font-size="10" x="373.2886" y="102.8447">(01)</text><text fill="#000000" font-family="Helvetica" font-size="10" x="397.8159" y="102.8447">GET /nonce</text><polygon fill="#181818" points="377.2886,128.8438,367.2886,132.8438,377.2886,136.8438,373.2886,132.8438" style="stroke:#181818;stroke-width:1;stroke-linejoin:miter;stroke-miterlimit:10;"/><line style="stroke:#181818;stroke-width:1;stroke-dasharray:2,2;" x1="371.2886" x2="682.4243" y1="132.8438" y2="132.8438"/><text fill="#000000" font-family="Helvetica" font-size="10" x="383.2886" y="128.4854">(02)</text><text fill="#000000" font-family="Helvetica" font-size="10" x="407.8159" y="128.4854">Nonce</text><line style="stroke:#181818;stroke-width:1;" x1="366.2886" x2="408.2886" y1="158.4844" y2="158.4844"/><line style="stroke:#181818;stroke-width:1;" x1="408.2886" x2="408.2886" y1="158.4844" y2="171.4844"/><line style="stroke:#181818;stroke-width:1;" x1="367.2886" x2="408.2886" y1="171.4844" y2="171.4844"/><polygon fill="#181818" points="377.2886,167.4844,367.2886,171.4844,377.2886,175.4844,373.2886,171.4844" style="stroke:#181818;stroke-width:1;stroke-linejoin:miter;stroke-miterlimit:10;"/><text fill="#000000" font-family="Helvetica" font-size="10" x="373.2886" y="154.126">(03)</text><text fill="#000000" font-family="Helvetica" font-size="10" x="397.8159" y="154.126">Create DPoP Key Pair (PrK.DPoP.Sig, PuK.DPoP.Sig)</text><line style="stroke:#181818;stroke-width:1;" x1="366.2886" x2="408.2886" y1="197.125" y2="197.125"/><line style="stroke:#181818;stroke-width:1;" x1="408.2886" x2="408.2886" y1="197.125" y2="210.125"/><line style="stroke:#181818;stroke-width:1;" x1="367.2886" x2="408.2886" y1="210.125" y2="210.125"/><polygon fill="#181818" points="377.2886,206.125,367.2886,210.125,377.2886,214.125,373.2886,210.125" style="stroke:#181818;stroke-width:1;stroke-linejoin:miter;stroke-miterlimit:10;"/><text fill="#000000" font-family="Helvetica" font-size="10" x="373.2886" y="192.7666">(04)</text><text fill="#000000" font-family="Helvetica" font-size="10" x="397.8159" y="192.7666">Erstelle Subject Token (mit Nonce)</text><path d="M16.1147,222.125 L246.5591,222.125 L246.5591,225.7656 L236.5591,235.7656 L16.1147,235.7656 L16.1147,222.125" fill="#EEEEEE" style="stroke:#000000;stroke-width:1.5;"/><rect fill="none" height="126.2031" style="stroke:#000000;stroke-width:1.5;" width="361.1738" x="16.1147" y="222.125"/><text fill="#000000" font-family="Helvetica" font-size="10" font-weight="700" x="31.1147" y="232.4072">Sign Subject Token with SM(C)-B</text><polygon fill="#181818" points="215.2017,259.4063,205.2017,263.4063,215.2017,267.4063,211.2017,263.4063" style="stroke:#181818;stroke-width:1;stroke-linejoin:miter;stroke-miterlimit:10;"/><line style="stroke:#181818;stroke-width:1;" x1="209.2017" x2="355.2886" y1="263.4063" y2="263.4063"/><text fill="#000000" font-family="Helvetica" font-size="10" x="221.2017" y="259.0479">(05)</text><text fill="#000000" font-family="Helvetica" font-size="10" x="245.729" y="259.0479">Sign Subject Token</text><polygon fill="#181818" points="53.1147,285.0469,43.1147,289.0469,53.1147,293.0469,49.1147,289.0469" style="stroke:#181818;stroke-width:1;stroke-linejoin:miter;stroke-miterlimit:10;"/><line style="stroke:#181818;stroke-width:1;" x1="47.1147" x2="193.2017" y1="289.0469" y2="289.0469"/><text fill="#000000" font-family="Helvetica" font-size="10" x="59.1147" y="284.6885">(06)</text><text fill="#000000" font-family="Helvetica" font-size="10" x="83.6421" y="284.6885">Sign Subject Token</text><polygon fill="#181818" points="182.2017,310.6875,192.2017,314.6875,182.2017,318.6875,186.2017,314.6875" style="stroke:#181818;stroke-width:1;stroke-linejoin:miter;stroke-miterlimit:10;"/><line style="stroke:#181818;stroke-width:1;stroke-dasharray:2,2;" x1="42.1147" x2="188.2017" y1="314.6875" y2="314.6875"/><text fill="#000000" font-family="Helvetica" font-size="10" x="49.1147" y="310.3291">(07)</text><text fill="#000000" font-family="Helvetica" font-size="10" x="73.6421" y="310.3291">Signed Subject Token</text><polygon fill="#181818" points="344.2886,336.3281,354.2886,340.3281,344.2886,344.3281,348.2886,340.3281" style="stroke:#181818;stroke-width:1;stroke-linejoin:miter;stroke-miterlimit:10;"/><line style="stroke:#181818;stroke-width:1;stroke-dasharray:2,2;" x1="204.2017" x2="350.2886" y1="340.3281" y2="340.3281"/><text fill="#000000" font-family="Helvetica" font-size="10" x="211.2017" y="335.9697">(08)</text><text fill="#000000" font-family="Helvetica" font-size="10" x="235.729" y="335.9697">Signed Subject Token</text><line style="stroke:#181818;stroke-width:1;" x1="366.2886" x2="408.2886" y1="379.9688" y2="379.9688"/><line style="stroke:#181818;stroke-width:1;" x1="408.2886" x2="408.2886" y1="379.9688" y2="392.9688"/><line style="stroke:#181818;stroke-width:1;" x1="367.2886" x2="408.2886" y1="392.9688" y2="392.9688"/><polygon fill="#181818" points="377.2886,388.9688,367.2886,392.9688,377.2886,396.9688,373.2886,392.9688" style="stroke:#181818;stroke-width:1;stroke-linejoin:miter;stroke-miterlimit:10;"/><text fill="#000000" font-family="Helvetica" font-size="10" x="373.2886" y="375.6104">(09)</text><text fill="#000000" font-family="Helvetica" font-size="10" x="397.8159" y="375.6104">Erstelle client-statement (OS und PS Daten)</text><line style="stroke:#181818;stroke-width:1;" x1="366.2886" x2="408.2886" y1="418.6094" y2="418.6094"/><line style="stroke:#181818;stroke-width:1;" x1="408.2886" x2="408.2886" y1="418.6094" y2="431.6094"/><line style="stroke:#181818;stroke-width:1;" x1="367.2886" x2="408.2886" y1="431.6094" y2="431.6094"/><polygon fill="#181818" points="377.2886,427.6094,367.2886,431.6094,377.2886,435.6094,373.2886,431.6094" style="stroke:#181818;stroke-width:1;stroke-linejoin:miter;stroke-miterlimit:10;"/><text fill="#000000" font-family="Helvetica" font-size="10" x="373.2886" y="414.251">(10)</text><text fill="#000000" font-family="Helvetica" font-size="10" x="397.8159" y="414.251">Erstelle Client Assertion (JWT, signiert mit PrK.Client.Sig)</text><?plantuml-src VLF1Rfj04Btp5HCkjKKWLOzMP8a0igXZWmnDrIfIjCOZPnlOjPR1YVqz_PF-M7U1r77g-BIpC--zVSmC5rmKPRD2yBohJLELRibsiY6FNiYoh4z0d4g4P4cC2_29i2P6N0g8jdo5ea3BkjWejguO4Ceza6fqQiCKyO9lc238PZV0Qh2psI0OkZSst4RnGv3CqcGUpNCTtIQB8y9K2e5F95LBEzoakXTvx4uOuJFRdTPPoXUmGzpo0cq8exiuYFeAG5jB5Q_-_5RrhYQiR4WNySoF5jcFB8zc_v00R_q49KTz63C_ezplxpPSN--Hs7Yi2IXMHjvwFJiVlbXo95IGn_35-moXvjLa7atkuZ1Q73jhjISDKoiRJFmm-UOlmWyy-GqzPgsbD4plXRbAnVVTQ39KMrJd3LhTLpXE7u0xxaKT1qOmYNAu4jBCjykwklwAT3LWtjRUaFje1852FI48Kvd257UGCgvWaAgfPr9UnjUNa3Q7s_0_aH54Ie-dr8kNDSjVM13ayWa532fEtSj3Qwraim7D5-z0pvmUeL-sjcy7-SCkESxe1BU57q2QOPQtRSW7O5DtZvJRxXWqhiwBlsleIOeUrxdk56t2DRyaLWOqI39ez8ZJ34AT4sTxsvVykaRLxitWw_Vy4cfjXEiCc6QRiNMuRbH_0G00?></g></svg>