<svg xmlns="http://www.w3.org/2000/svg" xmlns:xlink="http://www.w3.org/1999/xlink" contentStyleType="text/css" data-diagram-type="SEQUENCE" height="592px" preserveAspectRatio="none" style="width:931px;height:592px;background:#FFFFFF;" version="1.1" viewBox="0 0 931 592" width="931px" zoomAndPan="magnify"><?plantuml 1.2026.6?><defs/><g><rect fill="#FEFCFF" height="566.7344" style="stroke:#181818;stroke-width:0.5;" width="909.271" x="16" y="11"/><text fill="#000000" font-family="Helvetica" font-size="10" font-weight="700" x="451.7659" y="20.2822">Device</text><rect fill="#E6E6FA" height="550.0938" style="stroke:#181818;stroke-width:0.5;" width="102.1934" x="823.0776" y="27.6406"/><text fill="#000000" font-family="Helvetica" font-size="10" font-weight="700" x="835.0776" y="36.9229">Prim&#228;rsystem</text><g><title>TPM</title><rect fill="#000000" fill-opacity="0.00000" height="475.1719" width="8" x="33.8833" y="69.9219"/><line style="stroke:#000000;stroke-width:0.5;stroke-dasharray:5,5;" x1="37.3833" x2="37.3833" y1="69.9219" y2="545.0938"/></g><g><title/><rect fill="#FFFFFF" height="467.1719" style="stroke:#181818;stroke-width:1;" width="10" x="32.3833" y="77.9219"/></g><g><title>ZAS</title><rect fill="#000000" fill-opacity="0.00000" height="475.1719" width="8" x="478.8169" y="69.9219"/><line style="stroke:#000000;stroke-width:0.5;stroke-dasharray:5,5;" x1="482.3169" x2="482.3169" y1="69.9219" y2="545.0938"/></g><g><title/><rect fill="#FFFFFF" height="449.1719" style="stroke:#181818;stroke-width:1;" width="10" x="477.3169" y="77.9219"/></g><g><title>ZETA Client</title><rect fill="#000000" fill-opacity="0.00000" height="475.1719" width="8" x="870.6743" y="69.9219"/><line style="stroke:#000000;stroke-width:0.5;stroke-dasharray:5,5;" x1="874.1743" x2="874.1743" y1="69.9219" y2="545.0938"/></g><g><title/><rect fill="#FFFFFF" height="449.1719" style="stroke:#181818;stroke-width:1;" width="10" x="869.1743" y="77.9219"/></g><rect fill="#E4E4F4" height="25.6406" rx="2.5" ry="2.5" style="stroke:#181818;stroke-width:0.5;" width="34.7666" x="20" y="43.2813"/><text fill="#000000" font-family="Helvetica" font-size="10" x="27" y="59.5635">TPM</text><rect fill="#FFE6CC" height="25.6406" rx="2.5" ry="2.5" style="stroke:#D79B00;stroke-width:0.5;" width="34.0391" x="465.2974" y="43.2813"/><text fill="#000000" font-family="Helvetica" font-size="10" x="472.2974" y="59.5635">ZAS</text><rect fill="#FFE6CC" height="25.6406" rx="2.5" ry="2.5" style="stroke:#D79B00;stroke-width:0.5;" width="72.2471" x="838.0508" y="43.2813"/><text fill="#000000" font-family="Helvetica" font-size="10" x="845.0508" y="59.5635">ZETA Client</text><rect fill="#E4E4F4" height="25.6406" rx="2.5" ry="2.5" style="stroke:#181818;stroke-width:0.5;" width="34.7666" x="20" y="545.0938"/><text fill="#000000" font-family="Helvetica" font-size="10" x="27" y="561.376">TPM</text><rect fill="#FFE6CC" height="25.6406" rx="2.5" ry="2.5" style="stroke:#D79B00;stroke-width:0.5;" width="34.0391" x="465.2974" y="545.0938"/><text fill="#000000" font-family="Helvetica" font-size="10" x="472.2974" y="561.376">ZAS</text><rect fill="#FFE6CC" height="25.6406" rx="2.5" ry="2.5" style="stroke:#D79B00;stroke-width:0.5;" width="72.2471" x="838.0508" y="545.0938"/><text fill="#000000" font-family="Helvetica" font-size="10" x="845.0508" y="561.376">ZETA Client</text><path d="M579.2144,82.9219 L579.2144,126.9219 L868.2144,126.9219 L868.2144,92.9219 L858.2144,82.9219 L579.2144,82.9219" fill="#FEFFDD" style="stroke:#181818;stroke-width:0.5;"/><path d="M858.2144,82.9219 L858.2144,92.9219 L868.2144,92.9219 L858.2144,82.9219" fill="#FEFFDD" style="stroke:#181818;stroke-width:0.5;"/><text fill="#000000" font-family="Helvetica" font-size="10" x="585.2144" y="97.2041">Client &#252;bergibt Opaque Blob an den ZAS</text><text fill="#000000" font-family="Helvetica" font-size="10" x="585.2144" y="108.8447">(enth&#228;lt prk_client_sig, puk_client_sig;</text><text fill="#000000" font-family="Helvetica" font-size="10" x="585.2144" y="120.4854">die Schl&#252;ssel k&#246;nnen nur im TPM verwendet werden).</text><polygon fill="#181818" points="498.3169,146.4844,488.3169,150.4844,498.3169,154.4844,494.3169,150.4844" style="stroke:#181818;stroke-width:1;stroke-linejoin:miter;stroke-miterlimit:10;"/><line style="stroke:#181818;stroke-width:1;" x1="492.3169" x2="868.1743" y1="150.4844" y2="150.4844"/><text fill="#000000" font-family="Helvetica" font-size="10" x="504.3169" y="146.126">(01)</text><text fill="#000000" font-family="Helvetica" font-size="10" x="528.8442" y="146.126">PCP_KEY_BLOB(prk_client_sig, puk_client_sig), hash_puk_client_sig</text><polygon fill="#181818" points="53.3833,172.125,43.3833,176.125,53.3833,180.125,49.3833,176.125" style="stroke:#181818;stroke-width:1;stroke-linejoin:miter;stroke-miterlimit:10;"/><line style="stroke:#181818;stroke-width:1;" x1="47.3833" x2="476.3169" y1="176.125" y2="176.125"/><text fill="#000000" font-family="Helvetica" font-size="10" x="59.3833" y="171.7666">(02)</text><text fill="#000000" font-family="Helvetica" font-size="10" x="83.9106" y="171.7666">TPM2_Load(PCP_KEY_BLOB)</text><polygon fill="#181818" points="465.3169,197.7656,475.3169,201.7656,465.3169,205.7656,469.3169,201.7656" style="stroke:#181818;stroke-width:1;stroke-linejoin:miter;stroke-miterlimit:10;"/><line style="stroke:#181818;stroke-width:1;stroke-dasharray:2,2;" x1="42.3833" x2="471.3169" y1="201.7656" y2="201.7656"/><text fill="#000000" font-family="Helvetica" font-size="10" x="49.3833" y="197.4072">(03)</text><text fill="#000000" font-family="Helvetica" font-size="10" x="73.9106" y="197.4072">Handle_prk_client_sig</text><path d="M185.4624,214.7656 L185.4624,247.7656 L476.4624,247.7656 L476.4624,224.7656 L466.4624,214.7656 L185.4624,214.7656" fill="#FEFFDD" style="stroke:#181818;stroke-width:0.5;"/><path d="M466.4624,214.7656 L466.4624,224.7656 L476.4624,224.7656 L466.4624,214.7656" fill="#FEFFDD" style="stroke:#181818;stroke-width:0.5;"/><text fill="#000000" font-family="Helvetica" font-size="10" x="191.4624" y="229.0479">ZAS &#252;bergibt hash_puk_client_sig als "qualifyingData"</text><text fill="#000000" font-family="Helvetica" font-size="10" x="191.4624" y="240.6885">an TPM2_Certify zur Bindung an den Session-Kontext.</text><polygon fill="#181818" points="53.3833,266.6875,43.3833,270.6875,53.3833,274.6875,49.3833,270.6875" style="stroke:#181818;stroke-width:1;stroke-linejoin:miter;stroke-miterlimit:10;"/><line style="stroke:#181818;stroke-width:1;" x1="47.3833" x2="476.3169" y1="270.6875" y2="270.6875"/><text fill="#000000" font-family="Helvetica" font-size="10" x="59.3833" y="266.3291">(04)</text><text fill="#000000" font-family="Helvetica" font-size="10" x="83.9106" y="266.3291">TPM2_Certify(Handle_prk_ak_sig, Handle_prk_client_sig, hash_puk_client_sig)</text><polygon fill="#181818" points="465.3169,292.3281,475.3169,296.3281,465.3169,300.3281,469.3169,296.3281" style="stroke:#181818;stroke-width:1;stroke-linejoin:miter;stroke-miterlimit:10;"/><line style="stroke:#181818;stroke-width:1;stroke-dasharray:2,2;" x1="42.3833" x2="471.3169" y1="296.3281" y2="296.3281"/><text fill="#000000" font-family="Helvetica" font-size="10" x="49.3833" y="291.9697">(05)</text><text fill="#000000" font-family="Helvetica" font-size="10" x="73.9106" y="291.9697">tpm2b_attest, tpmt_signature</text><polygon fill="#181818" points="53.3833,317.9688,43.3833,321.9688,53.3833,325.9688,49.3833,321.9688" style="stroke:#181818;stroke-width:1;stroke-linejoin:miter;stroke-miterlimit:10;"/><line style="stroke:#181818;stroke-width:1;" x1="47.3833" x2="476.3169" y1="321.9688" y2="321.9688"/><text fill="#000000" font-family="Helvetica" font-size="10" x="59.3833" y="317.6104">(06)</text><text fill="#000000" font-family="Helvetica" font-size="10" x="83.9106" y="317.6104">TPM2_ReadPublic(AttestationKey)</text><polygon fill="#181818" points="465.3169,343.6094,475.3169,347.6094,465.3169,351.6094,469.3169,347.6094" style="stroke:#181818;stroke-width:1;stroke-linejoin:miter;stroke-miterlimit:10;"/><line style="stroke:#181818;stroke-width:1;stroke-dasharray:2,2;" x1="42.3833" x2="471.3169" y1="347.6094" y2="347.6094"/><text fill="#000000" font-family="Helvetica" font-size="10" x="49.3833" y="343.251">(07)</text><text fill="#000000" font-family="Helvetica" font-size="10" x="73.9106" y="343.251">puk_ak_sig</text><polygon fill="#181818" points="857.1743,369.25,867.1743,373.25,857.1743,377.25,861.1743,373.25" style="stroke:#181818;stroke-width:1;stroke-linejoin:miter;stroke-miterlimit:10;"/><line style="stroke:#181818;stroke-width:1;stroke-dasharray:2,2;" x1="487.3169" x2="863.1743" y1="373.25" y2="373.25"/><text fill="#000000" font-family="Helvetica" font-size="10" x="494.3169" y="368.8916">(08)</text><text fill="#000000" font-family="Helvetica" font-size="10" x="518.8442" y="368.8916">puk_ak_sig, tpm2b_attest, tpmt_signature</text><polygon fill="#181818" points="498.3169,394.8906,488.3169,398.8906,498.3169,402.8906,494.3169,398.8906" style="stroke:#181818;stroke-width:1;stroke-linejoin:miter;stroke-miterlimit:10;"/><line style="stroke:#181818;stroke-width:1;" x1="492.3169" x2="868.1743" y1="398.8906" y2="398.8906"/><text fill="#000000" font-family="Helvetica" font-size="10" x="504.3169" y="394.5322">(09)</text><text fill="#000000" font-family="Helvetica" font-size="10" x="528.8442" y="394.5322">Request puk_ek_enc, c_ek_enc</text><polygon fill="#181818" points="53.3833,420.5313,43.3833,424.5313,53.3833,428.5313,49.3833,424.5313" style="stroke:#181818;stroke-width:1;stroke-linejoin:miter;stroke-miterlimit:10;"/><line style="stroke:#181818;stroke-width:1;" x1="47.3833" x2="476.3169" y1="424.5313" y2="424.5313"/><text fill="#000000" font-family="Helvetica" font-size="10" x="59.3833" y="420.1729">(10)</text><text fill="#000000" font-family="Helvetica" font-size="10" x="83.9106" y="420.1729">TPM2_ReadPublic(EndorsementKey)</text><polygon fill="#181818" points="465.3169,446.1719,475.3169,450.1719,465.3169,454.1719,469.3169,450.1719" style="stroke:#181818;stroke-width:1;stroke-linejoin:miter;stroke-miterlimit:10;"/><line style="stroke:#181818;stroke-width:1;stroke-dasharray:2,2;" x1="42.3833" x2="471.3169" y1="450.1719" y2="450.1719"/><text fill="#000000" font-family="Helvetica" font-size="10" x="49.3833" y="445.8135">(11)</text><text fill="#000000" font-family="Helvetica" font-size="10" x="73.9106" y="445.8135">puk_ek_enc</text><polygon fill="#181818" points="53.3833,471.8125,43.3833,475.8125,53.3833,479.8125,49.3833,475.8125" style="stroke:#181818;stroke-width:1;stroke-linejoin:miter;stroke-miterlimit:10;"/><line style="stroke:#181818;stroke-width:1;" x1="47.3833" x2="476.3169" y1="475.8125" y2="475.8125"/><text fill="#000000" font-family="Helvetica" font-size="10" x="59.3833" y="471.4541">(12)</text><text fill="#000000" font-family="Helvetica" font-size="10" x="83.9106" y="471.4541">TPM2_NV_Read(EndorsementKey_Cert)</text><polygon fill="#181818" points="465.3169,497.4531,475.3169,501.4531,465.3169,505.4531,469.3169,501.4531" style="stroke:#181818;stroke-width:1;stroke-linejoin:miter;stroke-miterlimit:10;"/><line style="stroke:#181818;stroke-width:1;stroke-dasharray:2,2;" x1="42.3833" x2="471.3169" y1="501.4531" y2="501.4531"/><text fill="#000000" font-family="Helvetica" font-size="10" x="49.3833" y="497.0947">(13)</text><text fill="#000000" font-family="Helvetica" font-size="10" x="73.9106" y="497.0947">c_ek_enc</text><polygon fill="#181818" points="857.1743,523.0938,867.1743,527.0938,857.1743,531.0938,861.1743,527.0938" style="stroke:#181818;stroke-width:1;stroke-linejoin:miter;stroke-miterlimit:10;"/><line style="stroke:#181818;stroke-width:1;stroke-dasharray:2,2;" x1="487.3169" x2="863.1743" y1="527.0938" y2="527.0938"/><text fill="#000000" font-family="Helvetica" font-size="10" x="494.3169" y="522.7354">(14)</text><text fill="#000000" font-family="Helvetica" font-size="10" x="518.8442" y="522.7354">puk_ek_enc, c_ek_enc</text><?plantuml-src VPBTRk8m48NlynIpkGALi58lsGg9dqYB-8i0LUeAANAI0ImS9usT5leyVOQzwXqljXD3Mg1PfCYEa_5tpXpx1vUXo2E4PlDdciV24MoVvBgfTzgoh23PWTt75nwY3NttST1p_TvqD9rP02dBD0zvogG6U-6DRM0AQ8QHEw2YiJUTk9D5PVcVphmejccsuU7X3JLhjwd6o7aPZm_lcTehZR4DtcmmxhYp-TDyuOu_QPUydk18aq6wYyvfVO566HLugvojOytTdKKcQ2JZD5eoqGW2LngIrGdJAl67Zm2pDGyqJ5Fsd2DqHH80an2XB5fQoXgLRGxlGaEQRVtGRFCLNpSWpS_NlvOouWZpS2CE7qgXWEtXhvI4aNa6F3Onlc3sIcvHmojc955ldZo3qoxaMk3rF7_eFldTqRHRkwrORy26gOr_-TKgcYzmfDSgXdj_bB2eTWwk5z60Ksh-PZ8Iw5-gcGEvpCuK5_Ilr2eC01DqPiyv4torvtBTPvhPIqcP6ZCzf3DUxU6DKkbo6ULoNUOzHwLu8frX8ZNkTFDx9wVDjJF7R7lCfhA9oeIkkjTfV1_uJ6jKkb6iJ95aEi_mkuCPiiZB0y73MiTiOPei3t5_HIqaZzQE3FfUNhslNutRujTtOuPqGvKs0AH7XWq8JsytdReoIZA5CS6gdVwFCNaqc2k0EOOhogMFpsuTfrLjj_nj_GC0?></g></svg>