<svg xmlns="http://www.w3.org/2000/svg" xmlns:xlink="http://www.w3.org/1999/xlink" contentStyleType="text/css" data-diagram-type="SEQUENCE" height="1122px" preserveAspectRatio="none" style="width:960px;height:1122px;background:#FFFFFF;" version="1.1" viewBox="0 0 960 1122" width="960px" zoomAndPan="magnify"><?plantuml 1.2026.6?><defs/><g><rect fill="#FEFCFF" height="1096.3438" style="stroke:#181818;stroke-width:0.5;" width="102.1934" x="159.083" y="11"/><text fill="#000000" font-family="Helvetica" font-size="10" font-weight="700" x="191.3101" y="20.2822">Device</text><rect fill="#E6E6FA" height="1079.7031" style="stroke:#181818;stroke-width:0.5;" width="102.1934" x="159.083" y="27.6406"/><text fill="#000000" font-family="Helvetica" font-size="10" font-weight="700" x="171.083" y="36.9229">Prim&#228;rsystem</text><rect fill="#EDFDEC" height="1096.3438" style="stroke:#181818;stroke-width:0.5;" width="468.2129" x="475.6465" y="11"/><text fill="#000000" font-family="Helvetica" font-size="10" font-weight="700" x="647.8608" y="20.2822">Anbieter TI 2.0 Dienst</text><rect fill="#FFF3E5" height="1079.7031" style="stroke:#181818;stroke-width:0.5;" width="468.2129" x="475.6465" y="27.6406"/><text fill="#000000" font-family="Helvetica" font-size="10" font-weight="700" x="676.6084" y="36.9229">ZETA Guard</text><g><title>Konnektor or</title><rect fill="#000000" fill-opacity="0.00000" height="981.5" width="8" x="45.9268" y="81.5625"/><line style="stroke:#000000;stroke-width:0.5;stroke-dasharray:5,5;" x1="49.4268" x2="49.4268" y1="81.5625" y2="1063.0625"/></g><g><title/><rect fill="#FFFFFF" height="25.6406" style="stroke:#181818;stroke-width:1;" width="10" x="44.4268" y="173.4844"/></g><g><title>SM.C.-B</title><rect fill="#000000" fill-opacity="0.00000" height="981.5" width="8" x="122.4683" y="81.5625"/><line style="stroke:#000000;stroke-width:0.5;stroke-dasharray:5,5;" x1="125.9683" x2="125.9683" y1="81.5625" y2="1063.0625"/></g><g><title>ZETA Client</title><rect fill="#000000" fill-opacity="0.00000" height="981.5" width="8" x="206.6797" y="81.5625"/><line style="stroke:#000000;stroke-width:0.5;stroke-dasharray:5,5;" x1="210.1797" x2="210.1797" y1="81.5625" y2="1063.0625"/></g><g><title/><rect fill="#FFFFFF" height="973.5" style="stroke:#181818;stroke-width:1;" width="10" x="205.1797" y="89.5625"/></g><g><title>PDP</title><rect fill="#000000" fill-opacity="0.00000" height="981.5" width="8" x="534.6211" y="81.5625"/><line style="stroke:#000000;stroke-width:0.5;stroke-dasharray:5,5;" x1="538.1211" x2="538.1211" y1="81.5625" y2="1063.0625"/></g><g><title/><rect fill="#FFFFFF" height="622.4531" style="stroke:#181818;stroke-width:1;" width="10" x="533.1211" y="339.3281"/></g><g><title>PDP</title><rect fill="#000000" fill-opacity="0.00000" height="981.5" width="8" x="896.0732" y="81.5625"/><line style="stroke:#000000;stroke-width:0.5;stroke-dasharray:5,5;" x1="899.5732" x2="899.5732" y1="81.5625" y2="1063.0625"/></g><g><title/><rect fill="#FFFFFF" height="25.6406" style="stroke:#181818;stroke-width:1;" width="10" x="894.5732" y="653.375"/></g><rect fill="#E4E4F4" height="37.2813" rx="2.5" ry="2.5" style="stroke:#181818;stroke-width:0.5;" width="78.8535" x="10" y="43.2813"/><text fill="#000000" font-family="Helvetica" font-size="10" x="17" y="59.5635">Konnektor or</text><text fill="#000000" font-family="Helvetica" font-size="10" x="21.0063" y="71.2041">TI-Gateway</text><rect fill="#E4E4F4" height="25.6406" rx="2.5" ry="2.5" style="stroke:#181818;stroke-width:0.5;" width="54.2295" x="98.8535" y="54.9219"/><text fill="#000000" font-family="Helvetica" font-size="10" x="105.8535" y="71.2041">SM(C)-B</text><rect fill="#FFE6CC" height="25.6406" rx="2.5" ry="2.5" style="stroke:#D79B00;stroke-width:0.5;" width="72.2471" x="174.0562" y="54.9219"/><text fill="#000000" font-family="Helvetica" font-size="10" x="181.0562" y="71.2041">ZETA Client</text><rect fill="#FFE6CC" height="37.2813" rx="2.5" ry="2.5" style="stroke:#D79B00;stroke-width:0.5;" width="116.9492" x="479.6465" y="43.2813"/><text fill="#000000" font-family="Helvetica" font-size="10" x="528.2407" y="59.5635">PDP</text><text fill="#000000" font-family="Helvetica" font-size="10" x="486.6465" y="71.2041">Authorization Server</text><rect fill="#FFE6CC" height="37.2813" rx="2.5" ry="2.5" style="stroke:#D79B00;stroke-width:0.5;" width="80.5723" x="859.2871" y="43.2813"/><text fill="#000000" font-family="Helvetica" font-size="10" x="889.6929" y="59.5635">PDP</text><text fill="#000000" font-family="Helvetica" font-size="10" x="866.2871" y="71.2041">Policy Engine</text><rect fill="#E4E4F4" height="37.2813" rx="2.5" ry="2.5" style="stroke:#181818;stroke-width:0.5;" width="78.8535" x="10" y="1063.0625"/><text fill="#000000" font-family="Helvetica" font-size="10" x="17" y="1079.3447">Konnektor or</text><text fill="#000000" font-family="Helvetica" font-size="10" x="21.0063" y="1090.9854">TI-Gateway</text><rect fill="#E4E4F4" height="25.6406" rx="2.5" ry="2.5" style="stroke:#181818;stroke-width:0.5;" width="54.2295" x="98.8535" y="1063.0625"/><text fill="#000000" font-family="Helvetica" font-size="10" x="105.8535" y="1079.3447">SM(C)-B</text><rect fill="#FFE6CC" height="25.6406" rx="2.5" ry="2.5" style="stroke:#D79B00;stroke-width:0.5;" width="72.2471" x="174.0562" y="1063.0625"/><text fill="#000000" font-family="Helvetica" font-size="10" x="181.0562" y="1079.3447">ZETA Client</text><rect fill="#FFE6CC" height="37.2813" rx="2.5" ry="2.5" style="stroke:#D79B00;stroke-width:0.5;" width="116.9492" x="479.6465" y="1063.0625"/><text fill="#000000" font-family="Helvetica" font-size="10" x="528.2407" y="1079.3447">PDP</text><text fill="#000000" font-family="Helvetica" font-size="10" x="486.6465" y="1090.9854">Authorization Server</text><rect fill="#FFE6CC" height="37.2813" rx="2.5" ry="2.5" style="stroke:#D79B00;stroke-width:0.5;" width="80.5723" x="859.2871" y="1063.0625"/><text fill="#000000" font-family="Helvetica" font-size="10" x="889.6929" y="1079.3447">PDP</text><text fill="#000000" font-family="Helvetica" font-size="10" x="866.2871" y="1090.9854">Policy Engine</text><line style="stroke:#181818;stroke-width:1;" x1="215.1797" x2="257.1797" y1="107.2031" y2="107.2031"/><line style="stroke:#181818;stroke-width:1;" x1="257.1797" x2="257.1797" y1="107.2031" y2="120.2031"/><line style="stroke:#181818;stroke-width:1;" x1="216.1797" x2="257.1797" y1="120.2031" y2="120.2031"/><polygon fill="#181818" points="226.1797,116.2031,216.1797,120.2031,226.1797,124.2031,222.1797,120.2031" style="stroke:#181818;stroke-width:1;stroke-linejoin:miter;stroke-miterlimit:10;"/><text fill="#000000" font-family="Helvetica" font-size="10" x="222.1797" y="102.8447">(01)</text><text fill="#000000" font-family="Helvetica" font-size="10" x="246.707" y="102.8447">Generiere subject_token</text><path d="M28.4268,132.2031 L258.8711,132.2031 L258.8711,135.8438 L248.8711,145.8438 L28.4268,145.8438 L28.4268,132.2031" fill="#EEEEEE" style="stroke:#000000;stroke-width:1.5;"/><rect fill="none" height="74.9219" style="stroke:#000000;stroke-width:1.5;" width="246.4443" x="28.4268" y="132.2031"/><text fill="#000000" font-family="Helvetica" font-size="10" font-weight="700" x="43.4268" y="142.4854">Sign Subject Token with SM(C)-B</text><polygon fill="#181818" points="65.4268,169.4844,55.4268,173.4844,65.4268,177.4844,61.4268,173.4844" style="stroke:#181818;stroke-width:1;stroke-linejoin:miter;stroke-miterlimit:10;"/><line style="stroke:#181818;stroke-width:1;" x1="59.4268" x2="204.1797" y1="173.4844" y2="173.4844"/><text fill="#000000" font-family="Helvetica" font-size="10" x="71.4268" y="169.126">(02)</text><text fill="#000000" font-family="Helvetica" font-size="10" x="95.9541" y="169.126">&#160;</text><polygon fill="#181818" points="193.1797,195.125,203.1797,199.125,193.1797,203.125,197.1797,199.125" style="stroke:#181818;stroke-width:1;stroke-linejoin:miter;stroke-miterlimit:10;"/><line style="stroke:#181818;stroke-width:1;stroke-dasharray:2,2;" x1="54.4268" x2="199.1797" y1="199.125" y2="199.125"/><text fill="#000000" font-family="Helvetica" font-size="10" x="61.4268" y="194.7666">(03)</text><text fill="#000000" font-family="Helvetica" font-size="10" x="85.9541" y="194.7666">&#160;</text><line style="stroke:#181818;stroke-width:1;" x1="215.1797" x2="257.1797" y1="238.7656" y2="238.7656"/><line style="stroke:#181818;stroke-width:1;" x1="257.1797" x2="257.1797" y1="238.7656" y2="251.7656"/><line style="stroke:#181818;stroke-width:1;" x1="216.1797" x2="257.1797" y1="251.7656" y2="251.7656"/><polygon fill="#181818" points="226.1797,247.7656,216.1797,251.7656,226.1797,255.7656,222.1797,251.7656" style="stroke:#181818;stroke-width:1;stroke-linejoin:miter;stroke-miterlimit:10;"/><text fill="#000000" font-family="Helvetica" font-size="10" x="222.1797" y="234.4072">(04)</text><text fill="#000000" font-family="Helvetica" font-size="10" x="246.707" y="234.4072">Create DPoP Key Pair (PrK.DPoP.Sig, PuK.DPoP.Sig)</text><path d="M513.6289,226.125 L513.6289,247.125 L739.6289,247.125 L739.6289,236.125 L729.6289,226.125 L513.6289,226.125" fill="#FEFFDD" style="stroke:#181818;stroke-width:0.5;"/><path d="M729.6289,226.125 L729.6289,236.125 L739.6289,236.125 L729.6289,226.125" fill="#FEFFDD" style="stroke:#181818;stroke-width:0.5;"/><text fill="#000000" font-family="Helvetica" font-size="10" x="519.6289" y="240.4072">Session-based Key Pair for DPoP binding.</text><line style="stroke:#181818;stroke-width:1;" x1="215.1797" x2="257.1797" y1="277.4063" y2="277.4063"/><line style="stroke:#181818;stroke-width:1;" x1="257.1797" x2="257.1797" y1="277.4063" y2="290.4063"/><line style="stroke:#181818;stroke-width:1;" x1="216.1797" x2="257.1797" y1="290.4063" y2="290.4063"/><polygon fill="#181818" points="226.1797,286.4063,216.1797,290.4063,226.1797,294.4063,222.1797,290.4063" style="stroke:#181818;stroke-width:1;stroke-linejoin:miter;stroke-miterlimit:10;"/><text fill="#000000" font-family="Helvetica" font-size="10" x="222.1797" y="273.0479">(05)</text><text fill="#000000" font-family="Helvetica" font-size="10" x="246.707" y="273.0479">Create DPoP Proof (with Nonce from AuthS)</text><polygon fill="#181818" points="521.1211,335.3281,531.1211,339.3281,521.1211,343.3281,525.1211,339.3281" style="stroke:#181818;stroke-width:1;stroke-linejoin:miter;stroke-miterlimit:10;"/><line style="stroke:#181818;stroke-width:1;" x1="215.1797" x2="527.1211" y1="339.3281" y2="339.3281"/><text fill="#000000" font-family="Helvetica" font-size="10" x="222.1797" y="323.3291">(06)</text><text fill="#000000" font-family="Helvetica" font-size="10" x="246.707" y="311.6885">POST /token dpop: dpop_proof</text><text fill="#000000" font-family="Helvetica" font-size="10" x="246.707" y="323.3291">{client_assertion (JWT, PrK.Client.Sig signiert),</text><text fill="#000000" font-family="Helvetica" font-size="10" x="246.707" y="334.9697">subject_token (SMC-B signiert, inkl. Nonce)}</text><line style="stroke:#181818;stroke-width:1;" x1="543.1211" x2="585.1211" y1="388.25" y2="388.25"/><line style="stroke:#181818;stroke-width:1;" x1="585.1211" x2="585.1211" y1="388.25" y2="401.25"/><line style="stroke:#181818;stroke-width:1;" x1="544.1211" x2="585.1211" y1="401.25" y2="401.25"/><polygon fill="#181818" points="554.1211,397.25,544.1211,401.25,554.1211,405.25,550.1211,401.25" style="stroke:#181818;stroke-width:1;stroke-linejoin:miter;stroke-miterlimit:10;"/><text fill="#000000" font-family="Helvetica" font-size="10" x="550.1211" y="372.251">(07)</text><text fill="#000000" font-family="Helvetica" font-size="10" x="574.6484" y="360.6104">Validate Request (Client Assertion, DPoP Proof,</text><text fill="#000000" font-family="Helvetica" font-size="10" x="574.6484" y="372.251">Subject Token, Nonce and Key bindings from DCR,</text><text fill="#000000" font-family="Helvetica" font-size="10" x="574.6484" y="383.8916">Sperrstatus (OCSP) der SM(C)-B)</text><path d="M522.1211,413.25 L582.0771,413.25 L582.0771,416.8906 L572.0771,426.8906 L522.1211,426.8906 L522.1211,413.25" fill="#EEEEEE" style="stroke:#000000;stroke-width:1.5;"/><rect fill="none" height="142.2031" style="stroke:#000000;stroke-width:1.5;" width="393.4521" x="522.1211" y="413.25"/><text fill="#000000" font-family="Helvetica" font-size="10" font-weight="700" x="537.1211" y="423.5322">alt</text><text fill="#000000" font-family="Helvetica" font-size="10" font-weight="700" x="597.0771" y="424.5322">[TPM Attestation (Windows / Linux)]</text><line style="stroke:#000000;stroke-width:1;stroke-dasharray:2,2;" x1="522.1211" x2="915.5732" y1="498.1719" y2="498.1719"/><text fill="#000000" font-family="Helvetica" font-size="10" font-weight="700" x="527.1211" y="509.4541">[macOS Attestation (Secure Enclave)]</text><line style="stroke:#181818;stroke-width:1;" x1="543.1211" x2="585.1211" y1="466.1719" y2="466.1719"/><line style="stroke:#181818;stroke-width:1;" x1="585.1211" x2="585.1211" y1="466.1719" y2="479.1719"/><line style="stroke:#181818;stroke-width:1;" x1="544.1211" x2="585.1211" y1="479.1719" y2="479.1719"/><polygon fill="#181818" points="554.1211,475.1719,544.1211,479.1719,554.1211,483.1719,550.1211,479.1719" style="stroke:#181818;stroke-width:1;stroke-linejoin:miter;stroke-miterlimit:10;"/><text fill="#000000" font-family="Helvetica" font-size="10" x="550.1211" y="455.9932">(08)</text><text fill="#000000" font-family="Helvetica" font-size="10" x="574.6484" y="450.1729">Verifiziere Hardware-Signatur (Quote) gegen extrahierte Nonce</text><text fill="#000000" font-family="Helvetica" font-size="10" x="574.6484" y="461.8135">PCR-Replay via Event Log</text><line style="stroke:#181818;stroke-width:1;" x1="543.1211" x2="585.1211" y1="534.4531" y2="534.4531"/><line style="stroke:#181818;stroke-width:1;" x1="585.1211" x2="585.1211" y1="534.4531" y2="547.4531"/><line style="stroke:#181818;stroke-width:1;" x1="544.1211" x2="585.1211" y1="547.4531" y2="547.4531"/><polygon fill="#181818" points="554.1211,543.4531,544.1211,547.4531,554.1211,551.4531,550.1211,547.4531" style="stroke:#181818;stroke-width:1;stroke-linejoin:miter;stroke-miterlimit:10;"/><text fill="#000000" font-family="Helvetica" font-size="10" x="550.1211" y="530.0947">(09)</text><text fill="#000000" font-family="Helvetica" font-size="10" x="574.6484" y="530.0947">Pr&#252;fe Signaturen und counter (Replay-Schutz)</text><path d="M156.1797,573.4531 L216.1357,573.4531 L216.1357,577.0938 L206.1357,587.0938 L156.1797,587.0938 L156.1797,573.4531" fill="#EEEEEE" style="stroke:#000000;stroke-width:1.5;"/><rect fill="none" height="465.6094" style="stroke:#000000;stroke-width:1.5;" width="764.3936" x="156.1797" y="573.4531"/><text fill="#000000" font-family="Helvetica" font-size="10" font-weight="700" x="171.1797" y="583.7354">alt</text><text fill="#000000" font-family="Helvetica" font-size="10" font-weight="700" x="231.1357" y="584.7354">[Validation successful]</text><line style="stroke:#000000;stroke-width:1;stroke-dasharray:2,2;" x1="156.1797" x2="920.5732" y1="994.7813" y2="994.7813"/><text fill="#000000" font-family="Helvetica" font-size="10" font-weight="700" x="161.1797" y="1006.0635">[Validation fehlerhaft]</text><line style="stroke:#181818;stroke-width:1;" x1="543.1211" x2="585.1211" y1="614.7344" y2="614.7344"/><line style="stroke:#181818;stroke-width:1;" x1="585.1211" x2="585.1211" y1="614.7344" y2="627.7344"/><line style="stroke:#181818;stroke-width:1;" x1="544.1211" x2="585.1211" y1="627.7344" y2="627.7344"/><polygon fill="#181818" points="554.1211,623.7344,544.1211,627.7344,554.1211,631.7344,550.1211,627.7344" style="stroke:#181818;stroke-width:1;stroke-linejoin:miter;stroke-miterlimit:10;"/><text fill="#000000" font-family="Helvetica" font-size="10" x="550.1211" y="610.376">(10)</text><text fill="#000000" font-family="Helvetica" font-size="10" x="574.6484" y="610.376">Policy Engine Input erstellen</text><polygon fill="#181818" points="882.5732,649.375,892.5732,653.375,882.5732,657.375,886.5732,653.375" style="stroke:#181818;stroke-width:1;stroke-linejoin:miter;stroke-miterlimit:10;"/><line style="stroke:#181818;stroke-width:1;" x1="543.1211" x2="888.5732" y1="653.375" y2="653.375"/><text fill="#000000" font-family="Helvetica" font-size="10" x="550.1211" y="649.0166">(11)</text><text fill="#000000" font-family="Helvetica" font-size="10" x="574.6484" y="649.0166">POST /v1/data/authz {Policy Engine Input}</text><polygon fill="#181818" points="554.1211,675.0156,544.1211,679.0156,554.1211,683.0156,550.1211,679.0156" style="stroke:#181818;stroke-width:1;stroke-linejoin:miter;stroke-miterlimit:10;"/><line style="stroke:#181818;stroke-width:1;stroke-dasharray:2,2;" x1="548.1211" x2="893.5732" y1="679.0156" y2="679.0156"/><text fill="#000000" font-family="Helvetica" font-size="10" x="560.1211" y="674.6572">(12)</text><text fill="#000000" font-family="Helvetica" font-size="10" x="584.6484" y="674.6572">Policy Decision</text><path d="M175.1797,691.0156 L235.1357,691.0156 L235.1357,694.6563 L225.1357,704.6563 L175.1797,704.6563 L175.1797,691.0156" fill="#EEEEEE" style="stroke:#000000;stroke-width:1.5;"/><rect fill="none" height="278.7656" style="stroke:#000000;stroke-width:1.5;" width="711.0479" x="175.1797" y="691.0156"/><text fill="#000000" font-family="Helvetica" font-size="10" font-weight="700" x="190.1797" y="701.2979">alt</text><text fill="#000000" font-family="Helvetica" font-size="10" font-weight="700" x="250.1357" y="702.2979">[Policy Decision allow]</text><line style="stroke:#000000;stroke-width:1;stroke-dasharray:2,2;" x1="175.1797" x2="886.2275" y1="925.5" y2="925.5"/><text fill="#000000" font-family="Helvetica" font-size="10" font-weight="700" x="180.1797" y="936.7822">[Policy Decision deny]</text><line style="stroke:#181818;stroke-width:1;" x1="543.1211" x2="585.1211" y1="732.2969" y2="732.2969"/><line style="stroke:#181818;stroke-width:1;" x1="585.1211" x2="585.1211" y1="732.2969" y2="745.2969"/><line style="stroke:#181818;stroke-width:1;" x1="544.1211" x2="585.1211" y1="745.2969" y2="745.2969"/><polygon fill="#181818" points="554.1211,741.2969,544.1211,745.2969,554.1211,749.2969,550.1211,745.2969" style="stroke:#181818;stroke-width:1;stroke-linejoin:miter;stroke-miterlimit:10;"/><text fill="#000000" font-family="Helvetica" font-size="10" x="550.1211" y="727.9385">(13)</text><text fill="#000000" font-family="Helvetica" font-size="10" x="574.6484" y="727.9385">Create Token (Access Token, Refresh Token)</text><path d="M194.1797,757.2969 L254.1357,757.2969 L254.1357,760.9375 L244.1357,770.9375 L194.1797,770.9375 L194.1797,757.2969" fill="#EEEEEE" style="stroke:#000000;stroke-width:1.5;"/><rect fill="none" height="143.2031" style="stroke:#000000;stroke-width:1.5;" width="667.0479" x="194.1797" y="757.2969"/><text fill="#000000" font-family="Helvetica" font-size="10" font-weight="700" x="209.1797" y="767.5791">alt</text><text fill="#000000" font-family="Helvetica" font-size="10" font-weight="700" x="269.1357" y="768.5791">[Hardware Attestation  (TPM / SE)]</text><line style="stroke:#000000;stroke-width:1;stroke-dasharray:2,2;" x1="194.1797" x2="861.2275" y1="856.2188" y2="856.2188"/><text fill="#000000" font-family="Helvetica" font-size="10" font-weight="700" x="199.1797" y="867.501">[Software Attestation (Fallback)]</text><line style="stroke:#181818;stroke-width:1;" x1="543.1211" x2="585.1211" y1="798.5781" y2="798.5781"/><line style="stroke:#181818;stroke-width:1;" x1="585.1211" x2="585.1211" y1="798.5781" y2="811.5781"/><line style="stroke:#181818;stroke-width:1;" x1="544.1211" x2="585.1211" y1="811.5781" y2="811.5781"/><polygon fill="#181818" points="554.1211,807.5781,544.1211,811.5781,554.1211,815.5781,550.1211,811.5781" style="stroke:#181818;stroke-width:1;stroke-linejoin:miter;stroke-miterlimit:10;"/><text fill="#000000" font-family="Helvetica" font-size="10" x="550.1211" y="794.2197">(14)</text><text fill="#000000" font-family="Helvetica" font-size="10" x="574.6484" y="794.2197">Create ZETA Guard Attestation Token (zg_att_token)</text><polygon fill="#181818" points="226.1797,833.2188,216.1797,837.2188,226.1797,841.2188,222.1797,837.2188" style="stroke:#181818;stroke-width:1;stroke-linejoin:miter;stroke-miterlimit:10;"/><line style="stroke:#181818;stroke-width:1;stroke-dasharray:2,2;" x1="220.1797" x2="532.1211" y1="837.2188" y2="837.2188"/><text fill="#000000" font-family="Helvetica" font-size="10" x="232.1797" y="832.8604">(15)</text><text fill="#000000" font-family="Helvetica" font-size="10" x="256.707" y="832.8604">200 OK {Access Token, Refresh Token, zg_att_token}</text><polygon fill="#181818" points="226.1797,888.5,216.1797,892.5,226.1797,896.5,222.1797,892.5" style="stroke:#181818;stroke-width:1;stroke-linejoin:miter;stroke-miterlimit:10;"/><line style="stroke:#181818;stroke-width:1;stroke-dasharray:2,2;" x1="220.1797" x2="532.1211" y1="892.5" y2="892.5"/><text fill="#000000" font-family="Helvetica" font-size="10" x="232.1797" y="888.1416">(16)</text><text fill="#000000" font-family="Helvetica" font-size="10" x="256.707" y="888.1416">200 OK {Access Token, Refresh Token}</text><polygon fill="#181818" points="226.1797,957.7813,216.1797,961.7813,226.1797,965.7813,222.1797,961.7813" style="stroke:#181818;stroke-width:1;stroke-linejoin:miter;stroke-miterlimit:10;"/><line style="stroke:#181818;stroke-width:1;stroke-dasharray:2,2;" x1="220.1797" x2="532.1211" y1="961.7813" y2="961.7813"/><text fill="#000000" font-family="Helvetica" font-size="10" x="232.1797" y="957.4229">(17)</text><text fill="#000000" font-family="Helvetica" font-size="10" x="256.707" y="957.4229">403 Forbidden {"reasons": [""...]}</text><polygon fill="#181818" points="226.1797,1027.0625,216.1797,1031.0625,226.1797,1035.0625,222.1797,1031.0625" style="stroke:#181818;stroke-width:1;stroke-linejoin:miter;stroke-miterlimit:10;"/><line style="stroke:#181818;stroke-width:1;stroke-dasharray:2,2;" x1="220.1797" x2="537.1211" y1="1031.0625" y2="1031.0625"/><text fill="#000000" font-family="Helvetica" font-size="10" x="232.1797" y="1026.7041">(18)</text><text fill="#000000" font-family="Helvetica" font-size="10" x="256.707" y="1026.7041">403 Forbidden {"reasons": [""...]}</text><?plantuml-src hLJRSk9647tNLtJq4gcCXBF94xNbAWnQXzWO1H5l9N6A6aG34uiPTZJYvlBVv3FojZ-Mdf6uhLdd8Na1pQNFETrzfh_X8isACK8OrXV5F0iojf653lLQEuxpBMYkCuI1V481qJgTCJ55M74zWwRMc6kckHIEis1AyvGlcD1mAuN09oqLi1pSmqggHp7e13TCuufjNBYBEiDMhnltxgFx0NtTzVedE4dtsY8aNQ_b1zVd0qPo3MuRbpn55zhHGwSLLIS0zYnMVFxvBvLlSerp5-9-fzkC-icloI3gxcy271EtCexqPxX_YmRDQkt2-_TRrEpgYW9GZ0syi_ilTJJ5YAD61OCEl0ileKrnkJQalOTEE-gVAhFODmLJOnVCz_3cbsQ__HLDpKBF4YifRiUFmYobubjRVaXGBL6T23oDxiNDGsmiCvvk819JBl3jhChCBowg3mYkgc8qu0O5AeuA8Iz6VsAgXzgOn76cIXOBIFYKT9KdbNsiQwfcMeK7q8D9YCiS7JQ2FITzGWECEEUL7ZfeAIHdGJkMCTpY1cB65NYnkWtDLaY2QX0NXvNl24dt5P_EA9q4yvnA6OnOZkD3_8GKMCGH5sCkfk6_KiTAoWbuDjbxALA4YPBpid_-KR3TkBXeGDnB1b2tnOFnGYuQzdUuC3YFuZcr4KEMvwXiixsVFWue4ygh13EvG4xbfcPel_OeJle1Nj9j1TVx2pNWuYaBIsd-Y-EKnje9Qi03o_ZOPDF7JmKzSF0gpSsTWjfHeaHtqkHQbJCJPH6hikLb4TgjlWbOe59cSXGvUBrM4limfZTJESDtM4PWSVTum83taO3aAeSwt75Hh7thabVQoP4JlhMk_97UrOef38mJYOkyy7D13VTXYbEg2wwrOZDJ4YmrqyDezOC-BcW2mf8pY9OcxJivTJ3B4UOixIMdeX9C2wAAQ8Io9PxN5AlFVqyGTYg8kQ3QfB8GPb1u9L-GfBD2RtrhRfD_rGN3aXTfIkQS5Dbv_EFN31snA3GWbHUpZ5xZIGHDWOFXbj_LYO3L6PrkuVaCp8kDDgCZsD45mPwmZIdFxUmtjupcBmveBvChUtfET_Lcoj7WDMsEEm_rSQ8mdvLBVmzXI7PjFMa4UCOlTKYYm-KtE0-3zmIbahAT3fckNizPkACX-Exo4dgtyFo6_1eS0xxi0Qsd4ZdHhxBnFb3bHYnz-X_OZ_Z8MNlUBrirHh5nlaPaclx3vVVmGQeH7zDLU7QfaBaKkTk0trqt3CC_IY93OWcE_3l1MOPgnYRQ-G_e1laV?></g></svg>