<svg xmlns="http://www.w3.org/2000/svg" xmlns:xlink="http://www.w3.org/1999/xlink" contentStyleType="text/css" data-diagram-type="SEQUENCE" height="588px" preserveAspectRatio="none" style="width:1056px;height:588px;background:#FFFFFF;" version="1.1" viewBox="0 0 1056 588" width="1056px" zoomAndPan="magnify"><?plantuml 1.2026.6?><defs/><g><rect fill="#FEFCFF" height="562.4531" style="stroke:#181818;stroke-width:0.5;" width="103.3066" x="187.208" y="11"/><text fill="#000000" font-family="Helvetica" font-size="10" font-weight="700" x="199.208" y="20.2822">mobile Device</text><rect fill="#E6E6FA" height="545.8125" style="stroke:#181818;stroke-width:0.5;" width="103.3066" x="187.208" y="27.6406"/><text fill="#000000" font-family="Helvetica" font-size="10" font-weight="700" x="227.8335" y="36.9229">App</text><rect fill="#EDFDEC" height="562.4531" style="stroke:#181818;stroke-width:0.5;" width="147.7842" x="654.7563" y="11"/><text fill="#000000" font-family="Helvetica" font-size="10" font-weight="700" x="666.7563" y="20.2822">Anbieter TI 2.0 Dienst</text><rect fill="#FFF3E5" height="545.8125" style="stroke:#181818;stroke-width:0.5;" width="147.7842" x="654.7563" y="27.6406"/><text fill="#000000" font-family="Helvetica" font-size="10" font-weight="700" x="695.5039" y="36.9229">ZETA Guard</text><g><title>Nutzer</title><rect fill="#000000" fill-opacity="0.00000" height="380.8906" width="8" x="26.126" y="114.9219"/><line style="stroke:#000000;stroke-width:0.5;stroke-dasharray:5,5;" x1="29.626" x2="29.626" y1="114.9219" y2="495.8125"/></g><g><title>ZETA Client</title><rect fill="#000000" fill-opacity="0.00000" height="380.8906" width="8" x="235.3613" y="114.9219"/><line style="stroke:#000000;stroke-width:0.5;stroke-dasharray:5,5;" x1="238.8613" x2="238.8613" y1="114.9219" y2="495.8125"/></g><g><title/><rect fill="#FFFFFF" height="372.8906" style="stroke:#181818;stroke-width:1;" width="10" x="233.8613" y="122.9219"/></g><g><title>PDP</title><rect fill="#000000" fill-opacity="0.00000" height="380.8906" width="8" x="725.1484" y="114.9219"/><line style="stroke:#000000;stroke-width:0.5;stroke-dasharray:5,5;" x1="728.6484" x2="728.6484" y1="114.9219" y2="495.8125"/></g><g><title/><rect fill="#FFFFFF" height="140.2031" style="stroke:#181818;stroke-width:1;" width="10" x="723.6484" y="210.4063"/></g><g><title/><rect fill="#FFFFFF" height="64.2813" style="stroke:#181818;stroke-width:1;" width="10" x="723.6484" y="413.5313"/></g><text fill="#000000" font-family="Helvetica" font-size="10" x="10" y="112.5635">Nutzer</text><ellipse cx="29.626" cy="51.7813" fill="#E2E2F0" rx="8" ry="8" style="stroke:#181818;stroke-width:0.5;"/><path d="M29.626,59.7813 L29.626,86.7813 M16.626,67.7813 L42.626,67.7813 M29.626,86.7813 L16.626,101.7813 M29.626,86.7813 L42.626,101.7813" fill="none" style="stroke:#181818;stroke-width:0.5;"/><rect fill="#FFE6CC" height="25.6406" rx="2.5" ry="2.5" style="stroke:#D79B00;stroke-width:0.5;" width="72.2471" x="202.7378" y="88.2813"/><text fill="#000000" font-family="Helvetica" font-size="10" x="209.7378" y="104.5635">ZETA Client</text><rect fill="#FFE6CC" height="37.2813" rx="2.5" ry="2.5" style="stroke:#D79B00;stroke-width:0.5;" width="116.9492" x="670.1738" y="76.6406"/><text fill="#000000" font-family="Helvetica" font-size="10" x="718.7681" y="92.9229">PDP</text><text fill="#000000" font-family="Helvetica" font-size="10" x="677.1738" y="104.5635">Authorization Server</text><text fill="#000000" font-family="Helvetica" font-size="10" x="10" y="565.0947">Nutzer</text><ellipse cx="29.626" cy="504.3125" fill="#E2E2F0" rx="8" ry="8" style="stroke:#181818;stroke-width:0.5;"/><path d="M29.626,512.3125 L29.626,539.3125 M16.626,520.3125 L42.626,520.3125 M29.626,539.3125 L16.626,554.3125 M29.626,539.3125 L42.626,554.3125" fill="none" style="stroke:#181818;stroke-width:0.5;"/><rect fill="#FFE6CC" height="25.6406" rx="2.5" ry="2.5" style="stroke:#D79B00;stroke-width:0.5;" width="72.2471" x="202.7378" y="495.8125"/><text fill="#000000" font-family="Helvetica" font-size="10" x="209.7378" y="512.0947">ZETA Client</text><rect fill="#FFE6CC" height="37.2813" rx="2.5" ry="2.5" style="stroke:#D79B00;stroke-width:0.5;" width="116.9492" x="670.1738" y="495.8125"/><text fill="#000000" font-family="Helvetica" font-size="10" x="718.7681" y="512.0947">PDP</text><text fill="#000000" font-family="Helvetica" font-size="10" x="677.1738" y="523.7354">Authorization Server</text><polygon fill="#181818" points="711.6484,206.4063,721.6484,210.4063,711.6484,214.4063,715.6484,210.4063" style="stroke:#181818;stroke-width:1;stroke-linejoin:miter;stroke-miterlimit:10;"/><line style="stroke:#181818;stroke-width:1;" x1="243.8613" x2="717.6484" y1="210.4063" y2="210.4063"/><text fill="#000000" font-family="Helvetica" font-size="10" x="250.8613" y="171.126">(01)</text><text fill="#000000" font-family="Helvetica" font-size="10" x="275.3887" y="136.2041">POST /register</text><text fill="#000000" font-family="Helvetica" font-size="10" x="275.3887" y="147.8447">{</text><text fill="#000000" font-family="Helvetica" font-size="10" x="281.7461" y="159.4854">"client_name": "myClient",</text><text fill="#000000" font-family="Helvetica" font-size="10" x="281.7461" y="171.126">"grant_types": ["urn:ietf:params:oauth:grant-type:token-exchange", "refresh_token"],</text><text fill="#000000" font-family="Helvetica" font-size="10" x="281.7461" y="182.7666">"jwks": { "keys": [ PuK.Client.Sig ] },</text><text fill="#000000" font-family="Helvetica" font-size="10" x="281.7461" y="194.4072">"token_endpoint_auth_method": "private_key_jwt"</text><text fill="#000000" font-family="Helvetica" font-size="10" x="275.3887" y="206.0479">}</text><line style="stroke:#181818;stroke-width:1;" x1="733.6484" x2="775.6484" y1="236.0469" y2="236.0469"/><line style="stroke:#181818;stroke-width:1;" x1="775.6484" x2="775.6484" y1="236.0469" y2="249.0469"/><line style="stroke:#181818;stroke-width:1;" x1="734.6484" x2="775.6484" y1="249.0469" y2="249.0469"/><polygon fill="#181818" points="744.6484,245.0469,734.6484,249.0469,744.6484,253.0469,740.6484,249.0469" style="stroke:#181818;stroke-width:1;stroke-linejoin:miter;stroke-miterlimit:10;"/><text fill="#000000" font-family="Helvetica" font-size="10" x="740.6484" y="231.6885">(02)</text><text fill="#000000" font-family="Helvetica" font-size="10" x="765.1758" y="231.6885">Store Client Placeholder (state: pending_user_binding)</text><line style="stroke:#181818;stroke-width:1;" x1="733.6484" x2="775.6484" y1="286.3281" y2="286.3281"/><line style="stroke:#181818;stroke-width:1;" x1="775.6484" x2="775.6484" y1="286.3281" y2="299.3281"/><line style="stroke:#181818;stroke-width:1;" x1="734.6484" x2="775.6484" y1="299.3281" y2="299.3281"/><polygon fill="#181818" points="744.6484,295.3281,734.6484,299.3281,744.6484,303.3281,740.6484,299.3281" style="stroke:#181818;stroke-width:1;stroke-linejoin:miter;stroke-miterlimit:10;"/><text fill="#000000" font-family="Helvetica" font-size="10" x="740.6484" y="276.1494">(03)</text><text fill="#000000" font-family="Helvetica" font-size="10" x="765.1758" y="270.3291">Generiere OTP &amp; transaction_id</text><text fill="#000000" font-family="Helvetica" font-size="10" x="765.1758" y="281.9697">Speichere Request im tempor&#228;ren Cache</text><polygon fill="#181818" points="40.626,320.9688,30.626,324.9688,40.626,328.9688,36.626,324.9688" style="stroke:#181818;stroke-width:1;stroke-linejoin:miter;stroke-miterlimit:10;"/><line style="stroke:#181818;stroke-width:1;" x1="34.626" x2="722.6484" y1="324.9688" y2="324.9688"/><text fill="#000000" font-family="Helvetica" font-size="10" x="46.626" y="320.6104">(04)</text><text fill="#000000" font-family="Helvetica" font-size="10" x="71.1533" y="320.6104">E-Mail mit OTP-Best&#228;tigungscode (Out-of-Band)</text><polygon fill="#181818" points="254.8613,346.6094,244.8613,350.6094,254.8613,354.6094,250.8613,350.6094" style="stroke:#181818;stroke-width:1;stroke-linejoin:miter;stroke-miterlimit:10;"/><line style="stroke:#181818;stroke-width:1;stroke-dasharray:2,2;" x1="248.8613" x2="722.6484" y1="350.6094" y2="350.6094"/><text fill="#000000" font-family="Helvetica" font-size="10" x="260.8613" y="346.251">(05)</text><text fill="#000000" font-family="Helvetica" font-size="10" x="285.3887" y="346.251">202 Accepted {transaction_id, message="OTP sent"}</text><polygon fill="#181818" points="221.8613,372.25,231.8613,376.25,221.8613,380.25,225.8613,376.25" style="stroke:#181818;stroke-width:1;stroke-linejoin:miter;stroke-miterlimit:10;"/><line style="stroke:#181818;stroke-width:1;" x1="29.626" x2="227.8613" y1="376.25" y2="376.25"/><text fill="#000000" font-family="Helvetica" font-size="10" x="36.626" y="371.8916">(06)</text><text fill="#000000" font-family="Helvetica" font-size="10" x="61.1533" y="371.8916">Gibt OTP-Best&#228;tigungscode ein</text><polygon fill="#181818" points="711.6484,409.5313,721.6484,413.5313,711.6484,417.5313,715.6484,413.5313" style="stroke:#181818;stroke-width:1;stroke-linejoin:miter;stroke-miterlimit:10;"/><line style="stroke:#181818;stroke-width:1;" x1="243.8613" x2="717.6484" y1="413.5313" y2="413.5313"/><text fill="#000000" font-family="Helvetica" font-size="10" x="250.8613" y="403.3525">(07)</text><text fill="#000000" font-family="Helvetica" font-size="10" x="275.3887" y="397.5322">POST /register/verify</text><text fill="#000000" font-family="Helvetica" font-size="10" x="275.3887" y="409.1729">{transaction_id, code}</text><line style="stroke:#181818;stroke-width:1;" x1="733.6484" x2="775.6484" y1="439.1719" y2="439.1719"/><line style="stroke:#181818;stroke-width:1;" x1="775.6484" x2="775.6484" y1="439.1719" y2="452.1719"/><line style="stroke:#181818;stroke-width:1;" x1="734.6484" x2="775.6484" y1="452.1719" y2="452.1719"/><polygon fill="#181818" points="744.6484,448.1719,734.6484,452.1719,744.6484,456.1719,740.6484,452.1719" style="stroke:#181818;stroke-width:1;stroke-linejoin:miter;stroke-miterlimit:10;"/><text fill="#000000" font-family="Helvetica" font-size="10" x="740.6484" y="434.8135">(08)</text><text fill="#000000" font-family="Helvetica" font-size="10" x="765.1758" y="434.8135">Verifiziere OTP-Code gegen Cache</text><polygon fill="#181818" points="254.8613,473.8125,244.8613,477.8125,254.8613,481.8125,250.8613,477.8125" style="stroke:#181818;stroke-width:1;stroke-linejoin:miter;stroke-miterlimit:10;"/><line style="stroke:#181818;stroke-width:1;stroke-dasharray:2,2;" x1="248.8613" x2="722.6484" y1="477.8125" y2="477.8125"/><text fill="#000000" font-family="Helvetica" font-size="10" x="260.8613" y="473.4541">(09)</text><text fill="#000000" font-family="Helvetica" font-size="10" x="285.3887" y="473.4541">201 Created {client_id, status="pending_user_binding"}</text><?plantuml-src XLF1Jjj04BtdAwPxQ4690-Le0L9838eeE8e3LTiWQsDFd2Nssbsl0mdAt_0d_5Xdrmc2AhI-U5Sp-zwRDpEVX8pIAaPejm-AAakTb2_pIhVresuqUAHp1JSbAk0biEjAhr2nHcEIFmBByeb84Ngu414ow7ct_QuNTlrl_h01O5CwHS5WCEnVTRnXy2COULUlSO22AoqYKN2fePiAf9yX-UcDEfixW-FZ5Mf-UaeFKCO6jB7zro8wSY9GaxvH7uxQXz2ZTwKsfFvjl-SDt-kns1SLLp43SmulRZh3tWUQEfMU1LRIe3SOItFDbLXnBN890Qe5MV5FWNKHpURc0CvfZTbikZ3mWn4SA4n4IUh7ycai0LXa4qF9CsGkERpS-D2oqKIHh50l2omf-ejLIhfK_DGbrJmhtPmJkckp79FbwdoEqi77QCPbWgm5JE5KOJaBROJTrRZt3tC3-0HiZaiB3OFgibrpjmEHm1siwrJxBgGAYroG5aCOPaZ6n4PleSI2Qmm99hn_q6mirmrhQstbjduN0Xeht3PzaF88PtaQKnVtIaq0BXH48MGILZHwuKJOotwDzGL6gYer-1BEXQ83ZIViZVppc_sTN1SeKGaaFdyqWC-WoP-I1fkw68fuB8C2HJGpyI7-hf00HGOQio9NByyA9NGvXTz3curmmNEkk4WX4zf0EsVqzkLPYwIIIHdbj59xVgMTVEgSSHdNuZOLrDC3rAY7N6dK5kFeyAW5CezcSEdrhptO38E8Fxqb9_RQDyTnpHFeH14M6cDuUbzP2p8iIvxW2JE5bsQErbiBlzES8_1g2lLEEnuPp2TrcNRVNtd8GJ7vg48KycrTj-JqLCph5J4rcPw-zRBVivd_NOY3XK5QqbxyNPIXNUziT4s-shRQwHg12IQlBQHljubVeQkGMmzVJM-16SMgF66xPf6S_0C0?></g></svg>