<svg xmlns="http://www.w3.org/2000/svg" xmlns:xlink="http://www.w3.org/1999/xlink" contentStyleType="text/css" data-diagram-type="SEQUENCE" height="952px" preserveAspectRatio="none" style="width:817px;height:952px;background:#FFFFFF;" version="1.1" viewBox="0 0 817 952" width="817px" zoomAndPan="magnify"><?plantuml 1.2026.6?><defs/><g><rect fill="#FEFCFF" height="926.1406" style="stroke:#181818;stroke-width:0.5;" width="102.1934" x="16" y="11"/><text fill="#000000" font-family="Helvetica" font-size="10" font-weight="700" x="48.2271" y="20.2822">Device</text><rect fill="#E6E6FA" height="909.5" style="stroke:#181818;stroke-width:0.5;" width="102.1934" x="16" y="27.6406"/><text fill="#000000" font-family="Helvetica" font-size="10" font-weight="700" x="28" y="36.9229">Prim&#228;rsystem</text><rect fill="#EDFDEC" height="926.1406" style="stroke:#181818;stroke-width:0.5;" width="468.2129" x="332.5635" y="11"/><text fill="#000000" font-family="Helvetica" font-size="10" font-weight="700" x="504.7778" y="20.2822">Anbieter TI 2.0 Dienst</text><rect fill="#FFF3E5" height="909.5" style="stroke:#181818;stroke-width:0.5;" width="468.2129" x="332.5635" y="27.6406"/><text fill="#000000" font-family="Helvetica" font-size="10" font-weight="700" x="533.5254" y="36.9229">ZETA Guard</text><g><title>ZETA Client</title><rect fill="#000000" fill-opacity="0.00000" height="811.2969" width="8" x="63.5967" y="81.5625"/><line style="stroke:#000000;stroke-width:0.5;stroke-dasharray:5,5;" x1="67.0967" x2="67.0967" y1="81.5625" y2="892.8594"/></g><g><title/><rect fill="#FFFFFF" height="803.2969" style="stroke:#181818;stroke-width:1;" width="10" x="62.0967" y="89.5625"/></g><g><title>PDP</title><rect fill="#000000" fill-opacity="0.00000" height="811.2969" width="8" x="391.5381" y="81.5625"/><line style="stroke:#000000;stroke-width:0.5;stroke-dasharray:5,5;" x1="395.0381" x2="395.0381" y1="81.5625" y2="892.8594"/></g><g><title/><rect fill="#FFFFFF" height="622.4531" style="stroke:#181818;stroke-width:1;" width="10" x="390.0381" y="169.125"/></g><g><title>PDP</title><rect fill="#000000" fill-opacity="0.00000" height="811.2969" width="8" x="752.9902" y="81.5625"/><line style="stroke:#000000;stroke-width:0.5;stroke-dasharray:5,5;" x1="756.4902" x2="756.4902" y1="81.5625" y2="892.8594"/></g><g><title/><rect fill="#FFFFFF" height="25.6406" style="stroke:#181818;stroke-width:1;" width="10" x="751.4902" y="483.1719"/></g><rect fill="#FFE6CC" height="25.6406" rx="2.5" ry="2.5" style="stroke:#D79B00;stroke-width:0.5;" width="72.2471" x="30.9731" y="54.9219"/><text fill="#000000" font-family="Helvetica" font-size="10" x="37.9731" y="71.2041">ZETA Client</text><rect fill="#FFE6CC" height="37.2813" rx="2.5" ry="2.5" style="stroke:#D79B00;stroke-width:0.5;" width="116.9492" x="336.5635" y="43.2813"/><text fill="#000000" font-family="Helvetica" font-size="10" x="385.1577" y="59.5635">PDP</text><text fill="#000000" font-family="Helvetica" font-size="10" x="343.5635" y="71.2041">Authorization Server</text><rect fill="#FFE6CC" height="37.2813" rx="2.5" ry="2.5" style="stroke:#D79B00;stroke-width:0.5;" width="80.5723" x="716.2041" y="43.2813"/><text fill="#000000" font-family="Helvetica" font-size="10" x="746.6099" y="59.5635">PDP</text><text fill="#000000" font-family="Helvetica" font-size="10" x="723.2041" y="71.2041">Policy Engine</text><rect fill="#FFE6CC" height="25.6406" rx="2.5" ry="2.5" style="stroke:#D79B00;stroke-width:0.5;" width="72.2471" x="30.9731" y="892.8594"/><text fill="#000000" font-family="Helvetica" font-size="10" x="37.9731" y="909.1416">ZETA Client</text><rect fill="#FFE6CC" height="37.2813" rx="2.5" ry="2.5" style="stroke:#D79B00;stroke-width:0.5;" width="116.9492" x="336.5635" y="892.8594"/><text fill="#000000" font-family="Helvetica" font-size="10" x="385.1577" y="909.1416">PDP</text><text fill="#000000" font-family="Helvetica" font-size="10" x="343.5635" y="920.7822">Authorization Server</text><rect fill="#FFE6CC" height="37.2813" rx="2.5" ry="2.5" style="stroke:#D79B00;stroke-width:0.5;" width="80.5723" x="716.2041" y="892.8594"/><text fill="#000000" font-family="Helvetica" font-size="10" x="746.6099" y="909.1416">PDP</text><text fill="#000000" font-family="Helvetica" font-size="10" x="723.2041" y="920.7822">Policy Engine</text><line style="stroke:#181818;stroke-width:1;" x1="72.0967" x2="114.0967" y1="107.2031" y2="107.2031"/><line style="stroke:#181818;stroke-width:1;" x1="114.0967" x2="114.0967" y1="107.2031" y2="120.2031"/><line style="stroke:#181818;stroke-width:1;" x1="73.0967" x2="114.0967" y1="120.2031" y2="120.2031"/><polygon fill="#181818" points="83.0967,116.2031,73.0967,120.2031,83.0967,124.2031,79.0967,120.2031" style="stroke:#181818;stroke-width:1;stroke-linejoin:miter;stroke-miterlimit:10;"/><text fill="#000000" font-family="Helvetica" font-size="10" x="79.0967" y="102.8447">(01)</text><text fill="#000000" font-family="Helvetica" font-size="10" x="103.624" y="102.8447">Create DPoP Proof (with Nonce from AuthS)</text><polygon fill="#181818" points="378.0381,165.125,388.0381,169.125,378.0381,173.125,382.0381,169.125" style="stroke:#181818;stroke-width:1;stroke-linejoin:miter;stroke-miterlimit:10;"/><line style="stroke:#181818;stroke-width:1;" x1="72.0967" x2="384.0381" y1="169.125" y2="169.125"/><text fill="#000000" font-family="Helvetica" font-size="10" x="79.0967" y="153.126">(02)</text><text fill="#000000" font-family="Helvetica" font-size="10" x="103.624" y="141.4854">POST /token dpop: dpop_proof</text><text fill="#000000" font-family="Helvetica" font-size="10" x="103.624" y="153.126">{client_assertion (JWT, PrK.Client.Sig signiert),</text><text fill="#000000" font-family="Helvetica" font-size="10" x="103.624" y="164.7666">subject_token (SMC-B signiert, inkl. Nonce)}</text><line style="stroke:#181818;stroke-width:1;" x1="400.0381" x2="442.0381" y1="218.0469" y2="218.0469"/><line style="stroke:#181818;stroke-width:1;" x1="442.0381" x2="442.0381" y1="218.0469" y2="231.0469"/><line style="stroke:#181818;stroke-width:1;" x1="401.0381" x2="442.0381" y1="231.0469" y2="231.0469"/><polygon fill="#181818" points="411.0381,227.0469,401.0381,231.0469,411.0381,235.0469,407.0381,231.0469" style="stroke:#181818;stroke-width:1;stroke-linejoin:miter;stroke-miterlimit:10;"/><text fill="#000000" font-family="Helvetica" font-size="10" x="407.0381" y="202.0479">(03)</text><text fill="#000000" font-family="Helvetica" font-size="10" x="431.5654" y="190.4072">Validate Request (Client Assertion, DPoP Proof,</text><text fill="#000000" font-family="Helvetica" font-size="10" x="431.5654" y="202.0479">Subject Token, Nonce and Key bindings from DCR,</text><text fill="#000000" font-family="Helvetica" font-size="10" x="431.5654" y="213.6885">Sperrstatus (OCSP) der SM(C)-B)</text><path d="M379.0381,243.0469 L438.9941,243.0469 L438.9941,246.6875 L428.9941,256.6875 L379.0381,256.6875 L379.0381,243.0469" fill="#EEEEEE" style="stroke:#000000;stroke-width:1.5;"/><rect fill="none" height="142.2031" style="stroke:#000000;stroke-width:1.5;" width="393.4521" x="379.0381" y="243.0469"/><text fill="#000000" font-family="Helvetica" font-size="10" font-weight="700" x="394.0381" y="253.3291">alt</text><text fill="#000000" font-family="Helvetica" font-size="10" font-weight="700" x="453.9941" y="254.3291">[TPM Attestation (Windows / Linux)]</text><line style="stroke:#000000;stroke-width:1;stroke-dasharray:2,2;" x1="379.0381" x2="772.4902" y1="327.9688" y2="327.9688"/><text fill="#000000" font-family="Helvetica" font-size="10" font-weight="700" x="384.0381" y="339.251">[macOS Attestation (Secure Enclave)]</text><line style="stroke:#181818;stroke-width:1;" x1="400.0381" x2="442.0381" y1="295.9688" y2="295.9688"/><line style="stroke:#181818;stroke-width:1;" x1="442.0381" x2="442.0381" y1="295.9688" y2="308.9688"/><line style="stroke:#181818;stroke-width:1;" x1="401.0381" x2="442.0381" y1="308.9688" y2="308.9688"/><polygon fill="#181818" points="411.0381,304.9688,401.0381,308.9688,411.0381,312.9688,407.0381,308.9688" style="stroke:#181818;stroke-width:1;stroke-linejoin:miter;stroke-miterlimit:10;"/><text fill="#000000" font-family="Helvetica" font-size="10" x="407.0381" y="285.79">(04)</text><text fill="#000000" font-family="Helvetica" font-size="10" x="431.5654" y="279.9697">Verifiziere Hardware-Signatur (Quote) gegen extrahierte Nonce</text><text fill="#000000" font-family="Helvetica" font-size="10" x="431.5654" y="291.6104">PCR-Replay via Event Log</text><line style="stroke:#181818;stroke-width:1;" x1="400.0381" x2="442.0381" y1="364.25" y2="364.25"/><line style="stroke:#181818;stroke-width:1;" x1="442.0381" x2="442.0381" y1="364.25" y2="377.25"/><line style="stroke:#181818;stroke-width:1;" x1="401.0381" x2="442.0381" y1="377.25" y2="377.25"/><polygon fill="#181818" points="411.0381,373.25,401.0381,377.25,411.0381,381.25,407.0381,377.25" style="stroke:#181818;stroke-width:1;stroke-linejoin:miter;stroke-miterlimit:10;"/><text fill="#000000" font-family="Helvetica" font-size="10" x="407.0381" y="359.8916">(05)</text><text fill="#000000" font-family="Helvetica" font-size="10" x="431.5654" y="359.8916">Pr&#252;fe Signaturen und counter (Replay-Schutz)</text><path d="M13.0967,403.25 L73.0527,403.25 L73.0527,406.8906 L63.0527,416.8906 L13.0967,416.8906 L13.0967,403.25" fill="#EEEEEE" style="stroke:#000000;stroke-width:1.5;"/><rect fill="none" height="465.6094" style="stroke:#000000;stroke-width:1.5;" width="764.3936" x="13.0967" y="403.25"/><text fill="#000000" font-family="Helvetica" font-size="10" font-weight="700" x="28.0967" y="413.5322">alt</text><text fill="#000000" font-family="Helvetica" font-size="10" font-weight="700" x="88.0527" y="414.5322">[Validation successful]</text><line style="stroke:#000000;stroke-width:1;stroke-dasharray:2,2;" x1="13.0967" x2="777.4902" y1="824.5781" y2="824.5781"/><text fill="#000000" font-family="Helvetica" font-size="10" font-weight="700" x="18.0967" y="835.8604">[Validation fehlerhaft]</text><line style="stroke:#181818;stroke-width:1;" x1="400.0381" x2="442.0381" y1="444.5313" y2="444.5313"/><line style="stroke:#181818;stroke-width:1;" x1="442.0381" x2="442.0381" y1="444.5313" y2="457.5313"/><line style="stroke:#181818;stroke-width:1;" x1="401.0381" x2="442.0381" y1="457.5313" y2="457.5313"/><polygon fill="#181818" points="411.0381,453.5313,401.0381,457.5313,411.0381,461.5313,407.0381,457.5313" style="stroke:#181818;stroke-width:1;stroke-linejoin:miter;stroke-miterlimit:10;"/><text fill="#000000" font-family="Helvetica" font-size="10" x="407.0381" y="440.1729">(06)</text><text fill="#000000" font-family="Helvetica" font-size="10" x="431.5654" y="440.1729">Policy Engine Input erstellen</text><polygon fill="#181818" points="739.4902,479.1719,749.4902,483.1719,739.4902,487.1719,743.4902,483.1719" style="stroke:#181818;stroke-width:1;stroke-linejoin:miter;stroke-miterlimit:10;"/><line style="stroke:#181818;stroke-width:1;" x1="400.0381" x2="745.4902" y1="483.1719" y2="483.1719"/><text fill="#000000" font-family="Helvetica" font-size="10" x="407.0381" y="478.8135">(07)</text><text fill="#000000" font-family="Helvetica" font-size="10" x="431.5654" y="478.8135">POST /v1/data/authz {Policy Engine Input}</text><polygon fill="#181818" points="411.0381,504.8125,401.0381,508.8125,411.0381,512.8125,407.0381,508.8125" style="stroke:#181818;stroke-width:1;stroke-linejoin:miter;stroke-miterlimit:10;"/><line style="stroke:#181818;stroke-width:1;stroke-dasharray:2,2;" x1="405.0381" x2="750.4902" y1="508.8125" y2="508.8125"/><text fill="#000000" font-family="Helvetica" font-size="10" x="417.0381" y="504.4541">(08)</text><text fill="#000000" font-family="Helvetica" font-size="10" x="441.5654" y="504.4541">Policy Decision</text><path d="M32.0967,520.8125 L92.0527,520.8125 L92.0527,524.4531 L82.0527,534.4531 L32.0967,534.4531 L32.0967,520.8125" fill="#EEEEEE" style="stroke:#000000;stroke-width:1.5;"/><rect fill="none" height="278.7656" style="stroke:#000000;stroke-width:1.5;" width="711.0479" x="32.0967" y="520.8125"/><text fill="#000000" font-family="Helvetica" font-size="10" font-weight="700" x="47.0967" y="531.0947">alt</text><text fill="#000000" font-family="Helvetica" font-size="10" font-weight="700" x="107.0527" y="532.0947">[Policy Decision allow]</text><line style="stroke:#000000;stroke-width:1;stroke-dasharray:2,2;" x1="32.0967" x2="743.1445" y1="755.2969" y2="755.2969"/><text fill="#000000" font-family="Helvetica" font-size="10" font-weight="700" x="37.0967" y="766.5791">[Policy Decision deny]</text><line style="stroke:#181818;stroke-width:1;" x1="400.0381" x2="442.0381" y1="562.0938" y2="562.0938"/><line style="stroke:#181818;stroke-width:1;" x1="442.0381" x2="442.0381" y1="562.0938" y2="575.0938"/><line style="stroke:#181818;stroke-width:1;" x1="401.0381" x2="442.0381" y1="575.0938" y2="575.0938"/><polygon fill="#181818" points="411.0381,571.0938,401.0381,575.0938,411.0381,579.0938,407.0381,575.0938" style="stroke:#181818;stroke-width:1;stroke-linejoin:miter;stroke-miterlimit:10;"/><text fill="#000000" font-family="Helvetica" font-size="10" x="407.0381" y="557.7354">(09)</text><text fill="#000000" font-family="Helvetica" font-size="10" x="431.5654" y="557.7354">Create Token (Access Token, Refresh Token)</text><path d="M51.0967,587.0938 L111.0527,587.0938 L111.0527,590.7344 L101.0527,600.7344 L51.0967,600.7344 L51.0967,587.0938" fill="#EEEEEE" style="stroke:#000000;stroke-width:1.5;"/><rect fill="none" height="143.2031" style="stroke:#000000;stroke-width:1.5;" width="667.0479" x="51.0967" y="587.0938"/><text fill="#000000" font-family="Helvetica" font-size="10" font-weight="700" x="66.0967" y="597.376">alt</text><text fill="#000000" font-family="Helvetica" font-size="10" font-weight="700" x="126.0527" y="598.376">[Hardware Attestation  (TPM / SE)]</text><line style="stroke:#000000;stroke-width:1;stroke-dasharray:2,2;" x1="51.0967" x2="718.1445" y1="686.0156" y2="686.0156"/><text fill="#000000" font-family="Helvetica" font-size="10" font-weight="700" x="56.0967" y="697.2979">[Software Attestation (Fallback)]</text><line style="stroke:#181818;stroke-width:1;" x1="400.0381" x2="442.0381" y1="628.375" y2="628.375"/><line style="stroke:#181818;stroke-width:1;" x1="442.0381" x2="442.0381" y1="628.375" y2="641.375"/><line style="stroke:#181818;stroke-width:1;" x1="401.0381" x2="442.0381" y1="641.375" y2="641.375"/><polygon fill="#181818" points="411.0381,637.375,401.0381,641.375,411.0381,645.375,407.0381,641.375" style="stroke:#181818;stroke-width:1;stroke-linejoin:miter;stroke-miterlimit:10;"/><text fill="#000000" font-family="Helvetica" font-size="10" x="407.0381" y="624.0166">(10)</text><text fill="#000000" font-family="Helvetica" font-size="10" x="431.5654" y="624.0166">Create ZETA Guard Attestation Token (zg_att_token)</text><polygon fill="#181818" points="83.0967,663.0156,73.0967,667.0156,83.0967,671.0156,79.0967,667.0156" style="stroke:#181818;stroke-width:1;stroke-linejoin:miter;stroke-miterlimit:10;"/><line style="stroke:#181818;stroke-width:1;stroke-dasharray:2,2;" x1="77.0967" x2="389.0381" y1="667.0156" y2="667.0156"/><text fill="#000000" font-family="Helvetica" font-size="10" x="89.0967" y="662.6572">(11)</text><text fill="#000000" font-family="Helvetica" font-size="10" x="113.624" y="662.6572">200 OK {Access Token, Refresh Token, zg_att_token}</text><polygon fill="#181818" points="83.0967,718.2969,73.0967,722.2969,83.0967,726.2969,79.0967,722.2969" style="stroke:#181818;stroke-width:1;stroke-linejoin:miter;stroke-miterlimit:10;"/><line style="stroke:#181818;stroke-width:1;stroke-dasharray:2,2;" x1="77.0967" x2="389.0381" y1="722.2969" y2="722.2969"/><text fill="#000000" font-family="Helvetica" font-size="10" x="89.0967" y="717.9385">(12)</text><text fill="#000000" font-family="Helvetica" font-size="10" x="113.624" y="717.9385">200 OK {Access Token, Refresh Token}</text><polygon fill="#181818" points="83.0967,787.5781,73.0967,791.5781,83.0967,795.5781,79.0967,791.5781" style="stroke:#181818;stroke-width:1;stroke-linejoin:miter;stroke-miterlimit:10;"/><line style="stroke:#181818;stroke-width:1;stroke-dasharray:2,2;" x1="77.0967" x2="389.0381" y1="791.5781" y2="791.5781"/><text fill="#000000" font-family="Helvetica" font-size="10" x="89.0967" y="787.2197">(13)</text><text fill="#000000" font-family="Helvetica" font-size="10" x="113.624" y="787.2197">403 Forbidden {"reasons": [""...]}</text><polygon fill="#181818" points="83.0967,856.8594,73.0967,860.8594,83.0967,864.8594,79.0967,860.8594" style="stroke:#181818;stroke-width:1;stroke-linejoin:miter;stroke-miterlimit:10;"/><line style="stroke:#181818;stroke-width:1;stroke-dasharray:2,2;" x1="77.0967" x2="394.0381" y1="860.8594" y2="860.8594"/><text fill="#000000" font-family="Helvetica" font-size="10" x="89.0967" y="856.501">(14)</text><text fill="#000000" font-family="Helvetica" font-size="10" x="113.624" y="856.501">403 Forbidden {"reasons": [""...]}</text><?plantuml-src hLJ1Sjis4BtpAxQyb1oBb9lsfCbuHY6PLBLLiQJgJ5jtD12vf51J00E0iYIF_oQVaLj-h00foLAY-D9UI8B0llTszos-eoohcXp1z_jriwoyYcnuetorLfPbVG-AgWfXok-HGRJE5eIL20zKBM2e54f55ENCikPy3NQ8AvgX3M5qEmgYMJ2vcIGMGBiN2xhy_578ZLIuj25EHkDXbAH_fDDeV3W9K1EXQ4PhmXG45KNz8XBiFwFfSBUsuVNhBIfoTQK3aEK6tjg_Enr3DgUeKC1q1A_yImXrd5I6T78x2gFaL5cB_QuX8hV1VC_U_JvCmcze6ZPgaRQIuZ2-OsR91TssLO0KnGh5YS3Jw4ayV8wDUKMp3KIif0nVpghB_E9Yzm7UrRuu0mW44eKGnZo6M71UWDEsvrVECeH2y6KdsZqARdzSN0mWdgHJwAksktdDwq7xdDK6vuuzPct4Z4Y9eitG-UNzjATfhlqEp4zf2PAMZEe3Rk-EoMR-3sPgra4wwJZmtXmEz82o-yhlfBbFbjLLSoze0BUaehd99i4FZJONE3lDmxs2tb6YcYxjw3f_zdOv4rssQzp0dBASib9sHGY3n0JKA8HnRIF1cGHfx4AkZPAEdS3rthWMgJHOF3usDpZlDH1_aD276ygQjTlszIljA6X1jpfFX9-rcHw8G4-NXsak0Svl3LVeGecbhWkkbI0BKnBiD6it18cNOAsd3rQKGBGoQT_mqi9A8Yn9DabFHQMODPegqkDBLdXUKom-VoeGzYeqSwDha_66cUbmEZulpHQDshh6Rct-kouO5jba6KfPDDLv_6CBmuZLZGBKvSMgGdOQeQt_RBZL3trDGFf4xsxXyGpCKnjjviNRqtdUWJ34ZChstZ6dZEOlDlI_YZ-qk-TqxsQckzMSOPlZtaC95WBbebkw1mX3ic_hIIF0CNxfGnez7tw1y_csEK7PITcMCw9sqtCMxZ3v0tXrUGcJQtXyGNuFZW6V3e2jfr9UgA-oSTxgoir9Tly_i1_nQMSTUBziLOviOtsBo3JzfyiVuIqNSvhhe_1ewq9ApgGzWBzis_VzlpiYGz8I7Fctm4M5Oa4APVq7T8FyBm00?></g></svg>