<svg xmlns="http://www.w3.org/2000/svg" xmlns:xlink="http://www.w3.org/1999/xlink" contentStyleType="text/css" data-diagram-type="SEQUENCE" height="567px" preserveAspectRatio="none" style="width:815px;height:567px;background:#FFFFFF;" version="1.1" viewBox="0 0 815 567" width="815px" zoomAndPan="magnify"><?plantuml 1.2026.6?><defs/><g><rect fill="#FEFCFF" height="541.1719" style="stroke:#181818;stroke-width:0.5;" width="673.3091" x="16" y="11"/><text fill="#000000" font-family="Helvetica" font-size="10" font-weight="700" x="333.7849" y="20.2822">Device</text><rect fill="#E6E6FA" height="524.5313" style="stroke:#181818;stroke-width:0.5;" width="102.1934" x="587.1157" y="27.6406"/><text fill="#000000" font-family="Helvetica" font-size="10" font-weight="700" x="599.1157" y="36.9229">Prim&#228;rsystem</text><g><title>TPM</title><rect fill="#000000" fill-opacity="0.00000" height="449.6094" width="8" x="33.8833" y="69.9219"/><line style="stroke:#000000;stroke-width:0.5;stroke-dasharray:5,5;" x1="37.3833" x2="37.3833" y1="69.9219" y2="519.5313"/></g><g><title/><rect fill="#FFFFFF" height="218.125" style="stroke:#181818;stroke-width:1;" width="10" x="32.3833" y="277.4063"/></g><g><title>ZAS</title><rect fill="#000000" fill-opacity="0.00000" height="449.6094" width="8" x="349.9985" y="69.9219"/><line style="stroke:#000000;stroke-width:0.5;stroke-dasharray:5,5;" x1="353.4985" x2="353.4985" y1="69.9219" y2="519.5313"/></g><g><title/><rect fill="#FFFFFF" height="441.6094" style="stroke:#181818;stroke-width:1;" width="10" x="348.4985" y="77.9219"/></g><g><title>ZETA Client</title><rect fill="#000000" fill-opacity="0.00000" height="449.6094" width="8" x="634.7124" y="69.9219"/><line style="stroke:#000000;stroke-width:0.5;stroke-dasharray:5,5;" x1="638.2124" x2="638.2124" y1="69.9219" y2="519.5313"/></g><g><title/><rect fill="#FFFFFF" height="402.9688" style="stroke:#181818;stroke-width:1;" width="10" x="633.2124" y="116.5625"/></g><rect fill="#E4E4F4" height="25.6406" rx="2.5" ry="2.5" style="stroke:#181818;stroke-width:0.5;" width="34.7666" x="20" y="43.2813"/><text fill="#000000" font-family="Helvetica" font-size="10" x="27" y="59.5635">TPM</text><rect fill="#FFE6CC" height="25.6406" rx="2.5" ry="2.5" style="stroke:#D79B00;stroke-width:0.5;" width="34.0391" x="336.479" y="43.2813"/><text fill="#000000" font-family="Helvetica" font-size="10" x="343.479" y="59.5635">ZAS</text><rect fill="#FFE6CC" height="25.6406" rx="2.5" ry="2.5" style="stroke:#D79B00;stroke-width:0.5;" width="72.2471" x="602.0889" y="43.2813"/><text fill="#000000" font-family="Helvetica" font-size="10" x="609.0889" y="59.5635">ZETA Client</text><rect fill="#E4E4F4" height="25.6406" rx="2.5" ry="2.5" style="stroke:#181818;stroke-width:0.5;" width="34.7666" x="20" y="519.5313"/><text fill="#000000" font-family="Helvetica" font-size="10" x="27" y="535.8135">TPM</text><rect fill="#FFE6CC" height="25.6406" rx="2.5" ry="2.5" style="stroke:#D79B00;stroke-width:0.5;" width="34.0391" x="336.479" y="519.5313"/><text fill="#000000" font-family="Helvetica" font-size="10" x="343.479" y="535.8135">ZAS</text><rect fill="#FFE6CC" height="25.6406" rx="2.5" ry="2.5" style="stroke:#D79B00;stroke-width:0.5;" width="72.2471" x="602.0889" y="519.5313"/><text fill="#000000" font-family="Helvetica" font-size="10" x="609.0889" y="535.8135">ZETA Client</text><line style="stroke:#181818;stroke-width:1;stroke-dasharray:2,2;" x1="358.4985" x2="400.4985" y1="95.5625" y2="95.5625"/><line style="stroke:#181818;stroke-width:1;stroke-dasharray:2,2;" x1="400.4985" x2="400.4985" y1="95.5625" y2="108.5625"/><line style="stroke:#181818;stroke-width:1;stroke-dasharray:2,2;" x1="359.4985" x2="400.4985" y1="108.5625" y2="108.5625"/><polygon fill="#181818" points="369.4985,104.5625,359.4985,108.5625,369.4985,112.5625,365.4985,108.5625" style="stroke:#181818;stroke-width:1;stroke-linejoin:miter;stroke-miterlimit:10;"/><text fill="#000000" font-family="Helvetica" font-size="10" x="365.4985" y="91.2041">(01)</text><text fill="#000000" font-family="Helvetica" font-size="10" x="390.0259" y="91.2041">Installation (Root/Admin rights)</text><line style="stroke:#181818;stroke-width:1;stroke-dasharray:2,2;" x1="643.2124" x2="685.2124" y1="134.2031" y2="134.2031"/><line style="stroke:#181818;stroke-width:1;stroke-dasharray:2,2;" x1="685.2124" x2="685.2124" y1="134.2031" y2="147.2031"/><line style="stroke:#181818;stroke-width:1;stroke-dasharray:2,2;" x1="644.2124" x2="685.2124" y1="147.2031" y2="147.2031"/><polygon fill="#181818" points="654.2124,143.2031,644.2124,147.2031,654.2124,151.2031,650.2124,147.2031" style="stroke:#181818;stroke-width:1;stroke-linejoin:miter;stroke-miterlimit:10;"/><text fill="#000000" font-family="Helvetica" font-size="10" x="650.2124" y="129.8447">(02)</text><text fill="#000000" font-family="Helvetica" font-size="10" x="674.7397" y="129.8447">Installation (User Space)</text><path d="M337.4985,159.2031 L735.3306,159.2031 L735.3306,162.8438 L725.3306,172.8438 L337.4985,172.8438 L337.4985,159.2031" fill="#EEEEEE" style="stroke:#000000;stroke-width:1.5;"/><rect fill="none" height="74.9219" style="stroke:#000000;stroke-width:1.5;" width="413.832" x="337.4985" y="159.2031"/><text fill="#000000" font-family="Helvetica" font-size="10" font-weight="700" x="352.4985" y="169.4854">Vertrauensbeziehung zwischen ZAS und Client wird aufgebaut</text><polygon fill="#181818" points="621.2124,196.4844,631.2124,200.4844,621.2124,204.4844,625.2124,200.4844" style="stroke:#181818;stroke-width:1;stroke-linejoin:miter;stroke-miterlimit:10;"/><line style="stroke:#181818;stroke-width:1;" x1="358.4985" x2="627.2124" y1="200.4844" y2="200.4844"/><text fill="#000000" font-family="Helvetica" font-size="10" x="365.4985" y="196.126">(03)</text><text fill="#000000" font-family="Helvetica" font-size="10" x="390.0259" y="196.126">&#160;</text><polygon fill="#181818" points="369.4985,222.125,359.4985,226.125,369.4985,230.125,365.4985,226.125" style="stroke:#181818;stroke-width:1;stroke-linejoin:miter;stroke-miterlimit:10;"/><line style="stroke:#181818;stroke-width:1;stroke-dasharray:2,2;" x1="363.4985" x2="632.2124" y1="226.125" y2="226.125"/><text fill="#000000" font-family="Helvetica" font-size="10" x="375.4985" y="221.7666">(04)</text><text fill="#000000" font-family="Helvetica" font-size="10" x="400.0259" y="221.7666">&#160;</text><polygon fill="#181818" points="53.3833,273.4063,43.3833,277.4063,53.3833,281.4063,49.3833,277.4063" style="stroke:#181818;stroke-width:1;stroke-linejoin:miter;stroke-miterlimit:10;"/><line style="stroke:#181818;stroke-width:1;" x1="47.3833" x2="632.2124" y1="277.4063" y2="277.4063"/><text fill="#000000" font-family="Helvetica" font-size="10" x="59.3833" y="267.2275">(05)</text><text fill="#000000" font-family="Helvetica" font-size="10" x="83.9106" y="261.4072">Generiere PrK.Client.Sig, PuK.Client.Sig</text><text fill="#000000" font-family="Helvetica" font-size="10" x="83.9106" y="273.0479">via OS-Provider (z.B. MS CNG)</text><polygon fill="#181818" points="621.2124,299.0469,631.2124,303.0469,621.2124,307.0469,625.2124,303.0469" style="stroke:#181818;stroke-width:1;stroke-linejoin:miter;stroke-miterlimit:10;"/><line style="stroke:#181818;stroke-width:1;stroke-dasharray:2,2;" x1="42.3833" x2="627.2124" y1="303.0469" y2="303.0469"/><text fill="#000000" font-family="Helvetica" font-size="10" x="49.3833" y="298.6885">(06)</text><text fill="#000000" font-family="Helvetica" font-size="10" x="73.9106" y="298.6885">PuK.Client.Sig, Handle_PrK.Client.Sig</text><line style="stroke:#181818;stroke-width:1;stroke-dasharray:2,2;" x1="358.4985" x2="400.4985" y1="328.6875" y2="328.6875"/><line style="stroke:#181818;stroke-width:1;stroke-dasharray:2,2;" x1="400.4985" x2="400.4985" y1="328.6875" y2="341.6875"/><line style="stroke:#181818;stroke-width:1;stroke-dasharray:2,2;" x1="359.4985" x2="400.4985" y1="341.6875" y2="341.6875"/><polygon fill="#181818" points="369.4985,337.6875,359.4985,341.6875,369.4985,345.6875,365.4985,341.6875" style="stroke:#181818;stroke-width:1;stroke-linejoin:miter;stroke-miterlimit:10;"/><text fill="#000000" font-family="Helvetica" font-size="10" x="365.4985" y="324.3291">(07)</text><text fill="#000000" font-family="Helvetica" font-size="10" x="390.0259" y="324.3291">Messung des PS &amp; Vergleich mit Hersteller-Wert</text><polygon fill="#181818" points="53.3833,363.3281,43.3833,367.3281,53.3833,371.3281,49.3833,367.3281" style="stroke:#181818;stroke-width:1;stroke-linejoin:miter;stroke-miterlimit:10;"/><line style="stroke:#181818;stroke-width:1;" x1="47.3833" x2="347.4985" y1="367.3281" y2="367.3281"/><text fill="#000000" font-family="Helvetica" font-size="10" x="59.3833" y="362.9697">(08)</text><text fill="#000000" font-family="Helvetica" font-size="10" x="83.9106" y="362.9697">TPM2_CreatePrimary() &#8594; Storage Root Key (SRK)</text><polygon fill="#181818" points="53.3833,388.9688,43.3833,392.9688,53.3833,396.9688,49.3833,392.9688" style="stroke:#181818;stroke-width:1;stroke-linejoin:miter;stroke-miterlimit:10;"/><line style="stroke:#181818;stroke-width:1;" x1="47.3833" x2="347.4985" y1="392.9688" y2="392.9688"/><text fill="#000000" font-family="Helvetica" font-size="10" x="59.3833" y="388.6104">(09)</text><text fill="#000000" font-family="Helvetica" font-size="10" x="83.9106" y="388.6104">TPM2_Create(SRK, restricted=sign, fixedTPM=true)</text><polygon fill="#181818" points="336.4985,414.6094,346.4985,418.6094,336.4985,422.6094,340.4985,418.6094" style="stroke:#181818;stroke-width:1;stroke-linejoin:miter;stroke-miterlimit:10;"/><line style="stroke:#181818;stroke-width:1;stroke-dasharray:2,2;" x1="42.3833" x2="342.4985" y1="418.6094" y2="418.6094"/><text fill="#000000" font-family="Helvetica" font-size="10" x="49.3833" y="414.251">(10)</text><text fill="#000000" font-family="Helvetica" font-size="10" x="73.9106" y="414.251">PuK.AK.Sig, PrK.AK.Sig (blob)</text><polygon fill="#181818" points="53.3833,440.25,43.3833,444.25,53.3833,448.25,49.3833,444.25" style="stroke:#181818;stroke-width:1;stroke-linejoin:miter;stroke-miterlimit:10;"/><line style="stroke:#181818;stroke-width:1;" x1="47.3833" x2="347.4985" y1="444.25" y2="444.25"/><text fill="#000000" font-family="Helvetica" font-size="10" x="59.3833" y="439.8916">(11)</text><text fill="#000000" font-family="Helvetica" font-size="10" x="83.9106" y="439.8916">TPM2_Load(SRK, PrK.AK.Sig, PuK.AK.Sig)</text><polygon fill="#181818" points="336.4985,465.8906,346.4985,469.8906,336.4985,473.8906,340.4985,469.8906" style="stroke:#181818;stroke-width:1;stroke-linejoin:miter;stroke-miterlimit:10;"/><line style="stroke:#181818;stroke-width:1;stroke-dasharray:2,2;" x1="42.3833" x2="342.4985" y1="469.8906" y2="469.8906"/><text fill="#000000" font-family="Helvetica" font-size="10" x="49.3833" y="465.5322">(12)</text><text fill="#000000" font-family="Helvetica" font-size="10" x="73.9106" y="465.5322">Handle_PrK.AK.Sig</text><polygon fill="#181818" points="53.3833,491.5313,43.3833,495.5313,53.3833,499.5313,49.3833,495.5313" style="stroke:#181818;stroke-width:1;stroke-linejoin:miter;stroke-miterlimit:10;"/><line style="stroke:#181818;stroke-width:1;" x1="47.3833" x2="347.4985" y1="495.5313" y2="495.5313"/><text fill="#000000" font-family="Helvetica" font-size="10" x="59.3833" y="491.1729">(13)</text><text fill="#000000" font-family="Helvetica" font-size="10" x="83.9106" y="491.1729">TPM2_PCR_Extend(23, Messwerte)</text><path d="M363.4985,482.8906 L363.4985,503.8906 L668.4985,503.8906 L668.4985,492.8906 L658.4985,482.8906 L363.4985,482.8906" fill="#FEFFDD" style="stroke:#181818;stroke-width:0.5;"/><path d="M658.4985,482.8906 L658.4985,492.8906 L668.4985,492.8906 L658.4985,482.8906" fill="#FEFFDD" style="stroke:#181818;stroke-width:0.5;"/><text fill="#000000" font-family="Helvetica" font-size="10" x="369.4985" y="497.1729">PCR_23 K&#246;nnte belegt sein; muss vorher gepr&#252;ft werden</text><?plantuml-src TL9TRjf047xVKqpzK870ZaJUqWI94Yj1OB1icgfL9RJOWrd9hD7ichy3z00zGy_GfxvnavwakmOIIDCNpwndvfjllfbtGYPvcI9utjMoNEHkphT5gJszqOonQR41vnvN8a47xlsdNjUVT4U3KSG0bfoqICIIImtEE0mSu0gCXO7VCqb1E1hwm_6RwLyxiKrsZ7NWzdQ7chVR9gTg5v9Ox7-IsYgD2mV2g1Tq_2Z-4e_zu1dj4g-R2pIcWlJ7dUFx0XfbQk7PoJBJkz6mGDO3rsrRLZVGaqhpFETQ519gKL7egqww4198P7Ejwko0tMWSdQhouBuk_gIG85xo1Eiiew9SmXEI9bwYL5FS2PoNCeFTMgXaZh8IfJJiZhXhGIdmSfRXb9Uw6haYUkfM_JdZO89sEFRCgssNqMZSm0DA986445BVEuIzM6HD2ClpzpUv4Xn6iHjIiHAf8L_RUHyz26Be3X_gpExsVDhBwYOySfdcEBbiSgbkW4hPeLDK4CRmtYgIvIYIEIo4XaSai_GyHt8_6wdOSM3J-CP-MfCk8TTeBuJJjbQ7Fzz_GAmBuXc2tHNqSGkrEEhN_rThWqqWL9f4eZ6zKoAJJPY93QOcxKvJYI-ZLgJjd9t-KJ4w-L2RviNqZJw3WgU7BY_9pJEGL-XdgXtY_oA6tMZYRxJPRgrrtQn4N1jv34zPQ3nSfg5fibhNqD__ajBydMAEcGQ5Gdw0HQaKh0gQcwLckAJzxvcvCAJKt9sbuxhiBm00?></g></svg>