<svg xmlns="http://www.w3.org/2000/svg" xmlns:xlink="http://www.w3.org/1999/xlink" contentStyleType="text/css" data-diagram-type="SEQUENCE" height="686px" preserveAspectRatio="none" style="width:1152px;height:686px;background:#FFFFFF;" version="1.1" viewBox="0 0 1152 686" width="1152px" zoomAndPan="magnify"><?plantuml 1.2026.6?><defs/><g><rect fill="#FEFCFF" height="660.0156" style="stroke:#181818;stroke-width:0.5;" width="552.1519" x="244.6284" y="11"/><text fill="#000000" font-family="Helvetica" font-size="10" font-weight="700" x="501.8347" y="20.2822">Device</text><rect fill="#E6E6FA" height="643.375" style="stroke:#181818;stroke-width:0.5;" width="102.1934" x="694.5869" y="27.6406"/><text fill="#000000" font-family="Helvetica" font-size="10" font-weight="700" x="706.5869" y="36.9229">Prim&#228;rsystem</text><rect fill="#EDFDEC" height="660.0156" style="stroke:#181818;stroke-width:0.5;" width="147.7842" x="998.9272" y="11"/><text fill="#000000" font-family="Helvetica" font-size="10" font-weight="700" x="1010.9272" y="20.2822">Anbieter TI 2.0 Dienst</text><rect fill="#FFF3E5" height="643.375" style="stroke:#181818;stroke-width:0.5;" width="147.7842" x="998.9272" y="27.6406"/><text fill="#000000" font-family="Helvetica" font-size="10" font-weight="700" x="1039.6748" y="36.9229">ZETA Guard</text><g><title>SM.C.-B</title><rect fill="#000000" fill-opacity="0.00000" height="545.1719" width="8" x="33.6147" y="81.5625"/><line style="stroke:#000000;stroke-width:0.5;stroke-dasharray:5,5;" x1="37.1147" x2="37.1147" y1="81.5625" y2="626.7344"/></g><g><title/><rect fill="#FFFFFF" height="25.6406" style="stroke:#181818;stroke-width:1;" width="10" x="32.1147" y="289.0469"/></g><g><title>Konnektor or</title><rect fill="#000000" fill-opacity="0.00000" height="545.1719" width="8" x="195.7017" y="81.5625"/><line style="stroke:#000000;stroke-width:0.5;stroke-dasharray:5,5;" x1="199.2017" x2="199.2017" y1="81.5625" y2="626.7344"/></g><g><title/><rect fill="#FFFFFF" height="76.9219" style="stroke:#181818;stroke-width:1;" width="10" x="194.2017" y="263.4063"/></g><g><title>TPM</title><rect fill="#000000" fill-opacity="0.00000" height="545.1719" width="8" x="262.5117" y="81.5625"/><line style="stroke:#000000;stroke-width:0.5;stroke-dasharray:5,5;" x1="266.0117" x2="266.0117" y1="81.5625" y2="626.7344"/></g><g><title/><rect fill="#FFFFFF" height="25.6406" style="stroke:#181818;stroke-width:1;" width="10" x="261.0117" y="417.25"/></g><g><title/><rect fill="#FFFFFF" height="25.6406" style="stroke:#181818;stroke-width:1;" width="10" x="261.0117" y="468.5313"/></g><g><title>ZAS</title><rect fill="#000000" fill-opacity="0.00000" height="545.1719" width="8" x="493.2705" y="81.5625"/><line style="stroke:#000000;stroke-width:0.5;stroke-dasharray:5,5;" x1="496.7705" x2="496.7705" y1="81.5625" y2="626.7344"/></g><g><title/><rect fill="#FFFFFF" height="537.1719" style="stroke:#181818;stroke-width:1;" width="10" x="491.7705" y="89.5625"/></g><g><title>ZETA Client</title><rect fill="#000000" fill-opacity="0.00000" height="545.1719" width="8" x="742.1836" y="81.5625"/><line style="stroke:#000000;stroke-width:0.5;stroke-dasharray:5,5;" x1="745.6836" x2="745.6836" y1="81.5625" y2="626.7344"/></g><g><title/><rect fill="#FFFFFF" height="537.1719" style="stroke:#181818;stroke-width:1;" width="10" x="740.6836" y="89.5625"/></g><g><title>PDP</title><rect fill="#000000" fill-opacity="0.00000" height="545.1719" width="8" x="1069.3193" y="81.5625"/><line style="stroke:#000000;stroke-width:0.5;stroke-dasharray:5,5;" x1="1072.8193" x2="1072.8193" y1="81.5625" y2="626.7344"/></g><g><title/><rect fill="#FFFFFF" height="25.6406" style="stroke:#181818;stroke-width:1;" width="10" x="1067.8193" y="107.2031"/></g><rect fill="#E4E4F4" height="25.6406" rx="2.5" ry="2.5" style="stroke:#181818;stroke-width:0.5;" width="54.2295" x="10" y="54.9219"/><text fill="#000000" font-family="Helvetica" font-size="10" x="17" y="71.2041">SM(C)-B</text><rect fill="#E4E4F4" height="37.2813" rx="2.5" ry="2.5" style="stroke:#181818;stroke-width:0.5;" width="78.8535" x="159.7749" y="43.2813"/><text fill="#000000" font-family="Helvetica" font-size="10" x="166.7749" y="59.5635">Konnektor or</text><text fill="#000000" font-family="Helvetica" font-size="10" x="170.7813" y="71.2041">TI-Gateway</text><rect fill="#E4E4F4" height="25.6406" rx="2.5" ry="2.5" style="stroke:#181818;stroke-width:0.5;" width="34.7666" x="248.6284" y="54.9219"/><text fill="#000000" font-family="Helvetica" font-size="10" x="255.6284" y="71.2041">TPM</text><rect fill="#FFE6CC" height="25.6406" rx="2.5" ry="2.5" style="stroke:#D79B00;stroke-width:0.5;" width="34.0391" x="479.751" y="54.9219"/><text fill="#000000" font-family="Helvetica" font-size="10" x="486.751" y="71.2041">ZAS</text><rect fill="#FFE6CC" height="25.6406" rx="2.5" ry="2.5" style="stroke:#D79B00;stroke-width:0.5;" width="72.2471" x="709.5601" y="54.9219"/><text fill="#000000" font-family="Helvetica" font-size="10" x="716.5601" y="71.2041">ZETA Client</text><rect fill="#FFE6CC" height="37.2813" rx="2.5" ry="2.5" style="stroke:#D79B00;stroke-width:0.5;" width="116.9492" x="1014.3447" y="43.2813"/><text fill="#000000" font-family="Helvetica" font-size="10" x="1062.939" y="59.5635">PDP</text><text fill="#000000" font-family="Helvetica" font-size="10" x="1021.3447" y="71.2041">Authorization Server</text><rect fill="#E4E4F4" height="25.6406" rx="2.5" ry="2.5" style="stroke:#181818;stroke-width:0.5;" width="54.2295" x="10" y="626.7344"/><text fill="#000000" font-family="Helvetica" font-size="10" x="17" y="643.0166">SM(C)-B</text><rect fill="#E4E4F4" height="37.2813" rx="2.5" ry="2.5" style="stroke:#181818;stroke-width:0.5;" width="78.8535" x="159.7749" y="626.7344"/><text fill="#000000" font-family="Helvetica" font-size="10" x="166.7749" y="643.0166">Konnektor or</text><text fill="#000000" font-family="Helvetica" font-size="10" x="170.7813" y="654.6572">TI-Gateway</text><rect fill="#E4E4F4" height="25.6406" rx="2.5" ry="2.5" style="stroke:#181818;stroke-width:0.5;" width="34.7666" x="248.6284" y="626.7344"/><text fill="#000000" font-family="Helvetica" font-size="10" x="255.6284" y="643.0166">TPM</text><rect fill="#FFE6CC" height="25.6406" rx="2.5" ry="2.5" style="stroke:#D79B00;stroke-width:0.5;" width="34.0391" x="479.751" y="626.7344"/><text fill="#000000" font-family="Helvetica" font-size="10" x="486.751" y="643.0166">ZAS</text><rect fill="#FFE6CC" height="25.6406" rx="2.5" ry="2.5" style="stroke:#D79B00;stroke-width:0.5;" width="72.2471" x="709.5601" y="626.7344"/><text fill="#000000" font-family="Helvetica" font-size="10" x="716.5601" y="643.0166">ZETA Client</text><rect fill="#FFE6CC" height="37.2813" rx="2.5" ry="2.5" style="stroke:#D79B00;stroke-width:0.5;" width="116.9492" x="1014.3447" y="626.7344"/><text fill="#000000" font-family="Helvetica" font-size="10" x="1062.939" y="643.0166">PDP</text><text fill="#000000" font-family="Helvetica" font-size="10" x="1021.3447" y="654.6572">Authorization Server</text><polygon fill="#181818" points="1055.8193,103.2031,1065.8193,107.2031,1055.8193,111.2031,1059.8193,107.2031" style="stroke:#181818;stroke-width:1;stroke-linejoin:miter;stroke-miterlimit:10;"/><line style="stroke:#181818;stroke-width:1;" x1="750.6836" x2="1061.8193" y1="107.2031" y2="107.2031"/><text fill="#000000" font-family="Helvetica" font-size="10" x="757.6836" y="102.8447">(01)</text><text fill="#000000" font-family="Helvetica" font-size="10" x="782.2109" y="102.8447">GET /nonce</text><polygon fill="#181818" points="761.6836,128.8438,751.6836,132.8438,761.6836,136.8438,757.6836,132.8438" style="stroke:#181818;stroke-width:1;stroke-linejoin:miter;stroke-miterlimit:10;"/><line style="stroke:#181818;stroke-width:1;stroke-dasharray:2,2;" x1="755.6836" x2="1066.8193" y1="132.8438" y2="132.8438"/><text fill="#000000" font-family="Helvetica" font-size="10" x="767.6836" y="128.4854">(02)</text><text fill="#000000" font-family="Helvetica" font-size="10" x="792.2109" y="128.4854">Nonce</text><line style="stroke:#181818;stroke-width:1;" x1="750.6836" x2="792.6836" y1="158.4844" y2="158.4844"/><line style="stroke:#181818;stroke-width:1;" x1="792.6836" x2="792.6836" y1="158.4844" y2="171.4844"/><line style="stroke:#181818;stroke-width:1;" x1="751.6836" x2="792.6836" y1="171.4844" y2="171.4844"/><polygon fill="#181818" points="761.6836,167.4844,751.6836,171.4844,761.6836,175.4844,757.6836,171.4844" style="stroke:#181818;stroke-width:1;stroke-linejoin:miter;stroke-miterlimit:10;"/><text fill="#000000" font-family="Helvetica" font-size="10" x="757.6836" y="154.126">(03)</text><text fill="#000000" font-family="Helvetica" font-size="10" x="782.2109" y="154.126">Create DPoP Key Pair (PrK.DPoP.Sig, PuK.DPoP.Sig)</text><line style="stroke:#181818;stroke-width:1;" x1="750.6836" x2="792.6836" y1="197.125" y2="197.125"/><line style="stroke:#181818;stroke-width:1;" x1="792.6836" x2="792.6836" y1="197.125" y2="210.125"/><line style="stroke:#181818;stroke-width:1;" x1="751.6836" x2="792.6836" y1="210.125" y2="210.125"/><polygon fill="#181818" points="761.6836,206.125,751.6836,210.125,761.6836,214.125,757.6836,210.125" style="stroke:#181818;stroke-width:1;stroke-linejoin:miter;stroke-miterlimit:10;"/><text fill="#000000" font-family="Helvetica" font-size="10" x="757.6836" y="192.7666">(04)</text><text fill="#000000" font-family="Helvetica" font-size="10" x="782.2109" y="192.7666">Erstelle Subject Token (mit Nonce)</text><path d="M16.1147,222.125 L246.5591,222.125 L246.5591,225.7656 L236.5591,235.7656 L16.1147,235.7656 L16.1147,222.125" fill="#EEEEEE" style="stroke:#000000;stroke-width:1.5;"/><rect fill="none" height="126.2031" style="stroke:#000000;stroke-width:1.5;" width="745.5688" x="16.1147" y="222.125"/><text fill="#000000" font-family="Helvetica" font-size="10" font-weight="700" x="31.1147" y="232.4072">Sign Subject Token with SM(C)-B</text><polygon fill="#181818" points="215.2017,259.4063,205.2017,263.4063,215.2017,267.4063,211.2017,263.4063" style="stroke:#181818;stroke-width:1;stroke-linejoin:miter;stroke-miterlimit:10;"/><line style="stroke:#181818;stroke-width:1;" x1="209.2017" x2="739.6836" y1="263.4063" y2="263.4063"/><text fill="#000000" font-family="Helvetica" font-size="10" x="221.2017" y="259.0479">(05)</text><text fill="#000000" font-family="Helvetica" font-size="10" x="245.729" y="259.0479">Sign Subject Token</text><polygon fill="#181818" points="53.1147,285.0469,43.1147,289.0469,53.1147,293.0469,49.1147,289.0469" style="stroke:#181818;stroke-width:1;stroke-linejoin:miter;stroke-miterlimit:10;"/><line style="stroke:#181818;stroke-width:1;" x1="47.1147" x2="193.2017" y1="289.0469" y2="289.0469"/><text fill="#000000" font-family="Helvetica" font-size="10" x="59.1147" y="284.6885">(06)</text><text fill="#000000" font-family="Helvetica" font-size="10" x="83.6421" y="284.6885">Sign Subject Token</text><polygon fill="#181818" points="182.2017,310.6875,192.2017,314.6875,182.2017,318.6875,186.2017,314.6875" style="stroke:#181818;stroke-width:1;stroke-linejoin:miter;stroke-miterlimit:10;"/><line style="stroke:#181818;stroke-width:1;stroke-dasharray:2,2;" x1="42.1147" x2="188.2017" y1="314.6875" y2="314.6875"/><text fill="#000000" font-family="Helvetica" font-size="10" x="49.1147" y="310.3291">(07)</text><text fill="#000000" font-family="Helvetica" font-size="10" x="73.6421" y="310.3291">Signed Subject Token</text><polygon fill="#181818" points="728.6836,336.3281,738.6836,340.3281,728.6836,344.3281,732.6836,340.3281" style="stroke:#181818;stroke-width:1;stroke-linejoin:miter;stroke-miterlimit:10;"/><line style="stroke:#181818;stroke-width:1;stroke-dasharray:2,2;" x1="204.2017" x2="734.6836" y1="340.3281" y2="340.3281"/><text fill="#000000" font-family="Helvetica" font-size="10" x="211.2017" y="335.9697">(08)</text><text fill="#000000" font-family="Helvetica" font-size="10" x="235.729" y="335.9697">Signed Subject Token</text><polygon fill="#181818" points="512.7705,375.9688,502.7705,379.9688,512.7705,383.9688,508.7705,379.9688" style="stroke:#181818;stroke-width:1;stroke-linejoin:miter;stroke-miterlimit:10;"/><line style="stroke:#181818;stroke-width:1;" x1="506.7705" x2="739.6836" y1="379.9688" y2="379.9688"/><text fill="#000000" font-family="Helvetica" font-size="10" x="518.7705" y="375.6104">(09)</text><text fill="#000000" font-family="Helvetica" font-size="10" x="543.2979" y="375.6104">GetEvidence(Nonce)</text><polygon fill="#181818" points="282.0117,413.25,272.0117,417.25,282.0117,421.25,278.0117,417.25" style="stroke:#181818;stroke-width:1;stroke-linejoin:miter;stroke-miterlimit:10;"/><line style="stroke:#181818;stroke-width:1;" x1="276.0117" x2="490.7705" y1="417.25" y2="417.25"/><text fill="#000000" font-family="Helvetica" font-size="10" x="288.0117" y="407.0713">(10)</text><text fill="#000000" font-family="Helvetica" font-size="10" x="312.5391" y="401.251">TPM2_Quote(PCR=[7,23],</text><text fill="#000000" font-family="Helvetica" font-size="10" x="312.5391" y="412.8916">Nonce, Handle_PrK.AK.Sig)</text><polygon fill="#181818" points="479.7705,438.8906,489.7705,442.8906,479.7705,446.8906,483.7705,442.8906" style="stroke:#181818;stroke-width:1;stroke-linejoin:miter;stroke-miterlimit:10;"/><line style="stroke:#181818;stroke-width:1;stroke-dasharray:2,2;" x1="271.0117" x2="485.7705" y1="442.8906" y2="442.8906"/><text fill="#000000" font-family="Helvetica" font-size="10" x="278.0117" y="438.5322">(11)</text><text fill="#000000" font-family="Helvetica" font-size="10" x="302.5391" y="438.5322">tpm_quote (signiert mit PrK.AK.Sig)</text><polygon fill="#181818" points="282.0117,464.5313,272.0117,468.5313,282.0117,472.5313,278.0117,468.5313" style="stroke:#181818;stroke-width:1;stroke-linejoin:miter;stroke-miterlimit:10;"/><line style="stroke:#181818;stroke-width:1;" x1="276.0117" x2="490.7705" y1="468.5313" y2="468.5313"/><text fill="#000000" font-family="Helvetica" font-size="10" x="288.0117" y="464.1729">(12)</text><text fill="#000000" font-family="Helvetica" font-size="10" x="312.5391" y="464.1729">TPM2_GetEventLog()</text><polygon fill="#181818" points="479.7705,490.1719,489.7705,494.1719,479.7705,498.1719,483.7705,494.1719" style="stroke:#181818;stroke-width:1;stroke-linejoin:miter;stroke-miterlimit:10;"/><line style="stroke:#181818;stroke-width:1;stroke-dasharray:2,2;" x1="271.0117" x2="485.7705" y1="494.1719" y2="494.1719"/><text fill="#000000" font-family="Helvetica" font-size="10" x="278.0117" y="489.8135">(13)</text><text fill="#000000" font-family="Helvetica" font-size="10" x="302.5391" y="489.8135">tpm_event_log</text><polygon fill="#181818" points="728.6836,515.8125,738.6836,519.8125,728.6836,523.8125,732.6836,519.8125" style="stroke:#181818;stroke-width:1;stroke-linejoin:miter;stroke-miterlimit:10;"/><line style="stroke:#181818;stroke-width:1;stroke-dasharray:2,2;" x1="501.7705" x2="734.6836" y1="519.8125" y2="519.8125"/><text fill="#000000" font-family="Helvetica" font-size="10" x="508.7705" y="515.4541">(14)</text><text fill="#000000" font-family="Helvetica" font-size="10" x="533.2979" y="515.4541">Evidence {tpm_quote, tpm_event_log}</text><line style="stroke:#181818;stroke-width:1;" x1="750.6836" x2="792.6836" y1="557.0938" y2="557.0938"/><line style="stroke:#181818;stroke-width:1;" x1="792.6836" x2="792.6836" y1="557.0938" y2="570.0938"/><line style="stroke:#181818;stroke-width:1;" x1="751.6836" x2="792.6836" y1="570.0938" y2="570.0938"/><polygon fill="#181818" points="761.6836,566.0938,751.6836,570.0938,761.6836,574.0938,757.6836,570.0938" style="stroke:#181818;stroke-width:1;stroke-linejoin:miter;stroke-miterlimit:10;"/><text fill="#000000" font-family="Helvetica" font-size="10" x="757.6836" y="546.915">(15)</text><text fill="#000000" font-family="Helvetica" font-size="10" x="782.2109" y="541.0947">Generiere client-statement</text><text fill="#000000" font-family="Helvetica" font-size="10" x="782.2109" y="552.7354">(OS und PS Daten, Evidence)</text><line style="stroke:#181818;stroke-width:1;" x1="750.6836" x2="792.6836" y1="595.7344" y2="595.7344"/><line style="stroke:#181818;stroke-width:1;" x1="792.6836" x2="792.6836" y1="595.7344" y2="608.7344"/><line style="stroke:#181818;stroke-width:1;" x1="751.6836" x2="792.6836" y1="608.7344" y2="608.7344"/><polygon fill="#181818" points="761.6836,604.7344,751.6836,608.7344,761.6836,612.7344,757.6836,608.7344" style="stroke:#181818;stroke-width:1;stroke-linejoin:miter;stroke-miterlimit:10;"/><text fill="#000000" font-family="Helvetica" font-size="10" x="757.6836" y="591.376">(16)</text><text fill="#000000" font-family="Helvetica" font-size="10" x="782.2109" y="591.376">Erstelle Client Assertion (JWT, signiert mit PrK.Client.Sig)</text><?plantuml-src VLJRRjD047ttLqpzWglOAIeFI56fvCPM26aQ4viY82ZQ9ADqmTaDwt7R5F4t_0a_nkxQkRLfNpoxEsVEt7t4nJGlPmZDvicoNEH1pbQof2RTa-Cuhu0uvGY32J4k82J2WXXnAI2-vJCKKtISewLYymK3Gla0f4hzj6IA-9GlcI18-nV02d3JljS-3YvSk8oxu_QWdmokugjCdou7mps3dXG2Vv9KrcnxaseaicxGOOHtR7MOPoBlmOtmba_HXIY-xhRZMWEmwyFDahvh-BKyIBGF_ngcDXWjNJWxUq1Yv-SQOzqbYY_-_LN5gY1Sk90Ck_qm7gPVqYpkRzZs-TevHoqiPPo5zNsF6iNCq3jhMQKMYWb7GWLP5qwRho7ITWKPfuFhRXGFD_uisd9tIgPcBfZpkFCf74RFn1IMT5DbcKJ9I9YhLFoXwdQAwXRLom4wLHQDXgFBfBzrai5vJTreG0iwSGOdGfh1gLu3hLyZ0msuiheTu_hKWhP2tNg84fb03rUGCAx0IrIlQPwQAP_xa9JRs_4JaXR4IZSfrnETbfCVE2N8v4yKu2quLPwF7MUkPBa4JI0UeUuutK0znhPyM_xjb3OQhGEs5hu5QGkp5hOYpu2DFjXZjkKnQ9ozJFweeWTDTDTsYsm6N3S7QRtMNbqDez1wlIOsM2rFnnzBIUWbxU6xRs_zqpVV_P6mQ1_UCp7BSMnw4lQg7fW52seFDXnQBiQ_30DuXOwCeo8mvTyrEkJL1gV3lPHpxnbQDFfnBkSLmUxmhFE2tnl__hxD7-V0l7HGeD8X8apjIs1-VxZGfv7m1YcKUlYJ52BzAFoDanSdhrQ5HQ4pDxlbVVYS-V2a5XMkgiT_?></g></svg>