<svg xmlns="http://www.w3.org/2000/svg" xmlns:xlink="http://www.w3.org/1999/xlink" contentStyleType="text/css" data-diagram-type="SEQUENCE" height="1526px" preserveAspectRatio="none" style="width:620px;height:1526px;background:#FFFFFF;" version="1.1" viewBox="0 0 620 1526" width="620px" zoomAndPan="magnify"><?plantuml 1.2026.6?><defs/><g><g class="title" data-source-line="5"><text fill="#000000" font-family="Helvetica" font-size="14" font-weight="700" x="100.1555" y="27.9951">&#220;berblick Attestierungsabl&#228;ufe nach Betriebssystem</text></g><rect fill="#FEFCFF" height="1463.5156" style="stroke:#181818;stroke-width:0.5;" width="278.8589" x="16" y="48.2969"/><text fill="#000000" font-family="Helvetica" font-size="10" font-weight="700" x="136.5598" y="57.5791">Device</text><rect fill="#E6E6FA" height="1446.875" style="stroke:#181818;stroke-width:0.5;" width="102.1934" x="16" y="64.9375"/><text fill="#000000" font-family="Helvetica" font-size="10" font-weight="700" x="28" y="74.2197">Prim&#228;rsystem</text><rect fill="#FFF3E5" height="1463.5156" style="stroke:#181818;stroke-width:0.5;" width="124.9492" x="306.8589" y="48.2969"/><text fill="#000000" font-family="Helvetica" font-size="10" font-weight="700" x="336.189" y="57.5791">ZETA Guard</text><g><title>ZETA Client</title><rect fill="#000000" fill-opacity="0.00000" height="1371.9531" width="8" x="63.5967" y="107.2188"/><line style="stroke:#000000;stroke-width:0.5;stroke-dasharray:5,5;" x1="67.0967" x2="67.0967" y1="107.2188" y2="1479.1719"/></g><g><title>ZETA Attestation Service</title><rect fill="#000000" fill-opacity="0.00000" height="1371.9531" width="8" x="218.0176" y="107.2188"/><line style="stroke:#000000;stroke-width:0.5;stroke-dasharray:5,5;" x1="221.5176" x2="221.5176" y1="107.2188" y2="1479.1719"/></g><g><title>Authorization Server</title><rect fill="#000000" fill-opacity="0.00000" height="1371.9531" width="8" x="365.8335" y="107.2188"/><line style="stroke:#000000;stroke-width:0.5;stroke-dasharray:5,5;" x1="369.3335" x2="369.3335" y1="107.2188" y2="1479.1719"/></g><rect fill="#FFE6CC" height="25.6406" rx="2.5" ry="2.5" style="stroke:#D79B00;stroke-width:0.5;" width="72.2471" x="30.9731" y="80.5781"/><text fill="#000000" font-family="Helvetica" font-size="10" x="37.9731" y="96.8604">ZETA Client</text><rect fill="#FFE6CC" height="25.6406" rx="2.5" ry="2.5" style="stroke:#D79B00;stroke-width:0.5;" width="138.6826" x="152.1763" y="80.5781"/><text fill="#000000" font-family="Helvetica" font-size="10" x="159.1763" y="96.8604">ZETA Attestation Service</text><rect fill="#FFE6CC" height="25.6406" rx="2.5" ry="2.5" style="stroke:#D79B00;stroke-width:0.5;" width="116.9492" x="310.8589" y="80.5781"/><text fill="#000000" font-family="Helvetica" font-size="10" x="317.8589" y="96.8604">Authorization Server</text><rect fill="#FFE6CC" height="25.6406" rx="2.5" ry="2.5" style="stroke:#D79B00;stroke-width:0.5;" width="72.2471" x="30.9731" y="1479.1719"/><text fill="#000000" font-family="Helvetica" font-size="10" x="37.9731" y="1495.4541">ZETA Client</text><rect fill="#FFE6CC" height="25.6406" rx="2.5" ry="2.5" style="stroke:#D79B00;stroke-width:0.5;" width="138.6826" x="152.1763" y="1479.1719"/><text fill="#000000" font-family="Helvetica" font-size="10" x="159.1763" y="1495.4541">ZETA Attestation Service</text><rect fill="#FFE6CC" height="25.6406" rx="2.5" ry="2.5" style="stroke:#D79B00;stroke-width:0.5;" width="116.9492" x="310.8589" y="1479.1719"/><text fill="#000000" font-family="Helvetica" font-size="10" x="317.8589" y="1495.4541">Authorization Server</text><rect fill="#EEEEEE" height="3" style="stroke:#EEEEEE;stroke-width:1;" width="599.103" x="10" y="134.0391"/><line style="stroke:#000000;stroke-width:1;" x1="10" x2="609.103" y1="134.0391" y2="134.0391"/><line style="stroke:#000000;stroke-width:1;" x1="10" x2="609.103" y1="137.0391" y2="137.0391"/><rect fill="#EEEEEE" height="19.6406" style="stroke:#000000;stroke-width:2;" width="62.96" x="278.0715" y="125.2188"/><text fill="#000000" font-family="Helvetica" font-size="10" font-weight="700" x="284.0715" y="138.501">Einstieg</text><line style="stroke:#181818;stroke-width:1;" x1="67.0967" x2="109.0967" y1="184.1406" y2="184.1406"/><line style="stroke:#181818;stroke-width:1;" x1="109.0967" x2="109.0967" y1="184.1406" y2="197.1406"/><line style="stroke:#181818;stroke-width:1;" x1="68.0967" x2="109.0967" y1="197.1406" y2="197.1406"/><polygon fill="#181818" points="78.0967,193.1406,68.0967,197.1406,78.0967,201.1406,74.0967,197.1406" style="stroke:#181818;stroke-width:1;stroke-linejoin:miter;stroke-miterlimit:10;"/><text fill="#000000" font-family="Helvetica" font-size="10" x="74.0967" y="173.9619">(01)</text><text fill="#000000" font-family="Helvetica" font-size="10" x="98.624" y="168.1416">Installation &amp; Start</text><text fill="#000000" font-family="Helvetica" font-size="10" x="98.624" y="179.7822">Schl&#252;sselgenerierung</text><rect fill="#EEEEEE" height="3" style="stroke:#EEEEEE;stroke-width:1;" width="599.103" x="10" y="223.9609"/><line style="stroke:#000000;stroke-width:1;" x1="10" x2="609.103" y1="223.9609" y2="223.9609"/><line style="stroke:#000000;stroke-width:1;" x1="10" x2="609.103" y1="226.9609" y2="226.9609"/><rect fill="#EEEEEE" height="19.6406" style="stroke:#000000;stroke-width:2;" width="217.3252" x="200.8889" y="215.1406"/><text fill="#000000" font-family="Helvetica" font-size="10" font-weight="700" x="206.8889" y="228.4229">Betriebssystem-abh&#228;ngige Schritte</text><path d="M13.0967,248.7813 L73.0527,248.7813 L73.0527,252.4219 L63.0527,262.4219 L13.0967,262.4219 L13.0967,248.7813" fill="#EEEEEE" style="stroke:#000000;stroke-width:1.5;"/><rect fill="none" height="931.9844" style="stroke:#000000;stroke-width:1.5;" width="587.0063" x="13.0967" y="248.7813"/><text fill="#000000" font-family="Helvetica" font-size="10" font-weight="700" x="28.0967" y="259.0635">alt</text><text fill="#000000" font-family="Helvetica" font-size="10" font-weight="700" x="88.0527" y="260.0635">[Windows / Linux]</text><line style="stroke:#000000;stroke-width:1;stroke-dasharray:2,2;" x1="13.0967" x2="600.103" y1="801.5156" y2="801.5156"/><text fill="#000000" font-family="Helvetica" font-size="10" font-weight="700" x="18.0967" y="812.7979">[macOS]</text><path d="M32.0967,276.4219 L198.0635,276.4219 L198.0635,280.0625 L188.0635,290.0625 L32.0967,290.0625 L32.0967,276.4219" fill="#EEEEEE" style="stroke:#000000;stroke-width:1.5;"/><rect fill="none" height="500.0938" style="stroke:#000000;stroke-width:1.5;" width="523.7192" x="32.0967" y="276.4219"/><text fill="#000000" font-family="Helvetica" font-size="10" font-weight="700" x="47.0967" y="286.7041">Windows / Linux Pfad</text><path d="M51.0967,304.0625 L111.0527,304.0625 L111.0527,307.7031 L101.0527,317.7031 L51.0967,317.7031 L51.0967,304.0625" fill="#EEEEEE" style="stroke:#000000;stroke-width:1.5;"/><rect fill="none" height="458.4531" style="stroke:#000000;stroke-width:1.5;" width="479.7192" x="51.0967" y="304.0625"/><text fill="#000000" font-family="Helvetica" font-size="10" font-weight="700" x="66.0967" y="314.3447">alt</text><text fill="#000000" font-family="Helvetica" font-size="10" font-weight="700" x="126.0527" y="315.3447">[TPM + ZAS verf&#252;gbar]</text><line style="stroke:#000000;stroke-width:1;stroke-dasharray:2,2;" x1="51.0967" x2="530.8159" y1="631.6719" y2="631.6719"/><text fill="#000000" font-family="Helvetica" font-size="10" font-weight="700" x="56.0967" y="642.9541">[Software Fallback]</text><polygon fill="#181818" points="209.5176,341.3438,219.5176,345.3438,209.5176,349.3438,213.5176,345.3438" style="stroke:#181818;stroke-width:1;stroke-linejoin:miter;stroke-miterlimit:10;"/><line style="stroke:#181818;stroke-width:1;" x1="67.0967" x2="215.5176" y1="345.3438" y2="345.3438"/><text fill="#000000" font-family="Helvetica" font-size="10" x="74.0967" y="340.9854">(02)</text><text fill="#000000" font-family="Helvetica" font-size="10" x="98.624" y="340.9854">Initialisierung</text><path d="M226.5176,358.3438 L226.5176,414.3438 L355.5176,414.3438 L355.5176,368.3438 L345.5176,358.3438 L226.5176,358.3438" fill="#FEFFDD" style="stroke:#181818;stroke-width:0.5;"/><path d="M345.5176,358.3438 L345.5176,368.3438 L355.5176,368.3438 L345.5176,358.3438" fill="#FEFFDD" style="stroke:#181818;stroke-width:0.5;"/><text fill="#000000" font-family="Helvetica" font-size="10" x="232.5176" y="372.626">TPM Setup:</text><text fill="#000000" font-family="Helvetica" font-size="10" x="232.5176" y="384.2666">- SRK erstellen</text><text fill="#000000" font-family="Helvetica" font-size="10" x="232.5176" y="395.9072">- Attestation Key (AK)</text><text fill="#000000" font-family="Helvetica" font-size="10" x="232.5176" y="407.5479">- PCR Konfiguration</text><polygon fill="#181818" points="78.0967,433.5469,68.0967,437.5469,78.0967,441.5469,74.0967,437.5469" style="stroke:#181818;stroke-width:1;stroke-linejoin:miter;stroke-miterlimit:10;"/><line style="stroke:#181818;stroke-width:1;stroke-dasharray:2,2;" x1="72.0967" x2="220.5176" y1="437.5469" y2="437.5469"/><text fill="#000000" font-family="Helvetica" font-size="10" x="84.0967" y="433.1885">(03)</text><text fill="#000000" font-family="Helvetica" font-size="10" x="108.624" y="433.1885">Schl&#252;ssel + Handles</text><polygon fill="#181818" points="209.5176,459.1875,219.5176,463.1875,209.5176,467.1875,213.5176,463.1875" style="stroke:#181818;stroke-width:1;stroke-linejoin:miter;stroke-miterlimit:10;"/><line style="stroke:#181818;stroke-width:1;" x1="67.0967" x2="215.5176" y1="463.1875" y2="463.1875"/><text fill="#000000" font-family="Helvetica" font-size="10" x="74.0967" y="458.8291">(04)</text><text fill="#000000" font-family="Helvetica" font-size="10" x="98.624" y="458.8291">GetEvidence (Nonce)</text><path d="M226.5176,476.1875 L226.5176,520.1875 L353.5176,520.1875 L353.5176,486.1875 L343.5176,476.1875 L226.5176,476.1875" fill="#FEFFDD" style="stroke:#181818;stroke-width:0.5;"/><path d="M343.5176,476.1875 L343.5176,486.1875 L353.5176,486.1875 L343.5176,476.1875" fill="#FEFFDD" style="stroke:#181818;stroke-width:0.5;"/><text fill="#000000" font-family="Helvetica" font-size="10" x="232.5176" y="490.4697">Evidence-Erzeugung:</text><text fill="#000000" font-family="Helvetica" font-size="10" x="232.5176" y="502.1104">- TPM Quote</text><text fill="#000000" font-family="Helvetica" font-size="10" x="232.5176" y="513.751">- Event Log</text><polygon fill="#181818" points="78.0967,539.75,68.0967,543.75,78.0967,547.75,74.0967,543.75" style="stroke:#181818;stroke-width:1;stroke-linejoin:miter;stroke-miterlimit:10;"/><line style="stroke:#181818;stroke-width:1;stroke-dasharray:2,2;" x1="72.0967" x2="220.5176" y1="543.75" y2="543.75"/><text fill="#000000" font-family="Helvetica" font-size="10" x="84.0967" y="539.3916">(05)</text><text fill="#000000" font-family="Helvetica" font-size="10" x="108.624" y="539.3916">Evidence</text><polygon fill="#181818" points="357.3335,565.3906,367.3335,569.3906,357.3335,573.3906,361.3335,569.3906" style="stroke:#181818;stroke-width:1;stroke-linejoin:miter;stroke-miterlimit:10;"/><line style="stroke:#181818;stroke-width:1;" x1="67.0967" x2="363.3335" y1="569.3906" y2="569.3906"/><text fill="#000000" font-family="Helvetica" font-size="10" x="74.0967" y="565.0322">(06)</text><text fill="#000000" font-family="Helvetica" font-size="10" x="98.624" y="565.0322">Registrierung (TPM Attestation)</text><path d="M374.3335,582.3906 L374.3335,615.3906 L509.3335,615.3906 L509.3335,592.3906 L499.3335,582.3906 L374.3335,582.3906" fill="#FEFFDD" style="stroke:#181818;stroke-width:0.5;"/><path d="M499.3335,582.3906 L499.3335,592.3906 L509.3335,592.3906 L499.3335,582.3906" fill="#FEFFDD" style="stroke:#181818;stroke-width:0.5;"/><text fill="#000000" font-family="Helvetica" font-size="10" x="380.3335" y="596.6729">Validierung:</text><text fill="#000000" font-family="Helvetica" font-size="10" x="380.3335" y="608.3135">- TPM Nachweis pr&#252;fen</text><path d="M72.0967,655.3125 L72.0967,699.3125 L219.0967,699.3125 L219.0967,665.3125 L209.0967,655.3125 L72.0967,655.3125" fill="#FEFFDD" style="stroke:#181818;stroke-width:0.5;"/><path d="M209.0967,655.3125 L209.0967,665.3125 L219.0967,665.3125 L209.0967,655.3125" fill="#FEFFDD" style="stroke:#181818;stroke-width:0.5;"/><text fill="#000000" font-family="Helvetica" font-size="10" x="78.0967" y="669.5947">Software-Modus:</text><text fill="#000000" font-family="Helvetica" font-size="10" x="78.0967" y="681.2354">- Schl&#252;sselpaar erzeugen</text><text fill="#000000" font-family="Helvetica" font-size="10" x="78.0967" y="692.876">- Posture erfassen</text><polygon fill="#181818" points="357.3335,718.875,367.3335,722.875,357.3335,726.875,361.3335,722.875" style="stroke:#181818;stroke-width:1;stroke-linejoin:miter;stroke-miterlimit:10;"/><line style="stroke:#181818;stroke-width:1;" x1="67.0967" x2="363.3335" y1="722.875" y2="722.875"/><text fill="#000000" font-family="Helvetica" font-size="10" x="74.0967" y="718.5166">(07)</text><text fill="#000000" font-family="Helvetica" font-size="10" x="98.624" y="718.5166">Registrierung (Software)</text><path d="M374.3335,735.875 L374.3335,756.875 L477.3335,756.875 L477.3335,745.875 L467.3335,735.875 L374.3335,735.875" fill="#FEFFDD" style="stroke:#181818;stroke-width:0.5;"/><path d="M467.3335,735.875 L467.3335,745.875 L477.3335,745.875 L467.3335,735.875" fill="#FEFFDD" style="stroke:#181818;stroke-width:0.5;"/><text fill="#000000" font-family="Helvetica" font-size="10" x="380.3335" y="750.1572">Basisvalidierung</text><path d="M32.0967,824.1563 L144.9629,824.1563 L144.9629,827.7969 L134.9629,837.7969 L32.0967,837.7969 L32.0967,824.1563" fill="#EEEEEE" style="stroke:#000000;stroke-width:1.5;"/><rect fill="none" height="342.6094" style="stroke:#000000;stroke-width:1.5;" width="543.0063" x="32.0967" y="824.1563"/><text fill="#000000" font-family="Helvetica" font-size="10" font-weight="700" x="47.0967" y="834.4385">macOS Pfad</text><path d="M51.0967,851.7969 L111.0527,851.7969 L111.0527,855.4375 L101.0527,865.4375 L51.0967,865.4375 L51.0967,851.7969" fill="#EEEEEE" style="stroke:#000000;stroke-width:1.5;"/><rect fill="none" height="300.9688" style="stroke:#000000;stroke-width:1.5;" width="499.0063" x="51.0967" y="851.7969"/><text fill="#000000" font-family="Helvetica" font-size="10" font-weight="700" x="66.0967" y="862.0791">alt</text><text fill="#000000" font-family="Helvetica" font-size="10" font-weight="700" x="126.0527" y="863.0791">[Secure Enclave verf&#252;gbar]</text><line style="stroke:#000000;stroke-width:1;stroke-dasharray:2,2;" x1="51.0967" x2="550.103" y1="1021.9219" y2="1021.9219"/><text fill="#000000" font-family="Helvetica" font-size="10" font-weight="700" x="56.0967" y="1033.2041">[Software Fallback]</text><path d="M72.0967,880.4375 L72.0967,936.4375 L204.0967,936.4375 L204.0967,890.4375 L194.0967,880.4375 L72.0967,880.4375" fill="#FEFFDD" style="stroke:#181818;stroke-width:0.5;"/><path d="M194.0967,880.4375 L194.0967,890.4375 L204.0967,890.4375 L194.0967,880.4375" fill="#FEFFDD" style="stroke:#181818;stroke-width:0.5;"/><text fill="#000000" font-family="Helvetica" font-size="10" x="78.0967" y="894.7197">Secure Enclave:</text><text fill="#000000" font-family="Helvetica" font-size="10" x="78.0967" y="906.3604">- Schl&#252;ssel generieren</text><text fill="#000000" font-family="Helvetica" font-size="10" x="78.0967" y="918.001">- App Attest Assertion</text><text fill="#000000" font-family="Helvetica" font-size="10" x="78.0967" y="929.6416">- Nonce + Posture</text><polygon fill="#181818" points="357.3335,955.6406,367.3335,959.6406,357.3335,963.6406,361.3335,959.6406" style="stroke:#181818;stroke-width:1;stroke-linejoin:miter;stroke-miterlimit:10;"/><line style="stroke:#181818;stroke-width:1;" x1="67.0967" x2="363.3335" y1="959.6406" y2="959.6406"/><text fill="#000000" font-family="Helvetica" font-size="10" x="74.0967" y="955.2822">(08)</text><text fill="#000000" font-family="Helvetica" font-size="10" x="98.624" y="955.2822">Registrierung (Apple Attestation)</text><path d="M374.3335,972.6406 L374.3335,1005.6406 L528.3335,1005.6406 L528.3335,982.6406 L518.3335,972.6406 L374.3335,972.6406" fill="#FEFFDD" style="stroke:#181818;stroke-width:0.5;"/><path d="M518.3335,972.6406 L518.3335,982.6406 L528.3335,982.6406 L518.3335,972.6406" fill="#FEFFDD" style="stroke:#181818;stroke-width:0.5;"/><text fill="#000000" font-family="Helvetica" font-size="10" x="380.3335" y="986.9229">Validierung:</text><text fill="#000000" font-family="Helvetica" font-size="10" x="380.3335" y="998.5635">- Attestation Object pr&#252;fen</text><path d="M72.0967,1045.5625 L72.0967,1089.5625 L219.0967,1089.5625 L219.0967,1055.5625 L209.0967,1045.5625 L72.0967,1045.5625" fill="#FEFFDD" style="stroke:#181818;stroke-width:0.5;"/><path d="M209.0967,1045.5625 L209.0967,1055.5625 L219.0967,1055.5625 L209.0967,1045.5625" fill="#FEFFDD" style="stroke:#181818;stroke-width:0.5;"/><text fill="#000000" font-family="Helvetica" font-size="10" x="78.0967" y="1059.8447">Software-Modus:</text><text fill="#000000" font-family="Helvetica" font-size="10" x="78.0967" y="1071.4854">- Schl&#252;sselpaar erzeugen</text><text fill="#000000" font-family="Helvetica" font-size="10" x="78.0967" y="1083.126">- Posture erfassen</text><polygon fill="#181818" points="357.3335,1109.125,367.3335,1113.125,357.3335,1117.125,361.3335,1113.125" style="stroke:#181818;stroke-width:1;stroke-linejoin:miter;stroke-miterlimit:10;"/><line style="stroke:#181818;stroke-width:1;" x1="67.0967" x2="363.3335" y1="1113.125" y2="1113.125"/><text fill="#000000" font-family="Helvetica" font-size="10" x="74.0967" y="1108.7666">(09)</text><text fill="#000000" font-family="Helvetica" font-size="10" x="98.624" y="1108.7666">Registrierung (Software)</text><path d="M374.3335,1126.125 L374.3335,1147.125 L477.3335,1147.125 L477.3335,1136.125 L467.3335,1126.125 L374.3335,1126.125" fill="#FEFFDD" style="stroke:#181818;stroke-width:0.5;"/><path d="M467.3335,1126.125 L467.3335,1136.125 L477.3335,1136.125 L467.3335,1126.125" fill="#FEFFDD" style="stroke:#181818;stroke-width:0.5;"/><text fill="#000000" font-family="Helvetica" font-size="10" x="380.3335" y="1140.4072">Basisvalidierung</text><rect fill="#EEEEEE" height="3" style="stroke:#EEEEEE;stroke-width:1;" width="599.103" x="10" y="1213.5859"/><line style="stroke:#000000;stroke-width:1;" x1="10" x2="609.103" y1="1213.5859" y2="1213.5859"/><line style="stroke:#000000;stroke-width:1;" x1="10" x2="609.103" y1="1216.5859" y2="1216.5859"/><rect fill="#EEEEEE" height="19.6406" style="stroke:#000000;stroke-width:2;" width="138.5557" x="240.2737" y="1204.7656"/><text fill="#000000" font-family="Helvetica" font-size="10" font-weight="700" x="246.2737" y="1218.0479">Gemeinsame Schritte</text><polygon fill="#181818" points="357.3335,1259.6875,367.3335,1263.6875,357.3335,1267.6875,361.3335,1263.6875" style="stroke:#181818;stroke-width:1;stroke-linejoin:miter;stroke-miterlimit:10;"/><line style="stroke:#181818;stroke-width:1;" x1="67.0967" x2="363.3335" y1="1263.6875" y2="1263.6875"/><text fill="#000000" font-family="Helvetica" font-size="10" x="74.0967" y="1253.5088">(10)</text><text fill="#000000" font-family="Helvetica" font-size="10" x="98.624" y="1247.6885">Token Exchange</text><text fill="#000000" font-family="Helvetica" font-size="10" x="98.624" y="1259.3291">(client_assertion + Evidence)</text><path d="M51.0967,1275.6875 L111.0527,1275.6875 L111.0527,1279.3281 L101.0527,1289.3281 L51.0967,1289.3281 L51.0967,1275.6875" fill="#EEEEEE" style="stroke:#000000;stroke-width:1.5;"/><rect fill="none" height="179.4844" style="stroke:#000000;stroke-width:1.5;" width="498.7866" x="51.0967" y="1275.6875"/><text fill="#000000" font-family="Helvetica" font-size="10" font-weight="700" x="66.0967" y="1285.9697">alt</text><text fill="#000000" font-family="Helvetica" font-size="10" font-weight="700" x="126.0527" y="1286.9697">[Hardware Attestation]</text><line style="stroke:#000000;stroke-width:1;stroke-dasharray:2,2;" x1="51.0967" x2="549.8833" y1="1379.25" y2="1379.25"/><text fill="#000000" font-family="Helvetica" font-size="10" font-weight="700" x="56.0967" y="1390.5322">[Software Attestation]</text><path d="M374.3335,1304.3281 L374.3335,1337.3281 L528.3335,1337.3281 L528.3335,1314.3281 L518.3335,1304.3281 L374.3335,1304.3281" fill="#FEFFDD" style="stroke:#181818;stroke-width:0.5;"/><path d="M518.3335,1304.3281 L518.3335,1314.3281 L528.3335,1314.3281 L518.3335,1304.3281" fill="#FEFFDD" style="stroke:#181818;stroke-width:0.5;"/><text fill="#000000" font-family="Helvetica" font-size="10" x="380.3335" y="1318.6104">Erweiterte Pr&#252;fung :</text><text fill="#000000" font-family="Helvetica" font-size="10" x="380.3335" y="1330.251">- TPM oder Secure Enclave</text><polygon fill="#181818" points="78.0967,1356.25,68.0967,1360.25,78.0967,1364.25,74.0967,1360.25" style="stroke:#181818;stroke-width:1;stroke-linejoin:miter;stroke-miterlimit:10;"/><line style="stroke:#181818;stroke-width:1;stroke-dasharray:2,2;" x1="72.0967" x2="368.3335" y1="1360.25" y2="1360.25"/><text fill="#000000" font-family="Helvetica" font-size="10" x="84.0967" y="1355.8916">(11)</text><text fill="#000000" font-family="Helvetica" font-size="10" x="108.624" y="1355.8916">Access Token + zg_att_token</text><path d="M374.3335,1402.8906 L374.3335,1423.8906 L460.3335,1423.8906 L460.3335,1412.8906 L450.3335,1402.8906 L374.3335,1402.8906" fill="#FEFFDD" style="stroke:#181818;stroke-width:0.5;"/><path d="M450.3335,1402.8906 L450.3335,1412.8906 L460.3335,1412.8906 L450.3335,1402.8906" fill="#FEFFDD" style="stroke:#181818;stroke-width:0.5;"/><text fill="#000000" font-family="Helvetica" font-size="10" x="380.3335" y="1417.1729">Basispr&#252;fung</text><polygon fill="#181818" points="78.0967,1443.1719,68.0967,1447.1719,78.0967,1451.1719,74.0967,1447.1719" style="stroke:#181818;stroke-width:1;stroke-linejoin:miter;stroke-miterlimit:10;"/><line style="stroke:#181818;stroke-width:1;stroke-dasharray:2,2;" x1="72.0967" x2="368.3335" y1="1447.1719" y2="1447.1719"/><text fill="#000000" font-family="Helvetica" font-size="10" x="84.0967" y="1442.8135">(12)</text><text fill="#000000" font-family="Helvetica" font-size="10" x="108.624" y="1442.8135">Access Token</text><?plantuml-src xLRDJjj04BxxAQOvLA0gz8uAaWjkYW8bZIbL4LAqjYVEbiskjRiEa6VfaSVWbXVhh7yIvmTegbRgeRaapipEVDzyCxD-nMKiyWHXR-zjbez5Mx1xbTizUsSzxrMcMJfcO55DmUeSFSzoAn1cFoBKaU3n3VZMeh4STIvJmo8nUyY729B58tYFLdECZBat5iUU5waxQ1tZXCVOWkFWykGe61oTdvxtFO32rjDyF7lGfNyBUlsJCp_eXz_2Y-1ixWcGCMrvp3CcBHm9ZlJ53BIkWWk_Ucx1ktTJjEpma0wWJ5nuR_dWbHykJfKacELAGeYwH3WFKGSe2HG7EZdJIGlSxq7dYzy_diDhvl1pEogpk5zAy-aY1UfD6GuE8E3IrJE5WmFFg-Yr3ojY-t12LYP46UWrX9RoNSim7edPep4eKfIeIpcASCiYj5aqcZt8bAS8T4Pp8buaOiB2LouJTMlWBPnocHCQL-nKgpnRDK5lo9BIxZxky4Nl3DuKLILgmzbZ6Z4zTt2V1HLoSZouvKnmKsDj-af5i3HFHnRKqFalMQ585gBDi_qLGnl2VXTG4rSXKAvPcq9tyHvs_ExkcbFlg0zT9OSypNNXkkJXj7BubX4xuks6J0j1g2eVcKm46k-vUdJG1XEUe8mHTZuf-jhThYRrwNQWfvYdLDFruhYwVSuT-5LBC75WJbNw6rphp4_nAyPW7_gOScEhteGTXwKXnxDiYmWhc2-fUP8os6QYdsW7tI8taEdPun1VKX65ePbGGtlBDC87ch68nJVFeIePhkIk8xJFL9AR3VqvRuoCCKsjwiJQqAazPMnEG6YO67d_IW--LF4QsjQbViyCDvD5lL-gfAnsWpCL-yFpYkgEMNmUDjTAySU6PH9YxBW7T3Un2JOtojPoB4LwJWweD-UcjP5bLQ-2JxvwRIaufs9eQTehvVw0O9IMBjk_DYJDPNWUVSVO_X-LVs5Kt7zqStTmZFGkmCOhL_KQzWjrWnA2ktZ4P8hNSYSkF0QiRbLgodf7xvPN_KTwVId4Q_H02UHfYe6cRMef8aBFjOahL2rQkN5LWdfbuhnrtkLRKVC2yUCOZQbul85fEc3M3gnxh3R7lDcsm5j8aLL8jyPHwl0J?></g></svg>