<svg xmlns="http://www.w3.org/2000/svg" xmlns:xlink="http://www.w3.org/1999/xlink" contentStyleType="text/css" data-diagram-type="SEQUENCE" height="1391px" preserveAspectRatio="none" style="width:1188px;height:1391px;background:#FFFFFF;" version="1.1" viewBox="0 0 1188 1391" width="1188px" zoomAndPan="magnify"><?plantuml 1.2026.6?><defs/><g><rect fill="#FEFCFF" height="1365.3125" style="stroke:#181818;stroke-width:0.5;" width="80.2471" x="198.7378" y="11"/><text fill="#000000" font-family="Helvetica" font-size="10" font-weight="700" x="219.9917" y="20.2822">Device</text><rect fill="#E6E6FA" height="1348.6719" style="stroke:#181818;stroke-width:0.5;" width="80.2471" x="198.7378" y="27.6406"/><text fill="#000000" font-family="Helvetica" font-size="10" font-weight="700" x="227.8335" y="36.9229">App</text><rect fill="#EDFDEC" height="1365.3125" style="stroke:#181818;stroke-width:0.5;" width="147.7842" x="654.7563" y="11"/><text fill="#000000" font-family="Helvetica" font-size="10" font-weight="700" x="666.7563" y="20.2822">Anbieter TI 2.0 Dienst</text><rect fill="#FFF3E5" height="1348.6719" style="stroke:#181818;stroke-width:0.5;" width="147.7842" x="654.7563" y="27.6406"/><text fill="#000000" font-family="Helvetica" font-size="10" font-weight="700" x="695.5039" y="36.9229">ZETA Guard</text><g><title>Nutzer</title><rect fill="#000000" fill-opacity="0.00000" height="1183.75" width="8" x="26.126" y="114.9219"/><line style="stroke:#000000;stroke-width:0.5;stroke-dasharray:5,5;" x1="29.626" x2="29.626" y1="114.9219" y2="1298.6719"/></g><g><title>ZETA Client</title><rect fill="#000000" fill-opacity="0.00000" height="1183.75" width="8" x="235.3613" y="114.9219"/><line style="stroke:#000000;stroke-width:0.5;stroke-dasharray:5,5;" x1="238.8613" x2="238.8613" y1="114.9219" y2="1298.6719"/></g><g><title/><rect fill="#FFFFFF" height="1175.75" style="stroke:#181818;stroke-width:1;" width="10" x="233.8613" y="122.9219"/></g><g><title>PDP</title><rect fill="#000000" fill-opacity="0.00000" height="1183.75" width="8" x="725.1484" y="114.9219"/><line style="stroke:#000000;stroke-width:0.5;stroke-dasharray:5,5;" x1="728.6484" x2="728.6484" y1="114.9219" y2="1298.6719"/></g><g><title/><rect fill="#FFFFFF" height="764.5" style="stroke:#181818;stroke-width:1;" width="10" x="723.6484" y="207.4844"/></g><g><title/><rect fill="#FFFFFF" height="245.7656" style="stroke:#181818;stroke-width:1;" width="10" x="723.6484" y="1034.9063"/></g><text fill="#000000" font-family="Helvetica" font-size="10" x="10" y="112.5635">Nutzer</text><ellipse cx="29.626" cy="51.7813" fill="#E2E2F0" rx="8" ry="8" style="stroke:#181818;stroke-width:0.5;"/><path d="M29.626,59.7813 L29.626,86.7813 M16.626,67.7813 L42.626,67.7813 M29.626,86.7813 L16.626,101.7813 M29.626,86.7813 L42.626,101.7813" fill="none" style="stroke:#181818;stroke-width:0.5;"/><rect fill="#FFE6CC" height="25.6406" rx="2.5" ry="2.5" style="stroke:#D79B00;stroke-width:0.5;" width="72.2471" x="202.7378" y="88.2813"/><text fill="#000000" font-family="Helvetica" font-size="10" x="209.7378" y="104.5635">ZETA Client</text><rect fill="#FFE6CC" height="37.2813" rx="2.5" ry="2.5" style="stroke:#D79B00;stroke-width:0.5;" width="116.9492" x="670.1738" y="76.6406"/><text fill="#000000" font-family="Helvetica" font-size="10" x="718.7681" y="92.9229">PDP</text><text fill="#000000" font-family="Helvetica" font-size="10" x="677.1738" y="104.5635">Authorization Server</text><text fill="#000000" font-family="Helvetica" font-size="10" x="10" y="1367.9541">Nutzer</text><ellipse cx="29.626" cy="1307.1719" fill="#E2E2F0" rx="8" ry="8" style="stroke:#181818;stroke-width:0.5;"/><path d="M29.626,1315.1719 L29.626,1342.1719 M16.626,1323.1719 L42.626,1323.1719 M29.626,1342.1719 L16.626,1357.1719 M29.626,1342.1719 L42.626,1357.1719" fill="none" style="stroke:#181818;stroke-width:0.5;"/><rect fill="#FFE6CC" height="25.6406" rx="2.5" ry="2.5" style="stroke:#D79B00;stroke-width:0.5;" width="72.2471" x="202.7378" y="1298.6719"/><text fill="#000000" font-family="Helvetica" font-size="10" x="209.7378" y="1314.9541">ZETA Client</text><rect fill="#FFE6CC" height="37.2813" rx="2.5" ry="2.5" style="stroke:#D79B00;stroke-width:0.5;" width="116.9492" x="670.1738" y="1298.6719"/><text fill="#000000" font-family="Helvetica" font-size="10" x="718.7681" y="1314.9541">PDP</text><text fill="#000000" font-family="Helvetica" font-size="10" x="677.1738" y="1326.5947">Authorization Server</text><path d="M13.626,126.9219 L73.582,126.9219 L73.582,130.5625 L63.582,140.5625 L13.626,140.5625 L13.626,126.9219" fill="#EEEEEE" style="stroke:#000000;stroke-width:1.5;"/><rect fill="none" height="1122.1094" style="stroke:#000000;stroke-width:1.5;" width="1154.4131" x="13.626" y="126.9219"/><text fill="#000000" font-family="Helvetica" font-size="10" font-weight="700" x="28.626" y="137.2041">alt</text><text fill="#000000" font-family="Helvetica" font-size="10" font-weight="700" x="88.582" y="138.2041">[Kein ZETA Attestation Token]</text><line style="stroke:#000000;stroke-width:1;stroke-dasharray:2,2;" x1="13.626" x2="1168.0391" y1="1092.5469" y2="1092.5469"/><text fill="#000000" font-family="Helvetica" font-size="10" font-weight="700" x="18.626" y="1103.8291">[ZETA Attestation Token vorhanden (Fast-Path)]</text><path d="M222.8613,154.5625 L282.8174,154.5625 L282.8174,158.2031 L272.8174,168.2031 L222.8613,168.2031 L222.8613,154.5625" fill="#EEEEEE" style="stroke:#000000;stroke-width:1.5;"/><rect fill="none" height="671.2188" style="stroke:#000000;stroke-width:1.5;" width="920.1777" x="222.8613" y="154.5625"/><text fill="#000000" font-family="Helvetica" font-size="10" font-weight="700" x="237.8613" y="164.8447">alt</text><text fill="#000000" font-family="Helvetica" font-size="10" font-weight="700" x="297.8174" y="165.8447">[Hardware Attestation: iOS, iPadOS, macOS (Apple App Attest)]</text><line style="stroke:#000000;stroke-width:1;stroke-dasharray:2,2;" x1="222.8613" x2="1143.0391" y1="320.0469" y2="320.0469"/><text fill="#000000" font-family="Helvetica" font-size="10" font-weight="700" x="227.8613" y="331.3291">[Hardware Attestation: Android (Keystore, TEE, StrongBox)]</text><line style="stroke:#000000;stroke-width:1;stroke-dasharray:2,2;" x1="222.8613" x2="1143.0391" y1="711.6563" y2="711.6563"/><text fill="#000000" font-family="Helvetica" font-size="10" font-weight="700" x="227.8613" y="722.9385">[Software Attestation (Legacy OIDC DCR)]</text><polygon fill="#181818" points="711.6484,203.4844,721.6484,207.4844,711.6484,211.4844,715.6484,207.4844" style="stroke:#181818;stroke-width:1;stroke-linejoin:miter;stroke-miterlimit:10;"/><line style="stroke:#181818;stroke-width:1;" x1="243.8613" x2="717.6484" y1="207.4844" y2="207.4844"/><text fill="#000000" font-family="Helvetica" font-size="10" x="250.8613" y="197.3057">(01)</text><text fill="#000000" font-family="Helvetica" font-size="10" x="275.3887" y="191.4854">POST /register</text><text fill="#000000" font-family="Helvetica" font-size="10" x="275.3887" y="203.126">{attestation_type="apple", Apple_Attestation_Object, PuK.Client.Sig}</text><line style="stroke:#181818;stroke-width:1;" x1="733.6484" x2="775.6484" y1="233.125" y2="233.125"/><line style="stroke:#181818;stroke-width:1;" x1="775.6484" x2="775.6484" y1="233.125" y2="246.125"/><line style="stroke:#181818;stroke-width:1;" x1="734.6484" x2="775.6484" y1="246.125" y2="246.125"/><polygon fill="#181818" points="744.6484,242.125,734.6484,246.125,744.6484,250.125,740.6484,246.125" style="stroke:#181818;stroke-width:1;stroke-linejoin:miter;stroke-miterlimit:10;"/><text fill="#000000" font-family="Helvetica" font-size="10" x="740.6484" y="228.7666">(02)</text><text fill="#000000" font-family="Helvetica" font-size="10" x="765.1758" y="228.7666">Validiere Apple_Attestation_Object</text><path d="M738.6484,259.125 L738.6484,303.125 L973.6484,303.125 L973.6484,269.125 L963.6484,259.125 L738.6484,259.125" fill="#FEFFDD" style="stroke:#181818;stroke-width:0.5;"/><path d="M963.6484,259.125 L963.6484,269.125 L973.6484,269.125 L963.6484,259.125" fill="#FEFFDD" style="stroke:#181818;stroke-width:0.5;"/><text fill="#000000" font-family="Helvetica" font-size="10" x="744.6484" y="273.4072">AuthS verifiziert Apple App Attest Root CA.</text><text fill="#000000" font-family="Helvetica" font-size="10" x="744.6484" y="285.0479">Extrahiert Hash(PuK.Client.Sig) aus Objekt</text><text fill="#000000" font-family="Helvetica" font-size="10" x="744.6484" y="296.6885">und vergleicht ihn mit dem Payload.</text><polygon fill="#181818" points="711.6484,398.8906,721.6484,402.8906,711.6484,406.8906,715.6484,402.8906" style="stroke:#181818;stroke-width:1;stroke-linejoin:miter;stroke-miterlimit:10;"/><line style="stroke:#181818;stroke-width:1;" x1="243.8613" x2="717.6484" y1="402.8906" y2="402.8906"/><text fill="#000000" font-family="Helvetica" font-size="10" x="250.8613" y="375.251">(03)</text><text fill="#000000" font-family="Helvetica" font-size="10" x="275.3887" y="351.9697">POST /register</text><text fill="#000000" font-family="Helvetica" font-size="10" x="275.3887" y="363.6104">{attestation_type="android", PuK.AK.Sig,</text><text fill="#000000" font-family="Helvetica" font-size="10" x="275.3887" y="375.251">Android_Key_Attestation_Certificate_Chain,</text><text fill="#000000" font-family="Helvetica" font-size="10" x="275.3887" y="386.8916">PuK.Client.Sig, signed_Hash_PuK.Client.Sig,</text><text fill="#000000" font-family="Helvetica" font-size="10" x="275.3887" y="398.5322">play_integrity_token}</text><line style="stroke:#181818;stroke-width:1;" x1="733.6484" x2="775.6484" y1="428.5313" y2="428.5313"/><line style="stroke:#181818;stroke-width:1;" x1="775.6484" x2="775.6484" y1="428.5313" y2="441.5313"/><line style="stroke:#181818;stroke-width:1;" x1="734.6484" x2="775.6484" y1="441.5313" y2="441.5313"/><polygon fill="#181818" points="744.6484,437.5313,734.6484,441.5313,744.6484,445.5313,740.6484,441.5313" style="stroke:#181818;stroke-width:1;stroke-linejoin:miter;stroke-miterlimit:10;"/><text fill="#000000" font-family="Helvetica" font-size="10" x="740.6484" y="424.1729">(04)</text><text fill="#000000" font-family="Helvetica" font-size="10" x="765.1758" y="424.1729">Validiere Zertifikatskette gegen Google Root CA</text><line style="stroke:#181818;stroke-width:1;" x1="733.6484" x2="775.6484" y1="467.1719" y2="467.1719"/><line style="stroke:#181818;stroke-width:1;" x1="775.6484" x2="775.6484" y1="467.1719" y2="480.1719"/><line style="stroke:#181818;stroke-width:1;" x1="734.6484" x2="775.6484" y1="480.1719" y2="480.1719"/><polygon fill="#181818" points="744.6484,476.1719,734.6484,480.1719,744.6484,484.1719,740.6484,480.1719" style="stroke:#181818;stroke-width:1;stroke-linejoin:miter;stroke-miterlimit:10;"/><text fill="#000000" font-family="Helvetica" font-size="10" x="740.6484" y="462.8135">(05)</text><text fill="#000000" font-family="Helvetica" font-size="10" x="765.1758" y="462.8135">Pr&#252;fe signed_Hash_PuK.Client.Sig</text><path d="M712.6484,492.1719 L776.457,492.1719 L776.457,495.8125 L766.457,505.8125 L712.6484,505.8125 L712.6484,492.1719" fill="#EEEEEE" style="stroke:#000000;stroke-width:1.5;"/><rect fill="none" height="139.5625" style="stroke:#000000;stroke-width:1.5;" width="405.3906" x="712.6484" y="492.1719"/><text fill="#000000" font-family="Helvetica" font-size="10" font-weight="700" x="727.6484" y="502.4541">opt</text><text fill="#000000" font-family="Helvetica" font-size="10" font-weight="700" x="791.457" y="503.4541">[Play Integrity Pr&#252;fung]</text><line style="stroke:#181818;stroke-width:1;" x1="733.6484" x2="775.6484" y1="533.4531" y2="533.4531"/><line style="stroke:#181818;stroke-width:1;" x1="775.6484" x2="775.6484" y1="533.4531" y2="546.4531"/><line style="stroke:#181818;stroke-width:1;" x1="734.6484" x2="775.6484" y1="546.4531" y2="546.4531"/><polygon fill="#181818" points="744.6484,542.4531,734.6484,546.4531,744.6484,550.4531,740.6484,546.4531" style="stroke:#181818;stroke-width:1;stroke-linejoin:miter;stroke-miterlimit:10;"/><text fill="#000000" font-family="Helvetica" font-size="10" x="740.6484" y="529.0947">(06)</text><text fill="#000000" font-family="Helvetica" font-size="10" x="765.1758" y="529.0947">Entschl&#252;ssele play_integrity_token (lokal/remote)</text><line style="stroke:#181818;stroke-width:1;" x1="733.6484" x2="775.6484" y1="572.0938" y2="572.0938"/><line style="stroke:#181818;stroke-width:1;" x1="775.6484" x2="775.6484" y1="572.0938" y2="585.0938"/><line style="stroke:#181818;stroke-width:1;" x1="734.6484" x2="775.6484" y1="585.0938" y2="585.0938"/><polygon fill="#181818" points="744.6484,581.0938,734.6484,585.0938,744.6484,589.0938,740.6484,585.0938" style="stroke:#181818;stroke-width:1;stroke-linejoin:miter;stroke-miterlimit:10;"/><text fill="#000000" font-family="Helvetica" font-size="10" x="740.6484" y="567.7354">(07)</text><text fill="#000000" font-family="Helvetica" font-size="10" x="765.1758" y="567.7354">Verifiziere Nonce (Muss Hash(PuK.Client.Sig) entsprechen)</text><line style="stroke:#181818;stroke-width:1;" x1="733.6484" x2="775.6484" y1="610.7344" y2="610.7344"/><line style="stroke:#181818;stroke-width:1;" x1="775.6484" x2="775.6484" y1="610.7344" y2="623.7344"/><line style="stroke:#181818;stroke-width:1;" x1="734.6484" x2="775.6484" y1="623.7344" y2="623.7344"/><polygon fill="#181818" points="744.6484,619.7344,734.6484,623.7344,744.6484,627.7344,740.6484,623.7344" style="stroke:#181818;stroke-width:1;stroke-linejoin:miter;stroke-miterlimit:10;"/><text fill="#000000" font-family="Helvetica" font-size="10" x="740.6484" y="606.376">(08)</text><text fill="#000000" font-family="Helvetica" font-size="10" x="765.1758" y="606.376">Werte Verdicts aus (appIntegrity, deviceIntegrity, accountDetails)</text><path d="M738.6484,650.7344 L738.6484,694.7344 L1041.6484,694.7344 L1041.6484,660.7344 L1031.6484,650.7344 L738.6484,650.7344" fill="#FEFFDD" style="stroke:#181818;stroke-width:0.5;"/><path d="M1031.6484,650.7344 L1031.6484,660.7344 L1041.6484,660.7344 L1031.6484,650.7344" fill="#FEFFDD" style="stroke:#181818;stroke-width:0.5;"/><text fill="#000000" font-family="Helvetica" font-size="10" x="744.6484" y="665.0166">PuK.AK.Sig muss mit dem Blatt-Zertifikat</text><text fill="#000000" font-family="Helvetica" font-size="10" x="744.6484" y="676.6572">der Certificate Chain &#252;bereinstimmen.</text><text fill="#000000" font-family="Helvetica" font-size="10" x="744.6484" y="688.2979">Sicherheitsniveau: TrustedEnvironment oder StrongBox.</text><polygon fill="#181818" points="711.6484,813.7813,721.6484,817.7813,711.6484,821.7813,715.6484,817.7813" style="stroke:#181818;stroke-width:1;stroke-linejoin:miter;stroke-miterlimit:10;"/><line style="stroke:#181818;stroke-width:1;" x1="243.8613" x2="717.6484" y1="817.7813" y2="817.7813"/><text fill="#000000" font-family="Helvetica" font-size="10" x="250.8613" y="778.501">(09)</text><text fill="#000000" font-family="Helvetica" font-size="10" x="275.3887" y="743.5791">POST /register</text><text fill="#000000" font-family="Helvetica" font-size="10" x="275.3887" y="755.2197">{</text><text fill="#000000" font-family="Helvetica" font-size="10" x="281.7461" y="766.8604">"client_name": "myClient",</text><text fill="#000000" font-family="Helvetica" font-size="10" x="281.7461" y="778.501">"grant_types": ["urn:ietf:params:oauth:grant-type:token-exchange", "refresh_token"],</text><text fill="#000000" font-family="Helvetica" font-size="10" x="281.7461" y="790.1416">"jwks": { "keys": [ PuK.Client.Sig ] },</text><text fill="#000000" font-family="Helvetica" font-size="10" x="281.7461" y="801.7822">"token_endpoint_auth_method": "private_key_jwt"</text><text fill="#000000" font-family="Helvetica" font-size="10" x="275.3887" y="813.4229">}</text><line style="stroke:#181818;stroke-width:1;" x1="733.6484" x2="775.6484" y1="857.4219" y2="857.4219"/><line style="stroke:#181818;stroke-width:1;" x1="775.6484" x2="775.6484" y1="857.4219" y2="870.4219"/><line style="stroke:#181818;stroke-width:1;" x1="734.6484" x2="775.6484" y1="870.4219" y2="870.4219"/><polygon fill="#181818" points="744.6484,866.4219,734.6484,870.4219,744.6484,874.4219,740.6484,870.4219" style="stroke:#181818;stroke-width:1;stroke-linejoin:miter;stroke-miterlimit:10;"/><text fill="#000000" font-family="Helvetica" font-size="10" x="740.6484" y="853.0635">(10)</text><text fill="#000000" font-family="Helvetica" font-size="10" x="765.1758" y="853.0635">Store Client Placeholder (state: pending_user_binding)</text><line style="stroke:#181818;stroke-width:1;" x1="733.6484" x2="775.6484" y1="907.7031" y2="907.7031"/><line style="stroke:#181818;stroke-width:1;" x1="775.6484" x2="775.6484" y1="907.7031" y2="920.7031"/><line style="stroke:#181818;stroke-width:1;" x1="734.6484" x2="775.6484" y1="920.7031" y2="920.7031"/><polygon fill="#181818" points="744.6484,916.7031,734.6484,920.7031,744.6484,924.7031,740.6484,920.7031" style="stroke:#181818;stroke-width:1;stroke-linejoin:miter;stroke-miterlimit:10;"/><text fill="#000000" font-family="Helvetica" font-size="10" x="740.6484" y="897.5244">(11)</text><text fill="#000000" font-family="Helvetica" font-size="10" x="765.1758" y="891.7041">Generiere OTP &amp; transaction_id</text><text fill="#000000" font-family="Helvetica" font-size="10" x="765.1758" y="903.3447">Speichere Request im tempor&#228;ren Cache</text><polygon fill="#181818" points="40.626,942.3438,30.626,946.3438,40.626,950.3438,36.626,946.3438" style="stroke:#181818;stroke-width:1;stroke-linejoin:miter;stroke-miterlimit:10;"/><line style="stroke:#181818;stroke-width:1;" x1="34.626" x2="722.6484" y1="946.3438" y2="946.3438"/><text fill="#000000" font-family="Helvetica" font-size="10" x="46.626" y="941.9854">(12)</text><text fill="#000000" font-family="Helvetica" font-size="10" x="71.1533" y="941.9854">E-Mail mit OTP-Best&#228;tigungscode (Out-of-Band)</text><polygon fill="#181818" points="254.8613,967.9844,244.8613,971.9844,254.8613,975.9844,250.8613,971.9844" style="stroke:#181818;stroke-width:1;stroke-linejoin:miter;stroke-miterlimit:10;"/><line style="stroke:#181818;stroke-width:1;stroke-dasharray:2,2;" x1="248.8613" x2="722.6484" y1="971.9844" y2="971.9844"/><text fill="#000000" font-family="Helvetica" font-size="10" x="260.8613" y="967.626">(13)</text><text fill="#000000" font-family="Helvetica" font-size="10" x="285.3887" y="967.626">202 Accepted {transaction_id, message="OTP sent"}</text><polygon fill="#181818" points="221.8613,993.625,231.8613,997.625,221.8613,1001.625,225.8613,997.625" style="stroke:#181818;stroke-width:1;stroke-linejoin:miter;stroke-miterlimit:10;"/><line style="stroke:#181818;stroke-width:1;" x1="29.626" x2="227.8613" y1="997.625" y2="997.625"/><text fill="#000000" font-family="Helvetica" font-size="10" x="36.626" y="993.2666">(14)</text><text fill="#000000" font-family="Helvetica" font-size="10" x="61.1533" y="993.2666">Gibt OTP-Best&#228;tigungscode ein</text><polygon fill="#181818" points="711.6484,1030.9063,721.6484,1034.9063,711.6484,1038.9063,715.6484,1034.9063" style="stroke:#181818;stroke-width:1;stroke-linejoin:miter;stroke-miterlimit:10;"/><line style="stroke:#181818;stroke-width:1;" x1="243.8613" x2="717.6484" y1="1034.9063" y2="1034.9063"/><text fill="#000000" font-family="Helvetica" font-size="10" x="250.8613" y="1024.7275">(15)</text><text fill="#000000" font-family="Helvetica" font-size="10" x="275.3887" y="1018.9072">POST /register/verify</text><text fill="#000000" font-family="Helvetica" font-size="10" x="275.3887" y="1030.5479">{transaction_id, code}</text><line style="stroke:#181818;stroke-width:1;" x1="733.6484" x2="775.6484" y1="1060.5469" y2="1060.5469"/><line style="stroke:#181818;stroke-width:1;" x1="775.6484" x2="775.6484" y1="1060.5469" y2="1073.5469"/><line style="stroke:#181818;stroke-width:1;" x1="734.6484" x2="775.6484" y1="1073.5469" y2="1073.5469"/><polygon fill="#181818" points="744.6484,1069.5469,734.6484,1073.5469,744.6484,1077.5469,740.6484,1073.5469" style="stroke:#181818;stroke-width:1;stroke-linejoin:miter;stroke-miterlimit:10;"/><text fill="#000000" font-family="Helvetica" font-size="10" x="740.6484" y="1056.1885">(16)</text><text fill="#000000" font-family="Helvetica" font-size="10" x="765.1758" y="1056.1885">Verifiziere OTP-Code gegen Cache</text><polygon fill="#181818" points="711.6484,1159.75,721.6484,1163.75,711.6484,1167.75,715.6484,1163.75" style="stroke:#181818;stroke-width:1;stroke-linejoin:miter;stroke-miterlimit:10;"/><line style="stroke:#181818;stroke-width:1;" x1="243.8613" x2="717.6484" y1="1163.75" y2="1163.75"/><text fill="#000000" font-family="Helvetica" font-size="10" x="250.8613" y="1141.9307">(17)</text><text fill="#000000" font-family="Helvetica" font-size="10" x="275.3887" y="1124.4697">POST /register</text><text fill="#000000" font-family="Helvetica" font-size="10" x="275.3887" y="1136.1104">{attestation_type="zeta_attestation_token",</text><text fill="#000000" font-family="Helvetica" font-size="10" x="275.3887" y="1147.751">zeta_guard_attestation_token, PuK.Client.Sig,</text><text fill="#000000" font-family="Helvetica" font-size="10" x="275.3887" y="1159.3916">Besitznachweis (Signatur/Assertion)}</text><line style="stroke:#181818;stroke-width:1;" x1="733.6484" x2="775.6484" y1="1189.3906" y2="1189.3906"/><line style="stroke:#181818;stroke-width:1;" x1="775.6484" x2="775.6484" y1="1189.3906" y2="1202.3906"/><line style="stroke:#181818;stroke-width:1;" x1="734.6484" x2="775.6484" y1="1202.3906" y2="1202.3906"/><polygon fill="#181818" points="744.6484,1198.3906,734.6484,1202.3906,744.6484,1206.3906,740.6484,1202.3906" style="stroke:#181818;stroke-width:1;stroke-linejoin:miter;stroke-miterlimit:10;"/><text fill="#000000" font-family="Helvetica" font-size="10" x="740.6484" y="1185.0322">(18)</text><text fill="#000000" font-family="Helvetica" font-size="10" x="765.1758" y="1185.0322">Pr&#252;fe Token-Signatur &amp; Vertrauensstellung</text><line style="stroke:#181818;stroke-width:1;" x1="733.6484" x2="775.6484" y1="1228.0313" y2="1228.0313"/><line style="stroke:#181818;stroke-width:1;" x1="775.6484" x2="775.6484" y1="1228.0313" y2="1241.0313"/><line style="stroke:#181818;stroke-width:1;" x1="734.6484" x2="775.6484" y1="1241.0313" y2="1241.0313"/><polygon fill="#181818" points="744.6484,1237.0313,734.6484,1241.0313,744.6484,1245.0313,740.6484,1241.0313" style="stroke:#181818;stroke-width:1;stroke-linejoin:miter;stroke-miterlimit:10;"/><text fill="#000000" font-family="Helvetica" font-size="10" x="740.6484" y="1223.6729">(19)</text><text fill="#000000" font-family="Helvetica" font-size="10" x="765.1758" y="1223.6729">Extrahiere PuK.AK.Sig aus Token, verifiziere Besitznachweis</text><polygon fill="#181818" points="254.8613,1276.6719,244.8613,1280.6719,254.8613,1284.6719,250.8613,1280.6719" style="stroke:#181818;stroke-width:1;stroke-linejoin:miter;stroke-miterlimit:10;"/><line style="stroke:#181818;stroke-width:1;stroke-dasharray:2,2;" x1="248.8613" x2="722.6484" y1="1280.6719" y2="1280.6719"/><text fill="#000000" font-family="Helvetica" font-size="10" x="260.8613" y="1276.3135">(20)</text><text fill="#000000" font-family="Helvetica" font-size="10" x="285.3887" y="1276.3135">201 Created {client_id, status="pending_user_binding"}</text><?plantuml-src dLRTSjeu5BxtKvpwOWiJJBgzPDhC471J9arXWAIpNJeUOH-CYYsvaan2EdcRFaRlyc9x90E1b6IxcujWMz9t_hxl7BtW8ixA1A7PF2xAF0iojfAbQPeRutaiDbB1fKO5J8F_iJItg7pFcyeRyBkuv37wq0slUfqmwlG_z8SUW5jh5uKFWs7leXqEHt-Dnk75TXsWOChmc1TC6EXa7Ed7edyEn-trkmzltjoYOISdT015Oa6zpMzblIsc70qvDkx1w-OhwD8vRQpH_bMl6mxt_N7OPoLJYG_sEJgxR0-xJ_ZKBiryv5mQT0SJOL-buhVCS2bWX6f9ENZMmIg8eoEFPGREaGjd4zh6e3OLp5WkK3ZBxf_T-9wyksOAT_UrWFT73U03bjZVdCNz4TGeknbjAuhrrhh3i7_hT0OdLH17HoqOz4TZE5QOSatfceZlx04-Cgi2t_hCulaDSBZHZlceF_sAiMd0e3nlLjZD4K_ljlQgL6tCjU2APJpXgF19hErH8Gs2ukdSW9njpbTub60-uxU4O-1nh32KacZJRav4U6CKcxjTxvcUr_QTh0ChDLYZ2pCH9TM6ODCCUKmM-Ln0pWqacCE0hJB9agRdNCDCunEbQ8j4IPv0xHnNceI13HY7OGD6HacHdigR9-lmUrMeuFqgs-rp6qI3w5TzZiZeNZex53TbAMO6eywSSK5xzpFG0CrJWKbainCzMfk8WfGUSM4mLToi8cCP-JkL_LmPNZ2Z5qWEGOef2ZYJahAxAS-JE0Dr_tE6ptYsFRbza8M10JaBlOsp5Kef7ZOVCXKAe-DvTlzJQoJF3iKBjKmkM4Q5oOcEzMVXhhQiHFWeHOnGkoYrFimzUj25mdYEuddKJvHDjDW9ZursdAsH7hUXDeYZji_kV61nB4jXkjH_UAOVuAd__9gyWp9x81ZaDeID54upecNmKE29IAZ3xZ0D7DFW_kUKii2fuV8yHq5Q796iKCsH6otu4bdPWh4gYUj9A9QSz95RFKWBjvNBhk96ScOUAmvg7p1byGhwlMu7kftXVz7NH03uiTiM2PQZtm8_Nwt7IyEjfegwlHEVfjM__LA95isKMOk60SjrIpB2RhbTWTtLSfG9y2QUCv7QXkahd2aa2hiL_qk5-_LwOG6_Wx-WHc6X7_LF-09trLPtBgB25PAO6Lc3KOuqRnBhRw7uqigROAAlryQVhFLf2-qT8jF8TgLDSaWoCSvbPdDUiod55XHqb8iqAccaHrFkNkeLrikgOD0Ny8uhUg2n3xLn_zrb_Q2jCnGa22k6_dW0Vm3rOg7fmc1x4q-84GKwJb1Bm6-bxTmy1uDv8TNz3qNIwp1QteUsDmtIRN11n7Qa9EZWbCxU_p0y9Rthc2W4jNvf0ZaBJgbbrX-6wClrS0OgsBKaMHc7yVhLwmR989x3UTZx6CAQ53nviMkSh5Tv2uAMFGBjECQ2-0lVzoEZAOnQivGwjWrSMpxTRLBuYLarit86rLqf22d1R5g5wUvHMpkKGJvzAaBIrcvSLUjPLAgenAhsSjdhUhyr_e_TQ5sHFXu7PStUUV_Mzwot7UjWrVEh4dgUa_3XEmuifIAv9BRNlcFQ10DcvdNl_mv9U-cAzZuxvP6Qt4fghtY_hZ--mD1soZatju82k4PEFPU-2cPATTocQQ7iqVhXTAm7c0iks9mY_bEQAASbtKB9-IpR3ATVXjBcqeAxNTYs_N7bwN8dtVjEUaxtX_dw9tGKCaVNBRzf_bCIIltMFoHx8kq_?></g></svg>