<svg xmlns="http://www.w3.org/2000/svg" xmlns:xlink="http://www.w3.org/1999/xlink" contentStyleType="text/css" data-diagram-type="SEQUENCE" height="2471px" preserveAspectRatio="none" style="width:1615px;height:2471px;background:#FFFFFF;" version="1.1" viewBox="0 0 1615 2471" width="1615px" zoomAndPan="magnify"><?plantuml 1.2026.6?><defs/><g><rect fill="#F8F8FF" height="2445.1094" style="stroke:#181818;stroke-width:0.5;" width="315.8252" x="215.5337" y="11"/><text fill="#000000" font-family="Helvetica" font-size="10" font-weight="700" x="334.0273" y="20.2822">Mobile Device</text><rect fill="#DDDDDD" height="2428.4688" style="stroke:#181818;stroke-width:0.5;" width="315.8252" x="215.5337" y="27.6406"/><text fill="#000000" font-family="Helvetica" font-size="10" font-weight="700" x="320.7705" y="36.9229">mobile Application</text><rect fill="#C9FFC9" height="2445.1094" style="stroke:#181818;stroke-width:0.5;" width="371.6943" x="769.9834" y="11"/><text fill="#000000" font-family="Helvetica" font-size="10" font-weight="700" x="931.856" y="20.2822">Provider</text><rect fill="#DDDDDD" height="2428.4688" style="stroke:#181818;stroke-width:0.5;" width="371.6943" x="769.9834" y="27.6406"/><text fill="#000000" font-family="Helvetica" font-size="10" font-weight="700" x="917.4663" y="36.9229">ZETA Guard 1</text><rect fill="#C9FFC9" height="2445.1094" style="stroke:#181818;stroke-width:0.5;" width="284.6729" x="1232.9268" y="11"/><text fill="#000000" font-family="Helvetica" font-size="10" font-weight="700" x="1351.2886" y="20.2822">Provider</text><rect fill="#DDDDDD" height="2428.4688" style="stroke:#181818;stroke-width:0.5;" width="284.6729" x="1232.9268" y="27.6406"/><text fill="#000000" font-family="Helvetica" font-size="10" font-weight="700" x="1336.8989" y="36.9229">ZETA Guard 2</text><g><title>User</title><rect fill="#000000" fill-opacity="0.00000" height="2263.5469" width="8" x="25.5" y="114.9219"/><line style="stroke:#000000;stroke-width:0.5;stroke-dasharray:5,5;" x1="29" x2="29" y1="114.9219" y2="2378.4688"/></g><g><title>Application</title><rect fill="#000000" fill-opacity="0.00000" height="2263.5469" width="8" x="250.9707" y="114.9219"/><line style="stroke:#000000;stroke-width:0.5;stroke-dasharray:5,5;" x1="254.4707" x2="254.4707" y1="114.9219" y2="2378.4688"/></g><g><title/><rect fill="#FFFFFF" height="599.5781" style="stroke:#181818;stroke-width:1;" width="10" x="249.4707" y="1588.0469"/></g><g><title>ZETA Client</title><rect fill="#000000" fill-opacity="0.00000" height="2263.5469" width="8" x="487.7354" y="114.9219"/><line style="stroke:#000000;stroke-width:0.5;stroke-dasharray:5,5;" x1="491.2354" x2="491.2354" y1="114.9219" y2="2378.4688"/></g><g><title/><rect fill="#FFFFFF" height="407.0938" style="stroke:#181818;stroke-width:1;" width="10" x="486.2354" y="162.5625"/></g><g><title/><rect fill="#FFFFFF" height="887.8281" style="stroke:#181818;stroke-width:1;" width="10" x="486.2354" y="620.9375"/></g><line style="stroke:#000000;stroke-width:2;" x1="482.2354" x2="500.2354" y1="1499.7656" y2="1517.7656"/><line style="stroke:#000000;stroke-width:2;" x1="482.2354" x2="500.2354" y1="1517.7656" y2="1499.7656"/><g><title/><rect fill="#FFFFFF" height="573.9375" style="stroke:#181818;stroke-width:1;" width="10" x="486.2354" y="1613.6875"/></g><g><title/><rect fill="#FFFFFF" height="76.9219" style="stroke:#181818;stroke-width:1;" width="10" x="486.2354" y="2244.9063"/></g><g><title>First AuthS</title><rect fill="#000000" fill-opacity="0.00000" height="2263.5469" width="8" x="804.8516" y="114.9219"/><line style="stroke:#000000;stroke-width:0.5;stroke-dasharray:5,5;" x1="808.3516" x2="808.3516" y1="114.9219" y2="2378.4688"/></g><g><title/><rect fill="#FFFFFF" height="886.1875" style="stroke:#181818;stroke-width:1;" width="10" x="803.3516" y="251.125"/></g><g><title>PDP DB</title><rect fill="#000000" fill-opacity="0.00000" height="2263.5469" width="8" x="1108.4277" y="114.9219"/><line style="stroke:#000000;stroke-width:0.5;stroke-dasharray:5,5;" x1="1111.9277" x2="1111.9277" y1="114.9219" y2="2378.4688"/></g><g><title>Attestation</title><rect fill="#000000" fill-opacity="0.00000" height="2263.5469" width="8" x="1188.8022" y="114.9219"/><line style="stroke:#000000;stroke-width:0.5;stroke-dasharray:5,5;" x1="1192.3022" x2="1192.3022" y1="114.9219" y2="2378.4688"/></g><g><title/><rect fill="#FFFFFF" height="25.6406" style="stroke:#181818;stroke-width:1;" width="10" x="1187.3022" y="674.2188"/></g><g><title/><rect fill="#FFFFFF" height="25.6406" style="stroke:#181818;stroke-width:1;" width="10" x="1187.3022" y="806.4219"/></g><g><title>AuthS</title><rect fill="#000000" fill-opacity="0.00000" height="2263.5469" width="8" x="1255.3193" y="114.9219"/><line style="stroke:#000000;stroke-width:0.5;stroke-dasharray:5,5;" x1="1258.8193" x2="1258.8193" y1="114.9219" y2="2378.4688"/></g><g><title/><rect fill="#FFFFFF" height="548.2969" style="stroke:#181818;stroke-width:1;" width="10" x="1253.8193" y="1639.3281"/></g><g><title>PDP DB</title><rect fill="#000000" fill-opacity="0.00000" height="2263.5469" width="8" x="1484.3496" y="114.9219"/><line style="stroke:#000000;stroke-width:0.5;stroke-dasharray:5,5;" x1="1487.8496" x2="1487.8496" y1="114.9219" y2="2378.4688"/></g><g><title>Federation </title><rect fill="#000000" fill-opacity="0.00000" height="2263.5469" width="8" x="1565.5884" y="114.9219"/><line style="stroke:#000000;stroke-width:0.5;stroke-dasharray:5,5;" x1="1569.0884" x2="1569.0884" y1="114.9219" y2="2378.4688"/></g><g><title/><rect fill="#FFFFFF" height="25.6406" style="stroke:#181818;stroke-width:1;" width="10" x="1564.0884" y="1789.7344"/></g><text fill="#000000" font-family="Helvetica" font-size="10" x="14.6035" y="112.5635">User</text><ellipse cx="29" cy="51.7813" fill="#E2E2F0" rx="8" ry="8" style="stroke:#181818;stroke-width:0.5;"/><path d="M29,59.7813 L29,86.7813 M16,67.7813 L42,67.7813 M29,86.7813 L16,101.7813 M29,86.7813 L42,101.7813" fill="none" style="stroke:#181818;stroke-width:0.5;"/><rect fill="#D5E8D4" height="25.6406" rx="2.5" ry="2.5" style="stroke:#82B366;stroke-width:0.5;" width="69.874" x="219.5337" y="88.2813"/><text fill="#000000" font-family="Helvetica" font-size="10" x="226.5337" y="104.5635">Application</text><rect fill="#FFE6CC" height="37.2813" rx="2.5" ry="2.5" style="stroke:#D79B00;stroke-width:0.5;" width="72.2471" x="455.1118" y="76.6406"/><text fill="#000000" font-family="Helvetica" font-size="10" x="462.1118" y="92.9229">ZETA Client</text><text fill="#000000" font-family="Helvetica" font-size="10" x="477.0313" y="104.5635">(SDK)</text><rect fill="#FFE6CC" height="25.6406" rx="2.5" ry="2.5" style="stroke:#D79B00;stroke-width:0.5;" width="68.7363" x="773.9834" y="88.2813"/><text fill="#000000" font-family="Helvetica" font-size="10" x="780.9834" y="104.5635">First AuthS</text><rect fill="#FFE6CC" height="25.6406" rx="2.5" ry="2.5" style="stroke:#D79B00;stroke-width:0.5;" width="51.5" x="1086.1777" y="88.2813"/><text fill="#000000" font-family="Helvetica" font-size="10" x="1093.1777" y="104.5635">PDP DB</text><rect fill="#E2E2F0" height="37.2813" rx="2.5" ry="2.5" style="stroke:#181818;stroke-width:0.5;" width="69.249" x="1157.6777" y="76.6406"/><text fill="#000000" font-family="Helvetica" font-size="10" x="1164.6777" y="92.9229">Attestation</text><text fill="#000000" font-family="Helvetica" font-size="10" x="1173.8232" y="104.5635">Service</text><rect fill="#FFE6CC" height="25.6406" rx="2.5" ry="2.5" style="stroke:#D79B00;stroke-width:0.5;" width="43.7852" x="1236.9268" y="88.2813"/><text fill="#000000" font-family="Helvetica" font-size="10" x="1243.9268" y="104.5635">AuthS</text><rect fill="#FFE6CC" height="25.6406" rx="2.5" ry="2.5" style="stroke:#D79B00;stroke-width:0.5;" width="51.5" x="1462.0996" y="88.2813"/><text fill="#000000" font-family="Helvetica" font-size="10" x="1469.0996" y="104.5635">PDP DB</text><rect fill="#E2E2F0" height="37.2813" rx="2.5" ry="2.5" style="stroke:#181818;stroke-width:0.5;" width="70.9775" x="1533.5996" y="76.6406"/><text fill="#000000" font-family="Helvetica" font-size="10" x="1540.5996" y="92.9229">Federation</text><text fill="#000000" font-family="Helvetica" font-size="10" x="1552.0132" y="104.5635">Master</text><text fill="#000000" font-family="Helvetica" font-size="10" x="14.6035" y="2447.751">User</text><ellipse cx="29" cy="2386.9688" fill="#E2E2F0" rx="8" ry="8" style="stroke:#181818;stroke-width:0.5;"/><path d="M29,2394.9688 L29,2421.9688 M16,2402.9688 L42,2402.9688 M29,2421.9688 L16,2436.9688 M29,2421.9688 L42,2436.9688" fill="none" style="stroke:#181818;stroke-width:0.5;"/><rect fill="#D5E8D4" height="25.6406" rx="2.5" ry="2.5" style="stroke:#82B366;stroke-width:0.5;" width="69.874" x="219.5337" y="2378.4688"/><text fill="#000000" font-family="Helvetica" font-size="10" x="226.5337" y="2394.751">Application</text><rect fill="#FFE6CC" height="37.2813" rx="2.5" ry="2.5" style="stroke:#D79B00;stroke-width:0.5;" width="72.2471" x="455.1118" y="2378.4688"/><text fill="#000000" font-family="Helvetica" font-size="10" x="462.1118" y="2394.751">ZETA Client</text><text fill="#000000" font-family="Helvetica" font-size="10" x="477.0313" y="2406.3916">(SDK)</text><rect fill="#FFE6CC" height="25.6406" rx="2.5" ry="2.5" style="stroke:#D79B00;stroke-width:0.5;" width="68.7363" x="773.9834" y="2378.4688"/><text fill="#000000" font-family="Helvetica" font-size="10" x="780.9834" y="2394.751">First AuthS</text><rect fill="#FFE6CC" height="25.6406" rx="2.5" ry="2.5" style="stroke:#D79B00;stroke-width:0.5;" width="51.5" x="1086.1777" y="2378.4688"/><text fill="#000000" font-family="Helvetica" font-size="10" x="1093.1777" y="2394.751">PDP DB</text><rect fill="#E2E2F0" height="37.2813" rx="2.5" ry="2.5" style="stroke:#181818;stroke-width:0.5;" width="69.249" x="1157.6777" y="2378.4688"/><text fill="#000000" font-family="Helvetica" font-size="10" x="1164.6777" y="2394.751">Attestation</text><text fill="#000000" font-family="Helvetica" font-size="10" x="1173.8232" y="2406.3916">Service</text><rect fill="#FFE6CC" height="25.6406" rx="2.5" ry="2.5" style="stroke:#D79B00;stroke-width:0.5;" width="43.7852" x="1236.9268" y="2378.4688"/><text fill="#000000" font-family="Helvetica" font-size="10" x="1243.9268" y="2394.751">AuthS</text><rect fill="#FFE6CC" height="25.6406" rx="2.5" ry="2.5" style="stroke:#D79B00;stroke-width:0.5;" width="51.5" x="1462.0996" y="2378.4688"/><text fill="#000000" font-family="Helvetica" font-size="10" x="1469.0996" y="2394.751">PDP DB</text><rect fill="#E2E2F0" height="37.2813" rx="2.5" ry="2.5" style="stroke:#181818;stroke-width:0.5;" width="70.9775" x="1533.5996" y="2378.4688"/><text fill="#000000" font-family="Helvetica" font-size="10" x="1540.5996" y="2394.751">Federation</text><text fill="#000000" font-family="Helvetica" font-size="10" x="1552.0132" y="2406.3916">Master</text><rect fill="#EEEEEE" height="3" style="stroke:#EEEEEE;stroke-width:1;" width="1594.5771" x="10" y="141.7422"/><line style="stroke:#000000;stroke-width:1;" x1="10" x2="1604.5771" y1="141.7422" y2="141.7422"/><line style="stroke:#000000;stroke-width:1;" x1="10" x2="1604.5771" y1="144.7422" y2="144.7422"/><rect fill="#EEEEEE" height="19.6406" style="stroke:#000000;stroke-width:2;" width="332.7744" x="640.9014" y="132.9219"/><text fill="#000000" font-family="Helvetica" font-size="10" font-weight="700" x="646.9014" y="146.2041">Phase 1: Initial Registration (Delegation to ZETA Client)</text><path d="M501.2354,167.5625 L501.2354,200.5625 L871.2354,200.5625 L871.2354,177.5625 L861.2354,167.5625 L501.2354,167.5625" fill="#FEFFDD" style="stroke:#181818;stroke-width:0.5;"/><path d="M861.2354,167.5625 L861.2354,177.5625 L871.2354,177.5625 L861.2354,167.5625" fill="#FEFFDD" style="stroke:#181818;stroke-width:0.5;"/><text fill="#000000" font-family="Helvetica" font-size="10" x="507.2354" y="181.8447">- The ZETA Client is pre-configured with the user's email address.</text><text fill="#000000" font-family="Helvetica" font-size="10" x="507.2354" y="193.4854">- The ZETA Client is pre-configured with the Application's redirect_uri.</text><path d="M13,209.8438 L365.3438,209.8438 L365.3438,213.4844 L355.3438,223.4844 L13,223.4844 L13,209.8438" fill="#EEEEEE" style="stroke:#000000;stroke-width:1.5;"/><rect fill="none" height="829.5469" style="stroke:#000000;stroke-width:1.5;" width="1225.3022" x="13" y="209.8438"/><text fill="#000000" font-family="Helvetica" font-size="10" font-weight="700" x="28" y="220.126">Integrated TOFU OTP Flow (performed by ZETA Client)</text><polygon fill="#181818" points="791.3516,247.125,801.3516,251.125,791.3516,255.125,795.3516,251.125" style="stroke:#181818;stroke-width:1;stroke-linejoin:miter;stroke-miterlimit:10;"/><line style="stroke:#181818;stroke-width:1;" x1="496.2354" x2="797.3516" y1="251.125" y2="251.125"/><text fill="#000000" font-family="Helvetica" font-size="10" x="503.2354" y="246.7666">(01)</text><text fill="#000000" font-family="Helvetica" font-size="10" font-weight="700" x="527.7627" y="246.7666">Starts DCR (Initiation Request)</text><path d="M620.7256,264.125 L620.7256,355.125 L802.7256,355.125 L802.7256,274.125 L792.7256,264.125 L620.7256,264.125" fill="#FEFFDD" style="stroke:#181818;stroke-width:0.5;"/><path d="M792.7256,264.125 L792.7256,274.125 L802.7256,274.125 L792.7256,264.125" fill="#FEFFDD" style="stroke:#181818;stroke-width:0.5;"/><text fill="#000000" font-family="Helvetica" font-size="10" font-weight="700" x="626.7256" y="278.4072">POST /register</text><text fill="#000000" font-family="Helvetica" font-size="10" x="626.7256" y="290.0479">Content-Type: application/json</text><text fill="#000000" font-family="Helvetica" font-size="10" x="626.7256" y="301.6885">&#160;</text><text fill="#000000" font-family="Helvetica" font-size="10" x="626.7256" y="313.3291">{</text><text fill="#000000" font-family="Helvetica" font-size="10" x="633.083" y="324.9697">"email": "user@example.com",</text><text fill="#000000" font-family="Helvetica" font-size="10" x="633.083" y="336.6104">"application_type": "native"</text><text fill="#000000" font-family="Helvetica" font-size="10" x="626.7256" y="348.251">}</text><line style="stroke:#181818;stroke-width:1;" x1="813.3516" x2="855.3516" y1="378.25" y2="378.25"/><line style="stroke:#181818;stroke-width:1;" x1="855.3516" x2="855.3516" y1="378.25" y2="391.25"/><line style="stroke:#181818;stroke-width:1;" x1="814.3516" x2="855.3516" y1="391.25" y2="391.25"/><polygon fill="#181818" points="824.3516,387.25,814.3516,391.25,824.3516,395.25,820.3516,391.25" style="stroke:#181818;stroke-width:1;stroke-linejoin:miter;stroke-miterlimit:10;"/><text fill="#000000" font-family="Helvetica" font-size="10" x="820.3516" y="373.8916">(02)</text><text fill="#000000" font-family="Helvetica" font-size="10" x="844.8789" y="373.8916">Generates OTP and `dcr_session_id`</text><polygon fill="#181818" points="40,412.8906,30,416.8906,40,420.8906,36,416.8906" style="stroke:#181818;stroke-width:1;stroke-linejoin:miter;stroke-miterlimit:10;"/><line style="stroke:#181818;stroke-width:1;" x1="34" x2="802.3516" y1="416.8906" y2="416.8906"/><text fill="#000000" font-family="Helvetica" font-size="10" x="46" y="412.5322">(03)</text><text fill="#000000" font-family="Helvetica" font-size="10" font-weight="700" x="70.5273" y="412.5322">Sends OTP directly via email</text><polygon fill="#181818" points="507.2354,438.5313,497.2354,442.5313,507.2354,446.5313,503.2354,442.5313" style="stroke:#181818;stroke-width:1;stroke-linejoin:miter;stroke-miterlimit:10;"/><line style="stroke:#181818;stroke-width:1;stroke-dasharray:2,2;" x1="501.2354" x2="802.3516" y1="442.5313" y2="442.5313"/><text fill="#000000" font-family="Helvetica" font-size="10" x="513.2354" y="438.1729">(04)</text><text fill="#000000" font-family="Helvetica" font-size="10" font-weight="700" x="537.7627" y="438.1729">Responds with `dcr_session_id`</text><path d="M275.5186,455.5313 L275.5186,546.5313 L485.5186,546.5313 L485.5186,465.5313 L475.5186,455.5313 L275.5186,455.5313" fill="#FEFFDD" style="stroke:#181818;stroke-width:0.5;"/><path d="M475.5186,455.5313 L475.5186,465.5313 L485.5186,465.5313 L475.5186,455.5313" fill="#FEFFDD" style="stroke:#181818;stroke-width:0.5;"/><text fill="#000000" font-family="Helvetica" font-size="10" font-weight="700" x="281.5186" y="469.8135">201 Created</text><text fill="#000000" font-family="Helvetica" font-size="10" x="281.5186" y="481.4541">Content-Type: application/json</text><text fill="#000000" font-family="Helvetica" font-size="10" x="281.5186" y="493.0947">&#160;</text><text fill="#000000" font-family="Helvetica" font-size="10" x="281.5186" y="504.7354">{</text><text fill="#000000" font-family="Helvetica" font-size="10" x="287.876" y="516.376">"dcr_session_id": "urn:tx:1a2b3c4d",</text><text fill="#000000" font-family="Helvetica" font-size="10" x="287.876" y="528.0166">"expires_in": 600</text><text fill="#000000" font-family="Helvetica" font-size="10" x="281.5186" y="539.6572">}</text><polygon fill="#181818" points="265.4707,565.6563,255.4707,569.6563,265.4707,573.6563,261.4707,569.6563" style="stroke:#181818;stroke-width:1;stroke-linejoin:miter;stroke-miterlimit:10;"/><line style="stroke:#181818;stroke-width:1;" x1="259.4707" x2="485.2354" y1="569.6563" y2="569.6563"/><text fill="#000000" font-family="Helvetica" font-size="10" x="271.4707" y="565.2979">(05)</text><text fill="#000000" font-family="Helvetica" font-size="10" x="295.998" y="565.2979">Signals: "Waiting for OTP input"</text><polygon fill="#181818" points="242.4707,591.2969,252.4707,595.2969,242.4707,599.2969,246.4707,595.2969" style="stroke:#181818;stroke-width:1;stroke-linejoin:miter;stroke-miterlimit:10;"/><line style="stroke:#181818;stroke-width:1;" x1="29" x2="248.4707" y1="595.2969" y2="595.2969"/><text fill="#000000" font-family="Helvetica" font-size="10" x="36" y="590.9385">(06)</text><text fill="#000000" font-family="Helvetica" font-size="10" x="60.5273" y="590.9385">Enters the received OTP</text><polygon fill="#181818" points="474.2354,616.9375,484.2354,620.9375,474.2354,624.9375,478.2354,620.9375" style="stroke:#181818;stroke-width:1;stroke-linejoin:miter;stroke-miterlimit:10;"/><line style="stroke:#181818;stroke-width:1;" x1="254.4707" x2="480.2354" y1="620.9375" y2="620.9375"/><text fill="#000000" font-family="Helvetica" font-size="10" x="261.4707" y="616.5791">(07)</text><text fill="#000000" font-family="Helvetica" font-size="10" x="285.998" y="616.5791">Passes OTP to complete registration</text><path d="M475.2354,632.9375 L535.1914,632.9375 L535.1914,636.5781 L525.1914,646.5781 L475.2354,646.5781 L475.2354,632.9375" fill="#EEEEEE" style="stroke:#000000;stroke-width:1.5;"/><rect fill="none" height="207.125" style="stroke:#000000;stroke-width:1.5;" width="738.0669" x="475.2354" y="632.9375"/><text fill="#000000" font-family="Helvetica" font-size="10" font-weight="700" x="490.2354" y="643.2197">alt</text><text fill="#000000" font-family="Helvetica" font-size="10" font-weight="700" x="550.1914" y="644.2197">[iOS App (App Attest)]</text><line style="stroke:#000000;stroke-width:1;stroke-dasharray:2,2;" x1="475.2354" x2="1213.3022" y1="718.8594" y2="718.8594"/><text fill="#000000" font-family="Helvetica" font-size="10" font-weight="700" x="480.2354" y="730.1416">[Android App (Play Integrity)]</text><polygon fill="#181818" points="1175.3022,670.2188,1185.3022,674.2188,1175.3022,678.2188,1179.3022,674.2188" style="stroke:#181818;stroke-width:1;stroke-linejoin:miter;stroke-miterlimit:10;"/><line style="stroke:#181818;stroke-width:1;" x1="496.2354" x2="1181.3022" y1="674.2188" y2="674.2188"/><text fill="#000000" font-family="Helvetica" font-size="10" x="503.2354" y="669.8604">(08)</text><text fill="#000000" font-family="Helvetica" font-size="10" x="527.7627" y="669.8604">Requests Attestation (with `dcr_session_id` as challenge)</text><polygon fill="#181818" points="507.2354,695.8594,497.2354,699.8594,507.2354,703.8594,503.2354,699.8594" style="stroke:#181818;stroke-width:1;stroke-linejoin:miter;stroke-miterlimit:10;"/><line style="stroke:#181818;stroke-width:1;stroke-dasharray:2,2;" x1="501.2354" x2="1186.3022" y1="699.8594" y2="699.8594"/><text fill="#000000" font-family="Helvetica" font-size="10" x="513.2354" y="695.501">(09)</text><text fill="#000000" font-family="Helvetica" font-size="10" x="537.7627" y="695.501">Sends</text><text fill="#000000" font-family="Helvetica" font-size="10" font-weight="700" x="571.3369" y="695.501">Attestation Object</text><polygon fill="#181818" points="791.3516,751.1406,801.3516,755.1406,791.3516,759.1406,795.3516,755.1406" style="stroke:#181818;stroke-width:1;stroke-linejoin:miter;stroke-miterlimit:10;"/><line style="stroke:#181818;stroke-width:1;" x1="496.2354" x2="797.3516" y1="755.1406" y2="755.1406"/><text fill="#000000" font-family="Helvetica" font-size="10" x="503.2354" y="750.7822">(10)</text><text fill="#000000" font-family="Helvetica" font-size="10" x="527.7627" y="750.7822">Requests Nonce</text><polygon fill="#181818" points="507.2354,776.7813,497.2354,780.7813,507.2354,784.7813,503.2354,780.7813" style="stroke:#181818;stroke-width:1;stroke-linejoin:miter;stroke-miterlimit:10;"/><line style="stroke:#181818;stroke-width:1;stroke-dasharray:2,2;" x1="501.2354" x2="802.3516" y1="780.7813" y2="780.7813"/><text fill="#000000" font-family="Helvetica" font-size="10" x="513.2354" y="776.4229">(11)</text><text fill="#000000" font-family="Helvetica" font-size="10" x="537.7627" y="776.4229">Sends</text><text fill="#000000" font-family="Helvetica" font-size="10" font-weight="700" x="571.3369" y="776.4229">Nonce</text><polygon fill="#181818" points="1175.3022,802.4219,1185.3022,806.4219,1175.3022,810.4219,1179.3022,806.4219" style="stroke:#181818;stroke-width:1;stroke-linejoin:miter;stroke-miterlimit:10;"/><line style="stroke:#181818;stroke-width:1;" x1="496.2354" x2="1181.3022" y1="806.4219" y2="806.4219"/><text fill="#000000" font-family="Helvetica" font-size="10" x="503.2354" y="802.0635">(12)</text><text fill="#000000" font-family="Helvetica" font-size="10" x="527.7627" y="802.0635">Requests Integrity Token (with</text><text fill="#000000" font-family="Helvetica" font-size="10" font-weight="700" x="684.8184" y="802.0635">Nonce</text><text fill="#000000" font-family="Helvetica" font-size="10" x="719.8867" y="802.0635">)</text><polygon fill="#181818" points="507.2354,828.0625,497.2354,832.0625,507.2354,836.0625,503.2354,832.0625" style="stroke:#181818;stroke-width:1;stroke-linejoin:miter;stroke-miterlimit:10;"/><line style="stroke:#181818;stroke-width:1;stroke-dasharray:2,2;" x1="501.2354" x2="1186.3022" y1="832.0625" y2="832.0625"/><text fill="#000000" font-family="Helvetica" font-size="10" x="513.2354" y="827.7041">(13)</text><text fill="#000000" font-family="Helvetica" font-size="10" x="537.7627" y="827.7041">Sends</text><text fill="#000000" font-family="Helvetica" font-size="10" font-weight="700" x="571.3369" y="827.7041">Integrity Token (JWT)</text><polygon fill="#181818" points="791.3516,867.7031,801.3516,871.7031,791.3516,875.7031,795.3516,871.7031" style="stroke:#181818;stroke-width:1;stroke-linejoin:miter;stroke-miterlimit:10;"/><line style="stroke:#181818;stroke-width:1;" x1="496.2354" x2="797.3516" y1="871.7031" y2="871.7031"/><text fill="#000000" font-family="Helvetica" font-size="10" x="503.2354" y="867.3447">(14)</text><text fill="#000000" font-family="Helvetica" font-size="10" font-weight="700" x="527.7627" y="867.3447">Completes DCR (Completion Request)</text><path d="M520.7695,884.7031 L520.7695,1033.7031 L802.7695,1033.7031 L802.7695,894.7031 L792.7695,884.7031 L520.7695,884.7031" fill="#FEFFDD" style="stroke:#181818;stroke-width:0.5;"/><path d="M792.7695,884.7031 L792.7695,894.7031 L802.7695,894.7031 L792.7695,884.7031" fill="#FEFFDD" style="stroke:#181818;stroke-width:0.5;"/><text fill="#000000" font-family="Helvetica" font-size="10" font-weight="700" x="526.7695" y="898.9854">POST /register</text><text fill="#000000" font-family="Helvetica" font-size="10" x="526.7695" y="910.626">Content-Type: application/json</text><text fill="#000000" font-family="Helvetica" font-size="10" x="526.7695" y="922.2666">&#160;</text><text fill="#000000" font-family="Helvetica" font-size="10" x="526.7695" y="933.9072">{</text><text fill="#000000" font-family="Helvetica" font-size="10" x="533.127" y="945.5479">"dcr_session_id": "urn:tx:1a2b3c4d",</text><text fill="#000000" font-family="Helvetica" font-size="10" x="533.127" y="957.1885">"otp": "123456",</text><text fill="#000000" font-family="Helvetica" font-size="10" x="533.127" y="968.8291">"attestation_format": "apple-app-attest",</text><text fill="#000000" font-family="Helvetica" font-size="10" x="533.127" y="980.4697">"attestation": "&lt;base64_attestation_object&gt;",</text><text fill="#000000" font-family="Helvetica" font-size="10" x="533.127" y="992.1104">"jwks": { "keys": [ ... ] },</text><text fill="#000000" font-family="Helvetica" font-size="10" x="533.127" y="1003.751">"token_endpoint_auth_method": "private_key_jwt",</text><text fill="#000000" font-family="Helvetica" font-size="10" x="533.127" y="1015.3916">"redirect_uris": [ "com.myapp:/callback" ]</text><text fill="#000000" font-family="Helvetica" font-size="10" x="526.7695" y="1027.0322">}</text><line style="stroke:#181818;stroke-width:1;" x1="813.3516" x2="855.3516" y1="1071.0313" y2="1071.0313"/><line style="stroke:#181818;stroke-width:1;" x1="855.3516" x2="855.3516" y1="1071.0313" y2="1084.0313"/><line style="stroke:#181818;stroke-width:1;" x1="814.3516" x2="855.3516" y1="1084.0313" y2="1084.0313"/><polygon fill="#181818" points="824.3516,1080.0313,814.3516,1084.0313,824.3516,1088.0313,820.3516,1084.0313" style="stroke:#181818;stroke-width:1;stroke-linejoin:miter;stroke-miterlimit:10;"/><text fill="#000000" font-family="Helvetica" font-size="10" x="820.3516" y="1066.6729">(15)</text><text fill="#000000" font-family="Helvetica" font-size="10" x="844.8789" y="1066.6729">Validates OTP,</text><text fill="#000000" font-family="Helvetica" font-size="10" font-weight="700" x="920.709" y="1066.6729">then</text><text fill="#000000" font-family="Helvetica" font-size="10" x="949.6885" y="1066.6729">validates the attestation proof.</text><path d="M202.7314,1096.0313 L262.6875,1096.0313 L262.6875,1099.6719 L252.6875,1109.6719 L202.7314,1109.6719 L202.7314,1096.0313" fill="#EEEEEE" style="stroke:#000000;stroke-width:1.5;"/><rect fill="none" height="420.7344" style="stroke:#000000;stroke-width:1.5;" width="621.6201" x="202.7314" y="1096.0313"/><text fill="#000000" font-family="Helvetica" font-size="10" font-weight="700" x="217.7314" y="1106.3135">alt</text><text fill="#000000" font-family="Helvetica" font-size="10" font-weight="700" x="277.6875" y="1107.3135">[Successful Validation]</text><line style="stroke:#000000;stroke-width:1;stroke-dasharray:2,2;" x1="202.7314" x2="824.3516" y1="1345.3594" y2="1345.3594"/><text fill="#000000" font-family="Helvetica" font-size="10" font-weight="700" x="207.7314" y="1356.6416">[Failed Validation]</text><polygon fill="#181818" points="507.2354,1133.3125,497.2354,1137.3125,507.2354,1141.3125,503.2354,1137.3125" style="stroke:#181818;stroke-width:1;stroke-linejoin:miter;stroke-miterlimit:10;"/><line style="stroke:#181818;stroke-width:1;stroke-dasharray:2,2;" x1="501.2354" x2="802.3516" y1="1137.3125" y2="1137.3125"/><text fill="#000000" font-family="Helvetica" font-size="10" x="513.2354" y="1132.9541">(16)</text><text fill="#000000" font-family="Helvetica" font-size="10" font-weight="700" x="537.7627" y="1132.9541">Sends `client_id` (for this AuthS)</text><path d="M227.6377,1150.3125 L227.6377,1264.3125 L485.6377,1264.3125 L485.6377,1160.3125 L475.6377,1150.3125 L227.6377,1150.3125" fill="#FEFFDD" style="stroke:#181818;stroke-width:0.5;"/><path d="M475.6377,1150.3125 L475.6377,1160.3125 L485.6377,1160.3125 L475.6377,1150.3125" fill="#FEFFDD" style="stroke:#181818;stroke-width:0.5;"/><text fill="#000000" font-family="Helvetica" font-size="10" font-weight="700" x="233.6377" y="1164.5947">201 Created</text><text fill="#000000" font-family="Helvetica" font-size="10" x="233.6377" y="1176.2354">Content-Type: application/json</text><text fill="#000000" font-family="Helvetica" font-size="10" x="233.6377" y="1187.876">&#160;</text><text fill="#000000" font-family="Helvetica" font-size="10" x="233.6377" y="1199.5166">{</text><text fill="#000000" font-family="Helvetica" font-size="10" x="239.9951" y="1211.1572">"client_id": "client-id-for-auths1",</text><text fill="#000000" font-family="Helvetica" font-size="10" x="239.9951" y="1222.7979">"attestation_proof": "&lt;signed_jwt_as_proof&gt;",</text><text fill="#000000" font-family="Helvetica" font-size="10" x="239.9951" y="1234.4385">"client_id_issued_at": 1672531200,</text><text fill="#000000" font-family="Helvetica" font-size="10" x="239.9951" y="1246.0791">...</text><text fill="#000000" font-family="Helvetica" font-size="10" x="233.6377" y="1257.7197">}</text><line style="stroke:#181818;stroke-width:1;" x1="496.2354" x2="538.2354" y1="1287.7188" y2="1287.7188"/><line style="stroke:#181818;stroke-width:1;" x1="538.2354" x2="538.2354" y1="1287.7188" y2="1300.7188"/><line style="stroke:#181818;stroke-width:1;" x1="497.2354" x2="538.2354" y1="1300.7188" y2="1300.7188"/><polygon fill="#181818" points="507.2354,1296.7188,497.2354,1300.7188,507.2354,1304.7188,503.2354,1300.7188" style="stroke:#181818;stroke-width:1;stroke-linejoin:miter;stroke-miterlimit:10;"/><text fill="#000000" font-family="Helvetica" font-size="10" x="503.2354" y="1283.3604">(17)</text><text fill="#000000" font-family="Helvetica" font-size="10" x="527.7627" y="1283.3604">Securely stores `client_id` and `Attestation Proof JWT`</text><polygon fill="#181818" points="265.4707,1322.3594,255.4707,1326.3594,265.4707,1330.3594,261.4707,1326.3594" style="stroke:#181818;stroke-width:1;stroke-linejoin:miter;stroke-miterlimit:10;"/><line style="stroke:#181818;stroke-width:1;stroke-dasharray:2,2;" x1="259.4707" x2="485.2354" y1="1326.3594" y2="1326.3594"/><text fill="#000000" font-family="Helvetica" font-size="10" x="271.4707" y="1322.001">(18)</text><text fill="#000000" font-family="Helvetica" font-size="10" x="295.998" y="1322.001">Registration successful</text><polygon fill="#181818" points="507.2354,1377.6406,497.2354,1381.6406,507.2354,1385.6406,503.2354,1381.6406" style="stroke:#181818;stroke-width:1;stroke-linejoin:miter;stroke-miterlimit:10;"/><line style="stroke:#181818;stroke-width:1;stroke-dasharray:2,2;" x1="501.2354" x2="807.3516" y1="1381.6406" y2="1381.6406"/><text fill="#000000" font-family="Helvetica" font-size="10" x="513.2354" y="1377.2822">(19)</text><text fill="#000000" font-family="Helvetica" font-size="10" x="537.7627" y="1377.2822">Sends error message</text><path d="M223.7314,1394.6406 L223.7314,1485.6406 L485.7314,1485.6406 L485.7314,1404.6406 L475.7314,1394.6406 L223.7314,1394.6406" fill="#FEFFDD" style="stroke:#181818;stroke-width:0.5;"/><path d="M475.7314,1394.6406 L475.7314,1404.6406 L485.7314,1404.6406 L475.7314,1394.6406" fill="#FEFFDD" style="stroke:#181818;stroke-width:0.5;"/><text fill="#000000" font-family="Helvetica" font-size="10" font-weight="700" x="229.7314" y="1408.9229">400 Bad Request</text><text fill="#000000" font-family="Helvetica" font-size="10" x="229.7314" y="1420.5635">Content-Type: application/json</text><text fill="#000000" font-family="Helvetica" font-size="10" x="229.7314" y="1432.2041">&#160;</text><text fill="#000000" font-family="Helvetica" font-size="10" x="229.7314" y="1443.8447">{</text><text fill="#000000" font-family="Helvetica" font-size="10" x="236.0889" y="1455.4854">"error": "invalid_request",</text><text fill="#000000" font-family="Helvetica" font-size="10" x="236.0889" y="1467.126">"error_description": "OTP is invalid or expired."</text><text fill="#000000" font-family="Helvetica" font-size="10" x="229.7314" y="1478.7666">}</text><polygon fill="#181818" points="265.4707,1504.7656,255.4707,1508.7656,265.4707,1512.7656,261.4707,1508.7656" style="stroke:#181818;stroke-width:1;stroke-linejoin:miter;stroke-miterlimit:10;"/><line style="stroke:#181818;stroke-width:1;stroke-dasharray:2,2;" x1="259.4707" x2="485.2354" y1="1508.7656" y2="1508.7656"/><text fill="#000000" font-family="Helvetica" font-size="10" x="271.4707" y="1504.4072">(20)</text><text fill="#000000" font-family="Helvetica" font-size="10" x="295.998" y="1504.4072">Registration failed</text><rect fill="#EEEEEE" height="3" style="stroke:#EEEEEE;stroke-width:1;" width="1594.5771" x="10" y="1549.5859"/><line style="stroke:#000000;stroke-width:1;" x1="10" x2="1604.5771" y1="1549.5859" y2="1549.5859"/><line style="stroke:#000000;stroke-width:1;" x1="10" x2="1604.5771" y1="1552.5859" y2="1552.5859"/><rect fill="#EEEEEE" height="19.6406" style="stroke:#000000;stroke-width:2;" width="309.9473" x="652.3149" y="1540.7656"/><text fill="#000000" font-family="Helvetica" font-size="10" font-weight="700" x="658.3149" y="1554.0479">Phase 2: Subsequent Registration at another AuthS</text><polygon fill="#181818" points="237.4707,1584.0469,247.4707,1588.0469,237.4707,1592.0469,241.4707,1588.0469" style="stroke:#181818;stroke-width:1;stroke-linejoin:miter;stroke-miterlimit:10;"/><line style="stroke:#181818;stroke-width:1;" x1="29" x2="243.4707" y1="1588.0469" y2="1588.0469"/><text fill="#000000" font-family="Helvetica" font-size="10" x="36" y="1583.6885">(21)</text><text fill="#000000" font-family="Helvetica" font-size="10" x="60.5273" y="1583.6885">Initiates action requiring `AuthS2`</text><polygon fill="#181818" points="474.2354,1609.6875,484.2354,1613.6875,474.2354,1617.6875,478.2354,1613.6875" style="stroke:#181818;stroke-width:1;stroke-linejoin:miter;stroke-miterlimit:10;"/><line style="stroke:#181818;stroke-width:1;" x1="259.4707" x2="480.2354" y1="1613.6875" y2="1613.6875"/><text fill="#000000" font-family="Helvetica" font-size="10" x="266.4707" y="1609.3291">(22)</text><text fill="#000000" font-family="Helvetica" font-size="10" x="290.998" y="1609.3291">Delegates registration at `AuthS2`</text><polygon fill="#181818" points="1241.8193,1635.3281,1251.8193,1639.3281,1241.8193,1643.3281,1245.8193,1639.3281" style="stroke:#181818;stroke-width:1;stroke-linejoin:miter;stroke-miterlimit:10;"/><line style="stroke:#181818;stroke-width:1;" x1="496.2354" x2="1247.8193" y1="1639.3281" y2="1639.3281"/><text fill="#000000" font-family="Helvetica" font-size="10" x="503.2354" y="1634.9697">(23)</text><text fill="#000000" font-family="Helvetica" font-size="10" x="527.7627" y="1634.9697">Starts DCR</text><path d="M971.2373,1652.3281 L971.2373,1766.3281 L1253.2373,1766.3281 L1253.2373,1662.3281 L1243.2373,1652.3281 L971.2373,1652.3281" fill="#FEFFDD" style="stroke:#181818;stroke-width:0.5;"/><path d="M1243.2373,1652.3281 L1243.2373,1662.3281 L1253.2373,1662.3281 L1243.2373,1652.3281" fill="#FEFFDD" style="stroke:#181818;stroke-width:0.5;"/><text fill="#000000" font-family="Helvetica" font-size="10" font-weight="700" x="977.2373" y="1666.6104">POST /register</text><text fill="#000000" font-family="Helvetica" font-size="10" x="977.2373" y="1678.251">Content-Type: application/json</text><text fill="#000000" font-family="Helvetica" font-size="10" x="977.2373" y="1689.8916">&#160;</text><text fill="#000000" font-family="Helvetica" font-size="10" x="977.2373" y="1701.5322">{</text><text fill="#000000" font-family="Helvetica" font-size="10" x="983.5947" y="1713.1729">"attestation_proof": "&lt;the_jwt_from_phase_1&gt;",</text><text fill="#000000" font-family="Helvetica" font-size="10" x="983.5947" y="1724.8135">"jwks": { "keys": [ ... ] },</text><text fill="#000000" font-family="Helvetica" font-size="10" x="983.5947" y="1736.4541">"token_endpoint_auth_method": "private_key_jwt",</text><text fill="#000000" font-family="Helvetica" font-size="10" x="983.5947" y="1748.0947">"redirect_uris": [ "com.myapp:/callback" ]</text><text fill="#000000" font-family="Helvetica" font-size="10" x="977.2373" y="1759.7354">}</text><polygon fill="#181818" points="1552.0884,1785.7344,1562.0884,1789.7344,1552.0884,1793.7344,1556.0884,1789.7344" style="stroke:#181818;stroke-width:1;stroke-linejoin:miter;stroke-miterlimit:10;"/><line style="stroke:#181818;stroke-width:1;" x1="1263.8193" x2="1558.0884" y1="1789.7344" y2="1789.7344"/><text fill="#000000" font-family="Helvetica" font-size="10" x="1270.8193" y="1785.376">(24)</text><text fill="#000000" font-family="Helvetica" font-size="10" x="1295.3467" y="1785.376">Retrieves public signing key from `AuthS`</text><polygon fill="#181818" points="1274.8193,1811.375,1264.8193,1815.375,1274.8193,1819.375,1270.8193,1815.375" style="stroke:#181818;stroke-width:1;stroke-linejoin:miter;stroke-miterlimit:10;"/><line style="stroke:#181818;stroke-width:1;stroke-dasharray:2,2;" x1="1268.8193" x2="1563.0884" y1="1815.375" y2="1815.375"/><text fill="#000000" font-family="Helvetica" font-size="10" x="1280.8193" y="1811.0166">(25)</text><text fill="#000000" font-family="Helvetica" font-size="10" x="1305.3467" y="1811.0166">Sends key material</text><line style="stroke:#181818;stroke-width:1;" x1="1263.8193" x2="1305.8193" y1="1841.0156" y2="1841.0156"/><line style="stroke:#181818;stroke-width:1;" x1="1305.8193" x2="1305.8193" y1="1841.0156" y2="1854.0156"/><line style="stroke:#181818;stroke-width:1;" x1="1264.8193" x2="1305.8193" y1="1854.0156" y2="1854.0156"/><polygon fill="#181818" points="1274.8193,1850.0156,1264.8193,1854.0156,1274.8193,1858.0156,1270.8193,1854.0156" style="stroke:#181818;stroke-width:1;stroke-linejoin:miter;stroke-miterlimit:10;"/><text fill="#000000" font-family="Helvetica" font-size="10" x="1270.8193" y="1836.6572">(26)</text><text fill="#000000" font-family="Helvetica" font-size="10" x="1295.3467" y="1836.6572">Validates the `Attestation Proof JWT`</text><path d="M238.4707,1866.0156 L298.4268,1866.0156 L298.4268,1869.6563 L288.4268,1879.6563 L238.4707,1879.6563 L238.4707,1866.0156" fill="#EEEEEE" style="stroke:#000000;stroke-width:1.5;"/><rect fill="none" height="307.6094" style="stroke:#000000;stroke-width:1.5;" width="1036.3486" x="238.4707" y="1866.0156"/><text fill="#000000" font-family="Helvetica" font-size="10" font-weight="700" x="253.4707" y="1876.2979">alt</text><text fill="#000000" font-family="Helvetica" font-size="10" font-weight="700" x="313.4268" y="1877.2979">[Successful Validation]</text><line style="stroke:#000000;stroke-width:1;stroke-dasharray:2,2;" x1="238.4707" x2="1274.8193" y1="2103.7031" y2="2103.7031"/><text fill="#000000" font-family="Helvetica" font-size="10" font-weight="700" x="243.4707" y="2114.9854">[Failed Validation]</text><polygon fill="#181818" points="507.2354,1903.2969,497.2354,1907.2969,507.2354,1911.2969,503.2354,1907.2969" style="stroke:#181818;stroke-width:1;stroke-linejoin:miter;stroke-miterlimit:10;"/><line style="stroke:#181818;stroke-width:1;stroke-dasharray:2,2;" x1="501.2354" x2="1252.8193" y1="1907.2969" y2="1907.2969"/><text fill="#000000" font-family="Helvetica" font-size="10" x="513.2354" y="1902.9385">(27)</text><text fill="#000000" font-family="Helvetica" font-size="10" font-weight="700" x="537.7627" y="1902.9385">Sends new `client_id` (for AuthS2)</text><path d="M282.6523,1920.2969 L282.6523,2023.2969 L485.6523,2023.2969 L485.6523,1930.2969 L475.6523,1920.2969 L282.6523,1920.2969" fill="#FEFFDD" style="stroke:#181818;stroke-width:0.5;"/><path d="M475.6523,1920.2969 L475.6523,1930.2969 L485.6523,1930.2969 L475.6523,1920.2969" fill="#FEFFDD" style="stroke:#181818;stroke-width:0.5;"/><text fill="#000000" font-family="Helvetica" font-size="10" font-weight="700" x="288.6523" y="1934.5791">201 Created</text><text fill="#000000" font-family="Helvetica" font-size="10" x="288.6523" y="1946.2197">Content-Type: application/json</text><text fill="#000000" font-family="Helvetica" font-size="10" x="288.6523" y="1957.8604">&#160;</text><text fill="#000000" font-family="Helvetica" font-size="10" x="288.6523" y="1969.501">{</text><text fill="#000000" font-family="Helvetica" font-size="10" x="295.0098" y="1981.1416">"client_id": "client-id-for-auths2",</text><text fill="#000000" font-family="Helvetica" font-size="10" x="295.0098" y="1992.7822">"client_id_issued_at": 1672535000,</text><text fill="#000000" font-family="Helvetica" font-size="10" x="295.0098" y="2004.4229">...</text><text fill="#000000" font-family="Helvetica" font-size="10" x="288.6523" y="2016.0635">}</text><line style="stroke:#181818;stroke-width:1;" x1="496.2354" x2="538.2354" y1="2046.0625" y2="2046.0625"/><line style="stroke:#181818;stroke-width:1;" x1="538.2354" x2="538.2354" y1="2046.0625" y2="2059.0625"/><line style="stroke:#181818;stroke-width:1;" x1="497.2354" x2="538.2354" y1="2059.0625" y2="2059.0625"/><polygon fill="#181818" points="507.2354,2055.0625,497.2354,2059.0625,507.2354,2063.0625,503.2354,2059.0625" style="stroke:#181818;stroke-width:1;stroke-linejoin:miter;stroke-miterlimit:10;"/><text fill="#000000" font-family="Helvetica" font-size="10" x="503.2354" y="2041.7041">(28)</text><text fill="#000000" font-family="Helvetica" font-size="10" x="527.7627" y="2041.7041">Stores the new `client_id`</text><polygon fill="#181818" points="270.4707,2080.7031,260.4707,2084.7031,270.4707,2088.7031,266.4707,2084.7031" style="stroke:#181818;stroke-width:1;stroke-linejoin:miter;stroke-miterlimit:10;"/><line style="stroke:#181818;stroke-width:1;stroke-dasharray:2,2;" x1="264.4707" x2="485.2354" y1="2084.7031" y2="2084.7031"/><text fill="#000000" font-family="Helvetica" font-size="10" x="276.4707" y="2080.3447">(29)</text><text fill="#000000" font-family="Helvetica" font-size="10" x="300.998" y="2080.3447">Registration at `AuthS2` successful</text><polygon fill="#181818" points="507.2354,2135.9844,497.2354,2139.9844,507.2354,2143.9844,503.2354,2139.9844" style="stroke:#181818;stroke-width:1;stroke-linejoin:miter;stroke-miterlimit:10;"/><line style="stroke:#181818;stroke-width:1;stroke-dasharray:2,2;" x1="501.2354" x2="1252.8193" y1="2139.9844" y2="2139.9844"/><text fill="#000000" font-family="Helvetica" font-size="10" x="513.2354" y="2135.626">(30)</text><text fill="#000000" font-family="Helvetica" font-size="10" x="537.7627" y="2135.626">Sends error message</text><polygon fill="#181818" points="270.4707,2161.625,260.4707,2165.625,270.4707,2169.625,266.4707,2165.625" style="stroke:#181818;stroke-width:1;stroke-linejoin:miter;stroke-miterlimit:10;"/><line style="stroke:#181818;stroke-width:1;stroke-dasharray:2,2;" x1="264.4707" x2="485.2354" y1="2165.625" y2="2165.625"/><text fill="#000000" font-family="Helvetica" font-size="10" x="276.4707" y="2161.2666">(31)</text><text fill="#000000" font-family="Helvetica" font-size="10" x="300.998" y="2161.2666">Registration at `AuthS2` failed</text><rect fill="#EEEEEE" height="3" style="stroke:#EEEEEE;stroke-width:1;" width="1594.5771" x="10" y="2206.4453"/><line style="stroke:#000000;stroke-width:1;" x1="10" x2="1604.5771" y1="2206.4453" y2="2206.4453"/><line style="stroke:#000000;stroke-width:1;" x1="10" x2="1604.5771" y1="2209.4453" y2="2209.4453"/><rect fill="#EEEEEE" height="19.6406" style="stroke:#000000;stroke-width:2;" width="323.585" x="645.4961" y="2197.625"/><text fill="#000000" font-family="Helvetica" font-size="10" font-weight="700" x="651.4961" y="2210.9072">Phase 3: OIDC/OAuth Flow (Delegation to ZETA Client)</text><polygon fill="#181818" points="474.2354,2240.9063,484.2354,2244.9063,474.2354,2248.9063,478.2354,2244.9063" style="stroke:#181818;stroke-width:1;stroke-linejoin:miter;stroke-miterlimit:10;"/><line style="stroke:#181818;stroke-width:1;" x1="254.4707" x2="480.2354" y1="2244.9063" y2="2244.9063"/><text fill="#000000" font-family="Helvetica" font-size="10" x="261.4707" y="2240.5479">(32)</text><text fill="#000000" font-family="Helvetica" font-size="10" x="285.998" y="2240.5479">Requests Access Token for a service</text><polygon fill="#181818" points="1246.8193,2266.5469,1256.8193,2270.5469,1246.8193,2274.5469,1250.8193,2270.5469" style="stroke:#181818;stroke-width:1;stroke-linejoin:miter;stroke-miterlimit:10;"/><line style="stroke:#181818;stroke-width:1;" x1="496.2354" x2="1252.8193" y1="2270.5469" y2="2270.5469"/><text fill="#000000" font-family="Helvetica" font-size="10" x="503.2354" y="2266.1885">(33)</text><text fill="#000000" font-family="Helvetica" font-size="10" x="527.7627" y="2266.1885">Performs OIDC Flow</text><polygon fill="#181818" points="507.2354,2292.1875,497.2354,2296.1875,507.2354,2300.1875,503.2354,2296.1875" style="stroke:#181818;stroke-width:1;stroke-linejoin:miter;stroke-miterlimit:10;"/><line style="stroke:#181818;stroke-width:1;stroke-dasharray:2,2;" x1="501.2354" x2="1257.8193" y1="2296.1875" y2="2296.1875"/><text fill="#000000" font-family="Helvetica" font-size="10" x="513.2354" y="2291.8291">(34)</text><text fill="#000000" font-family="Helvetica" font-size="10" x="537.7627" y="2291.8291">Sends Access Token</text><polygon fill="#181818" points="265.4707,2317.8281,255.4707,2321.8281,265.4707,2325.8281,261.4707,2321.8281" style="stroke:#181818;stroke-width:1;stroke-linejoin:miter;stroke-miterlimit:10;"/><line style="stroke:#181818;stroke-width:1;stroke-dasharray:2,2;" x1="259.4707" x2="485.2354" y1="2321.8281" y2="2321.8281"/><text fill="#000000" font-family="Helvetica" font-size="10" x="271.4707" y="2317.4697">(35)</text><text fill="#000000" font-family="Helvetica" font-size="10" x="295.998" y="2317.4697">Returns Access Token</text><line style="stroke:#181818;stroke-width:1;" x1="254.4707" x2="296.4707" y1="2347.4688" y2="2347.4688"/><line style="stroke:#181818;stroke-width:1;" x1="296.4707" x2="296.4707" y1="2347.4688" y2="2360.4688"/><line style="stroke:#181818;stroke-width:1;" x1="255.4707" x2="296.4707" y1="2360.4688" y2="2360.4688"/><polygon fill="#181818" points="265.4707,2356.4688,255.4707,2360.4688,265.4707,2364.4688,261.4707,2360.4688" style="stroke:#181818;stroke-width:1;stroke-linejoin:miter;stroke-miterlimit:10;"/><text fill="#000000" font-family="Helvetica" font-size="10" x="261.4707" y="2343.1104">(36)</text><text fill="#000000" font-family="Helvetica" font-size="10" x="285.998" y="2343.1104">Uses Access Token for API calls</text><?plantuml-src pLXjRzis4FwkNt7rW3KnQYTsqWmmcc1fqcJPrjgetHRhMYYqHDjiPKaZgIHkqV--ErAMAByaJZfiomV74dd7UtdkkQCVYJY8if13ixcJPjEe4R5Pakcclj6UzoYLR3nbe7do1RJCkETvnu5E9BnHN7h3v0PgBvEXY3YSyYiHy1hyS3v9b7ut4Pfx06R7rEuuJjD814oB9AxX4a3Af1Q1I5cieUQk0bDmneB9IIGuhZrxbihaIeHS7Xqj2xv_CJW6k_D3lDK__MtRoB_dcXNoN_31oF8u99ky-N_hGYzNZzOFNfpyyghxU_Vy3tEIMJOdd6TCXj2gkThidslDSQOdVJg-TYQaof_laEcTzawV6ndy1gVF5xOlcLmDczPSQHEs3t6VIvi4L8OB-UEzdMnlucJRMBonV-s7EdZ6qMRZ7to8NpAboGF21m_ja-ST7a9lmXI7LWSkOg45Y-0r7mkbSy6jKnxniVsk4t0Gims7Xvx70YskcEOEQBmumMSfnXCDoSXT06Z0OC9TBI0Kf98tWYGUYN4cUGZNGaz0uxOC2-Mn0Zvb8W8MXf8hrRol4gSuK1Sk2Sa3xMTID4tOo5ZF6yiaIp42ce_HSPGVTC_UG7VGWxCekOQjbCjH8gUuC9nLWc3Iy1ZwcgTb3Eami-1KKkF89hy3zNfVOveKd9wyXgrI0WF_LuQ8tAxNZR09OyH79ef6DiT8lTxhzWUm8qsYkCpt0vmaw42i6uDPoZl0IiztFgdS8e3ytzS2S3KJu5e7QXJmd_aDcwOHRmR9jFQatEHeypNgf_qnFbxnMhxfMm594rDwAD1Hcc_Bl8p6EOy9f5oPQ3EKlWm3wIlCDHqbmikg6B6dYI4UP6LiHgCPN0bcmP8799T1eJ8F9FgQgpGXQGEInUDMHR-2OPk2zcuBJYGdi7nl_Ai6c4J8kADlEYtM7ku5-w6R1twJeh_A5p5kFDZTNH_y5GWiEqC7-c8SiqZXQUyOGZ0U0oBS15J4QQPjLaE-gi0BxPICHRqlC0PIcTh3l704I4XQpNwdCorafSUKoZ60D8FOGmWIYpXSL4MKOuvRWsrK5J5DnThefpmG8n60m_Jm8sR9A2yqHiWVtJuH1MpHXzszNOHyeOYBvj2P5wog7B2r4bN4ky64HH6FnxpKNHP8sNFcQ-Mh9GnRyDVhxhdTuISiWmABbTmjQESHClvn7Cf4XDPlZDaifp-XPsjzjoLRkFqgYLrxLvRRt5Iprx5kWwWMzi0W-SpdaIrK_MDHN3hdrtU3xSq26OVhIgqW-nnkFEVx4dt_6T_VYsyIdTAELdjl_-b1fI6KsFEft9YcVMG4R-1dmwwlaQ2jpuOuU1pi-wwYn83uo9NwTFrPuVQlKFlCP_JjJvotc_0HlZcRD2NEntIaYOYrpp1w_fJhIMBSIwN9deyA_4_N5PlSWS0gho7vDASpTA6p4s313bdmkGOVL_Ci0S1RR6blMIJ2UKjxWkb3BephTRWgtXCvEcxZy98aewP7LDJFWW1pCygYkPuvKQrhPnR6bu5vORXcYvXSJt0gCZBR_tvBAuoXyDk7XWWRQ5U3SgDQwv1a8c7GeR0_yP3ovJDbtrTmKHpX2wKot6a0s3hugVrqhzNUtIst8bpMTqctk8kQgvPobJC2d2zns51ubUFLi9lXnQNa7XaDo2QNIreNccPbvbO513p3r6Suqc0JtGWE5WnSIaJ059MmCTyez_kxk_2SXNDE-kwHaWoWD8hOeDwNLczbag4zViXL84Kw9mKpVoZ8nG2zi0DFsAnzHmvlY_R8H3VNWs-JcHiVAl3LGv3pjjJjtAXm4kbdGqL-emcL8vb6h2H80ZBF8jsaLirI-UK0SKPdeII5KKWQrYxjLVBIMsN5-ZahlyvnLHcjoA9bXUw8jQAvaOF5HSPRxbvjRqNZkWDF7c5e3I5Wl0mRZ6GozLEAiT-oZ717ZtX0TxX7N_XMNYEhA6pddQ5jiZg_SnFwj1Jy2bEGPaDq7uZfAALe091pUIhSr1OtzkAR0NMH1rFr98zjc4kynLVWMTxtIuFcecyhJMaTVMtGcTfhMrFChvVRavNv7xQczgPDvkdknatcbdvYsmZ5VY5Czo8nftxlqpxQ6_UFXnYIC-i2XUQryJ1ItUj0z-BqPATBMlBVPkxuXMez5vRNDnEmVFedS39G-PI_oiZ7XbmMVuFAVoAokImki6IjSJcHueiryYG9kJKTrJpEjLre20o-hNokynWlnPA4dc0RnEiZtXtd-b67cVB8PeNBEcXQVQkPkZUtpXX4ftkt8i0DYNThyZLU7XRshyvjDH6kaZTqzLzAmd7l0eXebVSt?></g></svg>