<svg xmlns="http://www.w3.org/2000/svg" xmlns:xlink="http://www.w3.org/1999/xlink" contentStyleType="text/css" data-diagram-type="SEQUENCE" height="724px" preserveAspectRatio="none" style="width:747px;height:724px;background:#FFFFFF;" version="1.1" viewBox="0 0 747 724" width="747px" zoomAndPan="magnify"><?plantuml 1.2026.6?><defs/><g><rect fill="#F8F8FF" height="698.7031" style="stroke:#181818;stroke-width:0.5;" width="285.9146" x="16" y="11"/><text fill="#000000" font-family="Helvetica" font-size="10" font-weight="700" x="150.4954" y="20.2822">LEI</text><rect fill="#E6E6FA" height="682.0625" style="stroke:#181818;stroke-width:0.5;" width="285.9146" x="16" y="27.6406"/><text fill="#000000" font-family="Helvetica" font-size="10" font-weight="700" x="119.8606" y="36.9229">Prim&#228;rsystem</text><rect fill="#F4A460" height="665.4219" style="stroke:#181818;stroke-width:0.5;" width="89" x="16" y="44.2813"/><text fill="#000000" font-family="Helvetica" font-size="10" font-weight="700" x="28" y="53.5635">ZETA Client</text><rect fill="#C9FFC9" height="698.7031" style="stroke:#181818;stroke-width:0.5;" width="395.3506" x="313.9146" y="11"/><text fill="#000000" font-family="Helvetica" font-size="10" font-weight="700" x="487.2295" y="20.2822">Anbieter</text><rect fill="#F4A460" height="682.0625" style="stroke:#181818;stroke-width:0.5;" width="284.2871" x="313.9146" y="27.6406"/><text fill="#000000" font-family="Helvetica" font-size="10" font-weight="700" x="422.9136" y="36.9229">ZETA Guard</text><rect fill="#8FBC8F" height="682.0625" style="stroke:#181818;stroke-width:0.5;" width="99.0635" x="610.2017" y="27.6406"/><text fill="#000000" font-family="Helvetica" font-size="10" font-weight="700" x="622.2017" y="36.9229">TI 2.0 Dienst</text><g><title>ZETA</title><rect fill="#000000" fill-opacity="0.00000" height="567.2188" width="8" x="57" y="98.2031"/><line style="stroke:#181818;stroke-width:0.5;stroke-dasharray:5,5;" x1="60.5" x2="60.5" y1="98.2031" y2="665.4219"/></g><g><title/><rect fill="#FFFFFF" height="451.375" style="stroke:#181818;stroke-width:1;" width="10" x="55.5" y="106.2031"/></g><g><title>ZETA Attestation Service</title><rect fill="#000000" fill-opacity="0.00000" height="567.2188" width="8" x="225.0732" y="98.2031"/><line style="stroke:#181818;stroke-width:0.5;stroke-dasharray:5,5;" x1="228.5732" x2="228.5732" y1="98.2031" y2="665.4219"/></g><g><title>PDP</title><rect fill="#000000" fill-opacity="0.00000" height="567.2188" width="8" x="372.8892" y="98.2031"/><line style="stroke:#181818;stroke-width:0.5;stroke-dasharray:5,5;" x1="376.3892" x2="376.3892" y1="98.2031" y2="665.4219"/></g><g><title/><rect fill="#FFFFFF" height="341.8125" style="stroke:#181818;stroke-width:1;" width="10" x="371.3892" y="215.7656"/></g><g><title>PDP DB</title><rect fill="#000000" fill-opacity="0.00000" height="567.2188" width="8" x="564.9517" y="98.2031"/><line style="stroke:#181818;stroke-width:0.5;stroke-dasharray:5,5;" x1="568.4517" x2="568.4517" y1="98.2031" y2="665.4219"/></g><g><title/><rect fill="#FFFFFF" height="115.4844" style="stroke:#181818;stroke-width:1;" width="10" x="563.4517" y="416.4531"/></g><g><title>Resource</title><rect fill="#000000" fill-opacity="0.00000" height="567.2188" width="8" x="656.2334" y="98.2031"/><line style="stroke:#181818;stroke-width:0.5;stroke-dasharray:5,5;" x1="659.7334" x2="659.7334" y1="98.2031" y2="665.4219"/></g><rect fill="#E2E2F0" height="37.2813" rx="2.5" ry="2.5" style="stroke:#181818;stroke-width:0.5;" width="42.9502" x="39.0249" y="59.9219"/><text fill="#000000" font-family="Helvetica" font-size="10" x="47.4409" y="76.2041">ZETA</text><text fill="#000000" font-family="Helvetica" font-size="10" x="46.0249" y="87.8447">Client</text><rect fill="#E2E2F0" height="37.2813" rx="2.5" ry="2.5" style="stroke:#181818;stroke-width:0.5;" width="138.6826" x="159.2319" y="59.9219"/><text fill="#000000" font-family="Helvetica" font-size="10" x="166.2319" y="76.2041">ZETA Attestation Service</text><text fill="#000000" font-family="Helvetica" font-size="10" x="192.7065" y="87.8447">(Admin rights)</text><rect fill="#E2E2F0" height="37.2813" rx="2.5" ry="2.5" style="stroke:#181818;stroke-width:0.5;" width="116.9492" x="317.9146" y="59.9219"/><text fill="#000000" font-family="Helvetica" font-size="10" x="366.5088" y="76.2041">PDP</text><text fill="#000000" font-family="Helvetica" font-size="10" x="324.9146" y="87.8447">Authorization Server</text><rect fill="#E2E2F0" height="25.6406" rx="2.5" ry="2.5" style="stroke:#181818;stroke-width:0.5;" width="51.5" x="542.7017" y="71.5625"/><text fill="#000000" font-family="Helvetica" font-size="10" x="549.7017" y="87.8447">PDP DB</text><rect fill="#E2E2F0" height="37.2813" rx="2.5" ry="2.5" style="stroke:#181818;stroke-width:0.5;" width="60.5283" x="629.4692" y="59.9219"/><text fill="#000000" font-family="Helvetica" font-size="10" x="636.4692" y="76.2041">Resource</text><text fill="#000000" font-family="Helvetica" font-size="10" x="643.3369" y="87.8447">Server</text><rect fill="#E2E2F0" height="37.2813" rx="2.5" ry="2.5" style="stroke:#181818;stroke-width:0.5;" width="42.9502" x="39.0249" y="665.4219"/><text fill="#000000" font-family="Helvetica" font-size="10" x="47.4409" y="681.7041">ZETA</text><text fill="#000000" font-family="Helvetica" font-size="10" x="46.0249" y="693.3447">Client</text><rect fill="#E2E2F0" height="37.2813" rx="2.5" ry="2.5" style="stroke:#181818;stroke-width:0.5;" width="138.6826" x="159.2319" y="665.4219"/><text fill="#000000" font-family="Helvetica" font-size="10" x="166.2319" y="681.7041">ZETA Attestation Service</text><text fill="#000000" font-family="Helvetica" font-size="10" x="192.7065" y="693.3447">(Admin rights)</text><rect fill="#E2E2F0" height="37.2813" rx="2.5" ry="2.5" style="stroke:#181818;stroke-width:0.5;" width="116.9492" x="317.9146" y="665.4219"/><text fill="#000000" font-family="Helvetica" font-size="10" x="366.5088" y="681.7041">PDP</text><text fill="#000000" font-family="Helvetica" font-size="10" x="324.9146" y="693.3447">Authorization Server</text><rect fill="#E2E2F0" height="25.6406" rx="2.5" ry="2.5" style="stroke:#181818;stroke-width:0.5;" width="51.5" x="542.7017" y="665.4219"/><text fill="#000000" font-family="Helvetica" font-size="10" x="549.7017" y="681.7041">PDP DB</text><rect fill="#E2E2F0" height="37.2813" rx="2.5" ry="2.5" style="stroke:#181818;stroke-width:0.5;" width="60.5283" x="629.4692" y="665.4219"/><text fill="#000000" font-family="Helvetica" font-size="10" x="636.4692" y="681.7041">Resource</text><text fill="#000000" font-family="Helvetica" font-size="10" x="643.3369" y="693.3447">Server</text><path d="M44.5,110.2031 L104.4561,110.2031 L104.4561,113.8438 L94.4561,123.8438 L44.5,123.8438 L44.5,110.2031" fill="#EEEEEE" style="stroke:#000000;stroke-width:1.5;"/><rect fill="none" height="73.9219" style="stroke:#000000;stroke-width:1.5;" width="524.4082" x="44.5" y="110.2031"/><text fill="#000000" font-family="Helvetica" font-size="10" font-weight="700" x="59.5" y="120.4854">alt</text><text fill="#000000" font-family="Helvetica" font-size="10" font-weight="700" x="119.4561" y="121.4854">[Client has no Client Instance Key]</text><line style="stroke:#181818;stroke-width:1;" x1="65.5" x2="107.5" y1="163.125" y2="163.125"/><line style="stroke:#181818;stroke-width:1;" x1="107.5" x2="107.5" y1="163.125" y2="176.125"/><line style="stroke:#181818;stroke-width:1;" x1="66.5" x2="107.5" y1="176.125" y2="176.125"/><polygon fill="#181818" points="76.5,172.125,66.5,176.125,76.5,180.125,72.5,176.125" style="stroke:#181818;stroke-width:1;stroke-linejoin:miter;stroke-miterlimit:10;"/><text fill="#000000" font-family="Helvetica" font-size="10" x="72.5" y="152.9463">(01)</text><text fill="#000000" font-family="Helvetica" font-size="10" x="97.0273" y="147.126">Generate Client Instance</text><text fill="#000000" font-family="Helvetica" font-size="10" x="97.0273" y="158.7666">Key Pair</text><path d="M233.5732,138.8438 L233.5732,171.8438 L547.5732,171.8438 L547.5732,148.8438 L537.5732,138.8438 L233.5732,138.8438" fill="#FEFFDD" style="stroke:#181818;stroke-width:0.5;"/><path d="M537.5732,138.8438 L537.5732,148.8438 L547.5732,148.8438 L537.5732,138.8438" fill="#FEFFDD" style="stroke:#181818;stroke-width:0.5;"/><text fill="#000000" font-family="Helvetica" font-size="10" x="239.5732" y="153.126">This key pair is long-lived for the client instance and</text><text fill="#000000" font-family="Helvetica" font-size="10" x="239.5732" y="164.7666">used for the private_key_jwt client authentication method.</text><polygon fill="#181818" points="359.3892,211.7656,369.3892,215.7656,359.3892,219.7656,363.3892,215.7656" style="stroke:#181818;stroke-width:1;stroke-linejoin:miter;stroke-miterlimit:10;"/><line style="stroke:#181818;stroke-width:1;" x1="65.5" x2="365.3892" y1="215.7656" y2="215.7656"/><text fill="#000000" font-family="Helvetica" font-size="10" x="72.5" y="211.4072">(02)</text><text fill="#000000" font-family="Helvetica" font-size="10" x="97.0273" y="211.4072">POST /register</text><path d="M386.3892,228.7656 L386.3892,342.7656 L702.3892,342.7656 L702.3892,238.7656 L692.3892,228.7656 L386.3892,228.7656" fill="#ADD8E6" style="stroke:#181818;stroke-width:0.5;"/><path d="M692.3892,228.7656 L692.3892,238.7656 L702.3892,238.7656 L692.3892,228.7656" fill="#ADD8E6" style="stroke:#181818;stroke-width:0.5;"/><text fill="#000000" font-family="Helvetica" font-size="10" x="392.3892" y="243.0479">DCR Request Body: {</text><text fill="#000000" font-family="Helvetica" font-size="10" x="398.7466" y="254.6885">"client_name": "myClient",</text><text fill="#000000" font-family="Helvetica" font-size="10" x="398.7466" y="266.3291">"grant_types": [</text><text fill="#000000" font-family="Helvetica" font-size="10" x="405.104" y="277.9697">"urn:ietf:params:oauth:grant-type:token-exchange",</text><text fill="#000000" font-family="Helvetica" font-size="10" x="405.104" y="289.6104">"refresh_token"</text><text fill="#000000" font-family="Helvetica" font-size="10" x="398.7466" y="301.251">],</text><text fill="#000000" font-family="Helvetica" font-size="10" x="398.7466" y="312.8916">"jwks": { "keys": [ &lt;Client_Instance_Public_Key_JWK&gt; ] },</text><text fill="#000000" font-family="Helvetica" font-size="10" x="398.7466" y="324.5322">"token_endpoint_auth_method": "private_key_jwt"</text><text fill="#000000" font-family="Helvetica" font-size="10" x="392.3892" y="336.1729">}</text><line style="stroke:#181818;stroke-width:1;" x1="381.3892" x2="423.3892" y1="366.1719" y2="366.1719"/><line style="stroke:#181818;stroke-width:1;" x1="423.3892" x2="423.3892" y1="366.1719" y2="379.1719"/><line style="stroke:#181818;stroke-width:1;" x1="382.3892" x2="423.3892" y1="379.1719" y2="379.1719"/><polygon fill="#181818" points="392.3892,375.1719,382.3892,379.1719,392.3892,383.1719,388.3892,379.1719" style="stroke:#181818;stroke-width:1;stroke-linejoin:miter;stroke-miterlimit:10;"/><text fill="#000000" font-family="Helvetica" font-size="10" x="388.3892" y="361.8135">(03)</text><text fill="#000000" font-family="Helvetica" font-size="10" x="412.9165" y="361.8135">Generate client_id</text><polygon fill="#181818" points="551.4517,412.4531,561.4517,416.4531,551.4517,420.4531,555.4517,416.4531" style="stroke:#181818;stroke-width:1;stroke-linejoin:miter;stroke-miterlimit:10;"/><line style="stroke:#181818;stroke-width:1;" x1="381.3892" x2="557.4517" y1="416.4531" y2="416.4531"/><text fill="#000000" font-family="Helvetica" font-size="10" x="388.3892" y="406.2744">(04)</text><text fill="#000000" font-family="Helvetica" font-size="10" x="412.9165" y="400.4541">Store Client Placeholder</text><text fill="#000000" font-family="Helvetica" font-size="10" x="412.9165" y="412.0947">with Public Key (JWKS)</text><path d="M578.4517,429.4531 L578.4517,508.4531 L731.4517,508.4531 L731.4517,439.4531 L721.4517,429.4531 L578.4517,429.4531" fill="#FEFFDD" style="stroke:#181818;stroke-width:0.5;"/><path d="M721.4517,429.4531 L721.4517,439.4531 L731.4517,439.4531 L721.4517,429.4531" fill="#FEFFDD" style="stroke:#181818;stroke-width:0.5;"/><text fill="#000000" font-family="Helvetica" font-size="10" x="584.4517" y="443.7354">Store Client Placeholder</text><text fill="#000000" font-family="Helvetica" font-size="10" x="584.4517" y="455.376">client_id</text><text fill="#000000" font-family="Helvetica" font-size="10" x="584.4517" y="467.0166">client_name</text><text fill="#000000" font-family="Helvetica" font-size="10" x="584.4517" y="478.6572">public_key_jwks</text><text fill="#000000" font-family="Helvetica" font-size="10" x="584.4517" y="490.2979">...</text><text fill="#000000" font-family="Helvetica" font-size="10" x="584.4517" y="501.9385">state: pending_attestation</text><polygon fill="#181818" points="392.3892,527.9375,382.3892,531.9375,392.3892,535.9375,388.3892,531.9375" style="stroke:#181818;stroke-width:1;stroke-linejoin:miter;stroke-miterlimit:10;"/><line style="stroke:#181818;stroke-width:1;stroke-dasharray:2,2;" x1="386.3892" x2="562.4517" y1="531.9375" y2="531.9375"/><text fill="#000000" font-family="Helvetica" font-size="10" x="398.3892" y="527.5791">(05)</text><text fill="#000000" font-family="Helvetica" font-size="10" x="422.9165" y="527.5791">Client Placeholder Created</text><line style="stroke:#181818;stroke-width:1;" x1="66.5" x2="76.5" y1="557.5781" y2="553.5781"/><line style="stroke:#181818;stroke-width:1;" x1="66.5" x2="76.5" y1="557.5781" y2="561.5781"/><line style="stroke:#181818;stroke-width:1;stroke-dasharray:2,2;" x1="65.5" x2="370.3892" y1="557.5781" y2="557.5781"/><text fill="#000000" font-family="Helvetica" font-size="10" x="82.5" y="553.2197">(06)</text><text fill="#000000" font-family="Helvetica" font-size="10" x="107.0273" y="553.2197">201 Created</text><path d="M70.5,570.5781 L70.5,649.5781 L217.5,649.5781 L217.5,580.5781 L207.5,570.5781 L70.5,570.5781" fill="#90EE90" style="stroke:#181818;stroke-width:0.5;"/><path d="M207.5,570.5781 L207.5,580.5781 L217.5,580.5781 L207.5,570.5781" fill="#90EE90" style="stroke:#181818;stroke-width:0.5;"/><text fill="#000000" font-family="Helvetica" font-size="10" x="76.5" y="584.8604">DCR Response Body:</text><text fill="#000000" font-family="Helvetica" font-size="10" x="76.5" y="596.501">{</text><text fill="#000000" font-family="Helvetica" font-size="10" x="76.5" y="608.1416">"client_id": "&lt;client-id&gt;",</text><text fill="#000000" font-family="Helvetica" font-size="10" x="76.5" y="619.7822">"client_id_issued_at": ...,</text><text fill="#000000" font-family="Helvetica" font-size="10" x="76.5" y="631.4229">// ...</text><text fill="#000000" font-family="Helvetica" font-size="10" x="76.5" y="643.0635">}</text><?plantuml-src XLJRRjiu47tdLymg3qtW-j8y2aK0Nr8tRTeOje6YNHS2ROqbnZAf9IcdJj2_sJ_P7-jGb6Mjaw9FkioPopbpI5vO9Olj4ZK4vxtUHS3CHiYSQxw56DUyoEmx9UrCF2AywRqS_Cot2Eynsw4LAzx0Z3pcavBAv7o5SOqUga8Br0riXZAnQJ--Bum5gIGsOWR_AL2kS8fhrEvbm5URHAj2naELAGrVKc6R2RFJX2E7IzPzzIUWtMS8IvN5x5MNiRzopPCj1ulg4QmkaB6b-W71xVLD06VZL1dh-mEK_oTQRF_xLvkziRWbn2tVeOo9B425-7OzxyCm4oWjnMTSnlk1LW-oH03GQ2IaoBcq5GguyLaBMQMLK2hh2hBJf6_zMPq1VMlHM6w5aaHNxyGA5_Ay7s-512sIr9eBL-rGw_3q7FjoAT2YfZ7dryFtd-zkxyPVMPF6kE0wViwYEKw_iAaVQ3AQBAJxL5ey7aUY-i-I23eQ799WD6ZEU11oVWENdHwCI14opTc8wyqC-LWZlYJbrCymHKFcSo8qMp-ZNmdVQZ76iteFALMGwl1rGsqvcGO-ufwgL7_RLuUt4COeKNEBfnaBIIamuSAvGYe2bAi8OPuA0nkAvHG3Ui-KJDgPs64CQtAwJH5MlfOuT2Vb5x8m3KIknOwwHbGekd-mXmnEojEJ3caf_HPf4N6dv4mSQyv4mA-irI8AaxlP7BeQ4q5-rkmuBAXrXJlBtFSoewCn6avXwWuLBMIWudq8JyGmy0D4aiv-44AmtLSsVks2YQRrH7QVew7Wt-K-WaBBaAot3ik3QaBbXWzBQDj1GwisADluOvLocM1PYT8qhZMQD2gZRhNVonRt3njN-ma2agJi0c_z2D5X9T6aM6PY5T5YeWzVFbx1T_XPvfQb8X8fLuBmRex8I-Ued4WTi9-bdaucvjMfvMpOeT93n4UCDtoh5SBCAbqxPfBHnPdINOHw8H-4JS7FwJm7vpJexE9a9sKXzhiYxDYwiHIMU_AUnSQmJgV3tAs18UJ4HyWauiUBv4ZHJzskERRRuGjDOQYHQjLisrVr6N49bxqtDUB_N2gGDrXI7cplC9ChQT1RZ3sne6RbTlBMVxL5V4M-ECOYOKo1CJ4X535ypRfTzspkh1xh5m00?></g></svg>