<svg xmlns="http://www.w3.org/2000/svg" xmlns:xlink="http://www.w3.org/1999/xlink" contentStyleType="text/css" data-diagram-type="SEQUENCE" height="1656px" preserveAspectRatio="none" style="width:1345px;height:1656px;background:#FFFFFF;" version="1.1" viewBox="0 0 1345 1656" width="1345px" zoomAndPan="magnify"><?plantuml 1.2026.6?><defs/><g><rect fill="#F8F8FF" height="1630.7969" style="stroke:#181818;stroke-width:0.5;" width="833.4697" x="16" y="11"/><text fill="#000000" font-family="Helvetica" font-size="10" font-weight="700" x="424.2729" y="20.2822">LEI</text><rect fill="#E6E6FA" height="1614.1563" style="stroke:#181818;stroke-width:0.5;" width="637.7319" x="16" y="27.6406"/><text fill="#000000" font-family="Helvetica" font-size="10" font-weight="700" x="295.7693" y="36.9229">Prim&#228;rsystem</text><rect fill="#F4A460" height="1597.5156" style="stroke:#181818;stroke-width:0.5;" width="89" x="16" y="44.2813"/><text fill="#000000" font-family="Helvetica" font-size="10" font-weight="700" x="28" y="53.5635">ZETA Client</text><rect fill="#C9FFC9" height="1630.7969" style="stroke:#181818;stroke-width:0.5;" width="467.4277" x="861.4697" y="11"/><text fill="#000000" font-family="Helvetica" font-size="10" font-weight="700" x="1070.8232" y="20.2822">Anbieter</text><rect fill="#F4A460" height="1614.1563" style="stroke:#181818;stroke-width:0.5;" width="467.4277" x="861.4697" y="27.6406"/><text fill="#000000" font-family="Helvetica" font-size="10" font-weight="700" x="1062.0391" y="36.9229">ZETA Guard</text><g><title>ZETA</title><rect fill="#000000" fill-opacity="0.00000" height="1499.3125" width="8" x="57" y="98.2031"/><line style="stroke:#181818;stroke-width:0.5;stroke-dasharray:5,5;" x1="60.5" x2="60.5" y1="98.2031" y2="1597.5156"/></g><g><title/><rect fill="#FFFFFF" height="1481.3125" style="stroke:#181818;stroke-width:1;" width="10" x="55.5" y="106.2031"/></g><g><title>ZETA Attestation Service</title><rect fill="#000000" fill-opacity="0.00000" height="1499.3125" width="8" x="532.124" y="98.2031"/><line style="stroke:#181818;stroke-width:0.5;stroke-dasharray:5,5;" x1="535.624" x2="535.624" y1="98.2031" y2="1597.5156"/></g><g><title/><rect fill="#FFFFFF" height="68.9219" style="stroke:#181818;stroke-width:1;" width="10" x="530.624" y="323.9688"/></g><g><title>TPM</title><rect fill="#000000" fill-opacity="0.00000" height="1499.3125" width="8" x="628.8486" y="98.2031"/><line style="stroke:#181818;stroke-width:0.5;stroke-dasharray:5,5;" x1="632.3486" x2="632.3486" y1="98.2031" y2="1597.5156"/></g><g><title>Konnektor or</title><rect fill="#000000" fill-opacity="0.00000" height="1499.3125" width="8" x="705.6587" y="98.2031"/><line style="stroke:#181818;stroke-width:0.5;stroke-dasharray:5,5;" x1="709.1587" x2="709.1587" y1="98.2031" y2="1597.5156"/></g><g><title/><rect fill="#FFFFFF" height="76.9219" style="stroke:#181818;stroke-width:1;" width="10" x="704.1587" y="678.6563"/></g><g><title>SM.C.-B</title><rect fill="#000000" fill-opacity="0.00000" height="1499.3125" width="8" x="814.855" y="98.2031"/><line style="stroke:#181818;stroke-width:0.5;stroke-dasharray:5,5;" x1="818.355" x2="818.355" y1="98.2031" y2="1597.5156"/></g><g><title/><rect fill="#FFFFFF" height="25.6406" style="stroke:#181818;stroke-width:1;" width="10" x="813.355" y="704.2969"/></g><g><title>PDP</title><rect fill="#000000" fill-opacity="0.00000" height="1499.3125" width="8" x="920.4443" y="98.2031"/><line style="stroke:#181818;stroke-width:0.5;stroke-dasharray:5,5;" x1="923.9443" x2="923.9443" y1="98.2031" y2="1597.5156"/></g><g><title/><rect fill="#FFFFFF" height="25.6406" style="stroke:#181818;stroke-width:1;" width="10" x="918.9443" y="123.8438"/></g><g><title/><rect fill="#FFFFFF" height="707.0156" style="stroke:#181818;stroke-width:1;" width="10" x="918.9443" y="858.5"/></g><g><title>PDP</title><rect fill="#000000" fill-opacity="0.00000" height="1499.3125" width="8" x="1199.9678" y="98.2031"/><line style="stroke:#181818;stroke-width:0.5;stroke-dasharray:5,5;" x1="1203.4678" x2="1203.4678" y1="98.2031" y2="1597.5156"/></g><g><title/><rect fill="#FFFFFF" height="25.6406" style="stroke:#181818;stroke-width:1;" width="10" x="1198.4678" y="1155.9063"/></g><g><title/><rect fill="#FFFFFF" height="25.6406" style="stroke:#181818;stroke-width:1;" width="10" x="1198.4678" y="1389.6719"/></g><g><title>PDP</title><rect fill="#000000" fill-opacity="0.00000" height="1499.3125" width="8" x="1281.1113" y="98.2031"/><line style="stroke:#181818;stroke-width:0.5;stroke-dasharray:5,5;" x1="1284.6113" x2="1284.6113" y1="98.2031" y2="1597.5156"/></g><g><title/><rect fill="#FFFFFF" height="25.6406" style="stroke:#181818;stroke-width:1;" width="10" x="1279.6113" y="1260.4688"/></g><rect fill="#E2E2F0" height="37.2813" rx="2.5" ry="2.5" style="stroke:#181818;stroke-width:0.5;" width="42.9502" x="39.0249" y="59.9219"/><text fill="#000000" font-family="Helvetica" font-size="10" x="47.4409" y="76.2041">ZETA</text><text fill="#000000" font-family="Helvetica" font-size="10" x="46.0249" y="87.8447">Client</text><rect fill="#E2E2F0" height="37.2813" rx="2.5" ry="2.5" style="stroke:#181818;stroke-width:0.5;" width="138.6826" x="466.2827" y="59.9219"/><text fill="#000000" font-family="Helvetica" font-size="10" x="473.2827" y="76.2041">ZETA Attestation Service</text><text fill="#000000" font-family="Helvetica" font-size="10" x="499.7573" y="87.8447">(Admin rights)</text><rect fill="#E2E2F0" height="25.6406" rx="2.5" ry="2.5" style="stroke:#181818;stroke-width:0.5;" width="34.7666" x="614.9653" y="71.5625"/><text fill="#000000" font-family="Helvetica" font-size="10" x="621.9653" y="87.8447">TPM</text><rect fill="#E2E2F0" height="37.2813" rx="2.5" ry="2.5" style="stroke:#181818;stroke-width:0.5;" width="78.8535" x="669.7319" y="59.9219"/><text fill="#000000" font-family="Helvetica" font-size="10" x="676.7319" y="76.2041">Konnektor or</text><text fill="#000000" font-family="Helvetica" font-size="10" x="680.7383" y="87.8447">TI-Gateway</text><rect fill="#E2E2F0" height="25.6406" rx="2.5" ry="2.5" style="stroke:#181818;stroke-width:0.5;" width="54.2295" x="791.2402" y="71.5625"/><text fill="#000000" font-family="Helvetica" font-size="10" x="798.2402" y="87.8447">SM(C)-B</text><rect fill="#E2E2F0" height="37.2813" rx="2.5" ry="2.5" style="stroke:#181818;stroke-width:0.5;" width="116.9492" x="865.4697" y="59.9219"/><text fill="#000000" font-family="Helvetica" font-size="10" x="914.064" y="76.2041">PDP</text><text fill="#000000" font-family="Helvetica" font-size="10" x="872.4697" y="87.8447">Authorization Server</text><rect fill="#E2E2F0" height="37.2813" rx="2.5" ry="2.5" style="stroke:#181818;stroke-width:0.5;" width="61.7148" x="1172.6104" y="59.9219"/><text fill="#000000" font-family="Helvetica" font-size="10" x="1193.5874" y="76.2041">PDP</text><text fill="#000000" font-family="Helvetica" font-size="10" x="1179.6104" y="87.8447">Database</text><rect fill="#E2E2F0" height="37.2813" rx="2.5" ry="2.5" style="stroke:#181818;stroke-width:0.5;" width="80.5723" x="1244.3252" y="59.9219"/><text fill="#000000" font-family="Helvetica" font-size="10" x="1274.731" y="76.2041">PDP</text><text fill="#000000" font-family="Helvetica" font-size="10" x="1251.3252" y="87.8447">Policy Engine</text><rect fill="#E2E2F0" height="37.2813" rx="2.5" ry="2.5" style="stroke:#181818;stroke-width:0.5;" width="42.9502" x="39.0249" y="1597.5156"/><text fill="#000000" font-family="Helvetica" font-size="10" x="47.4409" y="1613.7979">ZETA</text><text fill="#000000" font-family="Helvetica" font-size="10" x="46.0249" y="1625.4385">Client</text><rect fill="#E2E2F0" height="37.2813" rx="2.5" ry="2.5" style="stroke:#181818;stroke-width:0.5;" width="138.6826" x="466.2827" y="1597.5156"/><text fill="#000000" font-family="Helvetica" font-size="10" x="473.2827" y="1613.7979">ZETA Attestation Service</text><text fill="#000000" font-family="Helvetica" font-size="10" x="499.7573" y="1625.4385">(Admin rights)</text><rect fill="#E2E2F0" height="25.6406" rx="2.5" ry="2.5" style="stroke:#181818;stroke-width:0.5;" width="34.7666" x="614.9653" y="1597.5156"/><text fill="#000000" font-family="Helvetica" font-size="10" x="621.9653" y="1613.7979">TPM</text><rect fill="#E2E2F0" height="37.2813" rx="2.5" ry="2.5" style="stroke:#181818;stroke-width:0.5;" width="78.8535" x="669.7319" y="1597.5156"/><text fill="#000000" font-family="Helvetica" font-size="10" x="676.7319" y="1613.7979">Konnektor or</text><text fill="#000000" font-family="Helvetica" font-size="10" x="680.7383" y="1625.4385">TI-Gateway</text><rect fill="#E2E2F0" height="25.6406" rx="2.5" ry="2.5" style="stroke:#181818;stroke-width:0.5;" width="54.2295" x="791.2402" y="1597.5156"/><text fill="#000000" font-family="Helvetica" font-size="10" x="798.2402" y="1613.7979">SM(C)-B</text><rect fill="#E2E2F0" height="37.2813" rx="2.5" ry="2.5" style="stroke:#181818;stroke-width:0.5;" width="116.9492" x="865.4697" y="1597.5156"/><text fill="#000000" font-family="Helvetica" font-size="10" x="914.064" y="1613.7979">PDP</text><text fill="#000000" font-family="Helvetica" font-size="10" x="872.4697" y="1625.4385">Authorization Server</text><rect fill="#E2E2F0" height="37.2813" rx="2.5" ry="2.5" style="stroke:#181818;stroke-width:0.5;" width="61.7148" x="1172.6104" y="1597.5156"/><text fill="#000000" font-family="Helvetica" font-size="10" x="1193.5874" y="1613.7979">PDP</text><text fill="#000000" font-family="Helvetica" font-size="10" x="1179.6104" y="1625.4385">Database</text><rect fill="#E2E2F0" height="37.2813" rx="2.5" ry="2.5" style="stroke:#181818;stroke-width:0.5;" width="80.5723" x="1244.3252" y="1597.5156"/><text fill="#000000" font-family="Helvetica" font-size="10" x="1274.731" y="1613.7979">PDP</text><text fill="#000000" font-family="Helvetica" font-size="10" x="1251.3252" y="1625.4385">Policy Engine</text><polygon fill="#181818" points="906.9443,119.8438,916.9443,123.8438,906.9443,127.8438,910.9443,123.8438" style="stroke:#181818;stroke-width:1;stroke-linejoin:miter;stroke-miterlimit:10;"/><line style="stroke:#181818;stroke-width:1;" x1="65.5" x2="912.9443" y1="123.8438" y2="123.8438"/><text fill="#000000" font-family="Helvetica" font-size="10" x="72.5" y="119.4854">(01)</text><text fill="#000000" font-family="Helvetica" font-size="10" x="97.0273" y="119.4854">GET /nonce</text><polygon fill="#181818" points="76.5,145.4844,66.5,149.4844,76.5,153.4844,72.5,149.4844" style="stroke:#181818;stroke-width:1;stroke-linejoin:miter;stroke-miterlimit:10;"/><line style="stroke:#181818;stroke-width:1;stroke-dasharray:2,2;" x1="70.5" x2="917.9443" y1="149.4844" y2="149.4844"/><text fill="#000000" font-family="Helvetica" font-size="10" x="82.5" y="145.126">(02)</text><text fill="#000000" font-family="Helvetica" font-size="10" x="107.0273" y="145.126">return 200 OK new-nonce: nonce</text><path d="M25.5,161.4844 L85.4561,161.4844 L85.4561,165.125 L75.4561,175.125 L25.5,175.125 L25.5,161.4844" fill="#EEEEEE" style="stroke:#000000;stroke-width:1.5;"/><rect fill="none" height="1028.0625" style="stroke:#000000;stroke-width:1.5;" width="1198.9678" x="25.5" y="161.4844"/><text fill="#000000" font-family="Helvetica" font-size="10" font-weight="700" x="40.5" y="171.7666">alt</text><text fill="#000000" font-family="Helvetica" font-size="10" font-weight="700" x="100.4561" y="172.7666">[Initial SM(C)-B Token Exchangewith Attestation]</text><line style="stroke:#000000;stroke-width:1;stroke-dasharray:2,2;" x1="25.5" x2="1224.4678" y1="927.7813" y2="927.7813"/><text fill="#000000" font-family="Helvetica" font-size="10" font-weight="700" x="30.5" y="939.0635">[Refresh Token use (without Attestation)]</text><line style="stroke:#181818;stroke-width:1;" x1="65.5" x2="107.5" y1="202.7656" y2="202.7656"/><line style="stroke:#181818;stroke-width:1;" x1="107.5" x2="107.5" y1="202.7656" y2="215.7656"/><line style="stroke:#181818;stroke-width:1;" x1="66.5" x2="107.5" y1="215.7656" y2="215.7656"/><polygon fill="#181818" points="76.5,211.7656,66.5,215.7656,76.5,219.7656,72.5,215.7656" style="stroke:#181818;stroke-width:1;stroke-linejoin:miter;stroke-miterlimit:10;"/><text fill="#000000" font-family="Helvetica" font-size="10" x="72.5" y="198.4072">(03)</text><text fill="#000000" font-family="Helvetica" font-size="10" x="97.0273" y="198.4072">Create DPoP Key Pair (for Token Exchange)</text><path d="M326.2002,190.125 L326.2002,211.125 L552.2002,211.125 L552.2002,200.125 L542.2002,190.125 L326.2002,190.125" fill="#FEFFDD" style="stroke:#181818;stroke-width:0.5;"/><path d="M542.2002,190.125 L542.2002,200.125 L552.2002,200.125 L542.2002,190.125" fill="#FEFFDD" style="stroke:#181818;stroke-width:0.5;"/><text fill="#000000" font-family="Helvetica" font-size="10" x="332.2002" y="204.4072">Session-based Key Pair for DPoP binding.</text><line style="stroke:#181818;stroke-width:1;" x1="65.5" x2="107.5" y1="241.4063" y2="241.4063"/><line style="stroke:#181818;stroke-width:1;" x1="107.5" x2="107.5" y1="241.4063" y2="254.4063"/><line style="stroke:#181818;stroke-width:1;" x1="66.5" x2="107.5" y1="254.4063" y2="254.4063"/><polygon fill="#181818" points="76.5,250.4063,66.5,254.4063,76.5,258.4063,72.5,254.4063" style="stroke:#181818;stroke-width:1;stroke-linejoin:miter;stroke-miterlimit:10;"/><text fill="#000000" font-family="Helvetica" font-size="10" x="72.5" y="237.0479">(04)</text><text fill="#000000" font-family="Helvetica" font-size="10" x="97.0273" y="237.0479">Calculate attestation_challenge</text><path d="M266.957,228.7656 L266.957,272.7656 L710.957,272.7656 L710.957,238.7656 L700.957,228.7656 L266.957,228.7656" fill="#FEFFDD" style="stroke:#181818;stroke-width:0.5;"/><path d="M700.957,228.7656 L700.957,238.7656 L710.957,238.7656 L700.957,228.7656" fill="#FEFFDD" style="stroke:#181818;stroke-width:0.5;"/><text fill="#000000" font-family="Helvetica" font-size="10" x="272.957" y="243.0479">The attestation_challenge is a cryptographic hash of the PuK.Client.Sig and a nonce.</text><text fill="#000000" font-family="Helvetica" font-size="10" x="272.957" y="254.6885">It is used to bind the attestation to the client instance.</text><text fill="#000000" font-family="Helvetica" font-size="10" x="272.957" y="266.3291">attestation_challenge = HASH(JWK Thumbprint ofPuK.Client.Sig + nonce)</text><path d="M44.5,282.6875 L104.4561,282.6875 L104.4561,286.3281 L94.4561,296.3281 L44.5,296.3281 L44.5,282.6875" fill="#EEEEEE" style="stroke:#000000;stroke-width:1.5;"/><rect fill="none" height="325.6875" style="stroke:#000000;stroke-width:1.5;" width="521.1982" x="44.5" y="282.6875"/><text fill="#000000" font-family="Helvetica" font-size="10" font-weight="700" x="59.5" y="292.9697">alt</text><text fill="#000000" font-family="Helvetica" font-size="10" font-weight="700" x="119.4561" y="293.9697">[ZETA Attestation Service available]</text><line style="stroke:#000000;stroke-width:1;stroke-dasharray:2,2;" x1="44.5" x2="565.6982" y1="500.8125" y2="500.8125"/><text fill="#000000" font-family="Helvetica" font-size="10" font-weight="700" x="49.5" y="512.0947">[Fallback: Software-basierte Attestierung]</text><polygon fill="#181818" points="518.624,319.9688,528.624,323.9688,518.624,327.9688,522.624,323.9688" style="stroke:#181818;stroke-width:1;stroke-linejoin:miter;stroke-miterlimit:10;"/><line style="stroke:#181818;stroke-width:1;" x1="65.5" x2="524.624" y1="323.9688" y2="323.9688"/><text fill="#000000" font-family="Helvetica" font-size="10" x="72.5" y="319.6104">(05)</text><text fill="#000000" font-family="Helvetica" font-size="10" x="97.0273" y="319.6104">Get Attestation with `attestation_challenge`</text><path d="M70.5,336.9688 L70.5,357.9688 L544.5,357.9688 L544.5,346.9688 L534.5,336.9688 L70.5,336.9688" fill="#FF0000" style="stroke:#181818;stroke-width:0.5;"/><path d="M534.5,336.9688 L534.5,346.9688 L544.5,346.9688 L534.5,336.9688" fill="#FF0000" style="stroke:#181818;stroke-width:0.5;"/><text fill="#000000" font-family="Helvetica" font-size="10" x="76.5" y="351.251">Der TPM Attestation Flow wird aktuell &#252;berarbeitet und in einer Folgeversion nachgeliefert</text><polygon fill="#181818" points="76.5,388.8906,66.5,392.8906,76.5,396.8906,72.5,392.8906" style="stroke:#181818;stroke-width:1;stroke-linejoin:miter;stroke-miterlimit:10;"/><line style="stroke:#181818;stroke-width:1;stroke-dasharray:2,2;" x1="70.5" x2="529.624" y1="392.8906" y2="392.8906"/><text fill="#000000" font-family="Helvetica" font-size="10" x="82.5" y="382.7119">(06)</text><text fill="#000000" font-family="Helvetica" font-size="10" x="107.0273" y="376.8916">Return Attestation</text><text fill="#000000" font-family="Helvetica" font-size="10" x="107.0273" y="388.5322">(Quote, EventLog, CertChain)</text><line style="stroke:#181818;stroke-width:1;" x1="65.5" x2="107.5" y1="430.1719" y2="430.1719"/><line style="stroke:#181818;stroke-width:1;" x1="107.5" x2="107.5" y1="430.1719" y2="443.1719"/><line style="stroke:#181818;stroke-width:1;" x1="66.5" x2="107.5" y1="443.1719" y2="443.1719"/><polygon fill="#181818" points="76.5,439.1719,66.5,443.1719,76.5,447.1719,72.5,443.1719" style="stroke:#181818;stroke-width:1;stroke-linejoin:miter;stroke-miterlimit:10;"/><text fill="#000000" font-family="Helvetica" font-size="10" x="72.5" y="419.9932">(07)</text><text fill="#000000" font-family="Helvetica" font-size="10" x="97.0273" y="414.1729">Create client_statement</text><text fill="#000000" font-family="Helvetica" font-size="10" x="97.0273" y="425.8135">with posture-tpm</text><line style="stroke:#181818;stroke-width:1;" x1="65.5" x2="107.5" y1="468.8125" y2="468.8125"/><line style="stroke:#181818;stroke-width:1;" x1="107.5" x2="107.5" y1="468.8125" y2="481.8125"/><line style="stroke:#181818;stroke-width:1;" x1="66.5" x2="107.5" y1="481.8125" y2="481.8125"/><polygon fill="#181818" points="76.5,477.8125,66.5,481.8125,76.5,485.8125,72.5,481.8125" style="stroke:#181818;stroke-width:1;stroke-linejoin:miter;stroke-miterlimit:10;"/><text fill="#000000" font-family="Helvetica" font-size="10" x="72.5" y="464.4541">(08)</text><text fill="#000000" font-family="Helvetica" font-size="10" x="97.0273" y="464.4541">Create Client Assertion JWT (with TPM Attestation, sig by Client_Instance_Private_Key)</text><line style="stroke:#181818;stroke-width:1;" x1="65.5" x2="107.5" y1="548.7344" y2="548.7344"/><line style="stroke:#181818;stroke-width:1;" x1="107.5" x2="107.5" y1="548.7344" y2="561.7344"/><line style="stroke:#181818;stroke-width:1;" x1="66.5" x2="107.5" y1="561.7344" y2="561.7344"/><polygon fill="#181818" points="76.5,557.7344,66.5,561.7344,76.5,565.7344,72.5,561.7344" style="stroke:#181818;stroke-width:1;stroke-linejoin:miter;stroke-miterlimit:10;"/><text fill="#000000" font-family="Helvetica" font-size="10" x="72.5" y="538.5557">(09)</text><text fill="#000000" font-family="Helvetica" font-size="10" x="97.0273" y="532.7354">Create client_statement</text><text fill="#000000" font-family="Helvetica" font-size="10" x="97.0273" y="544.376">with posture-software</text><line style="stroke:#181818;stroke-width:1;" x1="65.5" x2="107.5" y1="587.375" y2="587.375"/><line style="stroke:#181818;stroke-width:1;" x1="107.5" x2="107.5" y1="587.375" y2="600.375"/><line style="stroke:#181818;stroke-width:1;" x1="66.5" x2="107.5" y1="600.375" y2="600.375"/><polygon fill="#181818" points="76.5,596.375,66.5,600.375,76.5,604.375,72.5,600.375" style="stroke:#181818;stroke-width:1;stroke-linejoin:miter;stroke-miterlimit:10;"/><text fill="#000000" font-family="Helvetica" font-size="10" x="72.5" y="583.0166">(10)</text><text fill="#000000" font-family="Helvetica" font-size="10" x="97.0273" y="583.0166">Create Client Assertion JWT (with SW Attestation, sig by Client_Instance_Private_Key)</text><line style="stroke:#181818;stroke-width:1;" x1="65.5" x2="107.5" y1="640.0156" y2="640.0156"/><line style="stroke:#181818;stroke-width:1;" x1="107.5" x2="107.5" y1="640.0156" y2="653.0156"/><line style="stroke:#181818;stroke-width:1;" x1="66.5" x2="107.5" y1="653.0156" y2="653.0156"/><polygon fill="#181818" points="76.5,649.0156,66.5,653.0156,76.5,657.0156,72.5,653.0156" style="stroke:#181818;stroke-width:1;stroke-linejoin:miter;stroke-miterlimit:10;"/><text fill="#000000" font-family="Helvetica" font-size="10" x="72.5" y="635.6572">(11)</text><text fill="#000000" font-family="Helvetica" font-size="10" x="97.0273" y="635.6572">Create "SM(C)-B ID Token" (JWT, with Bindigs for nonce, client_key, dpop_key)</text><polygon fill="#181818" points="692.1587,674.6563,702.1587,678.6563,692.1587,682.6563,696.1587,678.6563" style="stroke:#181818;stroke-width:1;stroke-linejoin:miter;stroke-miterlimit:10;"/><line style="stroke:#181818;stroke-width:1;" x1="65.5" x2="698.1587" y1="678.6563" y2="678.6563"/><text fill="#000000" font-family="Helvetica" font-size="10" x="72.5" y="674.2979">(12)</text><text fill="#000000" font-family="Helvetica" font-size="10" x="97.0273" y="674.2979">externalAuthenticate (JWT-hash)</text><polygon fill="#181818" points="801.355,700.2969,811.355,704.2969,801.355,708.2969,805.355,704.2969" style="stroke:#181818;stroke-width:1;stroke-linejoin:miter;stroke-miterlimit:10;"/><line style="stroke:#181818;stroke-width:1;" x1="714.1587" x2="807.355" y1="704.2969" y2="704.2969"/><text fill="#000000" font-family="Helvetica" font-size="10" x="721.1587" y="699.9385">(13)</text><text fill="#000000" font-family="Helvetica" font-size="10" x="745.686" y="699.9385">sign (hash)</text><polygon fill="#181818" points="725.1587,725.9375,715.1587,729.9375,725.1587,733.9375,721.1587,729.9375" style="stroke:#181818;stroke-width:1;stroke-linejoin:miter;stroke-miterlimit:10;"/><line style="stroke:#181818;stroke-width:1;stroke-dasharray:2,2;" x1="719.1587" x2="812.355" y1="729.9375" y2="729.9375"/><text fill="#000000" font-family="Helvetica" font-size="10" x="731.1587" y="725.5791">(14)</text><text fill="#000000" font-family="Helvetica" font-size="10" x="755.686" y="725.5791">Signature</text><polygon fill="#181818" points="76.5,751.5781,66.5,755.5781,76.5,759.5781,72.5,755.5781" style="stroke:#181818;stroke-width:1;stroke-linejoin:miter;stroke-miterlimit:10;"/><line style="stroke:#181818;stroke-width:1;stroke-dasharray:2,2;" x1="70.5" x2="703.1587" y1="755.5781" y2="755.5781"/><text fill="#000000" font-family="Helvetica" font-size="10" x="82.5" y="751.2197">(15)</text><text fill="#000000" font-family="Helvetica" font-size="10" x="107.0273" y="751.2197">JWT-signature</text><line style="stroke:#181818;stroke-width:1;" x1="65.5" x2="107.5" y1="781.2188" y2="781.2188"/><line style="stroke:#181818;stroke-width:1;" x1="107.5" x2="107.5" y1="781.2188" y2="794.2188"/><line style="stroke:#181818;stroke-width:1;" x1="66.5" x2="107.5" y1="794.2188" y2="794.2188"/><polygon fill="#181818" points="76.5,790.2188,66.5,794.2188,76.5,798.2188,72.5,794.2188" style="stroke:#181818;stroke-width:1;stroke-linejoin:miter;stroke-miterlimit:10;"/><text fill="#000000" font-family="Helvetica" font-size="10" x="72.5" y="776.8604">(16)</text><text fill="#000000" font-family="Helvetica" font-size="10" x="97.0273" y="776.8604">Add JWT-Signature to SM(C)-B ID Token</text><line style="stroke:#181818;stroke-width:1;" x1="65.5" x2="107.5" y1="819.8594" y2="819.8594"/><line style="stroke:#181818;stroke-width:1;" x1="107.5" x2="107.5" y1="819.8594" y2="832.8594"/><line style="stroke:#181818;stroke-width:1;" x1="66.5" x2="107.5" y1="832.8594" y2="832.8594"/><polygon fill="#181818" points="76.5,828.8594,66.5,832.8594,76.5,836.8594,72.5,832.8594" style="stroke:#181818;stroke-width:1;stroke-linejoin:miter;stroke-miterlimit:10;"/><text fill="#000000" font-family="Helvetica" font-size="10" x="72.5" y="815.501">(17)</text><text fill="#000000" font-family="Helvetica" font-size="10" x="97.0273" y="815.501">Create DPoP Proof JWT for Token Exchange</text><polygon fill="#181818" points="906.9443,854.5,916.9443,858.5,906.9443,862.5,910.9443,858.5" style="stroke:#181818;stroke-width:1;stroke-linejoin:miter;stroke-miterlimit:10;"/><line style="stroke:#181818;stroke-width:1;" x1="65.5" x2="912.9443" y1="858.5" y2="858.5"/><text fill="#000000" font-family="Helvetica" font-size="10" x="72.5" y="854.1416">(18)</text><text fill="#000000" font-family="Helvetica" font-size="10" x="97.0273" y="854.1416">POST /token (RFC 8693) DPoP: &lt;signed_dpop_jwt&gt;</text><line style="stroke:#181818;stroke-width:1;" x1="928.9443" x2="970.9443" y1="895.7813" y2="895.7813"/><line style="stroke:#181818;stroke-width:1;" x1="970.9443" x2="970.9443" y1="895.7813" y2="908.7813"/><line style="stroke:#181818;stroke-width:1;" x1="929.9443" x2="970.9443" y1="908.7813" y2="908.7813"/><polygon fill="#181818" points="939.9443,904.7813,929.9443,908.7813,939.9443,912.7813,935.9443,908.7813" style="stroke:#181818;stroke-width:1;stroke-linejoin:miter;stroke-miterlimit:10;"/><text fill="#000000" font-family="Helvetica" font-size="10" x="935.9443" y="885.6025">(19)</text><text fill="#000000" font-family="Helvetica" font-size="10" x="960.4717" y="879.7822">Validate Request (Client Assertion, Attestation,</text><text fill="#000000" font-family="Helvetica" font-size="10" x="960.4717" y="891.4229">DPoP Proof, Subject Token and Key bindings)</text><line style="stroke:#181818;stroke-width:1;" x1="65.5" x2="107.5" y1="964.0625" y2="964.0625"/><line style="stroke:#181818;stroke-width:1;" x1="107.5" x2="107.5" y1="964.0625" y2="977.0625"/><line style="stroke:#181818;stroke-width:1;" x1="66.5" x2="107.5" y1="977.0625" y2="977.0625"/><polygon fill="#181818" points="76.5,973.0625,66.5,977.0625,76.5,981.0625,72.5,977.0625" style="stroke:#181818;stroke-width:1;stroke-linejoin:miter;stroke-miterlimit:10;"/><text fill="#000000" font-family="Helvetica" font-size="10" x="72.5" y="959.7041">(20)</text><text fill="#000000" font-family="Helvetica" font-size="10" x="97.0273" y="959.7041">Create Client Assertion JWT without Attestation</text><line style="stroke:#181818;stroke-width:1;" x1="65.5" x2="107.5" y1="1002.7031" y2="1002.7031"/><line style="stroke:#181818;stroke-width:1;" x1="107.5" x2="107.5" y1="1002.7031" y2="1015.7031"/><line style="stroke:#181818;stroke-width:1;" x1="66.5" x2="107.5" y1="1015.7031" y2="1015.7031"/><polygon fill="#181818" points="76.5,1011.7031,66.5,1015.7031,76.5,1019.7031,72.5,1015.7031" style="stroke:#181818;stroke-width:1;stroke-linejoin:miter;stroke-miterlimit:10;"/><text fill="#000000" font-family="Helvetica" font-size="10" x="72.5" y="998.3447">(21)</text><text fill="#000000" font-family="Helvetica" font-size="10" x="97.0273" y="998.3447">Create DPoP Proof JWT for Token Exchange</text><polygon fill="#181818" points="906.9443,1037.3438,916.9443,1041.3438,906.9443,1045.3438,910.9443,1041.3438" style="stroke:#181818;stroke-width:1;stroke-linejoin:miter;stroke-miterlimit:10;"/><line style="stroke:#181818;stroke-width:1;" x1="65.5" x2="912.9443" y1="1041.3438" y2="1041.3438"/><text fill="#000000" font-family="Helvetica" font-size="10" x="72.5" y="1036.9854">(22)</text><text fill="#000000" font-family="Helvetica" font-size="10" x="97.0273" y="1036.9854">POST /token DPoP: &lt;signed_dpop_jwt&gt;</text><line style="stroke:#181818;stroke-width:1;" x1="928.9443" x2="970.9443" y1="1078.625" y2="1078.625"/><line style="stroke:#181818;stroke-width:1;" x1="970.9443" x2="970.9443" y1="1078.625" y2="1091.625"/><line style="stroke:#181818;stroke-width:1;" x1="929.9443" x2="970.9443" y1="1091.625" y2="1091.625"/><polygon fill="#181818" points="939.9443,1087.625,929.9443,1091.625,939.9443,1095.625,935.9443,1091.625" style="stroke:#181818;stroke-width:1;stroke-linejoin:miter;stroke-miterlimit:10;"/><text fill="#000000" font-family="Helvetica" font-size="10" x="935.9443" y="1068.4463">(23)</text><text fill="#000000" font-family="Helvetica" font-size="10" x="960.4717" y="1062.626">Validate Request (Client Assertion,</text><text fill="#000000" font-family="Helvetica" font-size="10" x="960.4717" y="1074.2666">DPoP Proof, Refresh Token)</text><line style="stroke:#181818;stroke-width:1;" x1="928.9443" x2="970.9443" y1="1117.2656" y2="1117.2656"/><line style="stroke:#181818;stroke-width:1;" x1="970.9443" x2="970.9443" y1="1117.2656" y2="1130.2656"/><line style="stroke:#181818;stroke-width:1;" x1="929.9443" x2="970.9443" y1="1130.2656" y2="1130.2656"/><polygon fill="#181818" points="939.9443,1126.2656,929.9443,1130.2656,939.9443,1134.2656,935.9443,1130.2656" style="stroke:#181818;stroke-width:1;stroke-linejoin:miter;stroke-miterlimit:10;"/><text fill="#000000" font-family="Helvetica" font-size="10" x="935.9443" y="1112.9072">(24)</text><text fill="#000000" font-family="Helvetica" font-size="10" x="960.4717" y="1112.9072">Invalidate Refresh token</text><polygon fill="#181818" points="1186.4678,1151.9063,1196.4678,1155.9063,1186.4678,1159.9063,1190.4678,1155.9063" style="stroke:#181818;stroke-width:1;stroke-linejoin:miter;stroke-miterlimit:10;"/><line style="stroke:#181818;stroke-width:1;" x1="928.9443" x2="1192.4678" y1="1155.9063" y2="1155.9063"/><text fill="#000000" font-family="Helvetica" font-size="10" x="935.9443" y="1151.5479">(25)</text><text fill="#000000" font-family="Helvetica" font-size="10" x="960.4717" y="1151.5479">Get Client Data, Session Data, User Data</text><polygon fill="#181818" points="939.9443,1177.5469,929.9443,1181.5469,939.9443,1185.5469,935.9443,1181.5469" style="stroke:#181818;stroke-width:1;stroke-linejoin:miter;stroke-miterlimit:10;"/><line style="stroke:#181818;stroke-width:1;stroke-dasharray:2,2;" x1="933.9443" x2="1197.4678" y1="1181.5469" y2="1181.5469"/><text fill="#000000" font-family="Helvetica" font-size="10" x="945.9443" y="1177.1885">(26)</text><text fill="#000000" font-family="Helvetica" font-size="10" x="970.4717" y="1177.1885">Client Data, Session Data, User Data</text><path d="M25.5,1207.5469 L85.4561,1207.5469 L85.4561,1211.1875 L75.4561,1221.1875 L25.5,1221.1875 L25.5,1207.5469" fill="#EEEEEE" style="stroke:#000000;stroke-width:1.5;"/><rect fill="none" height="365.9688" style="stroke:#000000;stroke-width:1.5;" width="1280.1113" x="25.5" y="1207.5469"/><text fill="#000000" font-family="Helvetica" font-size="10" font-weight="700" x="40.5" y="1217.8291">alt</text><text fill="#000000" font-family="Helvetica" font-size="10" font-weight="700" x="100.4561" y="1218.8291">[Validations Successful]</text><line style="stroke:#000000;stroke-width:1;stroke-dasharray:2,2;" x1="25.5" x2="1305.6113" y1="1529.2344" y2="1529.2344"/><text fill="#000000" font-family="Helvetica" font-size="10" font-weight="700" x="30.5" y="1540.5166">[Validation Failed]</text><polygon fill="#181818" points="1267.6113,1256.4688,1277.6113,1260.4688,1267.6113,1264.4688,1271.6113,1260.4688" style="stroke:#181818;stroke-width:1;stroke-linejoin:miter;stroke-miterlimit:10;"/><line style="stroke:#181818;stroke-width:1;" x1="928.9443" x2="1273.6113" y1="1260.4688" y2="1260.4688"/><text fill="#000000" font-family="Helvetica" font-size="10" x="935.9443" y="1250.29">(27)</text><text fill="#000000" font-family="Helvetica" font-size="10" x="960.4717" y="1244.4697">POST /v1/data/authz, body</text><text fill="#000000" font-family="Helvetica" font-size="10" x="960.4717" y="1256.1104">{  "input": {...}}</text><polygon fill="#181818" points="939.9443,1282.1094,929.9443,1286.1094,939.9443,1290.1094,935.9443,1286.1094" style="stroke:#181818;stroke-width:1;stroke-linejoin:miter;stroke-miterlimit:10;"/><line style="stroke:#181818;stroke-width:1;stroke-dasharray:2,2;" x1="933.9443" x2="1278.6113" y1="1286.1094" y2="1286.1094"/><text fill="#000000" font-family="Helvetica" font-size="10" x="945.9443" y="1281.751">(28)</text><text fill="#000000" font-family="Helvetica" font-size="10" x="970.4717" y="1281.751">200 OK</text><path d="M44.5,1298.1094 L104.4561,1298.1094 L104.4561,1301.75 L94.4561,1311.75 L44.5,1311.75 L44.5,1298.1094" fill="#EEEEEE" style="stroke:#000000;stroke-width:1.5;"/><rect fill="none" height="206.125" style="stroke:#000000;stroke-width:1.5;" width="1179.9678" x="44.5" y="1298.1094"/><text fill="#000000" font-family="Helvetica" font-size="10" font-weight="700" x="59.5" y="1308.3916">alt</text><text fill="#000000" font-family="Helvetica" font-size="10" font-weight="700" x="119.4561" y="1309.3916">[Policy Decision allowed]</text><line style="stroke:#000000;stroke-width:1;stroke-dasharray:2,2;" x1="44.5" x2="1224.4678" y1="1459.9531" y2="1459.9531"/><text fill="#000000" font-family="Helvetica" font-size="10" font-weight="700" x="49.5" y="1471.2354">[Policy Decision denied]</text><line style="stroke:#181818;stroke-width:1;" x1="928.9443" x2="970.9443" y1="1351.0313" y2="1351.0313"/><line style="stroke:#181818;stroke-width:1;" x1="970.9443" x2="970.9443" y1="1351.0313" y2="1364.0313"/><line style="stroke:#181818;stroke-width:1;" x1="929.9443" x2="970.9443" y1="1364.0313" y2="1364.0313"/><polygon fill="#181818" points="939.9443,1360.0313,929.9443,1364.0313,939.9443,1368.0313,935.9443,1364.0313" style="stroke:#181818;stroke-width:1;stroke-linejoin:miter;stroke-miterlimit:10;"/><text fill="#000000" font-family="Helvetica" font-size="10" x="935.9443" y="1340.8525">(29)</text><text fill="#000000" font-family="Helvetica" font-size="10" x="960.4717" y="1335.0322">Generate AS Access Token (AT)</text><text fill="#000000" font-family="Helvetica" font-size="10" x="960.4717" y="1346.6729">and Refresh Token (RT)</text><polygon fill="#181818" points="1186.4678,1385.6719,1196.4678,1389.6719,1186.4678,1393.6719,1190.4678,1389.6719" style="stroke:#181818;stroke-width:1;stroke-linejoin:miter;stroke-miterlimit:10;"/><line style="stroke:#181818;stroke-width:1;" x1="928.9443" x2="1192.4678" y1="1389.6719" y2="1389.6719"/><text fill="#000000" font-family="Helvetica" font-size="10" x="935.9443" y="1385.3135">(30)</text><text fill="#000000" font-family="Helvetica" font-size="10" x="960.4717" y="1385.3135">Update Client, Session and User Data</text><polygon fill="#181818" points="939.9443,1411.3125,929.9443,1415.3125,939.9443,1419.3125,935.9443,1415.3125" style="stroke:#181818;stroke-width:1;stroke-linejoin:miter;stroke-miterlimit:10;"/><line style="stroke:#181818;stroke-width:1;stroke-dasharray:2,2;" x1="933.9443" x2="1197.4678" y1="1415.3125" y2="1415.3125"/><text fill="#000000" font-family="Helvetica" font-size="10" x="945.9443" y="1410.9541">(31)</text><text fill="#000000" font-family="Helvetica" font-size="10" x="970.4717" y="1410.9541">updated</text><polygon fill="#181818" points="76.5,1436.9531,66.5,1440.9531,76.5,1444.9531,72.5,1440.9531" style="stroke:#181818;stroke-width:1;stroke-linejoin:miter;stroke-miterlimit:10;"/><line style="stroke:#181818;stroke-width:1;stroke-dasharray:2,2;" x1="70.5" x2="917.9443" y1="1440.9531" y2="1440.9531"/><text fill="#000000" font-family="Helvetica" font-size="10" x="82.5" y="1436.5947">(32)</text><text fill="#000000" font-family="Helvetica" font-size="10" x="107.0273" y="1436.5947">200 OK, new tokens</text><polygon fill="#181818" points="76.5,1492.2344,66.5,1496.2344,76.5,1500.2344,72.5,1496.2344" style="stroke:#181818;stroke-width:1;stroke-linejoin:miter;stroke-miterlimit:10;"/><line style="stroke:#181818;stroke-width:1;stroke-dasharray:2,2;" x1="70.5" x2="917.9443" y1="1496.2344" y2="1496.2344"/><text fill="#000000" font-family="Helvetica" font-size="10" x="82.5" y="1491.876">(33)</text><text fill="#000000" font-family="Helvetica" font-size="10" x="107.0273" y="1491.876">403 Forbidden</text><polygon fill="#181818" points="76.5,1561.5156,66.5,1565.5156,76.5,1569.5156,72.5,1565.5156" style="stroke:#181818;stroke-width:1;stroke-linejoin:miter;stroke-miterlimit:10;"/><line style="stroke:#181818;stroke-width:1;stroke-dasharray:2,2;" x1="70.5" x2="917.9443" y1="1565.5156" y2="1565.5156"/><text fill="#000000" font-family="Helvetica" font-size="10" x="82.5" y="1561.1572">(34)</text><text fill="#000000" font-family="Helvetica" font-size="10" x="107.0273" y="1561.1572">400 Bad Request</text><?plantuml-src hLVhSjf65FwlfpWbFm9ZP9EaqscPEZCoo9ZuHeqIjndFE8jqW8t5BbsjJ70cRzF7wB-yMC-k19809stIcSn4ID-vVUTgbcefqja85TJghLQZvYHtNCoPOZE8SCpIM1zBeOVy0U5PQ_V72pP3EC7u7ZKFMGdJpJ3dKiXapaACrkYEJ1L7LSB6A2PwwaNlqqI3a09BtnByCqKHuXMEKPc78nRUJPHCHTIHiLHmFUMwB33S52XYUEuSFFqQK2zZX96C8-VfWUFyC5TiCcEWKJw0LYawpaX-WDgPtw_1azvK9Zgp3s3V3nIVVVvB9Sj4uumGP-mUHKJ10kI8jtxWGIVcA3Hz7p8HBO-KN0YB023NY4W-PqBdA6199dKZSZ4B9RL6eRCfzDORhYN0qneJpJINWi9Lzpp46r7teXaNeFXagfD6RKj3C3Yt6kX_yx4mL0QTIY7mJXF_1bhyakf617stnpGksBAs8JKyFxBuuNczqt2FQivAUSQg9qOSDIeY9l0x9nUNPvUzFvmoSRsKgMYRjx8DBzNJZ891Tt0Zp4-f-4D10kdV4Y9ezwWGwZBDHYp17K2_G0rapCCb-6B21PQfMaULPt1lR_Nalipzszk3DlJy00wetaDqihSkVLyXtJOerAaIyBpLWijJ4BXmBRWDcOpp50uF3s4OU5T16uBBK_y2_Dyx9zv5puUXtmdwbnS6uR1OGrzmpLaCEVKGo3iKu7y8fqnCSC7rj5mj54pXSVxKXev2oYjq1t80fxY40UCAwcDAUrLRWyI59AIjiJQndYIar3MKHeMa4RIwHbn4N4psdHrcoIgBmpGsXbdXu2rPYitSm0rRmVGH7F0468HgETToejXyoaEOicGASWoQX0RfwNvcSd_89q05Hd1BzFwDw6iZdXhtjRJ-MfcI8VFUl0ep_xcWzvdiRcyEuSGRdjHVNP-IopI4vugJc1nlkB6NkM0OfN-LX7j1uDEZpN8vsm0ctu_rFx1xncCsYj7MTa6t6HnPLQAk2DhQUBSpYdTMHq6_uJBN-4HXbC-qBYqOCrJAIezZkI3DYaY-qod6CNp-cnOHKoEaSQg1nZjn24YTfU1OnXEalZL518A5qmcI4PhQUZqAZG_sXmbZeuskiZOgcQSX-5jA4atmQJxhCpbfGeVKTQQCYyO6CUiwpAe_I_2jqOGpUheHbg0vhO9KeQldivtoHVlalxqa8OicebVN0TIjaWsMcf1G2OoMkSXjFo-gMrepzwJgbbh9U8jnWd1CEHdHRgHsasEzOEGBzHijMZAPwQJdL4o-AxeaL_tj8Gwllob2qusnNhU0Vz5zl04s6sKrylhTV4vPBurRMRiy7aTjKxG6rB51C-k98pEs9ecTOxPBcolwxd3PX6Wkv-QfKHrhnQwqtOOVQE495fi5G0WweiYkCUAQuMHYBmH8scnGAqUy2QYlCEQrMr7kkWIY2KBZ9xNvAdygjGUXZB6aXDp1XnT55hPMQCRT9ZdErxV6G4aQ4QOQjhT6DRbVJbh5KccZ3Yw7j5Ar5QXV7NVWvvz-UT6mjjlmgmaIerkRcFSB_PAqv7jtfQGDRrZC8-FlbJaFwHwjRnPpirB0T2oi0sl2C1sznr3dBfiTOhPTljyIgWJRgdHnAgJDaw5egsIz8TFAu6qu_xd5TcZvtgHiCrrb-V-bjifcXQV6bies7JNtXSuCQxqgGxFJRhtPSfFcmckk3fFyrslomZwIU2RbhhqtU-HVYQucLQcKlt2P4QmygTvuP_tkza0p-pmdZqmcL6LXIER7QLm9r2_tmFsp0uAp0qQV7vfqZaRB6_4He4P__gIwreQF-_lxdpwPKFsDEBDxCxyZyYEtYo6tyTAMaOjyjMzbk8UqhaqsQ0bxriUydEfUqA1BYBYfrdxzAcXKLPNIzNeU5PLUC6wqb5ErErcf5QxuMTfsMOXDSrDd5PEirkXcl14A_gYQ7rilw3XH8nv5jkXMoRUQYepHRkQnLRBZp0UZfWL7B5hrnQuQUgGordzNkFy0?></g></svg>