<svg xmlns="http://www.w3.org/2000/svg" xmlns:xlink="http://www.w3.org/1999/xlink" contentStyleType="text/css" data-diagram-type="SEQUENCE" height="870px" preserveAspectRatio="none" style="width:1131px;height:870px;background:#FFFFFF;" version="1.1" viewBox="0 0 1131 870" width="1131px" zoomAndPan="magnify"><?plantuml 1.2026.6?><defs/><g><rect fill="#F8F8FF" height="844.4688" style="stroke:#181818;stroke-width:0.5;" width="494.2036" x="131.5586" y="11"/><text fill="#000000" font-family="Helvetica" font-size="10" font-weight="700" x="370.1985" y="20.2822">LEI</text><rect fill="#E6E6FA" height="827.8281" style="stroke:#181818;stroke-width:0.5;" width="331.1206" x="131.5586" y="27.6406"/><text fill="#000000" font-family="Helvetica" font-size="10" font-weight="700" x="258.0222" y="36.9229">Prim&#228;rsystem</text><rect fill="#F4A460" height="811.1875" style="stroke:#181818;stroke-width:0.5;" width="89" x="131.5586" y="44.2813"/><text fill="#000000" font-family="Helvetica" font-size="10" font-weight="700" x="143.5586" y="53.5635">ZETA Client</text><rect fill="#C9FFC9" height="844.4688" style="stroke:#181818;stroke-width:0.5;" width="444.6436" x="637.7622" y="11"/><text fill="#000000" font-family="Helvetica" font-size="10" font-weight="700" x="835.7236" y="20.2822">Anbieter</text><rect fill="#F4A460" height="827.8281" style="stroke:#181818;stroke-width:0.5;" width="333.5801" x="637.7622" y="27.6406"/><text fill="#000000" font-family="Helvetica" font-size="10" font-weight="700" x="771.4077" y="36.9229">ZETA Guard</text><rect fill="#8FBC8F" height="827.8281" style="stroke:#181818;stroke-width:0.5;" width="99.0635" x="983.3423" y="27.6406"/><text fill="#000000" font-family="Helvetica" font-size="10" font-weight="700" x="995.3423" y="36.9229">TI 2.0 Dienst</text><g><title>User</title><rect fill="#000000" fill-opacity="0.00000" height="646.2656" width="8" x="20.8965" y="131.5625"/><line style="stroke:#181818;stroke-width:0.5;stroke-dasharray:5,5;" x1="24.3965" x2="24.3965" y1="131.5625" y2="777.8281"/></g><g><title>ZETA</title><rect fill="#000000" fill-opacity="0.00000" height="646.2656" width="8" x="172.5586" y="131.5625"/><line style="stroke:#181818;stroke-width:0.5;stroke-dasharray:5,5;" x1="176.0586" x2="176.0586" y1="131.5625" y2="777.8281"/></g><g><title/><rect fill="#FFFFFF" height="579.3438" style="stroke:#181818;stroke-width:1;" width="10" x="171.0586" y="180.4844"/></g><g><title>ZETA Attestation Service</title><rect fill="#000000" fill-opacity="0.00000" height="646.2656" width="8" x="341.0713" y="131.5625"/><line style="stroke:#181818;stroke-width:0.5;stroke-dasharray:5,5;" x1="344.5713" x2="344.5713" y1="131.5625" y2="777.8281"/></g><g><title>TPM</title><rect fill="#000000" fill-opacity="0.00000" height="646.2656" width="8" x="437.7959" y="131.5625"/><line style="stroke:#181818;stroke-width:0.5;stroke-dasharray:5,5;" x1="441.2959" x2="441.2959" y1="131.5625" y2="777.8281"/></g><g><title>Konnektor or</title><rect fill="#000000" fill-opacity="0.00000" height="646.2656" width="8" x="514.606" y="131.5625"/><line style="stroke:#181818;stroke-width:0.5;stroke-dasharray:5,5;" x1="518.106" x2="518.106" y1="131.5625" y2="777.8281"/></g><g><title>SM.C.-B</title><rect fill="#000000" fill-opacity="0.00000" height="646.2656" width="8" x="591.1475" y="131.5625"/><line style="stroke:#181818;stroke-width:0.5;stroke-dasharray:5,5;" x1="594.6475" x2="594.6475" y1="131.5625" y2="777.8281"/></g><g><title>PEP</title><rect fill="#000000" fill-opacity="0.00000" height="646.2656" width="8" x="673.7827" y="131.5625"/><line style="stroke:#181818;stroke-width:0.5;stroke-dasharray:5,5;" x1="677.2827" x2="677.2827" y1="131.5625" y2="777.8281"/></g><g><title/><rect fill="#FFFFFF" height="212.4063" style="stroke:#181818;stroke-width:1;" width="10" x="672.2827" y="521.7813"/></g><g><title>PDP</title><rect fill="#000000" fill-opacity="0.00000" height="646.2656" width="8" x="814.7954" y="131.5625"/><line style="stroke:#181818;stroke-width:0.5;stroke-dasharray:5,5;" x1="818.2954" x2="818.2954" y1="131.5625" y2="777.8281"/></g><g><title>PDP</title><rect fill="#000000" fill-opacity="0.00000" height="646.2656" width="8" x="923.5562" y="131.5625"/><line style="stroke:#181818;stroke-width:0.5;stroke-dasharray:5,5;" x1="927.0562" x2="927.0562" y1="131.5625" y2="777.8281"/></g><g><title>Resource</title><rect fill="#000000" fill-opacity="0.00000" height="646.2656" width="8" x="1029.374" y="131.5625"/><line style="stroke:#181818;stroke-width:0.5;stroke-dasharray:5,5;" x1="1032.874" x2="1032.874" y1="131.5625" y2="777.8281"/></g><g><title/><rect fill="#FFFFFF" height="87.5625" style="stroke:#181818;stroke-width:1;" width="10" x="1027.874" y="620.9844"/></g><text fill="#000000" font-family="Helvetica" font-size="10" x="10" y="129.2041">User</text><ellipse cx="24.3965" cy="68.4219" fill="#E2E2F0" rx="8" ry="8" style="stroke:#181818;stroke-width:0.5;"/><path d="M24.3965,76.4219 L24.3965,103.4219 M11.3965,84.4219 L37.3965,84.4219 M24.3965,103.4219 L11.3965,118.4219 M24.3965,103.4219 L37.3965,118.4219" fill="none" style="stroke:#181818;stroke-width:0.5;"/><rect fill="#E2E2F0" height="37.2813" rx="2.5" ry="2.5" style="stroke:#181818;stroke-width:0.5;" width="42.9502" x="154.5835" y="93.2813"/><text fill="#000000" font-family="Helvetica" font-size="10" x="162.9995" y="109.5635">ZETA</text><text fill="#000000" font-family="Helvetica" font-size="10" x="161.5835" y="121.2041">Client</text><rect fill="#E2E2F0" height="37.2813" rx="2.5" ry="2.5" style="stroke:#181818;stroke-width:0.5;" width="138.6826" x="275.23" y="93.2813"/><text fill="#000000" font-family="Helvetica" font-size="10" x="282.23" y="109.5635">ZETA Attestation Service</text><text fill="#000000" font-family="Helvetica" font-size="10" x="308.7046" y="121.2041">(Admin rights)</text><rect fill="#E2E2F0" height="25.6406" rx="2.5" ry="2.5" style="stroke:#181818;stroke-width:0.5;" width="34.7666" x="423.9126" y="104.9219"/><text fill="#000000" font-family="Helvetica" font-size="10" x="430.9126" y="121.2041">TPM</text><rect fill="#E2E2F0" height="37.2813" rx="2.5" ry="2.5" style="stroke:#181818;stroke-width:0.5;" width="78.8535" x="478.6792" y="93.2813"/><text fill="#000000" font-family="Helvetica" font-size="10" x="485.6792" y="109.5635">Konnektor or</text><text fill="#000000" font-family="Helvetica" font-size="10" x="489.6855" y="121.2041">TI-Gateway</text><rect fill="#E2E2F0" height="25.6406" rx="2.5" ry="2.5" style="stroke:#181818;stroke-width:0.5;" width="54.2295" x="567.5327" y="104.9219"/><text fill="#000000" font-family="Helvetica" font-size="10" x="574.5327" y="121.2041">SM(C)-B</text><rect fill="#E2E2F0" height="37.2813" rx="2.5" ry="2.5" style="stroke:#181818;stroke-width:0.5;" width="71.041" x="641.7622" y="93.2813"/><text fill="#000000" font-family="Helvetica" font-size="10" x="668.0933" y="109.5635">PEP</text><text fill="#000000" font-family="Helvetica" font-size="10" x="648.7622" y="121.2041">HTTP Proxy</text><rect fill="#E2E2F0" height="37.2813" rx="2.5" ry="2.5" style="stroke:#181818;stroke-width:0.5;" width="116.9492" x="759.8208" y="93.2813"/><text fill="#000000" font-family="Helvetica" font-size="10" x="808.415" y="109.5635">PDP</text><text fill="#000000" font-family="Helvetica" font-size="10" x="766.8208" y="121.2041">Authorization Server</text><rect fill="#E2E2F0" height="37.2813" rx="2.5" ry="2.5" style="stroke:#181818;stroke-width:0.5;" width="80.5723" x="886.77" y="93.2813"/><text fill="#000000" font-family="Helvetica" font-size="10" x="917.1758" y="109.5635">PDP</text><text fill="#000000" font-family="Helvetica" font-size="10" x="893.77" y="121.2041">Policy Engine</text><rect fill="#E2E2F0" height="37.2813" rx="2.5" ry="2.5" style="stroke:#181818;stroke-width:0.5;" width="60.5283" x="1002.6099" y="93.2813"/><text fill="#000000" font-family="Helvetica" font-size="10" x="1009.6099" y="109.5635">Resource</text><text fill="#000000" font-family="Helvetica" font-size="10" x="1016.4775" y="121.2041">Server</text><text fill="#000000" font-family="Helvetica" font-size="10" x="10" y="847.1104">User</text><ellipse cx="24.3965" cy="786.3281" fill="#E2E2F0" rx="8" ry="8" style="stroke:#181818;stroke-width:0.5;"/><path d="M24.3965,794.3281 L24.3965,821.3281 M11.3965,802.3281 L37.3965,802.3281 M24.3965,821.3281 L11.3965,836.3281 M24.3965,821.3281 L37.3965,836.3281" fill="none" style="stroke:#181818;stroke-width:0.5;"/><rect fill="#E2E2F0" height="37.2813" rx="2.5" ry="2.5" style="stroke:#181818;stroke-width:0.5;" width="42.9502" x="154.5835" y="777.8281"/><text fill="#000000" font-family="Helvetica" font-size="10" x="162.9995" y="794.1104">ZETA</text><text fill="#000000" font-family="Helvetica" font-size="10" x="161.5835" y="805.751">Client</text><rect fill="#E2E2F0" height="37.2813" rx="2.5" ry="2.5" style="stroke:#181818;stroke-width:0.5;" width="138.6826" x="275.23" y="777.8281"/><text fill="#000000" font-family="Helvetica" font-size="10" x="282.23" y="794.1104">ZETA Attestation Service</text><text fill="#000000" font-family="Helvetica" font-size="10" x="308.7046" y="805.751">(Admin rights)</text><rect fill="#E2E2F0" height="25.6406" rx="2.5" ry="2.5" style="stroke:#181818;stroke-width:0.5;" width="34.7666" x="423.9126" y="777.8281"/><text fill="#000000" font-family="Helvetica" font-size="10" x="430.9126" y="794.1104">TPM</text><rect fill="#E2E2F0" height="37.2813" rx="2.5" ry="2.5" style="stroke:#181818;stroke-width:0.5;" width="78.8535" x="478.6792" y="777.8281"/><text fill="#000000" font-family="Helvetica" font-size="10" x="485.6792" y="794.1104">Konnektor or</text><text fill="#000000" font-family="Helvetica" font-size="10" x="489.6855" y="805.751">TI-Gateway</text><rect fill="#E2E2F0" height="25.6406" rx="2.5" ry="2.5" style="stroke:#181818;stroke-width:0.5;" width="54.2295" x="567.5327" y="777.8281"/><text fill="#000000" font-family="Helvetica" font-size="10" x="574.5327" y="794.1104">SM(C)-B</text><rect fill="#E2E2F0" height="37.2813" rx="2.5" ry="2.5" style="stroke:#181818;stroke-width:0.5;" width="71.041" x="641.7622" y="777.8281"/><text fill="#000000" font-family="Helvetica" font-size="10" x="668.0933" y="794.1104">PEP</text><text fill="#000000" font-family="Helvetica" font-size="10" x="648.7622" y="805.751">HTTP Proxy</text><rect fill="#E2E2F0" height="37.2813" rx="2.5" ry="2.5" style="stroke:#181818;stroke-width:0.5;" width="116.9492" x="759.8208" y="777.8281"/><text fill="#000000" font-family="Helvetica" font-size="10" x="808.415" y="794.1104">PDP</text><text fill="#000000" font-family="Helvetica" font-size="10" x="766.8208" y="805.751">Authorization Server</text><rect fill="#E2E2F0" height="37.2813" rx="2.5" ry="2.5" style="stroke:#181818;stroke-width:0.5;" width="80.5723" x="886.77" y="777.8281"/><text fill="#000000" font-family="Helvetica" font-size="10" x="917.1758" y="794.1104">PDP</text><text fill="#000000" font-family="Helvetica" font-size="10" x="893.77" y="805.751">Policy Engine</text><rect fill="#E2E2F0" height="37.2813" rx="2.5" ry="2.5" style="stroke:#181818;stroke-width:0.5;" width="60.5283" x="1002.6099" y="777.8281"/><text fill="#000000" font-family="Helvetica" font-size="10" x="1009.6099" y="794.1104">Resource</text><text fill="#000000" font-family="Helvetica" font-size="10" x="1016.4775" y="805.751">Server</text><polygon fill="#181818" points="159.0586,176.4844,169.0586,180.4844,159.0586,184.4844,163.0586,180.4844" style="stroke:#181818;stroke-width:1;stroke-linejoin:miter;stroke-miterlimit:10;"/><line style="stroke:#181818;stroke-width:1;" x1="24.3965" x2="165.0586" y1="180.4844" y2="180.4844"/><text fill="#000000" font-family="Helvetica" font-size="10" x="31.3965" y="164.4854">(01)</text><text fill="#000000" font-family="Helvetica" font-size="10" x="55.9238" y="152.8447">User wants to</text><text fill="#000000" font-family="Helvetica" font-size="10" x="55.9238" y="164.4854">access resource</text><text fill="#000000" font-family="Helvetica" font-size="10" x="55.9238" y="176.126">on Resource Server</text><path d="M138.5835,192.4844 L198.5396,192.4844 L198.5396,196.125 L188.5396,206.125 L138.5835,206.125 L138.5835,192.4844" fill="#EEEEEE" style="stroke:#000000;stroke-width:1.5;"/><rect fill="none" height="66.5781" style="stroke:#000000;stroke-width:1.5;" width="754.1865" x="138.5835" y="192.4844"/><text fill="#000000" font-family="Helvetica" font-size="10" font-weight="700" x="153.5835" y="202.7666">alt</text><text fill="#000000" font-family="Helvetica" font-size="10" font-weight="700" x="213.5396" y="203.7666">[Discovery and Configuration not yet done]</text><rect fill="#FFFFFF" height="37.9375" style="stroke:#000000;stroke-width:1.5;" width="718.1865" x="156.5835" y="216.125"/><path d="M156.5835,216.125 L220.5835,216.125 L220.5835,221.125 L210.5835,231.125 L156.5835,231.125 L156.5835,216.125" fill="#EEEEEE" style="stroke:#000000;stroke-width:2;"/><text fill="#000000" font-family="Helvetica" font-size="12" font-weight="700" x="169.5835" y="229.2637">ref</text><text fill="#000000" font-family="Helvetica" font-size="12" font-weight="700" x="419.3896" y="246.2637">Discovery and Configuration</text><path d="M138.5835,277.0625 L198.5396,277.0625 L198.5396,280.7031 L188.5396,290.7031 L138.5835,290.7031 L138.5835,277.0625" fill="#EEEEEE" style="stroke:#000000;stroke-width:1.5;"/><rect fill="none" height="66.5781" style="stroke:#000000;stroke-width:1.5;" width="754.1865" x="138.5835" y="277.0625"/><text fill="#000000" font-family="Helvetica" font-size="10" font-weight="700" x="153.5835" y="287.3447">alt</text><text fill="#000000" font-family="Helvetica" font-size="10" font-weight="700" x="213.5396" y="288.3447">[Client has no client_id]</text><rect fill="#FFFFFF" height="37.9375" style="stroke:#000000;stroke-width:1.5;" width="718.1865" x="156.5835" y="300.7031"/><path d="M156.5835,300.7031 L220.5835,300.7031 L220.5835,305.7031 L210.5835,315.7031 L156.5835,315.7031 L156.5835,300.7031" fill="#EEEEEE" style="stroke:#000000;stroke-width:2;"/><text fill="#000000" font-family="Helvetica" font-size="12" font-weight="700" x="169.5835" y="313.8418">ref</text><text fill="#000000" font-family="Helvetica" font-size="12" font-weight="700" x="347.167" y="330.8418">Dynamic Client Registration with TPM Attestation</text><path d="M138.5835,361.6406 L198.5396,361.6406 L198.5396,365.2813 L188.5396,375.2813 L138.5835,375.2813 L138.5835,361.6406" fill="#EEEEEE" style="stroke:#000000;stroke-width:1.5;"/><rect fill="none" height="66.5781" style="stroke:#000000;stroke-width:1.5;" width="844.7588" x="138.5835" y="361.6406"/><text fill="#000000" font-family="Helvetica" font-size="10" font-weight="700" x="153.5835" y="371.9229">alt</text><text fill="#000000" font-family="Helvetica" font-size="10" font-weight="700" x="213.5396" y="372.9229">[Client has no valid Access Token]</text><rect fill="#FFFFFF" height="37.9375" style="stroke:#000000;stroke-width:1.5;" width="808.7588" x="156.5835" y="385.2813"/><path d="M156.5835,385.2813 L220.5835,385.2813 L220.5835,390.2813 L210.5835,400.2813 L156.5835,400.2813 L156.5835,385.2813" fill="#EEEEEE" style="stroke:#000000;stroke-width:2;"/><text fill="#000000" font-family="Helvetica" font-size="12" font-weight="700" x="169.5835" y="398.4199">ref</text><text fill="#000000" font-family="Helvetica" font-size="12" font-weight="700" x="399.8066" y="415.4199">Token Exchange with Client Assertion JWT Auth</text><line style="stroke:#181818;stroke-width:1;" x1="181.0586" x2="223.0586" y1="459.8594" y2="459.8594"/><line style="stroke:#181818;stroke-width:1;" x1="223.0586" x2="223.0586" y1="459.8594" y2="472.8594"/><line style="stroke:#181818;stroke-width:1;" x1="182.0586" x2="223.0586" y1="472.8594" y2="472.8594"/><polygon fill="#181818" points="192.0586,468.8594,182.0586,472.8594,192.0586,476.8594,188.0586,472.8594" style="stroke:#181818;stroke-width:1;stroke-linejoin:miter;stroke-miterlimit:10;"/><text fill="#000000" font-family="Helvetica" font-size="10" x="188.0586" y="455.501">(02)</text><text fill="#000000" font-family="Helvetica" font-size="10" x="212.5859" y="455.501">Create DPoP Proof for RS</text><polygon fill="#181818" points="660.2827,517.7813,670.2827,521.7813,660.2827,525.7813,664.2827,521.7813" style="stroke:#181818;stroke-width:1;stroke-linejoin:miter;stroke-miterlimit:10;"/><line style="stroke:#181818;stroke-width:1;" x1="181.0586" x2="666.2827" y1="521.7813" y2="521.7813"/><text fill="#000000" font-family="Helvetica" font-size="10" x="188.0586" y="505.7822">(03)</text><text fill="#000000" font-family="Helvetica" font-size="10" x="212.5859" y="494.1416">GET /resource</text><text fill="#000000" font-family="Helvetica" font-size="10" x="218.9434" y="505.7822">Authorization: DPoP ... (Accesss token)</text><text fill="#000000" font-family="Helvetica" font-size="10" x="218.9434" y="517.4229">DPoP: ... (DPoP token)</text><line style="stroke:#181818;stroke-width:1;" x1="682.2827" x2="724.2827" y1="559.0625" y2="559.0625"/><line style="stroke:#181818;stroke-width:1;" x1="724.2827" x2="724.2827" y1="559.0625" y2="572.0625"/><line style="stroke:#181818;stroke-width:1;" x1="683.2827" x2="724.2827" y1="572.0625" y2="572.0625"/><polygon fill="#181818" points="693.2827,568.0625,683.2827,572.0625,693.2827,576.0625,689.2827,572.0625" style="stroke:#181818;stroke-width:1;stroke-linejoin:miter;stroke-miterlimit:10;"/><text fill="#000000" font-family="Helvetica" font-size="10" x="689.2827" y="548.8838">(04)</text><text fill="#000000" font-family="Helvetica" font-size="10" x="713.8101" y="543.0635">verify Access token</text><text fill="#000000" font-family="Helvetica" font-size="10" x="713.8101" y="554.7041">and DPoP Proof</text><polygon fill="#181818" points="1015.874,616.9844,1025.874,620.9844,1015.874,624.9844,1019.874,620.9844" style="stroke:#181818;stroke-width:1;stroke-linejoin:miter;stroke-miterlimit:10;"/><line style="stroke:#181818;stroke-width:1;" x1="682.2827" x2="1021.874" y1="620.9844" y2="620.9844"/><text fill="#000000" font-family="Helvetica" font-size="10" x="689.2827" y="604.9854">(05)</text><text fill="#000000" font-family="Helvetica" font-size="10" x="713.8101" y="593.3447">forward GET /resource</text><text fill="#000000" font-family="Helvetica" font-size="10" x="713.8101" y="604.9854">with header and</text><text fill="#000000" font-family="Helvetica" font-size="10" x="713.8101" y="616.626">PEP header as JSON</text><line style="stroke:#181818;stroke-width:1;" x1="1037.874" x2="1079.874" y1="669.9063" y2="669.9063"/><line style="stroke:#181818;stroke-width:1;" x1="1079.874" x2="1079.874" y1="669.9063" y2="682.9063"/><line style="stroke:#181818;stroke-width:1;" x1="1038.874" x2="1079.874" y1="682.9063" y2="682.9063"/><polygon fill="#181818" points="1048.874,678.9063,1038.874,682.9063,1048.874,686.9063,1044.874,682.9063" style="stroke:#181818;stroke-width:1;stroke-linejoin:miter;stroke-miterlimit:10;"/><text fill="#000000" font-family="Helvetica" font-size="10" x="1044.874" y="653.9072">(06)</text><text fill="#000000" font-family="Helvetica" font-size="10" x="1069.4014" y="642.2666">provide</text><text fill="#000000" font-family="Helvetica" font-size="10" x="1069.4014" y="653.9072">resource</text><text fill="#000000" font-family="Helvetica" font-size="10" x="1069.4014" y="665.5479">access</text><polygon fill="#181818" points="693.2827,704.5469,683.2827,708.5469,693.2827,712.5469,689.2827,708.5469" style="stroke:#181818;stroke-width:1;stroke-linejoin:miter;stroke-miterlimit:10;"/><line style="stroke:#181818;stroke-width:1;stroke-dasharray:2,2;" x1="687.2827" x2="1026.874" y1="708.5469" y2="708.5469"/><text fill="#000000" font-family="Helvetica" font-size="10" x="699.2827" y="704.1885">(07)</text><text fill="#000000" font-family="Helvetica" font-size="10" x="723.8101" y="704.1885">200 OK, Resource</text><polygon fill="#181818" points="192.0586,730.1875,182.0586,734.1875,192.0586,738.1875,188.0586,734.1875" style="stroke:#181818;stroke-width:1;stroke-linejoin:miter;stroke-miterlimit:10;"/><line style="stroke:#181818;stroke-width:1;stroke-dasharray:2,2;" x1="186.0586" x2="671.2827" y1="734.1875" y2="734.1875"/><text fill="#000000" font-family="Helvetica" font-size="10" x="198.0586" y="729.8291">(08)</text><text fill="#000000" font-family="Helvetica" font-size="10" x="222.5859" y="729.8291">200 OK, Resource</text><polygon fill="#181818" points="35.3965,755.8281,25.3965,759.8281,35.3965,763.8281,31.3965,759.8281" style="stroke:#181818;stroke-width:1;stroke-linejoin:miter;stroke-miterlimit:10;"/><line style="stroke:#181818;stroke-width:1;stroke-dasharray:2,2;" x1="29.3965" x2="170.0586" y1="759.8281" y2="759.8281"/><text fill="#000000" font-family="Helvetica" font-size="10" x="41.3965" y="755.4697">(09)</text><text fill="#000000" font-family="Helvetica" font-size="10" x="65.9238" y="755.4697">Resource</text><?plantuml-src XLJRSk9647tNLtJOXxMznYP-v66hP52mTtrH8MrjxHPLgR7Ke0bYXioCmFBtv4_oO-cP4P9idEG9XZvz-lJfRbXbfAWsJwXWS38QdGu2lUPYonJRG8vBLfNcDobCmbyGVXsz7tnW6uGRB7TeUCPwcAd7t4iXzPPbcBVeYQmKHzN3bYXMfWZpFofjG4Y1lPZ6FoiK6SvnYSf-kMRPUgLa9VA9BAM2xmKt_OJaRKBNmrLm-V7_WAOk4PvacGSVBuFWbwrYgmq3W_85ZAem2CBCKDLlcZfuaiymk8jk1_1XLaXjl1G0ztki-ERllvIkjS4D8UxO3aLEMG0DucUKXZ0fEGf3yOI9lBvMSYyS0e1KagTyouHfKC2qprg89ir1YTOI1c-JVeP9cm6XCQWDCrmAwbpjU8OBSHBc6ov0yLLXzEdWY26Dxnq3VTfWLwWF-Yg5mBKrnKAxbrGBaTuEPypWdjM3Drd9_RN39_SdazFXzI0ua7jNG_74qQ0YOz9eSlFmUFSu-n7qZPjLJEN7llLhtCIkH1p52t6JfZ74IZxNnss6bIcyLV6KeFOf5N_fpB8wZhBYg4k9PScp6YAnuW9VM-KrfxTmTJ62AKsDTlp3bAbrWcoc4DyRzzohcQEcMx63QaIy6dThcDr567u-BCcdJp1s-mbxuj9Wv4AmB4EjGRM4rDY1lUam25XfIA3E9Brg85lfLCMIhohbdH3IG8q6SdkXG6HBiD2cxZdPVUwj7CFPsNyGdPrPxQvS8xcWReM4pBr-vxdhyuY_uwu5s_3ia3t75TUc4Rddfd1xsrluVosuOoNF8VJcf7BjXl5-tNEQjwtjK10zPmKJA_Jb6j9Ga-bEn9VlgSjg2WSDe9tH62OAwIvW6aktbN89IpgPUTA3qlQwKSwY52wxoG6ysi-nvxYuk80JtuYTE6ayjL0R6_kWW_b8GDIkm1YeJxwi3nQuC6qBJQnJrg1f9vqSqhcdotihonbH8AD_E3jnEeaeRjyQlYIF3m5HEA8nR9NSyPpIEWA_eWxZcnyEgThLQ0IFNy_RPNLYkbr_7zC6F_ixSAWs-Wy0?></g></svg>