<svg xmlns="http://www.w3.org/2000/svg" xmlns:xlink="http://www.w3.org/1999/xlink" contentStyleType="text/css" data-diagram-type="SEQUENCE" height="822px" preserveAspectRatio="none" style="width:792px;height:822px;background:#FFFFFF;" version="1.1" viewBox="0 0 792 822" width="792px" zoomAndPan="magnify"><?plantuml 1.2026.6?><defs/><g><rect fill="#F8F8FF" height="796.0156" style="stroke:#181818;stroke-width:0.5;" width="102.1934" x="44.793" y="11"/><text fill="#000000" font-family="Helvetica" font-size="10" font-weight="700" x="87.4277" y="20.2822">LEI</text><rect fill="#E6E6FA" height="779.375" style="stroke:#181818;stroke-width:0.5;" width="102.1934" x="44.793" y="27.6406"/><text fill="#000000" font-family="Helvetica" font-size="10" font-weight="700" x="56.793" y="36.9229">Prim&#228;rsystem</text><rect fill="#F4A460" height="762.7344" style="stroke:#181818;stroke-width:0.5;" width="102.1934" x="44.793" y="44.2813"/><text fill="#000000" font-family="Helvetica" font-size="10" font-weight="700" x="63.3896" y="53.5635">ZETA Client</text><rect fill="#C9FFC9" height="796.0156" style="stroke:#181818;stroke-width:0.5;" width="205.9902" x="491.3369" y="11"/><text fill="#000000" font-family="Helvetica" font-size="10" font-weight="700" x="532.4399" y="20.2822">Anbieter TI 2.0 Dienst</text><rect fill="#F4A460" height="779.375" style="stroke:#181818;stroke-width:0.5;" width="205.9902" x="491.3369" y="27.6406"/><text fill="#000000" font-family="Helvetica" font-size="10" font-weight="700" x="561.1875" y="36.9229">ZETA Guard</text><g><title>User</title><rect fill="#000000" fill-opacity="0.00000" height="597.8125" width="8" x="20.8965" y="131.5625"/><line style="stroke:#181818;stroke-width:0.5;stroke-dasharray:5,5;" x1="24.3965" x2="24.3965" y1="131.5625" y2="729.375"/></g><g><title>ZETA</title><rect fill="#000000" fill-opacity="0.00000" height="597.8125" width="8" x="92.3896" y="131.5625"/><line style="stroke:#181818;stroke-width:0.5;stroke-dasharray:5,5;" x1="95.8896" x2="95.8896" y1="131.5625" y2="729.375"/></g><g><title/><rect fill="#FFFFFF" height="518.8906" style="stroke:#181818;stroke-width:1;" width="10" x="90.8896" y="210.4844"/></g><g><title>PEP</title><rect fill="#000000" fill-opacity="0.00000" height="597.8125" width="8" x="527.3574" y="131.5625"/><line style="stroke:#181818;stroke-width:0.5;stroke-dasharray:5,5;" x1="530.8574" x2="530.8574" y1="131.5625" y2="729.375"/></g><g><title/><rect fill="#FFFFFF" height="25.6406" style="stroke:#181818;stroke-width:1;" width="10" x="525.8574" y="228.125"/></g><g><title/><rect fill="#FFFFFF" height="25.6406" style="stroke:#181818;stroke-width:1;" width="10" x="525.8574" y="307.0469"/></g><g><title/><rect fill="#FFFFFF" height="25.6406" style="stroke:#181818;stroke-width:1;" width="10" x="525.8574" y="581.8125"/></g><g><title>PDP</title><rect fill="#000000" fill-opacity="0.00000" height="597.8125" width="8" x="631.3525" y="131.5625"/><line style="stroke:#181818;stroke-width:0.5;stroke-dasharray:5,5;" x1="634.8525" x2="634.8525" y1="131.5625" y2="729.375"/></g><g><title/><rect fill="#FFFFFF" height="25.6406" style="stroke:#181818;stroke-width:1;" width="10" x="629.8525" y="633.0938"/></g><g><title>OpenID</title><rect fill="#000000" fill-opacity="0.00000" height="597.8125" width="8" x="743.7266" y="131.5625"/><line style="stroke:#181818;stroke-width:0.5;stroke-dasharray:5,5;" x1="747.2266" x2="747.2266" y1="131.5625" y2="729.375"/></g><g><title/><rect fill="#FFFFFF" height="76.9219" style="stroke:#181818;stroke-width:1;" width="10" x="742.2266" y="372.3281"/></g><text fill="#000000" font-family="Helvetica" font-size="10" x="10" y="129.2041">User</text><ellipse cx="24.3965" cy="68.4219" fill="#E2E2F0" rx="8" ry="8" style="stroke:#181818;stroke-width:0.5;"/><path d="M24.3965,76.4219 L24.3965,103.4219 M11.3965,84.4219 L37.3965,84.4219 M24.3965,103.4219 L11.3965,118.4219 M24.3965,103.4219 L37.3965,118.4219" fill="none" style="stroke:#181818;stroke-width:0.5;"/><rect fill="#E2E2F0" height="37.2813" rx="2.5" ry="2.5" style="stroke:#181818;stroke-width:0.5;" width="42.9502" x="74.4146" y="93.2813"/><text fill="#000000" font-family="Helvetica" font-size="10" x="82.8306" y="109.5635">ZETA</text><text fill="#000000" font-family="Helvetica" font-size="10" x="81.4146" y="121.2041">Client</text><rect fill="#E2E2F0" height="37.2813" rx="2.5" ry="2.5" style="stroke:#181818;stroke-width:0.5;" width="71.041" x="495.3369" y="93.2813"/><text fill="#000000" font-family="Helvetica" font-size="10" x="521.668" y="109.5635">PEP</text><text fill="#000000" font-family="Helvetica" font-size="10" x="502.3369" y="121.2041">HTTP Proxy</text><rect fill="#E2E2F0" height="37.2813" rx="2.5" ry="2.5" style="stroke:#181818;stroke-width:0.5;" width="116.9492" x="576.3779" y="93.2813"/><text fill="#000000" font-family="Helvetica" font-size="10" x="624.9722" y="109.5635">PDP</text><text fill="#000000" font-family="Helvetica" font-size="10" x="583.3779" y="121.2041">Authorization Server</text><rect fill="#E2E2F0" height="48.9219" rx="2.5" ry="2.5" style="stroke:#181818;stroke-width:0.5;" width="67.7988" x="713.3271" y="81.6406"/><text fill="#000000" font-family="Helvetica" font-size="10" x="728.5474" y="97.9229">OpenID</text><text fill="#000000" font-family="Helvetica" font-size="10" x="720.3271" y="109.5635">Federation</text><text fill="#000000" font-family="Helvetica" font-size="10" x="730.1514" y="121.2041">Master</text><text fill="#000000" font-family="Helvetica" font-size="10" x="10" y="798.6572">User</text><ellipse cx="24.3965" cy="737.875" fill="#E2E2F0" rx="8" ry="8" style="stroke:#181818;stroke-width:0.5;"/><path d="M24.3965,745.875 L24.3965,772.875 M11.3965,753.875 L37.3965,753.875 M24.3965,772.875 L11.3965,787.875 M24.3965,772.875 L37.3965,787.875" fill="none" style="stroke:#181818;stroke-width:0.5;"/><rect fill="#E2E2F0" height="37.2813" rx="2.5" ry="2.5" style="stroke:#181818;stroke-width:0.5;" width="42.9502" x="74.4146" y="729.375"/><text fill="#000000" font-family="Helvetica" font-size="10" x="82.8306" y="745.6572">ZETA</text><text fill="#000000" font-family="Helvetica" font-size="10" x="81.4146" y="757.2979">Client</text><rect fill="#E2E2F0" height="37.2813" rx="2.5" ry="2.5" style="stroke:#181818;stroke-width:0.5;" width="71.041" x="495.3369" y="729.375"/><text fill="#000000" font-family="Helvetica" font-size="10" x="521.668" y="745.6572">PEP</text><text fill="#000000" font-family="Helvetica" font-size="10" x="502.3369" y="757.2979">HTTP Proxy</text><rect fill="#E2E2F0" height="37.2813" rx="2.5" ry="2.5" style="stroke:#181818;stroke-width:0.5;" width="116.9492" x="576.3779" y="729.375"/><text fill="#000000" font-family="Helvetica" font-size="10" x="624.9722" y="745.6572">PDP</text><text fill="#000000" font-family="Helvetica" font-size="10" x="583.3779" y="757.2979">Authorization Server</text><rect fill="#E2E2F0" height="48.9219" rx="2.5" ry="2.5" style="stroke:#181818;stroke-width:0.5;" width="67.7988" x="713.3271" y="729.375"/><text fill="#000000" font-family="Helvetica" font-size="10" x="728.5474" y="745.6572">OpenID</text><text fill="#000000" font-family="Helvetica" font-size="10" x="720.3271" y="757.2979">Federation</text><text fill="#000000" font-family="Helvetica" font-size="10" x="730.1514" y="768.9385">Master</text><path d="M100.8896,144.5625 L100.8896,177.5625 L526.8896,177.5625 L526.8896,154.5625 L516.8896,144.5625 L100.8896,144.5625" fill="#FFFFE0" style="stroke:#181818;stroke-width:0.5;"/><path d="M516.8896,144.5625 L516.8896,154.5625 L526.8896,154.5625 L516.8896,144.5625" fill="#FFFFE0" style="stroke:#181818;stroke-width:0.5;"/><text fill="#000000" font-family="Helvetica" font-size="10" x="106.8896" y="158.8447">- ZETA Client is pre-configured with Federation Master issuer (Fed-Master-issuer)</text><text fill="#000000" font-family="Helvetica" font-size="10" x="106.8896" y="170.4854">- ZETA Client is pre-configured with Resource Server FQDN (RS-FQDN)</text><path d="M60.8896,186.8438 L120.8457,186.8438 L120.8457,190.4844 L110.8457,200.4844 L60.8896,200.4844 L60.8896,186.8438" fill="#EEEEEE" style="stroke:#000000;stroke-width:1.5;"/><rect fill="none" height="518.5313" style="stroke:#000000;stroke-width:1.5;" width="707.3369" x="60.8896" y="186.8438"/><text fill="#000000" font-family="Helvetica" font-size="10" font-weight="700" x="75.8896" y="197.126">alt</text><text fill="#000000" font-family="Helvetica" font-size="10" font-weight="700" x="135.8457" y="198.126">[Recommended Flow]</text><line style="stroke:#000000;stroke-width:1;stroke-dasharray:2,2;" x1="60.8896" x2="768.2266" y1="545.5313" y2="545.5313"/><text fill="#000000" font-family="Helvetica" font-size="10" font-weight="700" x="65.8896" y="556.8135">[Legacy Flow]</text><polygon fill="#181818" points="513.8574,224.125,523.8574,228.125,513.8574,232.125,517.8574,228.125" style="stroke:#181818;stroke-width:1;stroke-linejoin:miter;stroke-miterlimit:10;"/><line style="stroke:#181818;stroke-width:1;" x1="100.8896" x2="519.8574" y1="228.125" y2="228.125"/><text fill="#000000" font-family="Helvetica" font-size="10" x="107.8896" y="223.7666">(01)</text><text fill="#000000" font-family="Helvetica" font-size="10" x="132.417" y="223.7666">GET /.well-known/api-catalog Host: RS-FQDN</text><polygon fill="#181818" points="111.8896,249.7656,101.8896,253.7656,111.8896,257.7656,107.8896,253.7656" style="stroke:#181818;stroke-width:1;stroke-linejoin:miter;stroke-miterlimit:10;"/><line style="stroke:#181818;stroke-width:1;stroke-dasharray:2,2;" x1="105.8896" x2="524.8574" y1="253.7656" y2="253.7656"/><text fill="#000000" font-family="Helvetica" font-size="10" x="117.8896" y="249.4072">(02)</text><text fill="#000000" font-family="Helvetica" font-size="10" x="142.417" y="249.4072">Client: 200 OK; JSON body with Well-Known JSON Document  (RFC9727)</text><path d="M79.8896,265.7656 L149.2158,265.7656 L149.2158,269.4063 L139.2158,279.4063 L79.8896,279.4063 L79.8896,265.7656" fill="#EEEEEE" style="stroke:#000000;stroke-width:1.5;"/><rect fill="none" height="74.9219" style="stroke:#000000;stroke-width:1.5;" width="471.9678" x="79.8896" y="265.7656"/><text fill="#000000" font-family="Helvetica" font-size="10" font-weight="700" x="94.8896" y="276.0479">loop</text><text fill="#000000" font-family="Helvetica" font-size="10" font-weight="700" x="164.2158" y="277.0479">[for each resource-name in list of APIs]</text><polygon fill="#181818" points="513.8574,303.0469,523.8574,307.0469,513.8574,311.0469,517.8574,307.0469" style="stroke:#181818;stroke-width:1;stroke-linejoin:miter;stroke-miterlimit:10;"/><line style="stroke:#181818;stroke-width:1;" x1="100.8896" x2="519.8574" y1="307.0469" y2="307.0469"/><text fill="#000000" font-family="Helvetica" font-size="10" x="107.8896" y="302.6885">(03)</text><text fill="#000000" font-family="Helvetica" font-size="10" x="132.417" y="302.6885">GET /.well-known/oauth-protected-resource/resource-name   Host: RS-FQDN</text><polygon fill="#181818" points="111.8896,328.6875,101.8896,332.6875,111.8896,336.6875,107.8896,332.6875" style="stroke:#181818;stroke-width:1;stroke-linejoin:miter;stroke-miterlimit:10;"/><line style="stroke:#181818;stroke-width:1;stroke-dasharray:2,2;" x1="105.8896" x2="524.8574" y1="332.6875" y2="332.6875"/><text fill="#000000" font-family="Helvetica" font-size="10" x="117.8896" y="328.3291">(04)</text><text fill="#000000" font-family="Helvetica" font-size="10" x="142.417" y="328.3291">Client: 200 OK; JSON body with Well-Known JSON Document  (RFC9728)</text><polygon fill="#181818" points="730.2266,368.3281,740.2266,372.3281,730.2266,376.3281,734.2266,372.3281" style="stroke:#181818;stroke-width:1;stroke-linejoin:miter;stroke-miterlimit:10;"/><line style="stroke:#181818;stroke-width:1;" x1="100.8896" x2="736.2266" y1="372.3281" y2="372.3281"/><text fill="#000000" font-family="Helvetica" font-size="10" x="107.8896" y="367.9697">(05)</text><text fill="#000000" font-family="Helvetica" font-size="10" x="132.417" y="367.9697">GET /federation/fetch?iss=&lt;Fed-Master-issuer&gt;&amp;  sub=&lt;ZETA-Guard-AS-issuer&gt;</text><polygon fill="#181818" points="111.8896,393.9688,101.8896,397.9688,111.8896,401.9688,107.8896,397.9688" style="stroke:#181818;stroke-width:1;stroke-linejoin:miter;stroke-miterlimit:10;"/><line style="stroke:#181818;stroke-width:1;stroke-dasharray:2,2;" x1="105.8896" x2="741.2266" y1="397.9688" y2="397.9688"/><text fill="#000000" font-family="Helvetica" font-size="10" x="117.8896" y="393.6104">(06)</text><text fill="#000000" font-family="Helvetica" font-size="10" x="142.417" y="393.6104">200 OK; JSON body with ZETA Guard AS Metadata</text><polygon fill="#181818" points="730.2266,419.6094,740.2266,423.6094,730.2266,427.6094,734.2266,423.6094" style="stroke:#181818;stroke-width:1;stroke-linejoin:miter;stroke-miterlimit:10;"/><line style="stroke:#181818;stroke-width:1;" x1="100.8896" x2="736.2266" y1="423.6094" y2="423.6094"/><text fill="#000000" font-family="Helvetica" font-size="10" x="107.8896" y="419.251">(07)</text><text fill="#000000" font-family="Helvetica" font-size="10" x="132.417" y="419.251">GET /openid/v1/jwks</text><polygon fill="#181818" points="111.8896,445.25,101.8896,449.25,111.8896,453.25,107.8896,449.25" style="stroke:#181818;stroke-width:1;stroke-linejoin:miter;stroke-miterlimit:10;"/><line style="stroke:#181818;stroke-width:1;stroke-dasharray:2,2;" x1="105.8896" x2="741.2266" y1="449.25" y2="449.25"/><text fill="#000000" font-family="Helvetica" font-size="10" x="117.8896" y="444.8916">(08)</text><text fill="#000000" font-family="Helvetica" font-size="10" x="142.417" y="444.8916">200 OK; JSON body with JSON Web Key Set</text><line style="stroke:#181818;stroke-width:1;" x1="100.8896" x2="142.8896" y1="474.8906" y2="474.8906"/><line style="stroke:#181818;stroke-width:1;" x1="142.8896" x2="142.8896" y1="474.8906" y2="487.8906"/><line style="stroke:#181818;stroke-width:1;" x1="101.8896" x2="142.8896" y1="487.8906" y2="487.8906"/><polygon fill="#181818" points="111.8896,483.8906,101.8896,487.8906,111.8896,491.8906,107.8896,487.8906" style="stroke:#181818;stroke-width:1;stroke-linejoin:miter;stroke-miterlimit:10;"/><text fill="#000000" font-family="Helvetica" font-size="10" x="107.8896" y="470.5322">(09)</text><text fill="#000000" font-family="Helvetica" font-size="10" x="132.417" y="470.5322">Verify signature of fetched JSON Document</text><line style="stroke:#181818;stroke-width:1;" x1="100.8896" x2="142.8896" y1="513.5313" y2="513.5313"/><line style="stroke:#181818;stroke-width:1;" x1="142.8896" x2="142.8896" y1="513.5313" y2="526.5313"/><line style="stroke:#181818;stroke-width:1;" x1="101.8896" x2="142.8896" y1="526.5313" y2="526.5313"/><polygon fill="#181818" points="111.8896,522.5313,101.8896,526.5313,111.8896,530.5313,107.8896,526.5313" style="stroke:#181818;stroke-width:1;stroke-linejoin:miter;stroke-miterlimit:10;"/><text fill="#000000" font-family="Helvetica" font-size="10" x="107.8896" y="509.1729">(10)</text><text fill="#000000" font-family="Helvetica" font-size="10" x="132.417" y="509.1729">Update Configuration</text><polygon fill="#181818" points="513.8574,577.8125,523.8574,581.8125,513.8574,585.8125,517.8574,581.8125" style="stroke:#181818;stroke-width:1;stroke-linejoin:miter;stroke-miterlimit:10;"/><line style="stroke:#181818;stroke-width:1;" x1="100.8896" x2="519.8574" y1="581.8125" y2="581.8125"/><text fill="#000000" font-family="Helvetica" font-size="10" x="107.8896" y="577.4541">(11)</text><text fill="#000000" font-family="Helvetica" font-size="10" x="132.417" y="577.4541">GET /.well-known/oauth-protected-resource Host: RS-FQDN</text><polygon fill="#181818" points="111.8896,603.4531,101.8896,607.4531,111.8896,611.4531,107.8896,607.4531" style="stroke:#181818;stroke-width:1;stroke-linejoin:miter;stroke-miterlimit:10;"/><line style="stroke:#181818;stroke-width:1;stroke-dasharray:2,2;" x1="105.8896" x2="524.8574" y1="607.4531" y2="607.4531"/><text fill="#000000" font-family="Helvetica" font-size="10" x="117.8896" y="603.0947">(12)</text><text fill="#000000" font-family="Helvetica" font-size="10" x="142.417" y="603.0947">Client: 200 OK; JSON body with Well-Known JSON Document  (RFC9728)</text><polygon fill="#181818" points="617.8525,629.0938,627.8525,633.0938,617.8525,637.0938,621.8525,633.0938" style="stroke:#181818;stroke-width:1;stroke-linejoin:miter;stroke-miterlimit:10;"/><line style="stroke:#181818;stroke-width:1;" x1="100.8896" x2="623.8525" y1="633.0938" y2="633.0938"/><text fill="#000000" font-family="Helvetica" font-size="10" x="107.8896" y="628.7354">(13)</text><text fill="#000000" font-family="Helvetica" font-size="10" x="132.417" y="628.7354">GET /.well-known/oauth-authorization-server&#160;Host:  AuthS-FQDN</text><polygon fill="#181818" points="111.8896,654.7344,101.8896,658.7344,111.8896,662.7344,107.8896,658.7344" style="stroke:#181818;stroke-width:1;stroke-linejoin:miter;stroke-miterlimit:10;"/><line style="stroke:#181818;stroke-width:1;stroke-dasharray:2,2;" x1="105.8896" x2="628.8525" y1="658.7344" y2="658.7344"/><text fill="#000000" font-family="Helvetica" font-size="10" x="117.8896" y="654.376">(14)</text><text fill="#000000" font-family="Helvetica" font-size="10" x="142.417" y="654.376">200 OK; JSON body with Well-Known JSON Document   (RFC8414)</text><line style="stroke:#181818;stroke-width:1;" x1="100.8896" x2="142.8896" y1="684.375" y2="684.375"/><line style="stroke:#181818;stroke-width:1;" x1="142.8896" x2="142.8896" y1="684.375" y2="697.375"/><line style="stroke:#181818;stroke-width:1;" x1="101.8896" x2="142.8896" y1="697.375" y2="697.375"/><polygon fill="#181818" points="111.8896,693.375,101.8896,697.375,111.8896,701.375,107.8896,697.375" style="stroke:#181818;stroke-width:1;stroke-linejoin:miter;stroke-miterlimit:10;"/><text fill="#000000" font-family="Helvetica" font-size="10" x="107.8896" y="680.0166">(15)</text><text fill="#000000" font-family="Helvetica" font-size="10" x="132.417" y="680.0166">Update Configuration</text><?plantuml-src jLNRRjiu47tdLqnTe4qGi7Q20ctJ6rnVucpis8tT1YtoGajZcur4gYGLr_cQVUYNT7ziXw8SoqdQNUoYJwB5CuTdpXpA8dTQvUaK3THs6etT6hENKcN2Y1HYd8aySLsjt5XU8-mtxjyy5Ib23vChT38I5KmxO0PQQPk92ECRT4ldHgAfO1DKSxTenbzowq1fXPKzYrzpL16UuGoDNxmJqUNSw5p5BPre0-SBwQe5uzi5cnuEMFtnFm7TAa6OwYHcZ-kCiGUP4VDKW4Dz3Sxao5WpSdJi1qijJFKtgFKxnpLuUBJGrWKj0CNxaP7fNz-DNLc7AI7wuWfLJ5K09U9pPzA4LY9HETeV2nMltXczL0K2W6IIgJ8JofKe43PKNQYoh80IhITaczNw6HGsrLIYep5FZk7WIGFQL6hzaPDEgtSwx0-FFh6gfADScFYkeggUtgZGCkgCBbHlCXd1oEXlgzeTN3DtYt60jWdgVseZhuMJMj44p1MQ6jmdl4hI7HGCmmpLSVj2TP5SB1Wkr42GkwR6cD8EmSZvme6UhUrwsFSlFc6Iw2KTmg7YE4WBcK4UQJMJyznW34lf5h1XXq1EG9lJOuTsU7Z5mwlTVyjvXfP27s7PCNJVjqzXvspC_MAtQDhhPqmaZi2HJbCVbHYwGNZ9lhUtMVCtD8EzlKCuwaoW_cH9FV9BHQEgYqpoI3YHw3dqA9I7K1v4nJGsJfM1W_F3SdK81uq634zUmX_ZuIaD85u5uUUUziJJXfssZlBK7q_gkwqNpmwUUGyIhJEOqQL04It0bCrovM-xL918MmobEJgsHK2gBL1JS4yJMb1IU6R8bSYHxslI-ZOxtEdmD_JuV3S4b6svtntSk3-xYGmjNRHuI_5u_UfENDuy0h3vzFKhdnXUN3BU7AytYPnolb4EFnMykQFG7CC0dOXftBV4bT8qtHaPrw_swr-Mb_Rs6TwTdnnI_3p7APpWYcBhjkZNZdv48sShi7AkXAEu-oaN3b1qjxoyj_f3Hhhz_q6uB8M1Z65Y4Veu5z6gY3ymzhyIy_ll0ELZIsBuvlrAfQX-1hajFWe__Wn2G_bQRE2gf89p-0zA2wdFd-u_lINrbwEWoFyD?></g></svg>